<?xml version="1.0" encoding="utf-8" standalone="no"?>
<!DOCTYPE svg PUBLIC "-//W3C//DTD SVG 1.1//EN"
  "http://www.w3.org/Graphics/SVG/1.1/DTD/svg11.dtd">
<!-- Created with matplotlib (http://matplotlib.org/) -->
<svg height="252.018125pt" version="1.1" viewBox="0 0 366.0625 252.018125" width="366.0625pt" xmlns="http://www.w3.org/2000/svg" xmlns:xlink="http://www.w3.org/1999/xlink">
 <defs>
  <style type="text/css">
*{stroke-linecap:butt;stroke-linejoin:round;}
  </style>
 </defs>
 <g id="figure_1">
  <g id="patch_1">
   <path d="M 0 252.018125 
L 366.0625 252.018125 
L 366.0625 0 
L 0 0 
z
" style="fill:none;"/>
  </g>
  <g id="axes_1">
   <g id="patch_2">
    <path d="M 20.5625 228.14 
L 355.3625 228.14 
L 355.3625 10.7 
L 20.5625 10.7 
z
" style="fill:#ffffff;"/>
   </g>
   <g id="matplotlib.axis_1">
    <g id="xtick_1">
     <g id="line2d_1">
      <defs>
       <path d="M 0 0 
L 0 3.5 
" id="mbc65cc9c49" style="stroke:#000000;stroke-width:0.8;"/>
      </defs>
      <g>
       <use style="stroke:#000000;stroke-width:0.8;" x="32.833315" xlink:href="#mbc65cc9c49" y="228.14"/>
      </g>
     </g>
     <g id="text_1">
      <!-- 0 -->
      <defs>
       <path d="M 31.78125 66.40625 
Q 24.171875 66.40625 20.328125 58.90625 
Q 16.5 51.421875 16.5 36.375 
Q 16.5 21.390625 20.328125 13.890625 
Q 24.171875 6.390625 31.78125 6.390625 
Q 39.453125 6.390625 43.28125 13.890625 
Q 47.125 21.390625 47.125 36.375 
Q 47.125 51.421875 43.28125 58.90625 
Q 39.453125 66.40625 31.78125 66.40625 
z
M 31.78125 74.21875 
Q 44.046875 74.21875 50.515625 64.515625 
Q 56.984375 54.828125 56.984375 36.375 
Q 56.984375 17.96875 50.515625 8.265625 
Q 44.046875 -1.421875 31.78125 -1.421875 
Q 19.53125 -1.421875 13.0625 8.265625 
Q 6.59375 17.96875 6.59375 36.375 
Q 6.59375 54.828125 13.0625 64.515625 
Q 19.53125 74.21875 31.78125 74.21875 
z
" id="DejaVuSans-30"/>
      </defs>
      <g transform="translate(29.652065 242.738437)scale(0.1 -0.1)">
       <use xlink:href="#DejaVuSans-30"/>
      </g>
     </g>
    </g>
    <g id="xtick_2">
     <g id="line2d_2">
      <g>
       <use style="stroke:#000000;stroke-width:0.8;" x="95.661913" xlink:href="#mbc65cc9c49" y="228.14"/>
      </g>
     </g>
     <g id="text_2">
      <!-- 1 -->
      <defs>
       <path d="M 12.40625 8.296875 
L 28.515625 8.296875 
L 28.515625 63.921875 
L 10.984375 60.40625 
L 10.984375 69.390625 
L 28.421875 72.90625 
L 38.28125 72.90625 
L 38.28125 8.296875 
L 54.390625 8.296875 
L 54.390625 0 
L 12.40625 0 
z
" id="DejaVuSans-31"/>
      </defs>
      <g transform="translate(92.480663 242.738437)scale(0.1 -0.1)">
       <use xlink:href="#DejaVuSans-31"/>
      </g>
     </g>
    </g>
    <g id="xtick_3">
     <g id="line2d_3">
      <g>
       <use style="stroke:#000000;stroke-width:0.8;" x="158.490511" xlink:href="#mbc65cc9c49" y="228.14"/>
      </g>
     </g>
     <g id="text_3">
      <!-- 2 -->
      <defs>
       <path d="M 19.1875 8.296875 
L 53.609375 8.296875 
L 53.609375 0 
L 7.328125 0 
L 7.328125 8.296875 
Q 12.9375 14.109375 22.625 23.890625 
Q 32.328125 33.6875 34.8125 36.53125 
Q 39.546875 41.84375 41.421875 45.53125 
Q 43.3125 49.21875 43.3125 52.78125 
Q 43.3125 58.59375 39.234375 62.25 
Q 35.15625 65.921875 28.609375 65.921875 
Q 23.96875 65.921875 18.8125 64.3125 
Q 13.671875 62.703125 7.8125 59.421875 
L 7.8125 69.390625 
Q 13.765625 71.78125 18.9375 73 
Q 24.125 74.21875 28.421875 74.21875 
Q 39.75 74.21875 46.484375 68.546875 
Q 53.21875 62.890625 53.21875 53.421875 
Q 53.21875 48.921875 51.53125 44.890625 
Q 49.859375 40.875 45.40625 35.40625 
Q 44.1875 33.984375 37.640625 27.21875 
Q 31.109375 20.453125 19.1875 8.296875 
z
" id="DejaVuSans-32"/>
      </defs>
      <g transform="translate(155.309261 242.738437)scale(0.1 -0.1)">
       <use xlink:href="#DejaVuSans-32"/>
      </g>
     </g>
    </g>
    <g id="xtick_4">
     <g id="line2d_4">
      <g>
       <use style="stroke:#000000;stroke-width:0.8;" x="221.319109" xlink:href="#mbc65cc9c49" y="228.14"/>
      </g>
     </g>
     <g id="text_4">
      <!-- 3 -->
      <defs>
       <path d="M 40.578125 39.3125 
Q 47.65625 37.796875 51.625 33 
Q 55.609375 28.21875 55.609375 21.1875 
Q 55.609375 10.40625 48.1875 4.484375 
Q 40.765625 -1.421875 27.09375 -1.421875 
Q 22.515625 -1.421875 17.65625 -0.515625 
Q 12.796875 0.390625 7.625 2.203125 
L 7.625 11.71875 
Q 11.71875 9.328125 16.59375 8.109375 
Q 21.484375 6.890625 26.8125 6.890625 
Q 36.078125 6.890625 40.9375 10.546875 
Q 45.796875 14.203125 45.796875 21.1875 
Q 45.796875 27.640625 41.28125 31.265625 
Q 36.765625 34.90625 28.71875 34.90625 
L 20.21875 34.90625 
L 20.21875 43.015625 
L 29.109375 43.015625 
Q 36.375 43.015625 40.234375 45.921875 
Q 44.09375 48.828125 44.09375 54.296875 
Q 44.09375 59.90625 40.109375 62.90625 
Q 36.140625 65.921875 28.71875 65.921875 
Q 24.65625 65.921875 20.015625 65.03125 
Q 15.375 64.15625 9.8125 62.3125 
L 9.8125 71.09375 
Q 15.4375 72.65625 20.34375 73.4375 
Q 25.25 74.21875 29.59375 74.21875 
Q 40.828125 74.21875 47.359375 69.109375 
Q 53.90625 64.015625 53.90625 55.328125 
Q 53.90625 49.265625 50.4375 45.09375 
Q 46.96875 40.921875 40.578125 39.3125 
z
" id="DejaVuSans-33"/>
      </defs>
      <g transform="translate(218.137859 242.738437)scale(0.1 -0.1)">
       <use xlink:href="#DejaVuSans-33"/>
      </g>
     </g>
    </g>
    <g id="xtick_5">
     <g id="line2d_5">
      <g>
       <use style="stroke:#000000;stroke-width:0.8;" x="284.147706" xlink:href="#mbc65cc9c49" y="228.14"/>
      </g>
     </g>
     <g id="text_5">
      <!-- 4 -->
      <defs>
       <path d="M 37.796875 64.3125 
L 12.890625 25.390625 
L 37.796875 25.390625 
z
M 35.203125 72.90625 
L 47.609375 72.90625 
L 47.609375 25.390625 
L 58.015625 25.390625 
L 58.015625 17.1875 
L 47.609375 17.1875 
L 47.609375 0 
L 37.796875 0 
L 37.796875 17.1875 
L 4.890625 17.1875 
L 4.890625 26.703125 
z
" id="DejaVuSans-34"/>
      </defs>
      <g transform="translate(280.966456 242.738437)scale(0.1 -0.1)">
       <use xlink:href="#DejaVuSans-34"/>
      </g>
     </g>
    </g>
    <g id="xtick_6">
     <g id="line2d_6">
      <g>
       <use style="stroke:#000000;stroke-width:0.8;" x="346.976304" xlink:href="#mbc65cc9c49" y="228.14"/>
      </g>
     </g>
     <g id="text_6">
      <!-- 5 -->
      <defs>
       <path d="M 10.796875 72.90625 
L 49.515625 72.90625 
L 49.515625 64.59375 
L 19.828125 64.59375 
L 19.828125 46.734375 
Q 21.96875 47.46875 24.109375 47.828125 
Q 26.265625 48.1875 28.421875 48.1875 
Q 40.625 48.1875 47.75 41.5 
Q 54.890625 34.8125 54.890625 23.390625 
Q 54.890625 11.625 47.5625 5.09375 
Q 40.234375 -1.421875 26.90625 -1.421875 
Q 22.3125 -1.421875 17.546875 -0.640625 
Q 12.796875 0.140625 7.71875 1.703125 
L 7.71875 11.625 
Q 12.109375 9.234375 16.796875 8.0625 
Q 21.484375 6.890625 26.703125 6.890625 
Q 35.15625 6.890625 40.078125 11.328125 
Q 45.015625 15.765625 45.015625 23.390625 
Q 45.015625 31 40.078125 35.4375 
Q 35.15625 39.890625 26.703125 39.890625 
Q 22.75 39.890625 18.8125 39.015625 
Q 14.890625 38.140625 10.796875 36.28125 
z
" id="DejaVuSans-35"/>
      </defs>
      <g transform="translate(343.795054 242.738437)scale(0.1 -0.1)">
       <use xlink:href="#DejaVuSans-35"/>
      </g>
     </g>
    </g>
   </g>
   <g id="matplotlib.axis_2">
    <g id="ytick_1">
     <g id="line2d_7">
      <defs>
       <path d="M 0 0 
L -3.5 0 
" id="m543c15c3cb" style="stroke:#000000;stroke-width:0.8;"/>
      </defs>
      <g>
       <use style="stroke:#000000;stroke-width:0.8;" x="20.5625" xlink:href="#m543c15c3cb" y="206.8502"/>
      </g>
     </g>
     <g id="text_7">
      <!-- 0 -->
      <g transform="translate(7.2 210.649419)scale(0.1 -0.1)">
       <use xlink:href="#DejaVuSans-30"/>
      </g>
     </g>
    </g>
    <g id="ytick_2">
     <g id="line2d_8">
      <g>
       <use style="stroke:#000000;stroke-width:0.8;" x="20.5625" xlink:href="#m543c15c3cb" y="164.323356"/>
      </g>
     </g>
     <g id="text_8">
      <!-- 2 -->
      <g transform="translate(7.2 168.122574)scale(0.1 -0.1)">
       <use xlink:href="#DejaVuSans-32"/>
      </g>
     </g>
    </g>
    <g id="ytick_3">
     <g id="line2d_9">
      <g>
       <use style="stroke:#000000;stroke-width:0.8;" x="20.5625" xlink:href="#m543c15c3cb" y="121.796512"/>
      </g>
     </g>
     <g id="text_9">
      <!-- 4 -->
      <g transform="translate(7.2 125.59573)scale(0.1 -0.1)">
       <use xlink:href="#DejaVuSans-34"/>
      </g>
     </g>
    </g>
    <g id="ytick_4">
     <g id="line2d_10">
      <g>
       <use style="stroke:#000000;stroke-width:0.8;" x="20.5625" xlink:href="#m543c15c3cb" y="79.269667"/>
      </g>
     </g>
     <g id="text_10">
      <!-- 6 -->
      <defs>
       <path d="M 33.015625 40.375 
Q 26.375 40.375 22.484375 35.828125 
Q 18.609375 31.296875 18.609375 23.390625 
Q 18.609375 15.53125 22.484375 10.953125 
Q 26.375 6.390625 33.015625 6.390625 
Q 39.65625 6.390625 43.53125 10.953125 
Q 47.40625 15.53125 47.40625 23.390625 
Q 47.40625 31.296875 43.53125 35.828125 
Q 39.65625 40.375 33.015625 40.375 
z
M 52.59375 71.296875 
L 52.59375 62.3125 
Q 48.875 64.0625 45.09375 64.984375 
Q 41.3125 65.921875 37.59375 65.921875 
Q 27.828125 65.921875 22.671875 59.328125 
Q 17.53125 52.734375 16.796875 39.40625 
Q 19.671875 43.65625 24.015625 45.921875 
Q 28.375 48.1875 33.59375 48.1875 
Q 44.578125 48.1875 50.953125 41.515625 
Q 57.328125 34.859375 57.328125 23.390625 
Q 57.328125 12.15625 50.6875 5.359375 
Q 44.046875 -1.421875 33.015625 -1.421875 
Q 20.359375 -1.421875 13.671875 8.265625 
Q 6.984375 17.96875 6.984375 36.375 
Q 6.984375 53.65625 15.1875 63.9375 
Q 23.390625 74.21875 37.203125 74.21875 
Q 40.921875 74.21875 44.703125 73.484375 
Q 48.484375 72.75 52.59375 71.296875 
z
" id="DejaVuSans-36"/>
      </defs>
      <g transform="translate(7.2 83.068886)scale(0.1 -0.1)">
       <use xlink:href="#DejaVuSans-36"/>
      </g>
     </g>
    </g>
    <g id="ytick_5">
     <g id="line2d_11">
      <g>
       <use style="stroke:#000000;stroke-width:0.8;" x="20.5625" xlink:href="#m543c15c3cb" y="36.742823"/>
      </g>
     </g>
     <g id="text_11">
      <!-- 8 -->
      <defs>
       <path d="M 31.78125 34.625 
Q 24.75 34.625 20.71875 30.859375 
Q 16.703125 27.09375 16.703125 20.515625 
Q 16.703125 13.921875 20.71875 10.15625 
Q 24.75 6.390625 31.78125 6.390625 
Q 38.8125 6.390625 42.859375 10.171875 
Q 46.921875 13.96875 46.921875 20.515625 
Q 46.921875 27.09375 42.890625 30.859375 
Q 38.875 34.625 31.78125 34.625 
z
M 21.921875 38.8125 
Q 15.578125 40.375 12.03125 44.71875 
Q 8.5 49.078125 8.5 55.328125 
Q 8.5 64.0625 14.71875 69.140625 
Q 20.953125 74.21875 31.78125 74.21875 
Q 42.671875 74.21875 48.875 69.140625 
Q 55.078125 64.0625 55.078125 55.328125 
Q 55.078125 49.078125 51.53125 44.71875 
Q 48 40.375 41.703125 38.8125 
Q 48.828125 37.15625 52.796875 32.3125 
Q 56.78125 27.484375 56.78125 20.515625 
Q 56.78125 9.90625 50.3125 4.234375 
Q 43.84375 -1.421875 31.78125 -1.421875 
Q 19.734375 -1.421875 13.25 4.234375 
Q 6.78125 9.90625 6.78125 20.515625 
Q 6.78125 27.484375 10.78125 32.3125 
Q 14.796875 37.15625 21.921875 38.8125 
z
M 18.3125 54.390625 
Q 18.3125 48.734375 21.84375 45.5625 
Q 25.390625 42.390625 31.78125 42.390625 
Q 38.140625 42.390625 41.71875 45.5625 
Q 45.3125 48.734375 45.3125 54.390625 
Q 45.3125 60.0625 41.71875 63.234375 
Q 38.140625 66.40625 31.78125 66.40625 
Q 25.390625 66.40625 21.84375 63.234375 
Q 18.3125 60.0625 18.3125 54.390625 
z
" id="DejaVuSans-38"/>
      </defs>
      <g transform="translate(7.2 40.542042)scale(0.1 -0.1)">
       <use xlink:href="#DejaVuSans-38"/>
      </g>
     </g>
    </g>
   </g>
   <g id="line2d_12">
    <defs>
     <path d="M 0 3 
C 0.795609 3 1.55874 2.683901 2.12132 2.12132 
C 2.683901 1.55874 3 0.795609 3 0 
C 3 -0.795609 2.683901 -1.55874 2.12132 -2.12132 
C 1.55874 -2.683901 0.795609 -3 0 -3 
C -0.795609 -3 -1.55874 -2.683901 -2.12132 -2.12132 
C -2.683901 -1.55874 -3 -0.795609 -3 0 
C -3 0.795609 -2.683901 1.55874 -2.12132 2.12132 
C -1.55874 2.683901 -0.795609 3 0 3 
z
" id="mcd79ad014b" style="stroke:#1f77b4;"/>
    </defs>
    <g clip-path="url(#pd5a965648b)">
     <use style="fill:#1f77b4;stroke:#1f77b4;" x="35.780682" xlink:href="#mcd79ad014b" y="22.641876"/>
     <use style="fill:#1f77b4;stroke:#1f77b4;" x="47.589966" xlink:href="#mcd79ad014b" y="46.372412"/>
     <use style="fill:#1f77b4;stroke:#1f77b4;" x="56.419795" xlink:href="#mcd79ad014b" y="92.455109"/>
     <use style="fill:#1f77b4;stroke:#1f77b4;" x="75.299821" xlink:href="#mcd79ad014b" y="97.366532"/>
     <use style="fill:#1f77b4;stroke:#1f77b4;" x="106.584211" xlink:href="#mcd79ad014b" y="121.911411"/>
     <use style="fill:#1f77b4;stroke:#1f77b4;" x="114.414239" xlink:href="#mcd79ad014b" y="140.400133"/>
     <use style="fill:#1f77b4;stroke:#1f77b4;" x="132.785336" xlink:href="#mcd79ad014b" y="182.144451"/>
     <use style="fill:#1f77b4;stroke:#1f77b4;" x="142.009418" xlink:href="#mcd79ad014b" y="189.391102"/>
     <use style="fill:#1f77b4;stroke:#1f77b4;" x="159.689171" xlink:href="#mcd79ad014b" y="193.768292"/>
     <use style="fill:#1f77b4;stroke:#1f77b4;" x="168.415176" xlink:href="#mcd79ad014b" y="210.678767"/>
     <use style="fill:#1f77b4;stroke:#1f77b4;" x="195.062159" xlink:href="#mcd79ad014b" y="218.256364"/>
     <use style="fill:#1f77b4;stroke:#1f77b4;" x="221.439565" xlink:href="#mcd79ad014b" y="197.632019"/>
     <use style="fill:#1f77b4;stroke:#1f77b4;" x="235.772843" xlink:href="#mcd79ad014b" y="194.882813"/>
     <use style="fill:#1f77b4;stroke:#1f77b4;" x="243.332711" xlink:href="#mcd79ad014b" y="204.239895"/>
     <use style="fill:#1f77b4;stroke:#1f77b4;" x="257.775593" xlink:href="#mcd79ad014b" y="179.421968"/>
     <use style="fill:#1f77b4;stroke:#1f77b4;" x="282.548996" xlink:href="#mcd79ad014b" y="203.388239"/>
     <use style="fill:#1f77b4;stroke:#1f77b4;" x="294.704738" xlink:href="#mcd79ad014b" y="171.895595"/>
     <use style="fill:#1f77b4;stroke:#1f77b4;" x="317.471131" xlink:href="#mcd79ad014b" y="167.843619"/>
     <use style="fill:#1f77b4;stroke:#1f77b4;" x="332.17799" xlink:href="#mcd79ad014b" y="161.598052"/>
     <use style="fill:#1f77b4;stroke:#1f77b4;" x="340.144318" xlink:href="#mcd79ad014b" y="132.097723"/>
    </g>
   </g>
   <g id="line2d_13">
    <path clip-path="url(#pd5a965648b)" d="M 35.780682 104.771986 
L 340.144318 208.060955 
L 340.144318 208.060955 
" style="fill:none;stroke:#ff7f0e;stroke-linecap:square;stroke-width:1.5;"/>
   </g>
   <g id="line2d_14">
    <path clip-path="url(#pd5a965648b)" d="M 35.780682 32.496548 
L 42.490101 45.024547 
L 49.199519 57.09197 
L 55.908938 68.698818 
L 62.618357 79.845091 
L 69.327776 90.530789 
L 75.427248 99.845388 
L 81.526719 108.779345 
L 87.626191 117.332662 
L 93.725663 125.505339 
L 99.825134 133.297374 
L 105.924606 140.70877 
L 112.024078 147.739524 
L 117.513602 153.741755 
L 123.003127 159.435668 
L 128.492651 164.821261 
L 133.982176 169.898536 
L 139.4717 174.667491 
L 144.961225 179.128128 
L 150.450749 183.280446 
L 155.940274 187.124445 
L 160.819851 190.282497 
L 165.699428 193.19694 
L 170.579006 195.867772 
L 175.458583 198.294994 
L 180.33816 200.478607 
L 185.217738 202.418609 
L 190.097315 204.115001 
L 194.976892 205.567784 
L 199.85647 206.776956 
L 204.736047 207.742518 
L 209.615624 208.464471 
L 214.495202 208.942813 
L 219.374779 209.177545 
L 224.254356 209.168667 
L 229.133934 208.91618 
L 234.013511 208.420082 
L 238.893088 207.680374 
L 243.772666 206.697057 
L 248.652243 205.470129 
L 253.53182 203.999591 
L 258.411398 202.285444 
L 263.290975 200.327686 
L 268.170552 198.126318 
L 273.05013 195.681341 
L 277.929707 192.992753 
L 282.809284 190.060555 
L 287.688862 186.884747 
L 292.568439 183.46533 
L 298.057964 179.327295 
L 303.547488 174.880941 
L 309.037013 170.126268 
L 314.526537 165.063276 
L 320.016062 159.691966 
L 325.505586 154.012336 
L 330.995111 148.024388 
L 336.484635 141.72812 
L 340.144318 137.35932 
L 340.144318 137.35932 
" style="fill:none;stroke:#2ca02c;stroke-linecap:square;stroke-width:1.5;"/>
   </g>
   <g id="line2d_15">
    <path clip-path="url(#pd5a965648b)" d="M 35.780682 20.583636 
L 38.22047 27.883343 
L 43.709995 45.435513 
L 47.369678 56.68844 
L 50.419414 65.258561 
L 52.859202 71.445935 
L 55.298991 76.987844 
L 57.73878 81.874369 
L 59.568621 85.118942 
L 61.398463 88.019985 
L 63.228304 90.598568 
L 65.058146 92.880035 
L 67.497935 95.509534 
L 69.937723 97.735524 
L 72.377512 99.635467 
L 75.427248 101.671177 
L 79.086931 103.81258 
L 86.406297 107.993245 
L 89.456033 109.985655 
L 92.505768 112.250813 
L 95.555504 114.847491 
L 97.995293 117.190393 
L 101.045029 120.469353 
L 104.094765 124.142142 
L 107.1445 128.198118 
L 110.194236 132.612045 
L 113.853919 138.327291 
L 118.123549 145.463187 
L 123.613074 155.126651 
L 135.20207 175.681459 
L 139.4717 182.747785 
L 143.131383 188.391784 
L 146.181119 192.740407 
L 149.230855 196.724106 
L 152.280591 200.311384 
L 154.720379 202.879882 
L 157.160168 205.171597 
L 159.599957 207.18191 
L 162.039745 208.909556 
L 164.479534 210.356512 
L 166.919323 211.527851 
L 169.359111 212.431548 
L 171.7989 213.078263 
L 174.238689 213.48109 
L 176.678477 213.655283 
L 179.118266 213.61796 
L 181.558055 213.387796 
L 184.607791 212.859321 
L 187.657526 212.101475 
L 191.317209 210.94841 
L 195.58684 209.359055 
L 202.296258 206.585386 
L 210.835519 203.092189 
L 215.715096 201.325753 
L 219.984726 199.988241 
L 224.254356 198.867515 
L 228.523987 197.963596 
L 233.403564 197.170124 
L 238.893088 196.513283 
L 256.581556 194.633819 
L 260.851186 193.879251 
L 265.120817 192.899059 
L 269.390447 191.666105 
L 273.660077 190.174216 
L 277.929707 188.440281 
L 282.809284 186.214785 
L 290.12865 182.594805 
L 298.057964 178.716199 
L 302.937541 176.552344 
L 307.817118 174.614487 
L 318.18622 170.636584 
L 320.626009 169.427217 
L 323.065798 167.933444 
L 324.895639 166.548304 
L 326.725481 164.86272 
L 328.555322 162.798857 
L 330.385164 160.26694 
L 332.215005 157.164128 
L 333.434899 154.721223 
L 334.654794 151.934398 
L 335.874688 148.761955 
L 337.094582 145.158787 
L 338.314477 141.076196 
L 339.534371 136.461704 
L 340.144318 133.937516 
L 340.144318 133.937516 
" style="fill:none;stroke:#d62728;stroke-linecap:square;stroke-width:1.5;"/>
   </g>
   <g id="patch_3">
    <path d="M 20.5625 228.14 
L 20.5625 10.7 
" style="fill:none;stroke:#000000;stroke-linecap:square;stroke-linejoin:miter;stroke-width:0.8;"/>
   </g>
   <g id="patch_4">
    <path d="M 355.3625 228.14 
L 355.3625 10.7 
" style="fill:none;stroke:#000000;stroke-linecap:square;stroke-linejoin:miter;stroke-width:0.8;"/>
   </g>
   <g id="patch_5">
    <path d="M 20.5625 228.14 
L 355.3625 228.14 
" style="fill:none;stroke:#000000;stroke-linecap:square;stroke-linejoin:miter;stroke-width:0.8;"/>
   </g>
   <g id="patch_6">
    <path d="M 20.5625 10.7 
L 355.3625 10.7 
" style="fill:none;stroke:#000000;stroke-linecap:square;stroke-linejoin:miter;stroke-width:0.8;"/>
   </g>
   <g id="legend_1">
    <g id="patch_7">
     <path d="M 300.7625 62.795312 
L 348.3625 62.795312 
Q 350.3625 62.795312 350.3625 60.795312 
L 350.3625 17.7 
Q 350.3625 15.7 348.3625 15.7 
L 300.7625 15.7 
Q 298.7625 15.7 298.7625 17.7 
L 298.7625 60.795312 
Q 298.7625 62.795312 300.7625 62.795312 
z
" style="fill:#ffffff;opacity:0.8;stroke:#cccccc;stroke-linejoin:miter;"/>
    </g>
    <g id="line2d_16">
     <path d="M 302.7625 23.798437 
L 322.7625 23.798437 
" style="fill:none;stroke:#ff7f0e;stroke-linecap:square;stroke-width:1.5;"/>
    </g>
    <g id="line2d_17"/>
    <g id="text_12">
     <!-- $p_{1}$ -->
     <defs>
      <path d="M 49.609375 33.6875 
Q 49.609375 40.875 46.484375 44.671875 
Q 43.359375 48.484375 37.5 48.484375 
Q 33.5 48.484375 29.859375 46.4375 
Q 26.21875 44.390625 23.390625 40.484375 
Q 20.609375 36.625 18.9375 31.15625 
Q 17.28125 25.6875 17.28125 20.3125 
Q 17.28125 13.484375 20.40625 9.796875 
Q 23.53125 6.109375 29.296875 6.109375 
Q 33.546875 6.109375 37.1875 8.109375 
Q 40.828125 10.109375 43.40625 13.921875 
Q 46.1875 17.921875 47.890625 23.34375 
Q 49.609375 28.765625 49.609375 33.6875 
z
M 21.78125 46.390625 
Q 25.390625 51.125 30.296875 53.5625 
Q 35.203125 56 41.21875 56 
Q 49.609375 56 54.25 50.5 
Q 58.890625 45.015625 58.890625 35.109375 
Q 58.890625 27 56 19.65625 
Q 53.125 12.3125 47.703125 6.5 
Q 44.09375 2.640625 39.546875 0.609375 
Q 35.015625 -1.421875 29.984375 -1.421875 
Q 24.171875 -1.421875 20.21875 1 
Q 16.265625 3.421875 14.3125 8.203125 
L 8.6875 -20.796875 
L -0.296875 -20.796875 
L 14.40625 54.6875 
L 23.390625 54.6875 
z
" id="DejaVuSans-Oblique-70"/>
     </defs>
     <g transform="translate(330.7625 27.298437)scale(0.1 -0.1)">
      <use xlink:href="#DejaVuSans-Oblique-70"/>
      <use transform="translate(63.476562 -16.40625)scale(0.7)" xlink:href="#DejaVuSans-31"/>
     </g>
    </g>
    <g id="line2d_18">
     <path d="M 302.7625 38.496875 
L 322.7625 38.496875 
" style="fill:none;stroke:#2ca02c;stroke-linecap:square;stroke-width:1.5;"/>
    </g>
    <g id="line2d_19"/>
    <g id="text_13">
     <!-- $p_{2}$ -->
     <g transform="translate(330.7625 41.996875)scale(0.1 -0.1)">
      <use xlink:href="#DejaVuSans-Oblique-70"/>
      <use transform="translate(63.476562 -16.40625)scale(0.7)" xlink:href="#DejaVuSans-32"/>
     </g>
    </g>
    <g id="line2d_20">
     <path d="M 302.7625 53.195312 
L 322.7625 53.195312 
" style="fill:none;stroke:#d62728;stroke-linecap:square;stroke-width:1.5;"/>
    </g>
    <g id="line2d_21"/>
    <g id="text_14">
     <!-- $p_{10}$ -->
     <g transform="translate(330.7625 56.695312)scale(0.1 -0.1)">
      <use xlink:href="#DejaVuSans-Oblique-70"/>
      <use transform="translate(63.476562 -16.40625)scale(0.7)" xlink:href="#DejaVuSans-31"/>
      <use transform="translate(108.012695 -16.40625)scale(0.7)" xlink:href="#DejaVuSans-30"/>
     </g>
    </g>
   </g>
  </g>
 </g>
 <defs>
  <clipPath id="pd5a965648b">
   <rect height="217.44" width="334.8" x="20.5625" y="10.7"/>
  </clipPath>
 </defs>
</svg>
