<svg width="830" height="330" viewBox="0 0 830 330" fill="none" xmlns="http://www.w3.org/2000/svg">
<rect width="830" height="330" fill="#E5E5E5"/>
<path fill-rule="evenodd" clip-rule="evenodd" d="M-65 -105H895V435H-65V-105Z" fill="white"/>
<path fill-rule="evenodd" clip-rule="evenodd" d="M244.26 240.727H585.74V292.57H244.26V240.727Z" fill="#EDDE54"/>
<path fill-rule="evenodd" clip-rule="evenodd" d="M244.26 240.727H585.74V292.57H244.26V240.727Z" stroke="black" stroke-miterlimit="10" stroke-linejoin="round"/>
<path d="M362.708 275.579C362 275.579 361.396 275.423 360.896 275.11C360.406 274.798 360.161 274.386 360.161 273.876C360.161 273.522 360.255 273.225 360.443 272.985C360.64 272.746 360.922 272.626 361.286 272.626C361.609 272.626 361.849 272.735 362.005 272.954C362.172 273.162 362.255 273.402 362.255 273.673C362.255 273.902 362.219 274.079 362.146 274.204C362.229 274.35 362.37 274.454 362.568 274.516C362.765 274.579 362.937 274.605 363.083 274.595C363.583 274.574 363.943 274.355 364.161 273.938C364.39 273.511 364.505 272.813 364.505 271.845V259.345L362.052 259.438V258.391H368.443V259.173C367.703 259.173 367.208 259.381 366.958 259.798C366.719 260.204 366.599 260.792 366.599 261.563V269.329C366.599 270.85 366.463 272.063 366.193 272.97C365.932 273.876 365.515 274.537 364.943 274.954C364.38 275.371 363.635 275.579 362.708 275.579ZM373.222 275.579C372.045 275.579 371.149 275.313 370.535 274.782C369.92 274.251 369.613 273.563 369.613 272.72C369.613 271.792 369.982 271.011 370.722 270.376C371.472 269.73 372.41 269.251 373.535 268.938C374.67 268.626 375.805 268.475 376.941 268.485V267.001C376.941 265.959 376.785 265.147 376.472 264.563C376.17 263.98 375.524 263.688 374.535 263.688C374.035 263.688 373.561 263.792 373.113 264.001C372.665 264.209 372.342 264.522 372.144 264.938C372.342 265.167 372.441 265.47 372.441 265.845C372.441 266.095 372.352 266.329 372.175 266.548C372.008 266.756 371.753 266.86 371.41 266.86C371.076 266.86 370.811 266.756 370.613 266.548C370.425 266.329 370.331 266.042 370.331 265.688C370.331 265.157 370.535 264.673 370.941 264.235C371.357 263.798 371.925 263.449 372.644 263.188C373.373 262.928 374.186 262.798 375.081 262.798C376.425 262.798 377.415 263.157 378.05 263.876C378.696 264.584 379.014 265.709 379.003 267.251L378.972 272.641C378.972 273.152 378.941 273.699 378.878 274.282L380.581 274.173V275.188H377.16C377.107 274.949 377.05 274.49 376.988 273.813C375.821 274.99 374.566 275.579 373.222 275.579ZM373.769 274.204C374.373 274.204 374.925 274.089 375.425 273.86C375.925 273.621 376.43 273.261 376.941 272.782C376.92 272.542 376.91 272.136 376.91 271.563L376.941 269.313C375.628 269.355 374.456 269.621 373.425 270.11C372.404 270.6 371.894 271.35 371.894 272.36C371.894 272.954 372.071 273.412 372.425 273.735C372.779 274.048 373.227 274.204 373.769 274.204ZM383.084 267.438C382.438 265.97 382.099 264.855 382.068 264.095L381.037 264.173V263.188H385.459V263.907C384.75 263.907 384.396 264.204 384.396 264.798C384.396 265.225 384.568 265.819 384.912 266.579L386.755 270.798C386.964 271.298 387.203 271.891 387.474 272.579H387.49C387.542 272.412 387.61 272.235 387.693 272.048L388.052 271.016L389.974 265.751C390.13 265.292 390.37 264.74 390.693 264.095L389.146 264.173V263.188H392.943V263.907C392.61 263.907 392.323 264.027 392.084 264.266C391.844 264.496 391.62 264.819 391.412 265.235C391.214 265.641 390.948 266.277 390.615 267.141L387.474 275.266H386.505L383.084 267.438ZM397.198 275.579C396.021 275.579 395.125 275.313 394.51 274.782C393.896 274.251 393.589 273.563 393.589 272.72C393.589 271.792 393.958 271.011 394.698 270.376C395.448 269.73 396.385 269.251 397.51 268.938C398.646 268.626 399.781 268.475 400.917 268.485V267.001C400.917 265.959 400.76 265.147 400.448 264.563C400.146 263.98 399.5 263.688 398.51 263.688C398.01 263.688 397.537 263.792 397.089 264.001C396.641 264.209 396.318 264.522 396.12 264.938C396.318 265.167 396.417 265.47 396.417 265.845C396.417 266.095 396.328 266.329 396.151 266.548C395.984 266.756 395.729 266.86 395.385 266.86C395.052 266.86 394.787 266.756 394.589 266.548C394.401 266.329 394.307 266.042 394.307 265.688C394.307 265.157 394.51 264.673 394.917 264.235C395.333 263.798 395.901 263.449 396.62 263.188C397.349 262.928 398.162 262.798 399.057 262.798C400.401 262.798 401.391 263.157 402.026 263.876C402.672 264.584 402.99 265.709 402.979 267.251L402.948 272.641C402.948 273.152 402.917 273.699 402.854 274.282L404.557 274.173V275.188H401.135C401.083 274.949 401.026 274.49 400.964 273.813C399.797 274.99 398.542 275.579 397.198 275.579ZM397.745 274.204C398.349 274.204 398.901 274.089 399.401 273.86C399.901 273.621 400.406 273.261 400.917 272.782C400.896 272.542 400.885 272.136 400.885 271.563L400.917 269.313C399.604 269.355 398.432 269.621 397.401 270.11C396.38 270.6 395.87 271.35 395.87 272.36C395.87 272.954 396.047 273.412 396.401 273.735C396.755 274.048 397.203 274.204 397.745 274.204ZM411.129 275.579C410.379 275.579 409.691 275.475 409.066 275.266C408.441 275.069 407.905 274.819 407.457 274.516L407.566 275.36H406.551L406.41 271.235H407.144C407.186 271.891 407.368 272.475 407.691 272.985C408.025 273.496 408.457 273.902 408.988 274.204C409.519 274.496 410.092 274.641 410.707 274.641C411.394 274.641 412.004 274.48 412.535 274.157C413.077 273.824 413.348 273.35 413.348 272.735C413.348 272.287 413.212 271.912 412.941 271.61C412.681 271.308 412.353 271.058 411.957 270.86C411.571 270.662 411.025 270.423 410.316 270.141C409.473 269.829 408.795 269.532 408.285 269.251C407.775 268.97 407.332 268.589 406.957 268.11C406.592 267.631 406.41 267.022 406.41 266.282C406.41 265.751 406.535 265.225 406.785 264.704C407.045 264.173 407.478 263.725 408.082 263.36C408.696 262.985 409.509 262.798 410.519 262.798C411.009 262.798 411.514 262.881 412.035 263.048C412.556 263.204 413.04 263.464 413.488 263.829L413.441 262.923H414.441V267.126H413.676C413.634 266.199 413.353 265.397 412.832 264.72C412.311 264.032 411.577 263.688 410.629 263.688C409.91 263.688 409.337 263.871 408.91 264.235C408.493 264.589 408.285 265.016 408.285 265.516C408.285 265.985 408.42 266.381 408.691 266.704C408.973 267.016 409.321 267.287 409.738 267.516C410.155 267.735 410.717 267.98 411.426 268.251C412.259 268.584 412.931 268.897 413.441 269.188C413.952 269.48 414.384 269.86 414.738 270.329C415.103 270.798 415.285 271.371 415.285 272.048C415.285 272.819 415.087 273.47 414.691 274.001C414.306 274.522 413.795 274.917 413.16 275.188C412.535 275.449 411.858 275.579 411.129 275.579ZM423.178 275.579C422.095 275.579 421.1 275.329 420.194 274.829C419.288 274.329 418.569 273.615 418.038 272.688C417.517 271.761 417.256 270.667 417.256 269.407C417.256 268.282 417.522 267.214 418.053 266.204C418.595 265.183 419.34 264.36 420.288 263.735C421.246 263.11 422.324 262.798 423.522 262.798C424.387 262.798 425.152 262.938 425.819 263.22C426.496 263.49 427.022 263.85 427.397 264.298C427.772 264.746 427.96 265.23 427.96 265.751C427.96 266.126 427.855 266.433 427.647 266.673C427.439 266.912 427.152 267.032 426.788 267.032C426.433 267.032 426.168 266.917 425.991 266.688C425.814 266.449 425.725 266.204 425.725 265.954C425.725 265.548 425.845 265.225 426.085 264.985C425.907 264.496 425.569 264.157 425.069 263.97C424.569 263.782 424.069 263.688 423.569 263.688C422.829 263.688 422.168 263.891 421.585 264.298C421.001 264.694 420.543 265.277 420.21 266.048C419.876 266.819 419.71 267.735 419.71 268.798C419.71 269.871 419.881 270.824 420.225 271.657C420.569 272.49 421.053 273.147 421.678 273.626C422.303 274.095 423.022 274.329 423.835 274.329C424.553 274.329 425.262 274.131 425.96 273.735C426.657 273.339 427.204 272.85 427.6 272.266L428.225 272.735C427.631 273.662 426.866 274.371 425.928 274.86C424.991 275.339 424.074 275.579 423.178 275.579ZM430.102 274.47C430.561 274.47 430.889 274.355 431.087 274.126C431.295 273.886 431.415 273.589 431.446 273.235C431.488 272.871 431.509 272.308 431.509 271.548V266.063C431.509 265.397 431.54 264.876 431.602 264.501L429.899 264.579V263.595H430.649C431.254 263.595 431.691 263.542 431.962 263.438C432.243 263.334 432.504 263.173 432.743 262.954H433.431C433.493 263.579 433.535 264.371 433.556 265.329C433.951 264.673 434.519 264.089 435.259 263.579C436.009 263.058 436.785 262.798 437.587 262.798C438.066 262.798 438.462 262.928 438.774 263.188C439.097 263.449 439.259 263.824 439.259 264.313C439.259 264.574 439.16 264.834 438.962 265.095C438.764 265.345 438.483 265.47 438.118 265.47C437.764 265.47 437.472 265.339 437.243 265.079C437.024 264.808 436.936 264.49 436.977 264.126C436.373 264.105 435.764 264.339 435.149 264.829C434.535 265.308 434.009 265.944 433.571 266.735L433.602 272.641C433.602 273.36 433.571 273.907 433.509 274.282L435.009 274.204V275.188H430.102V274.47ZM442.869 260.579C442.526 260.579 442.224 260.438 441.963 260.157C441.713 259.876 441.588 259.542 441.588 259.157C441.588 258.772 441.718 258.438 441.979 258.157C442.25 257.865 442.552 257.72 442.885 257.72C443.26 257.72 443.567 257.86 443.807 258.141C444.057 258.423 444.182 258.761 444.182 259.157C444.182 259.542 444.047 259.876 443.776 260.157C443.515 260.438 443.213 260.579 442.869 260.579ZM440.494 274.47C440.953 274.47 441.281 274.355 441.479 274.126C441.687 273.886 441.807 273.589 441.838 273.235C441.88 272.871 441.901 272.308 441.901 271.548V266.063C441.901 265.605 441.932 265.084 441.994 264.501L440.291 264.61V263.595C441.239 263.595 441.916 263.542 442.323 263.438C442.729 263.324 443.047 263.162 443.276 262.954H443.963V272.641C443.963 273.36 443.932 273.907 443.869 274.282L445.385 274.204V275.188H440.494V274.47ZM447.02 280.595C447.478 280.595 447.806 280.475 448.004 280.235C448.212 280.006 448.332 279.72 448.363 279.376C448.395 279.032 448.415 278.459 448.426 277.657L448.473 266.063C448.473 265.397 448.509 264.876 448.582 264.501L446.879 264.61V263.595C447.817 263.595 448.462 263.542 448.817 263.438C449.171 263.334 449.457 263.173 449.676 262.954H450.395C450.457 263.735 450.488 264.167 450.488 264.251C450.978 263.813 451.556 263.464 452.223 263.204C452.9 262.933 453.567 262.798 454.223 262.798C455.16 262.798 456.03 263.042 456.832 263.532C457.634 264.022 458.275 264.72 458.754 265.626C459.244 266.532 459.488 267.574 459.488 268.751C459.488 270.084 459.207 271.266 458.645 272.298C458.093 273.329 457.348 274.136 456.41 274.72C455.473 275.292 454.462 275.579 453.379 275.579C452.275 275.579 451.311 275.313 450.488 274.782V278.766C450.488 279.485 450.457 280.027 450.395 280.391L451.91 280.329V281.313H447.02V280.595ZM453.332 274.61C454.082 274.61 454.733 274.381 455.285 273.923C455.837 273.454 456.264 272.803 456.567 271.97C456.869 271.136 457.02 270.194 457.02 269.141C457.02 267.704 456.712 266.485 456.098 265.485C455.483 264.485 454.567 263.985 453.348 263.985C452.827 263.985 452.317 264.115 451.817 264.376C451.317 264.626 450.884 264.944 450.52 265.329C450.54 265.433 450.551 265.917 450.551 266.782L450.52 273.673C451.332 274.298 452.27 274.61 453.332 274.61ZM466.066 275.579C463.879 275.579 462.79 274.105 462.801 271.157L462.863 264.204L461.004 264.22V263.188C461.775 263.167 462.426 262.819 462.957 262.141C463.499 261.464 463.894 260.694 464.144 259.829H464.973V263.188H469.004V264.126L464.973 264.173C464.952 266.621 464.936 268.319 464.926 269.266C464.926 270.204 464.926 270.73 464.926 270.845C464.926 271.98 465.061 272.824 465.332 273.376C465.603 273.928 466.072 274.204 466.738 274.204C467.155 274.204 467.566 274.079 467.973 273.829C468.389 273.569 468.749 273.214 469.051 272.766L469.691 273.298C469.066 274.225 468.452 274.839 467.848 275.141C467.243 275.433 466.65 275.579 466.066 275.579Z" fill="black"/>
<path fill-rule="evenodd" clip-rule="evenodd" d="M244.26 189.904H585.74V241.747H244.26V189.904Z" fill="#F5A047"/>
<path fill-rule="evenodd" clip-rule="evenodd" d="M244.26 189.904H585.74V241.747H244.26V189.904Z" stroke="black" stroke-miterlimit="10" stroke-linejoin="round"/>
<path d="M389.565 223.569C390.127 223.558 390.528 223.433 390.768 223.194C391.007 222.954 391.143 222.673 391.174 222.35C391.205 222.016 391.221 221.438 391.221 220.615V210.256C391.221 209.579 391.247 209.001 391.299 208.522L389.565 208.615V207.569L395.236 207.537C398.247 207.527 400.632 208.235 402.393 209.662C404.153 211.079 405.033 213.188 405.033 215.99C405.033 217.49 404.679 218.881 403.971 220.162C403.263 221.444 402.221 222.464 400.846 223.225C399.471 223.985 397.815 224.365 395.877 224.365H389.565V223.569ZM395.815 223.459C397.158 223.459 398.351 223.131 399.393 222.475C400.434 221.819 401.242 220.912 401.815 219.756C402.388 218.6 402.674 217.313 402.674 215.897C402.674 213.563 402.033 211.735 400.752 210.412C399.471 209.089 397.544 208.428 394.971 208.428C394.408 208.428 394.007 208.543 393.768 208.772C393.528 208.99 393.393 209.266 393.361 209.6C393.33 209.923 393.315 210.49 393.315 211.303V221.537C393.315 222.371 393.289 222.996 393.236 223.412C393.799 223.444 394.658 223.459 395.815 223.459ZM412.257 224.756C411.163 224.756 410.236 224.589 409.476 224.256C408.715 223.912 408.142 223.496 407.757 223.006C407.382 222.506 407.195 222.001 407.195 221.49C407.195 221.105 407.299 220.787 407.507 220.537C407.715 220.287 408.002 220.162 408.366 220.162C408.731 220.162 408.997 220.282 409.163 220.522C409.33 220.751 409.413 220.99 409.413 221.24C409.413 221.501 409.33 221.824 409.163 222.209C409.299 222.72 409.637 223.105 410.179 223.365C410.731 223.615 411.366 223.74 412.085 223.74C413.241 223.74 414.153 223.428 414.82 222.803C415.497 222.168 415.835 221.266 415.835 220.1C415.835 218.86 415.538 217.865 414.945 217.115C414.351 216.365 413.283 215.99 411.741 215.99C411.585 215.99 411.236 216.006 410.695 216.037V214.959H411.679C412.46 214.959 413.096 214.782 413.585 214.428C414.085 214.063 414.445 213.615 414.663 213.084C414.892 212.553 415.007 212.043 415.007 211.553C415.007 210.48 414.788 209.641 414.351 209.037C413.924 208.423 413.195 208.115 412.163 208.115C411.486 208.115 410.882 208.298 410.351 208.662C409.83 209.016 409.497 209.412 409.351 209.85C409.601 210.121 409.726 210.449 409.726 210.834C409.726 211.074 409.637 211.308 409.46 211.537C409.294 211.756 409.033 211.865 408.679 211.865C408.346 211.865 408.08 211.751 407.882 211.522C407.695 211.282 407.601 210.985 407.601 210.631C407.601 210.152 407.788 209.647 408.163 209.115C408.538 208.574 409.096 208.115 409.835 207.74C410.585 207.365 411.471 207.178 412.491 207.178C413.898 207.178 415.054 207.522 415.96 208.209C416.877 208.886 417.335 209.933 417.335 211.35C417.335 212.183 417.023 212.954 416.398 213.662C415.783 214.371 414.783 214.938 413.398 215.365C414.919 215.543 416.116 216.037 416.991 216.85C417.866 217.652 418.304 218.678 418.304 219.928C418.304 220.97 418.028 221.855 417.476 222.584C416.924 223.303 416.184 223.845 415.257 224.209C414.34 224.574 413.34 224.756 412.257 224.756ZM422.422 224.756C422.047 224.756 421.719 224.61 421.438 224.319C421.167 224.016 421.031 223.647 421.031 223.209C421.031 222.782 421.172 222.418 421.453 222.115C421.734 221.803 422.068 221.647 422.453 221.647C422.849 221.647 423.177 221.803 423.438 222.115C423.708 222.418 423.844 222.782 423.844 223.209C423.844 223.647 423.703 224.016 423.422 224.319C423.141 224.61 422.807 224.756 422.422 224.756ZM428.576 209.756C428.232 209.756 427.93 209.615 427.67 209.334C427.42 209.053 427.295 208.72 427.295 208.334C427.295 207.949 427.425 207.615 427.685 207.334C427.956 207.043 428.258 206.897 428.591 206.897C428.966 206.897 429.274 207.037 429.513 207.319C429.763 207.6 429.888 207.938 429.888 208.334C429.888 208.72 429.758 209.053 429.498 209.334C429.237 209.615 428.93 209.756 428.576 209.756ZM425.185 230.865C424.56 230.865 424.091 230.735 423.779 230.475C423.456 230.225 423.295 229.907 423.295 229.522C423.295 229.209 423.394 228.944 423.591 228.725C423.789 228.506 424.05 228.397 424.373 228.397C424.706 228.397 424.956 228.506 425.123 228.725C425.289 228.944 425.373 229.173 425.373 229.412C425.373 229.506 425.368 229.574 425.357 229.615C425.576 229.72 425.784 229.772 425.982 229.772C426.347 229.772 426.664 229.631 426.935 229.35C427.404 228.902 427.638 227.928 427.638 226.428L427.685 215.24C427.685 214.636 427.711 214.115 427.763 213.678L426.045 213.787V212.772C427.013 212.772 427.701 212.72 428.107 212.615C428.513 212.501 428.826 212.339 429.045 212.131H429.748V224.444C429.748 226.579 429.331 228.183 428.498 229.256C427.664 230.329 426.56 230.865 425.185 230.865ZM436.605 224.756C435.855 224.756 435.167 224.652 434.542 224.444C433.917 224.246 433.381 223.996 432.933 223.694L433.042 224.537H432.027L431.886 220.412H432.62C432.662 221.069 432.844 221.652 433.167 222.162C433.501 222.673 433.933 223.079 434.464 223.381C434.995 223.673 435.568 223.819 436.183 223.819C436.87 223.819 437.48 223.657 438.011 223.334C438.553 223.001 438.823 222.527 438.823 221.912C438.823 221.464 438.688 221.089 438.417 220.787C438.157 220.485 437.829 220.235 437.433 220.037C437.047 219.839 436.501 219.6 435.792 219.319C434.948 219.006 434.271 218.709 433.761 218.428C433.251 218.147 432.808 217.766 432.433 217.287C432.068 216.808 431.886 216.199 431.886 215.459C431.886 214.928 432.011 214.402 432.261 213.881C432.521 213.35 432.954 212.902 433.558 212.537C434.172 212.162 434.985 211.975 435.995 211.975C436.485 211.975 436.99 212.058 437.511 212.225C438.032 212.381 438.516 212.641 438.964 213.006L438.917 212.1H439.917V216.303H439.152C439.11 215.376 438.829 214.574 438.308 213.897C437.787 213.209 437.053 212.865 436.105 212.865C435.386 212.865 434.813 213.048 434.386 213.412C433.969 213.766 433.761 214.194 433.761 214.694C433.761 215.162 433.896 215.558 434.167 215.881C434.448 216.194 434.797 216.464 435.214 216.694C435.631 216.912 436.193 217.157 436.902 217.428C437.735 217.761 438.407 218.074 438.917 218.365C439.428 218.657 439.86 219.037 440.214 219.506C440.579 219.975 440.761 220.548 440.761 221.225C440.761 221.996 440.563 222.647 440.167 223.178C439.782 223.699 439.271 224.095 438.636 224.365C438.011 224.626 437.334 224.756 436.605 224.756Z" fill="black"/>
<path fill-rule="evenodd" clip-rule="evenodd" d="M244.26 139.079H585.74V190.921H244.26V139.079Z" fill="#5EC1F6"/>
<path fill-rule="evenodd" clip-rule="evenodd" d="M244.26 139.079H585.74V190.921H244.26V139.079Z" stroke="black" stroke-miterlimit="10" stroke-linejoin="round"/>
<path d="M390.581 161.009C390.008 159.655 389.665 158.566 389.55 157.743L388.206 157.79V156.743H393.769V157.524L393.753 157.556C393.222 157.587 392.831 157.701 392.581 157.899C392.331 158.097 392.206 158.389 392.206 158.774C392.206 159.149 392.321 159.608 392.55 160.149L393.175 161.681C393.331 162.087 393.571 162.696 393.894 163.509C394.227 164.321 394.54 165.066 394.831 165.743L395.456 167.196C396.081 168.623 396.519 169.681 396.769 170.368H396.816L397.706 167.806L398.019 166.946L400.128 161.009L400.691 159.478C400.993 158.613 401.222 158.019 401.378 157.696L399.534 157.79V156.743H404.409V157.524C403.701 157.566 403.159 157.754 402.784 158.087C402.409 158.42 402.071 159.019 401.769 159.884L396.706 173.774H396.034L390.581 161.009ZM409.895 173.931C408.791 173.931 407.796 173.67 406.911 173.149C406.026 172.629 405.328 171.884 404.817 170.915C404.307 169.946 404.052 168.832 404.052 167.571C404.052 166.446 404.307 165.394 404.817 164.415C405.328 163.425 406.041 162.634 406.958 162.04C407.875 161.446 408.921 161.149 410.099 161.149C411.005 161.149 411.822 161.353 412.552 161.759C413.291 162.155 413.875 162.748 414.302 163.54C414.739 164.332 414.958 165.306 414.958 166.462L406.52 166.603C406.5 168.519 406.812 170.014 407.458 171.087C408.114 172.16 409.119 172.696 410.474 172.696C411.213 172.696 411.968 172.509 412.739 172.134C413.52 171.748 414.119 171.274 414.536 170.712L415.114 171.181C414.5 172.118 413.708 172.811 412.739 173.259C411.77 173.707 410.822 173.931 409.895 173.931ZM412.708 165.603C412.708 164.634 412.489 163.806 412.052 163.118C411.625 162.431 410.979 162.087 410.114 162.087C408.135 162.087 406.958 163.259 406.583 165.603H412.708ZM422.888 180.04C421.513 180.04 420.377 179.889 419.482 179.587C418.586 179.285 417.929 178.884 417.513 178.384C417.096 177.894 416.888 177.368 416.888 176.806C416.888 176.129 417.112 175.54 417.56 175.04C418.008 174.54 418.518 174.17 419.091 173.931C418.549 173.754 418.138 173.514 417.857 173.212C417.575 172.899 417.435 172.504 417.435 172.024C417.435 171.451 417.664 170.925 418.122 170.446C418.58 169.967 419.153 169.67 419.841 169.556C419.08 169.201 418.487 168.712 418.06 168.087C417.633 167.451 417.419 166.728 417.419 165.915C417.419 164.978 417.659 164.149 418.138 163.431C418.627 162.712 419.258 162.155 420.028 161.759C420.81 161.353 421.627 161.149 422.482 161.149C423.565 161.149 424.58 161.446 425.528 162.04C425.768 161.353 426.153 160.795 426.685 160.368C427.226 159.931 427.81 159.712 428.435 159.712C428.83 159.712 429.138 159.821 429.357 160.04C429.586 160.259 429.7 160.55 429.7 160.915C429.7 161.144 429.617 161.368 429.45 161.587C429.284 161.795 429.039 161.899 428.716 161.899C428.445 161.899 428.211 161.821 428.013 161.665C427.825 161.498 427.705 161.295 427.653 161.056C427.278 161.108 426.976 161.285 426.747 161.587C426.528 161.879 426.367 162.233 426.263 162.649C426.669 163.014 426.982 163.446 427.2 163.946C427.429 164.436 427.544 164.951 427.544 165.493C427.544 166.379 427.31 167.175 426.841 167.884C426.383 168.582 425.763 169.134 424.982 169.54C424.211 169.936 423.377 170.134 422.482 170.134C422.273 170.134 422.008 170.118 421.685 170.087C421.445 170.035 421.174 170.009 420.872 170.009C420.341 170.009 419.893 170.129 419.528 170.368C419.174 170.597 418.997 170.879 418.997 171.212C418.997 171.681 419.289 171.993 419.872 172.149C420.455 172.295 421.45 172.389 422.857 172.431C424.825 172.535 426.299 172.853 427.278 173.384C428.268 173.915 428.763 174.8 428.763 176.04C428.763 176.853 428.476 177.561 427.903 178.165C427.341 178.78 426.607 179.243 425.7 179.556C424.794 179.879 423.857 180.04 422.888 180.04ZM422.544 169.274C423.409 169.274 424.07 168.972 424.528 168.368C424.987 167.754 425.216 166.957 425.216 165.978C425.216 164.863 424.971 163.92 424.482 163.149C423.992 162.379 423.31 161.993 422.435 161.993C421.58 161.993 420.914 162.311 420.435 162.946C419.955 163.582 419.716 164.394 419.716 165.384C419.716 166.55 419.966 167.493 420.466 168.212C420.976 168.92 421.669 169.274 422.544 169.274ZM422.857 179.103C423.742 179.103 424.513 178.988 425.169 178.759C425.836 178.53 426.346 178.217 426.7 177.821C427.054 177.436 427.232 177.009 427.232 176.54C427.232 175.728 426.841 175.165 426.06 174.853C425.289 174.55 424.143 174.379 422.622 174.337C421.612 174.306 420.789 174.238 420.153 174.134C419.716 174.425 419.377 174.78 419.138 175.196C418.898 175.613 418.778 176.05 418.778 176.509C418.778 177.3 419.148 177.931 419.888 178.399C420.638 178.868 421.627 179.103 422.857 179.103ZM433.738 173.931C432.561 173.931 431.665 173.665 431.05 173.134C430.436 172.603 430.128 171.915 430.128 171.071C430.128 170.144 430.498 169.363 431.238 168.728C431.988 168.082 432.925 167.603 434.05 167.29C435.186 166.978 436.321 166.826 437.457 166.837V165.353C437.457 164.311 437.3 163.498 436.988 162.915C436.686 162.332 436.04 162.04 435.05 162.04C434.55 162.04 434.076 162.144 433.628 162.353C433.181 162.561 432.858 162.873 432.66 163.29C432.858 163.519 432.957 163.821 432.957 164.196C432.957 164.446 432.868 164.681 432.691 164.899C432.524 165.108 432.269 165.212 431.925 165.212C431.592 165.212 431.326 165.108 431.128 164.899C430.941 164.681 430.847 164.394 430.847 164.04C430.847 163.509 431.05 163.024 431.457 162.587C431.873 162.149 432.441 161.8 433.16 161.54C433.889 161.28 434.701 161.149 435.597 161.149C436.941 161.149 437.931 161.509 438.566 162.228C439.212 162.936 439.53 164.061 439.519 165.603L439.488 170.993C439.488 171.504 439.457 172.05 439.394 172.634L441.097 172.524V173.54H437.675C437.623 173.3 437.566 172.842 437.503 172.165C436.337 173.342 435.082 173.931 433.738 173.931ZM434.285 172.556C434.889 172.556 435.441 172.441 435.941 172.212C436.441 171.972 436.946 171.613 437.457 171.134C437.436 170.894 437.425 170.488 437.425 169.915L437.457 167.665C436.144 167.707 434.972 167.972 433.941 168.462C432.92 168.951 432.41 169.701 432.41 170.712C432.41 171.306 432.587 171.764 432.941 172.087C433.295 172.399 433.743 172.556 434.285 172.556Z" fill="black"/>
<path fill-rule="evenodd" clip-rule="evenodd" d="M244.26 87.2349H585.74V139.077H244.26V87.2349Z" fill="#5EC1F6"/>
<path fill-rule="evenodd" clip-rule="evenodd" d="M244.26 87.2349H585.74V139.077H244.26V87.2349Z" stroke="black" stroke-miterlimit="10" stroke-linejoin="round"/>
<path d="M363.257 109.165C362.684 107.811 362.341 106.722 362.226 105.899L360.882 105.946V104.899H366.445V105.681L366.429 105.712C365.898 105.743 365.507 105.858 365.257 106.056C365.007 106.253 364.882 106.545 364.882 106.931C364.882 107.306 364.997 107.764 365.226 108.306L365.851 109.837C366.007 110.243 366.247 110.852 366.57 111.665C366.903 112.477 367.216 113.222 367.507 113.899L368.132 115.352C368.757 116.78 369.195 117.837 369.445 118.524H369.492L370.382 115.962L370.695 115.102L372.804 109.165L373.367 107.634C373.669 106.769 373.898 106.175 374.054 105.852L372.211 105.946V104.899H377.086V105.681C376.377 105.722 375.836 105.91 375.461 106.243C375.086 106.576 374.747 107.175 374.445 108.04L369.382 121.931H368.711L363.257 109.165ZM382.572 122.087C381.467 122.087 380.473 121.826 379.587 121.306C378.702 120.785 378.004 120.04 377.493 119.071C376.983 118.102 376.728 116.988 376.728 115.727C376.728 114.602 376.983 113.55 377.493 112.571C378.004 111.582 378.717 110.79 379.634 110.196C380.551 109.602 381.598 109.306 382.775 109.306C383.681 109.306 384.499 109.509 385.228 109.915C385.967 110.311 386.551 110.905 386.978 111.696C387.415 112.488 387.634 113.462 387.634 114.618L379.197 114.759C379.176 116.675 379.488 118.17 380.134 119.243C380.79 120.316 381.795 120.852 383.15 120.852C383.889 120.852 384.644 120.665 385.415 120.29C386.197 119.905 386.795 119.431 387.212 118.868L387.79 119.337C387.176 120.274 386.384 120.967 385.415 121.415C384.447 121.863 383.499 122.087 382.572 122.087ZM385.384 113.759C385.384 112.79 385.165 111.962 384.728 111.274C384.301 110.587 383.655 110.243 382.79 110.243C380.811 110.243 379.634 111.415 379.259 113.759H385.384ZM395.564 128.196C394.189 128.196 393.053 128.045 392.158 127.743C391.262 127.441 390.606 127.04 390.189 126.54C389.772 126.05 389.564 125.524 389.564 124.962C389.564 124.285 389.788 123.696 390.236 123.196C390.684 122.696 391.194 122.326 391.767 122.087C391.225 121.91 390.814 121.67 390.533 121.368C390.251 121.056 390.111 120.66 390.111 120.181C390.111 119.608 390.34 119.082 390.798 118.602C391.257 118.123 391.829 117.826 392.517 117.712C391.757 117.358 391.163 116.868 390.736 116.243C390.309 115.608 390.095 114.884 390.095 114.071C390.095 113.134 390.335 112.306 390.814 111.587C391.303 110.868 391.934 110.311 392.704 109.915C393.486 109.509 394.303 109.306 395.158 109.306C396.241 109.306 397.257 109.602 398.204 110.196C398.444 109.509 398.829 108.951 399.361 108.524C399.902 108.087 400.486 107.868 401.111 107.868C401.507 107.868 401.814 107.977 402.033 108.196C402.262 108.415 402.376 108.707 402.376 109.071C402.376 109.3 402.293 109.524 402.126 109.743C401.96 109.951 401.715 110.056 401.392 110.056C401.121 110.056 400.887 109.977 400.689 109.821C400.501 109.655 400.382 109.451 400.329 109.212C399.954 109.264 399.652 109.441 399.423 109.743C399.204 110.035 399.043 110.389 398.939 110.806C399.345 111.17 399.658 111.602 399.876 112.102C400.106 112.592 400.22 113.108 400.22 113.649C400.22 114.535 399.986 115.332 399.517 116.04C399.059 116.738 398.439 117.29 397.658 117.696C396.887 118.092 396.053 118.29 395.158 118.29C394.949 118.29 394.684 118.274 394.361 118.243C394.121 118.191 393.85 118.165 393.548 118.165C393.017 118.165 392.569 118.285 392.204 118.524C391.85 118.753 391.673 119.035 391.673 119.368C391.673 119.837 391.965 120.149 392.548 120.306C393.132 120.451 394.126 120.545 395.533 120.587C397.501 120.691 398.975 121.009 399.954 121.54C400.944 122.071 401.439 122.957 401.439 124.196C401.439 125.009 401.152 125.717 400.579 126.321C400.017 126.936 399.283 127.399 398.376 127.712C397.47 128.035 396.533 128.196 395.564 128.196ZM395.22 117.431C396.085 117.431 396.746 117.128 397.204 116.524C397.663 115.91 397.892 115.113 397.892 114.134C397.892 113.019 397.647 112.076 397.158 111.306C396.668 110.535 395.986 110.149 395.111 110.149C394.257 110.149 393.59 110.467 393.111 111.102C392.632 111.738 392.392 112.55 392.392 113.54C392.392 114.707 392.642 115.649 393.142 116.368C393.652 117.076 394.345 117.431 395.22 117.431ZM395.533 127.259C396.418 127.259 397.189 127.144 397.845 126.915C398.512 126.686 399.022 126.373 399.376 125.977C399.731 125.592 399.908 125.165 399.908 124.696C399.908 123.884 399.517 123.321 398.736 123.009C397.965 122.707 396.819 122.535 395.298 122.493C394.288 122.462 393.465 122.394 392.829 122.29C392.392 122.582 392.053 122.936 391.814 123.352C391.574 123.769 391.454 124.207 391.454 124.665C391.454 125.457 391.824 126.087 392.564 126.556C393.314 127.024 394.303 127.259 395.533 127.259ZM406.414 122.087C405.237 122.087 404.341 121.821 403.726 121.29C403.112 120.759 402.805 120.071 402.805 119.227C402.805 118.3 403.174 117.519 403.914 116.884C404.664 116.238 405.601 115.759 406.726 115.446C407.862 115.134 408.997 114.983 410.133 114.993V113.509C410.133 112.467 409.976 111.655 409.664 111.071C409.362 110.488 408.716 110.196 407.726 110.196C407.226 110.196 406.752 110.3 406.305 110.509C405.857 110.717 405.534 111.03 405.336 111.446C405.534 111.675 405.633 111.977 405.633 112.352C405.633 112.602 405.544 112.837 405.367 113.056C405.2 113.264 404.945 113.368 404.601 113.368C404.268 113.368 404.002 113.264 403.805 113.056C403.617 112.837 403.523 112.55 403.523 112.196C403.523 111.665 403.726 111.181 404.133 110.743C404.549 110.306 405.117 109.957 405.836 109.696C406.565 109.436 407.377 109.306 408.273 109.306C409.617 109.306 410.607 109.665 411.242 110.384C411.888 111.092 412.206 112.217 412.195 113.759L412.164 119.149C412.164 119.66 412.133 120.207 412.07 120.79L413.773 120.681V121.696H410.351C410.299 121.457 410.242 120.998 410.18 120.321C409.013 121.498 407.758 122.087 406.414 122.087ZM406.961 120.712C407.565 120.712 408.117 120.597 408.617 120.368C409.117 120.128 409.622 119.769 410.133 119.29C410.112 119.05 410.101 118.644 410.101 118.071L410.133 115.821C408.82 115.863 407.648 116.128 406.617 116.618C405.596 117.108 405.086 117.858 405.086 118.868C405.086 119.462 405.263 119.92 405.617 120.243C405.971 120.556 406.419 120.712 406.961 120.712ZM415.985 113.181H424.501V114.759L415.985 114.852V113.181ZM427.04 120.899C427.603 120.889 428.004 120.764 428.244 120.524C428.483 120.285 428.619 120.003 428.65 119.681C428.681 119.347 428.697 118.769 428.697 117.946V107.587C428.697 106.91 428.723 106.332 428.775 105.852L427.04 105.946V104.899H432.447V105.681C431.884 105.701 431.483 105.832 431.244 106.071C431.004 106.311 430.869 106.597 430.837 106.931C430.806 107.253 430.79 107.821 430.79 108.634V118.931C430.79 119.764 430.764 120.389 430.712 120.806L435.212 120.743C436.233 120.722 436.999 120.399 437.509 119.774C438.02 119.139 438.275 118.123 438.275 116.727H439.103L438.947 121.696H427.04V120.899ZM443.037 107.087C442.694 107.087 442.392 106.946 442.131 106.665C441.881 106.384 441.756 106.05 441.756 105.665C441.756 105.28 441.886 104.946 442.147 104.665C442.418 104.373 442.72 104.227 443.053 104.227C443.428 104.227 443.735 104.368 443.975 104.649C444.225 104.931 444.35 105.269 444.35 105.665C444.35 106.05 444.214 106.384 443.944 106.665C443.683 106.946 443.381 107.087 443.037 107.087ZM440.662 120.977C441.121 120.977 441.449 120.863 441.647 120.634C441.855 120.394 441.975 120.097 442.006 119.743C442.048 119.378 442.069 118.816 442.069 118.056V112.571C442.069 112.113 442.1 111.592 442.162 111.009L440.459 111.118V110.102C441.407 110.102 442.084 110.05 442.491 109.946C442.897 109.832 443.214 109.67 443.444 109.462H444.131V119.149C444.131 119.868 444.1 120.415 444.037 120.79L445.553 120.712V121.696H440.662V120.977ZM452.29 122.087C450.103 122.087 449.014 120.613 449.025 117.665L449.087 110.712L447.228 110.727V109.696C447.999 109.675 448.65 109.326 449.181 108.649C449.723 107.972 450.119 107.201 450.369 106.337H451.197V109.696H455.228V110.634L451.197 110.681C451.176 113.128 451.16 114.826 451.15 115.774C451.15 116.712 451.15 117.238 451.15 117.352C451.15 118.488 451.285 119.332 451.556 119.884C451.827 120.436 452.296 120.712 452.962 120.712C453.379 120.712 453.79 120.587 454.197 120.337C454.613 120.076 454.973 119.722 455.275 119.274L455.915 119.806C455.29 120.733 454.676 121.347 454.072 121.649C453.467 121.941 452.874 122.087 452.29 122.087ZM462.875 122.087C461.771 122.087 460.776 121.826 459.891 121.306C459.005 120.785 458.308 120.04 457.797 119.071C457.287 118.102 457.031 116.988 457.031 115.727C457.031 114.602 457.287 113.55 457.797 112.571C458.308 111.582 459.021 110.79 459.938 110.196C460.854 109.602 461.901 109.306 463.078 109.306C463.985 109.306 464.802 109.509 465.531 109.915C466.271 110.311 466.854 110.905 467.281 111.696C467.719 112.488 467.938 113.462 467.938 114.618L459.5 114.759C459.479 116.675 459.792 118.17 460.438 119.243C461.094 120.316 462.099 120.852 463.453 120.852C464.193 120.852 464.948 120.665 465.719 120.29C466.5 119.905 467.099 119.431 467.516 118.868L468.094 119.337C467.479 120.274 466.688 120.967 465.719 121.415C464.75 121.863 463.802 122.087 462.875 122.087ZM465.688 113.759C465.688 112.79 465.469 111.962 465.031 111.274C464.604 110.587 463.959 110.243 463.094 110.243C461.115 110.243 459.938 111.415 459.563 113.759H465.688Z" fill="black"/>
<path fill-rule="evenodd" clip-rule="evenodd" d="M244.26 37.4305H585.74V89.273H244.26V37.4305Z" fill="#8AD57B"/>
<path fill-rule="evenodd" clip-rule="evenodd" d="M244.26 37.4305H585.74V89.273H244.26V37.4305Z" stroke="black" stroke-miterlimit="10" stroke-linejoin="round"/>
<path d="M384.679 71.0948C385.075 71.0948 385.393 71.0063 385.633 70.8292C385.872 70.6417 386.065 70.4021 386.211 70.1105C386.367 69.8084 386.549 69.3605 386.758 68.7667L387.008 68.0948L391.945 54.6417H392.523L397.883 68.298C398.049 68.725 398.195 69.1938 398.32 69.7042C398.456 70.2042 398.518 70.6157 398.508 70.9386L400.133 70.8292V71.8917H394.633V71.0948C395.581 71.0844 396.054 70.7042 396.054 69.9542C396.054 69.6417 395.971 69.2615 395.804 68.8136L394.976 66.5636L388.726 66.7042C388.487 67.3605 388.211 68.2198 387.898 69.2823C387.732 69.8032 387.528 70.3553 387.289 70.9386L389.164 70.8292V71.8917H384.679V71.0948ZM394.633 65.673L392.929 61.0948L391.851 58.1417H391.804L390.789 60.8448L389.508 64.5011L389.086 65.673H394.633ZM400.657 71.173C401.125 71.173 401.459 71.0584 401.657 70.8292C401.854 70.5896 401.974 70.2928 402.016 69.9386C402.058 69.574 402.078 69.0115 402.078 68.2511V56.8917C402.078 56.2875 402.099 55.7667 402.141 55.3292L400.438 55.423V54.423C401.407 54.423 402.094 54.3657 402.5 54.2511C402.907 54.1365 403.219 53.975 403.438 53.7667H404.141L404.157 69.3448C404.157 69.9698 404.12 70.5167 404.047 70.9855L405.563 70.9073V71.8917H400.657V71.173ZM411.935 72.2823C409.747 72.2823 408.658 70.8084 408.669 67.8605L408.731 60.9073L406.872 60.923V59.8917C407.643 59.8709 408.294 59.5219 408.825 58.8448C409.367 58.1678 409.763 57.3969 410.013 56.5323H410.841V59.8917H414.872V60.8292L410.841 60.8761C410.82 63.324 410.804 65.0219 410.794 65.9698C410.794 66.9073 410.794 67.4334 410.794 67.548C410.794 68.6834 410.929 69.5271 411.2 70.0792C411.471 70.6313 411.94 70.9073 412.606 70.9073C413.023 70.9073 413.435 70.7823 413.841 70.5323C414.257 70.2719 414.617 69.9178 414.919 69.4698L415.56 70.0011C414.935 70.9282 414.32 71.5428 413.716 71.8448C413.112 72.1365 412.518 72.2823 411.935 72.2823ZM420.082 72.2823C418.905 72.2823 418.009 72.0167 417.394 71.4855C416.78 70.9542 416.473 70.2667 416.473 69.423C416.473 68.4959 416.842 67.7146 417.582 67.0792C418.332 66.4334 419.269 65.9542 420.394 65.6417C421.53 65.3292 422.665 65.1782 423.801 65.1886V63.7042C423.801 62.6625 423.644 61.85 423.332 61.2667C423.03 60.6834 422.384 60.3917 421.394 60.3917C420.894 60.3917 420.42 60.4959 419.973 60.7042C419.525 60.9125 419.202 61.225 419.004 61.6417C419.202 61.8709 419.301 62.173 419.301 62.548C419.301 62.798 419.212 63.0323 419.035 63.2511C418.868 63.4594 418.613 63.5636 418.269 63.5636C417.936 63.5636 417.67 63.4594 417.473 63.2511C417.285 63.0323 417.191 62.7459 417.191 62.3917C417.191 61.8605 417.394 61.3761 417.801 60.9386C418.217 60.5011 418.785 60.1521 419.504 59.8917C420.233 59.6313 421.045 59.5011 421.941 59.5011C423.285 59.5011 424.275 59.8605 424.91 60.5792C425.556 61.2875 425.874 62.4125 425.863 63.9542L425.832 69.3448C425.832 69.8553 425.801 70.4021 425.738 70.9855L427.441 70.8761V71.8917H424.019C423.967 71.6521 423.91 71.1938 423.848 70.5167C422.681 71.6938 421.426 72.2823 420.082 72.2823ZM420.629 70.9073C421.233 70.9073 421.785 70.7928 422.285 70.5636C422.785 70.324 423.29 69.9646 423.801 69.4855C423.78 69.2459 423.769 68.8396 423.769 68.2667L423.801 66.0167C422.488 66.0584 421.316 66.324 420.285 66.8136C419.264 67.3032 418.754 68.0532 418.754 69.0636C418.754 69.6573 418.931 70.1157 419.285 70.4386C419.639 70.7511 420.087 70.9073 420.629 70.9073ZM431.481 57.2823C431.138 57.2823 430.836 57.1417 430.575 56.8605C430.325 56.5792 430.2 56.2459 430.2 55.8605C430.2 55.475 430.33 55.1417 430.591 54.8605C430.862 54.5688 431.164 54.423 431.497 54.423C431.872 54.423 432.179 54.5636 432.419 54.8448C432.669 55.1261 432.794 55.4646 432.794 55.8605C432.794 56.2459 432.659 56.5792 432.388 56.8605C432.127 57.1417 431.825 57.2823 431.481 57.2823ZM429.106 71.173C429.565 71.173 429.893 71.0584 430.091 70.8292C430.299 70.5896 430.419 70.2928 430.45 69.9386C430.492 69.574 430.513 69.0115 430.513 68.2511V62.7667C430.513 62.3084 430.544 61.7875 430.606 61.2042L428.903 61.3136V60.298C429.851 60.298 430.528 60.2459 430.935 60.1417C431.341 60.0271 431.659 59.8657 431.888 59.6573H432.575V69.3448C432.575 70.0636 432.544 70.6105 432.481 70.9855L433.997 70.9073V71.8917H429.106V71.173ZM435.85 71.173C436.309 71.173 436.637 71.0584 436.835 70.8292C437.043 70.5896 437.163 70.2928 437.194 69.9386C437.236 69.574 437.257 69.0115 437.257 68.2511V62.7667C437.257 62.1 437.288 61.5792 437.35 61.2042L435.647 61.2823V60.298H436.397C437.001 60.298 437.439 60.2459 437.71 60.1417C437.991 60.0375 438.251 59.8761 438.491 59.6573H439.179C439.241 60.2823 439.283 61.074 439.304 62.0323C439.699 61.3761 440.267 60.7928 441.007 60.2823C441.757 59.7615 442.533 59.5011 443.335 59.5011C443.814 59.5011 444.21 59.6313 444.522 59.8917C444.845 60.1521 445.007 60.5271 445.007 61.0167C445.007 61.2771 444.908 61.5375 444.71 61.798C444.512 62.048 444.231 62.173 443.866 62.173C443.512 62.173 443.22 62.0428 442.991 61.7823C442.772 61.5115 442.684 61.1938 442.725 60.8292C442.121 60.8084 441.512 61.0428 440.897 61.5323C440.283 62.0115 439.757 62.6469 439.319 63.4386L439.35 69.3448C439.35 70.0636 439.319 70.6105 439.257 70.9855L440.757 70.9073V71.8917H435.85V71.173Z" fill="black"/>
</svg>
