<svg width="830" height="330" viewBox="0 0 830 330" fill="none" xmlns="http://www.w3.org/2000/svg">
<rect width="830" height="330" fill="#E5E5E5"/>
<path fill-rule="evenodd" clip-rule="evenodd" d="M-65 -105H895V435H-65V-105Z" fill="white"/>
<path fill-rule="evenodd" clip-rule="evenodd" d="M244.26 189.904H585.74V241.747H244.26V189.904Z" fill="#F5A047"/>
<path fill-rule="evenodd" clip-rule="evenodd" d="M244.26 189.904H585.74V241.747H244.26V189.904Z" stroke="black" stroke-miterlimit="10" stroke-linejoin="round"/>
<path d="M389.565 223.569C390.127 223.558 390.528 223.433 390.768 223.194C391.007 222.954 391.143 222.673 391.174 222.35C391.205 222.016 391.221 221.438 391.221 220.615V210.256C391.221 209.579 391.247 209.001 391.299 208.522L389.565 208.615V207.569L395.236 207.537C398.247 207.527 400.632 208.235 402.393 209.662C404.153 211.079 405.033 213.188 405.033 215.99C405.033 217.49 404.679 218.881 403.971 220.162C403.263 221.444 402.221 222.464 400.846 223.225C399.471 223.985 397.815 224.365 395.877 224.365H389.565V223.569ZM395.815 223.459C397.158 223.459 398.351 223.131 399.393 222.475C400.434 221.819 401.242 220.912 401.815 219.756C402.388 218.6 402.674 217.313 402.674 215.897C402.674 213.563 402.033 211.735 400.752 210.412C399.471 209.089 397.544 208.428 394.971 208.428C394.408 208.428 394.007 208.543 393.768 208.772C393.528 208.99 393.393 209.266 393.361 209.6C393.33 209.923 393.315 210.49 393.315 211.303V221.537C393.315 222.371 393.289 222.996 393.236 223.412C393.799 223.444 394.658 223.459 395.815 223.459ZM412.257 224.756C411.163 224.756 410.236 224.589 409.476 224.256C408.715 223.912 408.142 223.496 407.757 223.006C407.382 222.506 407.195 222.001 407.195 221.49C407.195 221.105 407.299 220.787 407.507 220.537C407.715 220.287 408.002 220.162 408.366 220.162C408.731 220.162 408.997 220.282 409.163 220.522C409.33 220.751 409.413 220.99 409.413 221.24C409.413 221.501 409.33 221.824 409.163 222.209C409.299 222.72 409.637 223.105 410.179 223.365C410.731 223.615 411.366 223.74 412.085 223.74C413.241 223.74 414.153 223.428 414.82 222.803C415.497 222.168 415.835 221.266 415.835 220.1C415.835 218.86 415.538 217.865 414.945 217.115C414.351 216.365 413.283 215.99 411.741 215.99C411.585 215.99 411.236 216.006 410.695 216.037V214.959H411.679C412.46 214.959 413.096 214.782 413.585 214.428C414.085 214.063 414.445 213.615 414.663 213.084C414.892 212.553 415.007 212.043 415.007 211.553C415.007 210.48 414.788 209.641 414.351 209.037C413.924 208.423 413.195 208.115 412.163 208.115C411.486 208.115 410.882 208.298 410.351 208.662C409.83 209.016 409.497 209.412 409.351 209.85C409.601 210.121 409.726 210.449 409.726 210.834C409.726 211.074 409.637 211.308 409.46 211.537C409.294 211.756 409.033 211.865 408.679 211.865C408.346 211.865 408.08 211.751 407.882 211.522C407.695 211.282 407.601 210.985 407.601 210.631C407.601 210.152 407.788 209.647 408.163 209.115C408.538 208.574 409.096 208.115 409.835 207.74C410.585 207.365 411.471 207.178 412.491 207.178C413.898 207.178 415.054 207.522 415.96 208.209C416.877 208.886 417.335 209.933 417.335 211.35C417.335 212.183 417.023 212.954 416.398 213.662C415.783 214.371 414.783 214.938 413.398 215.365C414.919 215.543 416.116 216.037 416.991 216.85C417.866 217.652 418.304 218.678 418.304 219.928C418.304 220.97 418.028 221.855 417.476 222.584C416.924 223.303 416.184 223.845 415.257 224.209C414.34 224.574 413.34 224.756 412.257 224.756ZM422.422 224.756C422.047 224.756 421.719 224.61 421.438 224.319C421.167 224.016 421.031 223.647 421.031 223.209C421.031 222.782 421.172 222.418 421.453 222.115C421.734 221.803 422.068 221.647 422.453 221.647C422.849 221.647 423.177 221.803 423.438 222.115C423.708 222.418 423.844 222.782 423.844 223.209C423.844 223.647 423.703 224.016 423.422 224.319C423.141 224.61 422.807 224.756 422.422 224.756ZM428.576 209.756C428.232 209.756 427.93 209.615 427.67 209.334C427.42 209.053 427.295 208.72 427.295 208.334C427.295 207.949 427.425 207.615 427.685 207.334C427.956 207.043 428.258 206.897 428.591 206.897C428.966 206.897 429.274 207.037 429.513 207.319C429.763 207.6 429.888 207.938 429.888 208.334C429.888 208.72 429.758 209.053 429.498 209.334C429.237 209.615 428.93 209.756 428.576 209.756ZM425.185 230.865C424.56 230.865 424.091 230.735 423.779 230.475C423.456 230.225 423.295 229.907 423.295 229.522C423.295 229.209 423.394 228.944 423.591 228.725C423.789 228.506 424.05 228.397 424.373 228.397C424.706 228.397 424.956 228.506 425.123 228.725C425.289 228.944 425.373 229.173 425.373 229.412C425.373 229.506 425.368 229.574 425.357 229.615C425.576 229.72 425.784 229.772 425.982 229.772C426.347 229.772 426.664 229.631 426.935 229.35C427.404 228.902 427.638 227.928 427.638 226.428L427.685 215.24C427.685 214.636 427.711 214.115 427.763 213.678L426.045 213.787V212.772C427.013 212.772 427.701 212.72 428.107 212.615C428.513 212.501 428.826 212.339 429.045 212.131H429.748V224.444C429.748 226.579 429.331 228.183 428.498 229.256C427.664 230.329 426.56 230.865 425.185 230.865ZM436.605 224.756C435.855 224.756 435.167 224.652 434.542 224.444C433.917 224.246 433.381 223.996 432.933 223.694L433.042 224.537H432.027L431.886 220.412H432.62C432.662 221.069 432.844 221.652 433.167 222.162C433.501 222.673 433.933 223.079 434.464 223.381C434.995 223.673 435.568 223.819 436.183 223.819C436.87 223.819 437.48 223.657 438.011 223.334C438.553 223.001 438.823 222.527 438.823 221.912C438.823 221.464 438.688 221.089 438.417 220.787C438.157 220.485 437.829 220.235 437.433 220.037C437.047 219.839 436.501 219.6 435.792 219.319C434.948 219.006 434.271 218.709 433.761 218.428C433.251 218.147 432.808 217.766 432.433 217.287C432.068 216.808 431.886 216.199 431.886 215.459C431.886 214.928 432.011 214.402 432.261 213.881C432.521 213.35 432.954 212.902 433.558 212.537C434.172 212.162 434.985 211.975 435.995 211.975C436.485 211.975 436.99 212.058 437.511 212.225C438.032 212.381 438.516 212.641 438.964 213.006L438.917 212.1H439.917V216.303H439.152C439.11 215.376 438.829 214.574 438.308 213.897C437.787 213.209 437.053 212.865 436.105 212.865C435.386 212.865 434.813 213.048 434.386 213.412C433.969 213.766 433.761 214.194 433.761 214.694C433.761 215.162 433.896 215.558 434.167 215.881C434.448 216.194 434.797 216.464 435.214 216.694C435.631 216.912 436.193 217.157 436.902 217.428C437.735 217.761 438.407 218.074 438.917 218.365C439.428 218.657 439.86 219.037 440.214 219.506C440.579 219.975 440.761 220.548 440.761 221.225C440.761 221.996 440.563 222.647 440.167 223.178C439.782 223.699 439.271 224.095 438.636 224.365C438.011 224.626 437.334 224.756 436.605 224.756Z" fill="black"/>
<path fill-rule="evenodd" clip-rule="evenodd" d="M244.26 139.079H585.74V190.921H244.26V139.079Z" fill="#5EC1F6"/>
<path fill-rule="evenodd" clip-rule="evenodd" d="M244.26 139.079H585.74V190.921H244.26V139.079Z" stroke="black" stroke-miterlimit="10" stroke-linejoin="round"/>
<path d="M390.581 161.009C390.008 159.655 389.665 158.566 389.55 157.743L388.206 157.79V156.743H393.769V157.524L393.753 157.556C393.222 157.587 392.831 157.701 392.581 157.899C392.331 158.097 392.206 158.389 392.206 158.774C392.206 159.149 392.321 159.608 392.55 160.149L393.175 161.681C393.331 162.087 393.571 162.696 393.894 163.509C394.227 164.321 394.54 165.066 394.831 165.743L395.456 167.196C396.081 168.623 396.519 169.681 396.769 170.368H396.816L397.706 167.806L398.019 166.946L400.128 161.009L400.691 159.478C400.993 158.613 401.222 158.019 401.378 157.696L399.534 157.79V156.743H404.409V157.524C403.701 157.566 403.159 157.754 402.784 158.087C402.409 158.42 402.071 159.019 401.769 159.884L396.706 173.774H396.034L390.581 161.009ZM409.895 173.931C408.791 173.931 407.796 173.67 406.911 173.149C406.026 172.629 405.328 171.884 404.817 170.915C404.307 169.946 404.052 168.832 404.052 167.571C404.052 166.446 404.307 165.394 404.817 164.415C405.328 163.425 406.041 162.634 406.958 162.04C407.875 161.446 408.921 161.149 410.099 161.149C411.005 161.149 411.822 161.353 412.552 161.759C413.291 162.155 413.875 162.748 414.302 163.54C414.739 164.332 414.958 165.306 414.958 166.462L406.52 166.603C406.5 168.519 406.812 170.014 407.458 171.087C408.114 172.16 409.119 172.696 410.474 172.696C411.213 172.696 411.968 172.509 412.739 172.134C413.52 171.748 414.119 171.274 414.536 170.712L415.114 171.181C414.5 172.118 413.708 172.811 412.739 173.259C411.77 173.707 410.822 173.931 409.895 173.931ZM412.708 165.603C412.708 164.634 412.489 163.806 412.052 163.118C411.625 162.431 410.979 162.087 410.114 162.087C408.135 162.087 406.958 163.259 406.583 165.603H412.708ZM422.888 180.04C421.513 180.04 420.377 179.889 419.482 179.587C418.586 179.285 417.929 178.884 417.513 178.384C417.096 177.894 416.888 177.368 416.888 176.806C416.888 176.129 417.112 175.54 417.56 175.04C418.008 174.54 418.518 174.17 419.091 173.931C418.549 173.754 418.138 173.514 417.857 173.212C417.575 172.899 417.435 172.504 417.435 172.024C417.435 171.451 417.664 170.925 418.122 170.446C418.58 169.967 419.153 169.67 419.841 169.556C419.08 169.201 418.487 168.712 418.06 168.087C417.633 167.451 417.419 166.728 417.419 165.915C417.419 164.978 417.659 164.149 418.138 163.431C418.627 162.712 419.258 162.155 420.028 161.759C420.81 161.353 421.627 161.149 422.482 161.149C423.565 161.149 424.58 161.446 425.528 162.04C425.768 161.353 426.153 160.795 426.685 160.368C427.226 159.931 427.81 159.712 428.435 159.712C428.83 159.712 429.138 159.821 429.357 160.04C429.586 160.259 429.7 160.55 429.7 160.915C429.7 161.144 429.617 161.368 429.45 161.587C429.284 161.795 429.039 161.899 428.716 161.899C428.445 161.899 428.211 161.821 428.013 161.665C427.825 161.498 427.705 161.295 427.653 161.056C427.278 161.108 426.976 161.285 426.747 161.587C426.528 161.879 426.367 162.233 426.263 162.649C426.669 163.014 426.982 163.446 427.2 163.946C427.429 164.436 427.544 164.951 427.544 165.493C427.544 166.379 427.31 167.175 426.841 167.884C426.383 168.582 425.763 169.134 424.982 169.54C424.211 169.936 423.377 170.134 422.482 170.134C422.273 170.134 422.008 170.118 421.685 170.087C421.445 170.035 421.174 170.009 420.872 170.009C420.341 170.009 419.893 170.129 419.528 170.368C419.174 170.597 418.997 170.879 418.997 171.212C418.997 171.681 419.289 171.993 419.872 172.149C420.455 172.295 421.45 172.389 422.857 172.431C424.825 172.535 426.299 172.853 427.278 173.384C428.268 173.915 428.763 174.8 428.763 176.04C428.763 176.853 428.476 177.561 427.903 178.165C427.341 178.78 426.607 179.243 425.7 179.556C424.794 179.879 423.857 180.04 422.888 180.04ZM422.544 169.274C423.409 169.274 424.07 168.972 424.528 168.368C424.987 167.754 425.216 166.957 425.216 165.978C425.216 164.863 424.971 163.92 424.482 163.149C423.992 162.379 423.31 161.993 422.435 161.993C421.58 161.993 420.914 162.311 420.435 162.946C419.955 163.582 419.716 164.394 419.716 165.384C419.716 166.55 419.966 167.493 420.466 168.212C420.976 168.92 421.669 169.274 422.544 169.274ZM422.857 179.103C423.742 179.103 424.513 178.988 425.169 178.759C425.836 178.53 426.346 178.217 426.7 177.821C427.054 177.436 427.232 177.009 427.232 176.54C427.232 175.728 426.841 175.165 426.06 174.853C425.289 174.55 424.143 174.379 422.622 174.337C421.612 174.306 420.789 174.238 420.153 174.134C419.716 174.425 419.377 174.78 419.138 175.196C418.898 175.613 418.778 176.05 418.778 176.509C418.778 177.3 419.148 177.931 419.888 178.399C420.638 178.868 421.627 179.103 422.857 179.103ZM433.738 173.931C432.561 173.931 431.665 173.665 431.05 173.134C430.436 172.603 430.128 171.915 430.128 171.071C430.128 170.144 430.498 169.363 431.238 168.728C431.988 168.082 432.925 167.603 434.05 167.29C435.186 166.978 436.321 166.826 437.457 166.837V165.353C437.457 164.311 437.3 163.498 436.988 162.915C436.686 162.332 436.04 162.04 435.05 162.04C434.55 162.04 434.076 162.144 433.628 162.353C433.181 162.561 432.858 162.873 432.66 163.29C432.858 163.519 432.957 163.821 432.957 164.196C432.957 164.446 432.868 164.681 432.691 164.899C432.524 165.108 432.269 165.212 431.925 165.212C431.592 165.212 431.326 165.108 431.128 164.899C430.941 164.681 430.847 164.394 430.847 164.04C430.847 163.509 431.05 163.024 431.457 162.587C431.873 162.149 432.441 161.8 433.16 161.54C433.889 161.28 434.701 161.149 435.597 161.149C436.941 161.149 437.931 161.509 438.566 162.228C439.212 162.936 439.53 164.061 439.519 165.603L439.488 170.993C439.488 171.504 439.457 172.05 439.394 172.634L441.097 172.524V173.54H437.675C437.623 173.3 437.566 172.842 437.503 172.165C436.337 173.342 435.082 173.931 433.738 173.931ZM434.285 172.556C434.889 172.556 435.441 172.441 435.941 172.212C436.441 171.972 436.946 171.613 437.457 171.134C437.436 170.894 437.425 170.488 437.425 169.915L437.457 167.665C436.144 167.707 434.972 167.972 433.941 168.462C432.92 168.951 432.41 169.701 432.41 170.712C432.41 171.306 432.587 171.764 432.941 172.087C433.295 172.399 433.743 172.556 434.285 172.556Z" fill="black"/>
<path fill-rule="evenodd" clip-rule="evenodd" d="M244.26 87.2349H585.74V139.077H244.26V87.2349Z" fill="#5EC1F6"/>
<path fill-rule="evenodd" clip-rule="evenodd" d="M244.26 87.2349H585.74V139.077H244.26V87.2349Z" stroke="black" stroke-miterlimit="10" stroke-linejoin="round"/>
<path d="M363.257 109.165C362.684 107.811 362.341 106.722 362.226 105.899L360.882 105.946V104.899H366.445V105.681L366.429 105.712C365.898 105.743 365.507 105.858 365.257 106.056C365.007 106.253 364.882 106.545 364.882 106.931C364.882 107.306 364.997 107.764 365.226 108.306L365.851 109.837C366.007 110.243 366.247 110.852 366.57 111.665C366.903 112.477 367.216 113.222 367.507 113.899L368.132 115.352C368.757 116.78 369.195 117.837 369.445 118.524H369.492L370.382 115.962L370.695 115.102L372.804 109.165L373.367 107.634C373.669 106.769 373.898 106.175 374.054 105.852L372.211 105.946V104.899H377.086V105.681C376.377 105.722 375.836 105.91 375.461 106.243C375.086 106.576 374.747 107.175 374.445 108.04L369.382 121.931H368.711L363.257 109.165ZM382.572 122.087C381.467 122.087 380.473 121.826 379.587 121.306C378.702 120.785 378.004 120.04 377.493 119.071C376.983 118.102 376.728 116.988 376.728 115.727C376.728 114.602 376.983 113.55 377.493 112.571C378.004 111.582 378.717 110.79 379.634 110.196C380.551 109.602 381.598 109.306 382.775 109.306C383.681 109.306 384.499 109.509 385.228 109.915C385.967 110.311 386.551 110.905 386.978 111.696C387.415 112.488 387.634 113.462 387.634 114.618L379.197 114.759C379.176 116.675 379.488 118.17 380.134 119.243C380.79 120.316 381.795 120.852 383.15 120.852C383.889 120.852 384.644 120.665 385.415 120.29C386.197 119.905 386.795 119.431 387.212 118.868L387.79 119.337C387.176 120.274 386.384 120.967 385.415 121.415C384.447 121.863 383.499 122.087 382.572 122.087ZM385.384 113.759C385.384 112.79 385.165 111.962 384.728 111.274C384.301 110.587 383.655 110.243 382.79 110.243C380.811 110.243 379.634 111.415 379.259 113.759H385.384ZM395.564 128.196C394.189 128.196 393.053 128.045 392.158 127.743C391.262 127.441 390.606 127.04 390.189 126.54C389.772 126.05 389.564 125.524 389.564 124.962C389.564 124.285 389.788 123.696 390.236 123.196C390.684 122.696 391.194 122.326 391.767 122.087C391.225 121.91 390.814 121.67 390.533 121.368C390.251 121.056 390.111 120.66 390.111 120.181C390.111 119.608 390.34 119.082 390.798 118.602C391.257 118.123 391.829 117.826 392.517 117.712C391.757 117.358 391.163 116.868 390.736 116.243C390.309 115.608 390.095 114.884 390.095 114.071C390.095 113.134 390.335 112.306 390.814 111.587C391.303 110.868 391.934 110.311 392.704 109.915C393.486 109.509 394.303 109.306 395.158 109.306C396.241 109.306 397.257 109.602 398.204 110.196C398.444 109.509 398.829 108.951 399.361 108.524C399.902 108.087 400.486 107.868 401.111 107.868C401.507 107.868 401.814 107.977 402.033 108.196C402.262 108.415 402.376 108.707 402.376 109.071C402.376 109.3 402.293 109.524 402.126 109.743C401.96 109.951 401.715 110.056 401.392 110.056C401.121 110.056 400.887 109.977 400.689 109.821C400.501 109.655 400.382 109.451 400.329 109.212C399.954 109.264 399.652 109.441 399.423 109.743C399.204 110.035 399.043 110.389 398.939 110.806C399.345 111.17 399.658 111.602 399.876 112.102C400.106 112.592 400.22 113.108 400.22 113.649C400.22 114.535 399.986 115.332 399.517 116.04C399.059 116.738 398.439 117.29 397.658 117.696C396.887 118.092 396.053 118.29 395.158 118.29C394.949 118.29 394.684 118.274 394.361 118.243C394.121 118.191 393.85 118.165 393.548 118.165C393.017 118.165 392.569 118.285 392.204 118.524C391.85 118.753 391.673 119.035 391.673 119.368C391.673 119.837 391.965 120.149 392.548 120.306C393.132 120.451 394.126 120.545 395.533 120.587C397.501 120.691 398.975 121.009 399.954 121.54C400.944 122.071 401.439 122.957 401.439 124.196C401.439 125.009 401.152 125.717 400.579 126.321C400.017 126.936 399.283 127.399 398.376 127.712C397.47 128.035 396.533 128.196 395.564 128.196ZM395.22 117.431C396.085 117.431 396.746 117.128 397.204 116.524C397.663 115.91 397.892 115.113 397.892 114.134C397.892 113.019 397.647 112.076 397.158 111.306C396.668 110.535 395.986 110.149 395.111 110.149C394.257 110.149 393.59 110.467 393.111 111.102C392.632 111.738 392.392 112.55 392.392 113.54C392.392 114.707 392.642 115.649 393.142 116.368C393.652 117.076 394.345 117.431 395.22 117.431ZM395.533 127.259C396.418 127.259 397.189 127.144 397.845 126.915C398.512 126.686 399.022 126.373 399.376 125.977C399.731 125.592 399.908 125.165 399.908 124.696C399.908 123.884 399.517 123.321 398.736 123.009C397.965 122.707 396.819 122.535 395.298 122.493C394.288 122.462 393.465 122.394 392.829 122.29C392.392 122.582 392.053 122.936 391.814 123.352C391.574 123.769 391.454 124.207 391.454 124.665C391.454 125.457 391.824 126.087 392.564 126.556C393.314 127.024 394.303 127.259 395.533 127.259ZM406.414 122.087C405.237 122.087 404.341 121.821 403.726 121.29C403.112 120.759 402.805 120.071 402.805 119.227C402.805 118.3 403.174 117.519 403.914 116.884C404.664 116.238 405.601 115.759 406.726 115.446C407.862 115.134 408.997 114.983 410.133 114.993V113.509C410.133 112.467 409.976 111.655 409.664 111.071C409.362 110.488 408.716 110.196 407.726 110.196C407.226 110.196 406.752 110.3 406.305 110.509C405.857 110.717 405.534 111.03 405.336 111.446C405.534 111.675 405.633 111.977 405.633 112.352C405.633 112.602 405.544 112.837 405.367 113.056C405.2 113.264 404.945 113.368 404.601 113.368C404.268 113.368 404.002 113.264 403.805 113.056C403.617 112.837 403.523 112.55 403.523 112.196C403.523 111.665 403.726 111.181 404.133 110.743C404.549 110.306 405.117 109.957 405.836 109.696C406.565 109.436 407.377 109.306 408.273 109.306C409.617 109.306 410.607 109.665 411.242 110.384C411.888 111.092 412.206 112.217 412.195 113.759L412.164 119.149C412.164 119.66 412.133 120.207 412.07 120.79L413.773 120.681V121.696H410.351C410.299 121.457 410.242 120.998 410.18 120.321C409.013 121.498 407.758 122.087 406.414 122.087ZM406.961 120.712C407.565 120.712 408.117 120.597 408.617 120.368C409.117 120.128 409.622 119.769 410.133 119.29C410.112 119.05 410.101 118.644 410.101 118.071L410.133 115.821C408.82 115.863 407.648 116.128 406.617 116.618C405.596 117.108 405.086 117.858 405.086 118.868C405.086 119.462 405.263 119.92 405.617 120.243C405.971 120.556 406.419 120.712 406.961 120.712ZM415.985 113.181H424.501V114.759L415.985 114.852V113.181ZM427.04 120.899C427.603 120.889 428.004 120.764 428.244 120.524C428.483 120.285 428.619 120.003 428.65 119.681C428.681 119.347 428.697 118.769 428.697 117.946V107.587C428.697 106.91 428.723 106.332 428.775 105.852L427.04 105.946V104.899H432.447V105.681C431.884 105.701 431.483 105.832 431.244 106.071C431.004 106.311 430.869 106.597 430.837 106.931C430.806 107.253 430.79 107.821 430.79 108.634V118.931C430.79 119.764 430.764 120.389 430.712 120.806L435.212 120.743C436.233 120.722 436.999 120.399 437.509 119.774C438.02 119.139 438.275 118.123 438.275 116.727H439.103L438.947 121.696H427.04V120.899ZM443.037 107.087C442.694 107.087 442.392 106.946 442.131 106.665C441.881 106.384 441.756 106.05 441.756 105.665C441.756 105.28 441.886 104.946 442.147 104.665C442.418 104.373 442.72 104.227 443.053 104.227C443.428 104.227 443.735 104.368 443.975 104.649C444.225 104.931 444.35 105.269 444.35 105.665C444.35 106.05 444.214 106.384 443.944 106.665C443.683 106.946 443.381 107.087 443.037 107.087ZM440.662 120.977C441.121 120.977 441.449 120.863 441.647 120.634C441.855 120.394 441.975 120.097 442.006 119.743C442.048 119.378 442.069 118.816 442.069 118.056V112.571C442.069 112.113 442.1 111.592 442.162 111.009L440.459 111.118V110.102C441.407 110.102 442.084 110.05 442.491 109.946C442.897 109.832 443.214 109.67 443.444 109.462H444.131V119.149C444.131 119.868 444.1 120.415 444.037 120.79L445.553 120.712V121.696H440.662V120.977ZM452.29 122.087C450.103 122.087 449.014 120.613 449.025 117.665L449.087 110.712L447.228 110.727V109.696C447.999 109.675 448.65 109.326 449.181 108.649C449.723 107.972 450.119 107.201 450.369 106.337H451.197V109.696H455.228V110.634L451.197 110.681C451.176 113.128 451.16 114.826 451.15 115.774C451.15 116.712 451.15 117.238 451.15 117.352C451.15 118.488 451.285 119.332 451.556 119.884C451.827 120.436 452.296 120.712 452.962 120.712C453.379 120.712 453.79 120.587 454.197 120.337C454.613 120.076 454.973 119.722 455.275 119.274L455.915 119.806C455.29 120.733 454.676 121.347 454.072 121.649C453.467 121.941 452.874 122.087 452.29 122.087ZM462.875 122.087C461.771 122.087 460.776 121.826 459.891 121.306C459.005 120.785 458.308 120.04 457.797 119.071C457.287 118.102 457.031 116.988 457.031 115.727C457.031 114.602 457.287 113.55 457.797 112.571C458.308 111.582 459.021 110.79 459.938 110.196C460.854 109.602 461.901 109.306 463.078 109.306C463.985 109.306 464.802 109.509 465.531 109.915C466.271 110.311 466.854 110.905 467.281 111.696C467.719 112.488 467.938 113.462 467.938 114.618L459.5 114.759C459.479 116.675 459.792 118.17 460.438 119.243C461.094 120.316 462.099 120.852 463.453 120.852C464.193 120.852 464.948 120.665 465.719 120.29C466.5 119.905 467.099 119.431 467.516 118.868L468.094 119.337C467.479 120.274 466.688 120.967 465.719 121.415C464.75 121.863 463.802 122.087 462.875 122.087ZM465.688 113.759C465.688 112.79 465.469 111.962 465.031 111.274C464.604 110.587 463.959 110.243 463.094 110.243C461.115 110.243 459.938 111.415 459.563 113.759H465.688Z" fill="black"/>
<path fill-rule="evenodd" clip-rule="evenodd" d="M244.26 37.4305H585.74V89.273H244.26V37.4305Z" fill="#8AD57B"/>
<path fill-rule="evenodd" clip-rule="evenodd" d="M244.26 37.4305H585.74V89.273H244.26V37.4305Z" stroke="black" stroke-miterlimit="10" stroke-linejoin="round"/>
<path d="M384.679 71.0948C385.075 71.0948 385.393 71.0063 385.633 70.8292C385.872 70.6417 386.065 70.4021 386.211 70.1105C386.367 69.8084 386.549 69.3605 386.758 68.7667L387.008 68.0948L391.945 54.6417H392.523L397.883 68.298C398.049 68.725 398.195 69.1938 398.32 69.7042C398.456 70.2042 398.518 70.6157 398.508 70.9386L400.133 70.8292V71.8917H394.633V71.0948C395.581 71.0844 396.054 70.7042 396.054 69.9542C396.054 69.6417 395.971 69.2615 395.804 68.8136L394.976 66.5636L388.726 66.7042C388.487 67.3605 388.211 68.2198 387.898 69.2823C387.732 69.8032 387.528 70.3553 387.289 70.9386L389.164 70.8292V71.8917H384.679V71.0948ZM394.633 65.673L392.929 61.0948L391.851 58.1417H391.804L390.789 60.8448L389.508 64.5011L389.086 65.673H394.633ZM400.657 71.173C401.125 71.173 401.459 71.0584 401.657 70.8292C401.854 70.5896 401.974 70.2928 402.016 69.9386C402.058 69.574 402.078 69.0115 402.078 68.2511V56.8917C402.078 56.2875 402.099 55.7667 402.141 55.3292L400.438 55.423V54.423C401.407 54.423 402.094 54.3657 402.5 54.2511C402.907 54.1365 403.219 53.975 403.438 53.7667H404.141L404.157 69.3448C404.157 69.9698 404.12 70.5167 404.047 70.9855L405.563 70.9073V71.8917H400.657V71.173ZM411.935 72.2823C409.747 72.2823 408.658 70.8084 408.669 67.8605L408.731 60.9073L406.872 60.923V59.8917C407.643 59.8709 408.294 59.5219 408.825 58.8448C409.367 58.1678 409.763 57.3969 410.013 56.5323H410.841V59.8917H414.872V60.8292L410.841 60.8761C410.82 63.324 410.804 65.0219 410.794 65.9698C410.794 66.9073 410.794 67.4334 410.794 67.548C410.794 68.6834 410.929 69.5271 411.2 70.0792C411.471 70.6313 411.94 70.9073 412.606 70.9073C413.023 70.9073 413.435 70.7823 413.841 70.5323C414.257 70.2719 414.617 69.9178 414.919 69.4698L415.56 70.0011C414.935 70.9282 414.32 71.5428 413.716 71.8448C413.112 72.1365 412.518 72.2823 411.935 72.2823ZM420.082 72.2823C418.905 72.2823 418.009 72.0167 417.394 71.4855C416.78 70.9542 416.473 70.2667 416.473 69.423C416.473 68.4959 416.842 67.7146 417.582 67.0792C418.332 66.4334 419.269 65.9542 420.394 65.6417C421.53 65.3292 422.665 65.1782 423.801 65.1886V63.7042C423.801 62.6625 423.644 61.85 423.332 61.2667C423.03 60.6834 422.384 60.3917 421.394 60.3917C420.894 60.3917 420.42 60.4959 419.973 60.7042C419.525 60.9125 419.202 61.225 419.004 61.6417C419.202 61.8709 419.301 62.173 419.301 62.548C419.301 62.798 419.212 63.0323 419.035 63.2511C418.868 63.4594 418.613 63.5636 418.269 63.5636C417.936 63.5636 417.67 63.4594 417.473 63.2511C417.285 63.0323 417.191 62.7459 417.191 62.3917C417.191 61.8605 417.394 61.3761 417.801 60.9386C418.217 60.5011 418.785 60.1521 419.504 59.8917C420.233 59.6313 421.045 59.5011 421.941 59.5011C423.285 59.5011 424.275 59.8605 424.91 60.5792C425.556 61.2875 425.874 62.4125 425.863 63.9542L425.832 69.3448C425.832 69.8553 425.801 70.4021 425.738 70.9855L427.441 70.8761V71.8917H424.019C423.967 71.6521 423.91 71.1938 423.848 70.5167C422.681 71.6938 421.426 72.2823 420.082 72.2823ZM420.629 70.9073C421.233 70.9073 421.785 70.7928 422.285 70.5636C422.785 70.324 423.29 69.9646 423.801 69.4855C423.78 69.2459 423.769 68.8396 423.769 68.2667L423.801 66.0167C422.488 66.0584 421.316 66.324 420.285 66.8136C419.264 67.3032 418.754 68.0532 418.754 69.0636C418.754 69.6573 418.931 70.1157 419.285 70.4386C419.639 70.7511 420.087 70.9073 420.629 70.9073ZM431.481 57.2823C431.138 57.2823 430.836 57.1417 430.575 56.8605C430.325 56.5792 430.2 56.2459 430.2 55.8605C430.2 55.475 430.33 55.1417 430.591 54.8605C430.862 54.5688 431.164 54.423 431.497 54.423C431.872 54.423 432.179 54.5636 432.419 54.8448C432.669 55.1261 432.794 55.4646 432.794 55.8605C432.794 56.2459 432.659 56.5792 432.388 56.8605C432.127 57.1417 431.825 57.2823 431.481 57.2823ZM429.106 71.173C429.565 71.173 429.893 71.0584 430.091 70.8292C430.299 70.5896 430.419 70.2928 430.45 69.9386C430.492 69.574 430.513 69.0115 430.513 68.2511V62.7667C430.513 62.3084 430.544 61.7875 430.606 61.2042L428.903 61.3136V60.298C429.851 60.298 430.528 60.2459 430.935 60.1417C431.341 60.0271 431.659 59.8657 431.888 59.6573H432.575V69.3448C432.575 70.0636 432.544 70.6105 432.481 70.9855L433.997 70.9073V71.8917H429.106V71.173ZM435.85 71.173C436.309 71.173 436.637 71.0584 436.835 70.8292C437.043 70.5896 437.163 70.2928 437.194 69.9386C437.236 69.574 437.257 69.0115 437.257 68.2511V62.7667C437.257 62.1 437.288 61.5792 437.35 61.2042L435.647 61.2823V60.298H436.397C437.001 60.298 437.439 60.2459 437.71 60.1417C437.991 60.0375 438.251 59.8761 438.491 59.6573H439.179C439.241 60.2823 439.283 61.074 439.304 62.0323C439.699 61.3761 440.267 60.7928 441.007 60.2823C441.757 59.7615 442.533 59.5011 443.335 59.5011C443.814 59.5011 444.21 59.6313 444.522 59.8917C444.845 60.1521 445.007 60.5271 445.007 61.0167C445.007 61.2771 444.908 61.5375 444.71 61.798C444.512 62.048 444.231 62.173 443.866 62.173C443.512 62.173 443.22 62.0428 442.991 61.7823C442.772 61.5115 442.684 61.1938 442.725 60.8292C442.121 60.8084 441.512 61.0428 440.897 61.5323C440.283 62.0115 439.757 62.6469 439.319 63.4386L439.35 69.3448C439.35 70.0636 439.319 70.6105 439.257 70.9855L440.757 70.9073V71.8917H435.85V71.173Z" fill="black"/>
<path d="M599.803 63.8428V68.4834H603.178C603.417 68.4834 603.584 68.5303 603.678 68.6241C603.782 68.7074 603.834 68.822 603.834 68.9678C603.834 69.1137 603.782 69.2334 603.678 69.3272C603.584 69.4209 603.417 69.4678 603.178 69.4678H597.49C597.261 69.4678 597.094 69.4209 596.99 69.3272C596.886 69.2334 596.834 69.1137 596.834 68.9678C596.834 68.822 596.886 68.7074 596.99 68.6241C597.094 68.5303 597.261 68.4834 597.49 68.4834H598.818V56.7334H597.49C597.261 56.7334 597.094 56.6918 596.99 56.6084C596.886 56.5147 596.834 56.3949 596.834 56.2491C596.834 56.1032 596.886 55.9834 596.99 55.8897C597.094 55.7959 597.261 55.7491 597.49 55.7491H603.209C604.563 55.7491 605.667 56.1501 606.521 56.9522C607.376 57.7439 607.803 58.6762 607.803 59.7491C607.803 60.3845 607.662 60.9574 607.381 61.4678C607.11 61.9678 606.782 62.3637 606.396 62.6553C605.803 63.0928 605.193 63.4157 604.568 63.6241C604.12 63.7699 603.558 63.8428 602.881 63.8428H599.803ZM599.803 62.8584H602.943C603.672 62.8584 604.355 62.697 604.99 62.3741C605.626 62.0512 606.089 61.6553 606.381 61.1866C606.672 60.7178 606.818 60.2387 606.818 59.7491C606.818 58.9782 606.485 58.2855 605.818 57.6709C605.162 57.0459 604.324 56.7334 603.303 56.7334H599.803V62.8584ZM616.408 69.4678L611.846 60.3116H611.549C611.309 60.3116 611.137 60.2647 611.033 60.1709C610.939 60.0772 610.893 59.9626 610.893 59.8272C610.893 59.723 610.919 59.6293 610.971 59.5459C611.023 59.4626 611.085 59.4053 611.158 59.3741C611.241 59.3324 611.372 59.3116 611.549 59.3116H614.236C614.476 59.3116 614.643 59.3584 614.736 59.4522C614.84 59.5459 614.893 59.6709 614.893 59.8272C614.893 59.9626 614.84 60.0772 614.736 60.1709C614.643 60.2647 614.476 60.3116 614.236 60.3116H612.924L616.939 68.3897L620.893 60.3116H619.58C619.34 60.3116 619.169 60.2647 619.064 60.1709C618.971 60.0772 618.924 59.9574 618.924 59.8116C618.924 59.6657 618.971 59.5459 619.064 59.4522C619.169 59.3584 619.34 59.3116 619.58 59.3116H622.252C622.502 59.3116 622.674 59.3584 622.768 59.4522C622.872 59.5459 622.924 59.6709 622.924 59.8272C622.924 59.9209 622.893 60.0147 622.83 60.1084C622.768 60.1918 622.695 60.2491 622.611 60.2803C622.538 60.3012 622.325 60.3116 621.971 60.3116L615.736 73.0147H617.268C617.497 73.0147 617.663 73.0564 617.768 73.1397C617.872 73.2334 617.924 73.3532 617.924 73.4991C617.924 73.6449 617.872 73.7647 617.768 73.8584C617.663 73.9522 617.497 73.9991 617.268 73.9991H611.596C611.356 73.9991 611.184 73.9522 611.08 73.8584C610.986 73.7647 610.939 73.6449 610.939 73.4991C610.939 73.3532 610.986 73.2334 611.08 73.1397C611.184 73.0564 611.356 73.0147 611.596 73.0147H614.674L616.408 69.4678ZM628.732 59.3116H634.076C634.305 59.3116 634.472 59.3584 634.576 59.4522C634.68 59.5459 634.732 59.6709 634.732 59.8272C634.732 59.9626 634.68 60.0772 634.576 60.1709C634.472 60.2647 634.305 60.3116 634.076 60.3116H628.732V66.8584C628.732 67.4314 628.956 67.9105 629.404 68.2959C629.863 68.6814 630.534 68.8741 631.42 68.8741C632.087 68.8741 632.805 68.7751 633.576 68.5772C634.347 68.3689 634.951 68.1397 635.389 67.8897C635.545 67.7959 635.67 67.7491 635.764 67.7491C635.889 67.7491 635.998 67.7959 636.092 67.8897C636.185 67.9834 636.232 68.098 636.232 68.2334C636.232 68.348 636.185 68.4574 636.092 68.5616C635.842 68.822 635.232 69.1032 634.264 69.4053C633.295 69.7074 632.373 69.8584 631.498 69.8584C630.342 69.8584 629.425 69.5876 628.748 69.0459C628.071 68.5043 627.732 67.7751 627.732 66.8584V60.3116H625.92C625.68 60.3116 625.508 60.2647 625.404 60.1709C625.31 60.0772 625.264 59.9574 625.264 59.8116C625.264 59.6657 625.31 59.5459 625.404 59.4522C625.508 59.3584 625.68 59.3116 625.92 59.3116H627.732V56.4053C627.732 56.1762 627.779 56.0095 627.873 55.9053C627.967 55.8012 628.081 55.7491 628.217 55.7491C628.373 55.7491 628.498 55.8012 628.592 55.9053C628.685 56.0095 628.732 56.1762 628.732 56.4053V59.3116ZM641.916 54.7647V60.8116C642.541 60.1345 643.14 59.6605 643.713 59.3897C644.286 59.1084 644.926 58.9678 645.635 58.9678C646.406 58.9678 647.057 59.1032 647.588 59.3741C648.119 59.6449 648.562 60.0616 648.916 60.6241C649.281 61.1762 649.463 61.7595 649.463 62.3741V68.4834H650.572C650.812 68.4834 650.978 68.5303 651.072 68.6241C651.176 68.7074 651.228 68.822 651.228 68.9678C651.228 69.1137 651.176 69.2334 651.072 69.3272C650.978 69.4209 650.812 69.4678 650.572 69.4678H647.369C647.129 69.4678 646.958 69.4209 646.853 69.3272C646.749 69.2334 646.697 69.1137 646.697 68.9678C646.697 68.822 646.749 68.7074 646.853 68.6241C646.958 68.5303 647.129 68.4834 647.369 68.4834H648.478V62.4522C648.478 61.7334 648.218 61.1397 647.697 60.6709C647.187 60.1918 646.478 59.9522 645.572 59.9522C644.853 59.9522 644.239 60.1293 643.728 60.4834C643.364 60.7334 642.76 61.322 641.916 62.2491V68.4834H643.025C643.254 68.4834 643.421 68.5303 643.525 68.6241C643.629 68.7074 643.682 68.822 643.682 68.9678C643.682 69.1137 643.629 69.2334 643.525 69.3272C643.421 69.4209 643.254 69.4678 643.025 69.4678H639.807C639.577 69.4678 639.411 69.4209 639.307 69.3272C639.202 69.2334 639.15 69.1137 639.15 68.9678C639.15 68.822 639.202 68.7074 639.307 68.6241C639.411 68.5303 639.577 68.4834 639.807 68.4834H640.932V55.7491H639.603C639.364 55.7491 639.192 55.7022 639.088 55.6084C638.994 55.5147 638.947 55.3949 638.947 55.2491C638.947 55.1137 638.994 54.9991 639.088 54.9053C639.192 54.8116 639.364 54.7647 639.603 54.7647H641.916ZM665.053 64.4209C665.053 65.9209 664.516 67.2022 663.443 68.2647C662.37 69.3272 661.074 69.8584 659.553 69.8584C658.021 69.8584 656.719 69.3272 655.646 68.2647C654.584 67.1918 654.053 65.9105 654.053 64.4209C654.053 62.9209 654.584 61.6397 655.646 60.5772C656.719 59.5043 658.021 58.9678 659.553 58.9678C661.074 58.9678 662.37 59.4991 663.443 60.5616C664.516 61.6241 665.053 62.9105 665.053 64.4209ZM664.053 64.4209C664.053 63.1814 663.615 62.1293 662.74 61.2647C661.865 60.4001 660.803 59.9678 659.553 59.9678C658.303 59.9678 657.235 60.4053 656.35 61.2803C655.475 62.1449 655.037 63.1918 655.037 64.4209C655.037 65.6397 655.475 66.6866 656.35 67.5616C657.235 68.4366 658.303 68.8741 659.553 68.8741C660.803 68.8741 661.865 68.4366 662.74 67.5616C663.615 66.6866 664.053 65.6397 664.053 64.4209ZM670.768 59.3116V60.8116C671.455 60.1137 672.075 59.6345 672.627 59.3741C673.189 59.1032 673.82 58.9678 674.518 58.9678C675.268 58.9678 675.95 59.1293 676.564 59.4522C677.002 59.6814 677.398 60.0668 677.752 60.6084C678.106 61.1501 678.283 61.7074 678.283 62.2803V68.4834H679.111C679.351 68.4834 679.518 68.5303 679.611 68.6241C679.715 68.7074 679.768 68.822 679.768 68.9678C679.768 69.1137 679.715 69.2334 679.611 69.3272C679.518 69.4209 679.351 69.4678 679.111 69.4678H676.486C676.236 69.4678 676.059 69.4209 675.955 69.3272C675.861 69.2334 675.814 69.1137 675.814 68.9678C675.814 68.822 675.861 68.7074 675.955 68.6241C676.059 68.5303 676.236 68.4834 676.486 68.4834H677.299V62.4522C677.299 61.7543 677.044 61.1657 676.533 60.6866C676.033 60.2074 675.356 59.9678 674.502 59.9678C673.856 59.9678 673.294 60.098 672.814 60.3584C672.335 60.6189 671.653 61.2699 670.768 62.3116V68.4834H671.893C672.122 68.4834 672.288 68.5303 672.393 68.6241C672.497 68.7074 672.549 68.822 672.549 68.9678C672.549 69.1137 672.497 69.2334 672.393 69.3272C672.288 69.4209 672.122 69.4678 671.893 69.4678H668.674C668.445 69.4678 668.278 69.4209 668.174 69.3272C668.07 69.2334 668.018 69.1137 668.018 68.9678C668.018 68.822 668.07 68.7074 668.174 68.6241C668.278 68.5303 668.445 68.4834 668.674 68.4834H669.783V60.3116H668.955C668.726 60.3116 668.559 60.2647 668.455 60.1709C668.351 60.0772 668.299 59.9574 668.299 59.8116C668.299 59.6657 668.351 59.5459 668.455 59.4522C668.559 59.3584 668.726 59.3116 668.955 59.3116H670.768Z" fill="black"/>
<path d="M605.787 109.959V118.662C605.787 119.86 605.339 120.897 604.443 121.772C603.558 122.647 602.501 123.084 601.271 123.084C600.532 123.084 599.803 122.912 599.084 122.569C598.365 122.225 597.584 121.668 596.74 120.897V117.272C596.74 117.032 596.787 116.865 596.881 116.772C596.975 116.668 597.094 116.615 597.24 116.615C597.386 116.615 597.506 116.668 597.6 116.772C597.693 116.865 597.74 117.032 597.74 117.272L597.725 120.428C598.329 120.98 598.922 121.397 599.506 121.678C600.1 121.959 600.688 122.1 601.271 122.1C601.907 122.1 602.511 121.944 603.084 121.631C603.511 121.391 603.902 120.996 604.256 120.444C604.62 119.891 604.803 119.298 604.803 118.662V109.959H600.943C600.704 109.959 600.532 109.918 600.428 109.834C600.324 109.74 600.271 109.621 600.271 109.475C600.271 109.329 600.324 109.209 600.428 109.115C600.532 109.022 600.704 108.975 600.943 108.975H608.131C608.37 108.975 608.537 109.022 608.631 109.115C608.735 109.209 608.787 109.329 608.787 109.475C608.787 109.621 608.735 109.74 608.631 109.834C608.537 109.918 608.37 109.959 608.131 109.959H605.787ZM619.861 109.959V109.631C619.861 109.402 619.908 109.235 620.002 109.131C620.096 109.027 620.215 108.975 620.361 108.975C620.507 108.975 620.622 109.027 620.705 109.131C620.799 109.235 620.846 109.402 620.846 109.631V112.147C620.846 112.376 620.799 112.543 620.705 112.647C620.622 112.751 620.507 112.803 620.361 112.803C620.215 112.803 620.096 112.756 620.002 112.662C619.919 112.569 619.872 112.418 619.861 112.209C619.83 111.553 619.491 110.964 618.846 110.444C618.21 109.912 617.377 109.647 616.346 109.647C615.262 109.647 614.398 109.928 613.752 110.49C613.116 111.043 612.799 111.699 612.799 112.459C612.799 112.855 612.887 113.214 613.064 113.537C613.252 113.85 613.491 114.105 613.783 114.303C614.085 114.501 614.424 114.662 614.799 114.787C615.174 114.912 615.757 115.037 616.549 115.162C617.882 115.381 618.804 115.605 619.314 115.834C619.991 116.136 620.502 116.558 620.846 117.1C621.2 117.641 621.377 118.277 621.377 119.006C621.377 120.131 620.929 121.095 620.033 121.897C619.137 122.688 617.924 123.084 616.393 123.084C614.684 123.084 613.32 122.548 612.299 121.475V122.037C612.299 122.266 612.252 122.433 612.158 122.537C612.075 122.641 611.955 122.694 611.799 122.694C611.663 122.694 611.549 122.641 611.455 122.537C611.361 122.433 611.314 122.266 611.314 122.037V119.319C611.314 119.079 611.356 118.907 611.439 118.803C611.533 118.699 611.653 118.647 611.799 118.647C611.945 118.647 612.059 118.694 612.143 118.787C612.236 118.881 612.288 119.032 612.299 119.24C612.34 119.959 612.726 120.615 613.455 121.209C614.184 121.803 615.163 122.1 616.393 122.1C617.632 122.1 618.606 121.793 619.314 121.178C620.033 120.553 620.393 119.819 620.393 118.975C620.393 118.464 620.257 118.006 619.986 117.6C619.715 117.194 619.309 116.876 618.768 116.647C618.393 116.48 617.611 116.298 616.424 116.1C614.788 115.819 613.611 115.397 612.893 114.834C612.174 114.272 611.814 113.475 611.814 112.444C611.814 111.412 612.226 110.527 613.049 109.787C613.872 109.037 614.96 108.662 616.314 108.662C617.689 108.662 618.872 109.095 619.861 109.959ZM636.764 115.865C636.764 117.178 636.498 118.397 635.967 119.522C635.435 120.647 634.701 121.522 633.764 122.147C632.837 122.772 631.837 123.084 630.764 123.084C629.18 123.084 627.784 122.412 626.576 121.069C625.368 119.714 624.764 117.98 624.764 115.865C624.764 113.751 625.368 112.022 626.576 110.678C627.784 109.334 629.18 108.662 630.764 108.662C631.837 108.662 632.837 108.975 633.764 109.6C634.691 110.225 635.42 111.1 635.951 112.225C636.493 113.339 636.764 114.553 636.764 115.865ZM635.764 115.865C635.764 114.272 635.3 112.839 634.373 111.569C633.446 110.287 632.243 109.647 630.764 109.647C629.378 109.647 628.196 110.256 627.217 111.475C626.238 112.683 625.748 114.147 625.748 115.865C625.748 117.699 626.258 119.199 627.279 120.365C628.31 121.522 629.472 122.1 630.764 122.1C632.243 122.1 633.446 121.464 634.373 120.194C635.3 118.923 635.764 117.48 635.764 115.865ZM649.978 122.694H648.713L641.447 110.428V121.709H643.275C643.515 121.709 643.682 121.756 643.775 121.85C643.879 121.933 643.932 122.048 643.932 122.194C643.932 122.339 643.879 122.459 643.775 122.553C643.682 122.647 643.515 122.694 643.275 122.694H639.65C639.411 122.694 639.239 122.647 639.135 122.553C639.031 122.459 638.978 122.339 638.978 122.194C638.978 122.048 639.031 121.933 639.135 121.85C639.239 121.756 639.411 121.709 639.65 121.709H640.463V109.959H639.15C638.911 109.959 638.739 109.918 638.635 109.834C638.541 109.74 638.494 109.621 638.494 109.475C638.494 109.329 638.541 109.209 638.635 109.115C638.739 109.022 638.911 108.975 639.15 108.975H641.728L648.994 121.272V109.959H647.166C646.937 109.959 646.77 109.918 646.666 109.834C646.562 109.74 646.51 109.621 646.51 109.475C646.51 109.329 646.557 109.209 646.65 109.115C646.754 109.022 646.926 108.975 647.166 108.975H650.807C651.036 108.975 651.202 109.022 651.307 109.115C651.411 109.209 651.463 109.329 651.463 109.475C651.463 109.621 651.411 109.74 651.307 109.834C651.202 109.918 651.036 109.959 650.807 109.959H649.978V122.694Z" fill="black"/>
<path d="M605.787 159.585V168.288C605.787 169.486 605.339 170.523 604.443 171.398C603.558 172.273 602.501 172.71 601.271 172.71C600.532 172.71 599.803 172.538 599.084 172.195C598.365 171.851 597.584 171.293 596.74 170.523V166.898C596.74 166.658 596.787 166.491 596.881 166.398C596.975 166.293 597.094 166.241 597.24 166.241C597.386 166.241 597.506 166.293 597.6 166.398C597.693 166.491 597.74 166.658 597.74 166.898L597.725 170.054C598.329 170.606 598.922 171.023 599.506 171.304C600.1 171.585 600.688 171.726 601.271 171.726C601.907 171.726 602.511 171.57 603.084 171.257C603.511 171.017 603.902 170.622 604.256 170.07C604.62 169.517 604.803 168.924 604.803 168.288V159.585H600.943C600.704 159.585 600.532 159.543 600.428 159.46C600.324 159.366 600.271 159.247 600.271 159.101C600.271 158.955 600.324 158.835 600.428 158.741C600.532 158.648 600.704 158.601 600.943 158.601H608.131C608.37 158.601 608.537 158.648 608.631 158.741C608.735 158.835 608.787 158.955 608.787 159.101C608.787 159.247 608.735 159.366 608.631 159.46C608.537 159.543 608.37 159.585 608.131 159.585H605.787ZM619.861 159.585V159.257C619.861 159.028 619.908 158.861 620.002 158.757C620.096 158.653 620.215 158.601 620.361 158.601C620.507 158.601 620.622 158.653 620.705 158.757C620.799 158.861 620.846 159.028 620.846 159.257V161.773C620.846 162.002 620.799 162.168 620.705 162.273C620.622 162.377 620.507 162.429 620.361 162.429C620.215 162.429 620.096 162.382 620.002 162.288C619.919 162.195 619.872 162.043 619.861 161.835C619.83 161.179 619.491 160.59 618.846 160.07C618.21 159.538 617.377 159.273 616.346 159.273C615.262 159.273 614.398 159.554 613.752 160.116C613.116 160.668 612.799 161.325 612.799 162.085C612.799 162.481 612.887 162.84 613.064 163.163C613.252 163.476 613.491 163.731 613.783 163.929C614.085 164.127 614.424 164.288 614.799 164.413C615.174 164.538 615.757 164.663 616.549 164.788C617.882 165.007 618.804 165.231 619.314 165.46C619.991 165.762 620.502 166.184 620.846 166.726C621.2 167.267 621.377 167.903 621.377 168.632C621.377 169.757 620.929 170.721 620.033 171.523C619.137 172.314 617.924 172.71 616.393 172.71C614.684 172.71 613.32 172.174 612.299 171.101V171.663C612.299 171.892 612.252 172.059 612.158 172.163C612.075 172.267 611.955 172.32 611.799 172.32C611.663 172.32 611.549 172.267 611.455 172.163C611.361 172.059 611.314 171.892 611.314 171.663V168.945C611.314 168.705 611.356 168.533 611.439 168.429C611.533 168.325 611.653 168.273 611.799 168.273C611.945 168.273 612.059 168.32 612.143 168.413C612.236 168.507 612.288 168.658 612.299 168.866C612.34 169.585 612.726 170.241 613.455 170.835C614.184 171.429 615.163 171.726 616.393 171.726C617.632 171.726 618.606 171.418 619.314 170.804C620.033 170.179 620.393 169.445 620.393 168.601C620.393 168.09 620.257 167.632 619.986 167.226C619.715 166.82 619.309 166.502 618.768 166.273C618.393 166.106 617.611 165.924 616.424 165.726C614.788 165.445 613.611 165.023 612.893 164.46C612.174 163.898 611.814 163.101 611.814 162.07C611.814 161.038 612.226 160.153 613.049 159.413C613.872 158.663 614.96 158.288 616.314 158.288C617.689 158.288 618.872 158.721 619.861 159.585ZM636.764 165.491C636.764 166.804 636.498 168.023 635.967 169.148C635.435 170.273 634.701 171.148 633.764 171.773C632.837 172.398 631.837 172.71 630.764 172.71C629.18 172.71 627.784 172.038 626.576 170.695C625.368 169.34 624.764 167.606 624.764 165.491C624.764 163.377 625.368 161.648 626.576 160.304C627.784 158.96 629.18 158.288 630.764 158.288C631.837 158.288 632.837 158.601 633.764 159.226C634.691 159.851 635.42 160.726 635.951 161.851C636.493 162.965 636.764 164.179 636.764 165.491ZM635.764 165.491C635.764 163.898 635.3 162.465 634.373 161.195C633.446 159.913 632.243 159.273 630.764 159.273C629.378 159.273 628.196 159.882 627.217 161.101C626.238 162.309 625.748 163.773 625.748 165.491C625.748 167.325 626.258 168.825 627.279 169.991C628.31 171.148 629.472 171.726 630.764 171.726C632.243 171.726 633.446 171.09 634.373 169.82C635.3 168.549 635.764 167.106 635.764 165.491ZM649.978 172.32H648.713L641.447 160.054V171.335H643.275C643.515 171.335 643.682 171.382 643.775 171.476C643.879 171.559 643.932 171.674 643.932 171.82C643.932 171.965 643.879 172.085 643.775 172.179C643.682 172.273 643.515 172.32 643.275 172.32H639.65C639.411 172.32 639.239 172.273 639.135 172.179C639.031 172.085 638.978 171.965 638.978 171.82C638.978 171.674 639.031 171.559 639.135 171.476C639.239 171.382 639.411 171.335 639.65 171.335H640.463V159.585H639.15C638.911 159.585 638.739 159.543 638.635 159.46C638.541 159.366 638.494 159.247 638.494 159.101C638.494 158.955 638.541 158.835 638.635 158.741C638.739 158.648 638.911 158.601 639.15 158.601H641.728L648.994 170.898V159.585H647.166C646.937 159.585 646.77 159.543 646.666 159.46C646.562 159.366 646.51 159.247 646.51 159.101C646.51 158.955 646.557 158.835 646.65 158.741C646.754 158.648 646.926 158.601 647.166 158.601H650.807C651.036 158.601 651.202 158.648 651.307 158.741C651.411 158.835 651.463 158.955 651.463 159.101C651.463 159.247 651.411 159.366 651.307 159.46C651.202 159.543 651.036 159.585 650.807 159.585H649.978V172.32Z" fill="black"/>
<path d="M605.787 209.81V218.513C605.787 219.711 605.339 220.747 604.443 221.622C603.558 222.497 602.501 222.935 601.271 222.935C600.532 222.935 599.803 222.763 599.084 222.419C598.365 222.075 597.584 221.518 596.74 220.747V217.122C596.74 216.882 596.787 216.716 596.881 216.622C596.975 216.518 597.094 216.466 597.24 216.466C597.386 216.466 597.506 216.518 597.6 216.622C597.693 216.716 597.74 216.882 597.74 217.122L597.725 220.278C598.329 220.83 598.922 221.247 599.506 221.528C600.1 221.81 600.688 221.95 601.271 221.95C601.907 221.95 602.511 221.794 603.084 221.481C603.511 221.242 603.902 220.846 604.256 220.294C604.62 219.742 604.803 219.148 604.803 218.513V209.81H600.943C600.704 209.81 600.532 209.768 600.428 209.685C600.324 209.591 600.271 209.471 600.271 209.325C600.271 209.179 600.324 209.06 600.428 208.966C600.532 208.872 600.704 208.825 600.943 208.825H608.131C608.37 208.825 608.537 208.872 608.631 208.966C608.735 209.06 608.787 209.179 608.787 209.325C608.787 209.471 608.735 209.591 608.631 209.685C608.537 209.768 608.37 209.81 608.131 209.81H605.787ZM619.174 222.544V221.122C617.747 222.33 616.221 222.935 614.596 222.935C613.419 222.935 612.497 222.638 611.83 222.044C611.163 221.44 610.83 220.705 610.83 219.841C610.83 218.882 611.268 218.049 612.143 217.341C613.018 216.632 614.294 216.278 615.971 216.278C616.429 216.278 616.924 216.31 617.455 216.372C617.986 216.424 618.559 216.513 619.174 216.638V215.044C619.174 214.502 618.924 214.034 618.424 213.638C617.924 213.242 617.174 213.044 616.174 213.044C615.413 213.044 614.34 213.263 612.955 213.7C612.705 213.784 612.544 213.825 612.471 213.825C612.346 213.825 612.236 213.778 612.143 213.685C612.059 213.591 612.018 213.471 612.018 213.325C612.018 213.2 612.054 213.096 612.127 213.013C612.241 212.898 612.684 212.737 613.455 212.528C614.674 212.205 615.596 212.044 616.221 212.044C617.46 212.044 618.429 212.351 619.127 212.966C619.825 213.58 620.174 214.273 620.174 215.044V221.56H621.486C621.726 221.56 621.898 221.606 622.002 221.7C622.106 221.784 622.158 221.898 622.158 222.044C622.158 222.19 622.106 222.31 622.002 222.403C621.898 222.497 621.726 222.544 621.486 222.544H619.174ZM619.174 217.638C618.715 217.513 618.226 217.419 617.705 217.356C617.195 217.294 616.653 217.263 616.08 217.263C614.653 217.263 613.538 217.57 612.736 218.185C612.122 218.643 611.814 219.195 611.814 219.841C611.814 220.435 612.044 220.935 612.502 221.341C612.971 221.747 613.653 221.95 614.549 221.95C615.403 221.95 616.195 221.778 616.924 221.435C617.653 221.091 618.403 220.549 619.174 219.81V217.638ZM631.607 222.544H629.951L625.904 213.388H624.889C624.659 213.388 624.493 213.341 624.389 213.247C624.284 213.153 624.232 213.034 624.232 212.888C624.232 212.742 624.284 212.622 624.389 212.528C624.493 212.435 624.659 212.388 624.889 212.388H628.592C628.821 212.388 628.988 212.435 629.092 212.528C629.196 212.622 629.248 212.747 629.248 212.903C629.248 213.039 629.196 213.153 629.092 213.247C628.988 213.341 628.821 213.388 628.592 213.388H626.951L630.56 221.56H630.998L634.545 213.388H632.904C632.665 213.388 632.493 213.341 632.389 213.247C632.295 213.153 632.248 213.034 632.248 212.888C632.248 212.742 632.295 212.622 632.389 212.528C632.493 212.435 632.665 212.388 632.904 212.388H636.607C636.847 212.388 637.014 212.435 637.107 212.528C637.212 212.622 637.264 212.747 637.264 212.903C637.264 213.039 637.212 213.153 637.107 213.247C637.014 213.341 636.847 213.388 636.607 213.388H635.607L631.607 222.544ZM647.978 222.544V221.122C646.551 222.33 645.025 222.935 643.4 222.935C642.223 222.935 641.301 222.638 640.635 222.044C639.968 221.44 639.635 220.705 639.635 219.841C639.635 218.882 640.072 218.049 640.947 217.341C641.822 216.632 643.098 216.278 644.775 216.278C645.234 216.278 645.728 216.31 646.26 216.372C646.791 216.424 647.364 216.513 647.978 216.638V215.044C647.978 214.502 647.728 214.034 647.228 213.638C646.728 213.242 645.978 213.044 644.978 213.044C644.218 213.044 643.145 213.263 641.76 213.7C641.51 213.784 641.348 213.825 641.275 213.825C641.15 213.825 641.041 213.778 640.947 213.685C640.864 213.591 640.822 213.471 640.822 213.325C640.822 213.2 640.859 213.096 640.932 213.013C641.046 212.898 641.489 212.737 642.26 212.528C643.478 212.205 644.4 212.044 645.025 212.044C646.265 212.044 647.234 212.351 647.932 212.966C648.629 213.58 648.978 214.273 648.978 215.044V221.56H650.291C650.531 221.56 650.702 221.606 650.807 221.7C650.911 221.784 650.963 221.898 650.963 222.044C650.963 222.19 650.911 222.31 650.807 222.403C650.702 222.497 650.531 222.544 650.291 222.544H647.978ZM647.978 217.638C647.52 217.513 647.031 217.419 646.51 217.356C645.999 217.294 645.458 217.263 644.885 217.263C643.458 217.263 642.343 217.57 641.541 218.185C640.926 218.643 640.619 219.195 640.619 219.841C640.619 220.435 640.848 220.935 641.307 221.341C641.775 221.747 642.458 221.95 643.353 221.95C644.208 221.95 644.999 221.778 645.728 221.435C646.458 221.091 647.208 220.549 647.978 219.81V217.638ZM662.803 213.044C662.803 212.815 662.85 212.648 662.943 212.544C663.037 212.44 663.157 212.388 663.303 212.388C663.449 212.388 663.568 212.44 663.662 212.544C663.756 212.648 663.803 212.82 663.803 213.06V214.747C663.803 214.987 663.756 215.159 663.662 215.263C663.568 215.356 663.449 215.403 663.303 215.403C663.167 215.403 663.053 215.362 662.959 215.278C662.876 215.195 662.824 215.054 662.803 214.856C662.761 214.388 662.521 214.002 662.084 213.7C661.438 213.263 660.589 213.044 659.537 213.044C658.433 213.044 657.579 213.263 656.975 213.7C656.506 214.044 656.271 214.419 656.271 214.825C656.271 215.294 656.547 215.685 657.1 215.997C657.475 216.216 658.183 216.388 659.225 216.513C660.6 216.659 661.553 216.825 662.084 217.013C662.834 217.284 663.396 217.664 663.771 218.153C664.146 218.632 664.334 219.153 664.334 219.716C664.334 220.549 663.928 221.294 663.115 221.95C662.313 222.606 661.136 222.935 659.584 222.935C658.032 222.935 656.756 222.539 655.756 221.747C655.756 222.007 655.74 222.179 655.709 222.263C655.678 222.336 655.62 222.403 655.537 222.466C655.464 222.518 655.376 222.544 655.271 222.544C655.126 222.544 655.006 222.492 654.912 222.388C654.818 222.284 654.771 222.117 654.771 221.888V219.856C654.771 219.627 654.818 219.461 654.912 219.356C655.006 219.252 655.126 219.2 655.271 219.2C655.407 219.2 655.521 219.252 655.615 219.356C655.719 219.45 655.771 219.58 655.771 219.747C655.771 220.101 655.86 220.398 656.037 220.638C656.318 221.013 656.756 221.325 657.35 221.575C657.943 221.825 658.678 221.95 659.553 221.95C660.834 221.95 661.787 221.711 662.412 221.231C663.037 220.752 663.35 220.247 663.35 219.716C663.35 219.112 663.032 218.622 662.396 218.247C661.751 217.882 660.818 217.638 659.6 217.513C658.381 217.388 657.506 217.226 656.975 217.028C656.443 216.82 656.027 216.513 655.725 216.106C655.433 215.7 655.287 215.263 655.287 214.794C655.287 213.95 655.699 213.284 656.521 212.794C657.355 212.294 658.344 212.044 659.49 212.044C660.844 212.044 661.949 212.377 662.803 213.044ZM678.064 213.388V213.06C678.064 212.82 678.111 212.648 678.205 212.544C678.299 212.44 678.413 212.388 678.549 212.388C678.705 212.388 678.83 212.44 678.924 212.544C679.018 212.648 679.064 212.82 679.064 213.06V215.294C679.054 215.534 679.002 215.705 678.908 215.81C678.825 215.903 678.705 215.95 678.549 215.95C678.424 215.95 678.314 215.909 678.221 215.825C678.127 215.731 678.075 215.58 678.064 215.372C678.012 214.82 677.643 214.294 676.955 213.794C676.278 213.294 675.361 213.044 674.205 213.044C672.747 213.044 671.637 213.502 670.877 214.419C670.116 215.325 669.736 216.367 669.736 217.544C669.736 218.825 670.153 219.882 670.986 220.716C671.83 221.539 672.913 221.95 674.236 221.95C675.007 221.95 675.788 221.81 676.58 221.528C677.372 221.247 678.09 220.794 678.736 220.169C678.893 220.013 679.033 219.935 679.158 219.935C679.294 219.935 679.403 219.981 679.486 220.075C679.58 220.159 679.627 220.268 679.627 220.403C679.627 220.737 679.236 221.159 678.455 221.669C677.174 222.513 675.752 222.935 674.189 222.935C672.606 222.935 671.304 222.429 670.283 221.419C669.262 220.398 668.752 219.112 668.752 217.56C668.752 215.976 669.273 214.664 670.314 213.622C671.366 212.57 672.684 212.044 674.268 212.044C675.778 212.044 677.044 212.492 678.064 213.388ZM687.185 212.388V214.872C688.467 213.716 689.425 212.976 690.06 212.653C690.696 212.32 691.284 212.153 691.826 212.153C692.409 212.153 692.951 212.351 693.451 212.747C693.962 213.132 694.217 213.429 694.217 213.638C694.217 213.784 694.165 213.909 694.06 214.013C693.967 214.106 693.847 214.153 693.701 214.153C693.618 214.153 693.55 214.143 693.498 214.122C693.446 214.091 693.342 213.997 693.185 213.841C692.915 213.57 692.675 213.388 692.467 213.294C692.269 213.19 692.071 213.138 691.873 213.138C691.446 213.138 690.93 213.31 690.326 213.653C689.722 213.997 688.675 214.836 687.185 216.169V221.56H691.545C691.784 221.56 691.951 221.606 692.045 221.7C692.149 221.784 692.201 221.898 692.201 222.044C692.201 222.19 692.149 222.31 692.045 222.403C691.951 222.497 691.784 222.544 691.545 222.544H683.81C683.581 222.544 683.415 222.502 683.31 222.419C683.206 222.325 683.154 222.205 683.154 222.06C683.154 221.924 683.201 221.815 683.295 221.731C683.399 221.638 683.571 221.591 683.81 221.591H686.201V213.388H684.373C684.144 213.388 683.977 213.341 683.873 213.247C683.769 213.153 683.717 213.034 683.717 212.888C683.717 212.742 683.764 212.622 683.857 212.528C683.962 212.435 684.133 212.388 684.373 212.388H687.185ZM703.244 207.341V209.888H701.791V207.341H703.244ZM703.275 212.388V221.56H707.15C707.39 221.56 707.562 221.606 707.666 221.7C707.77 221.784 707.822 221.898 707.822 222.044C707.822 222.19 707.77 222.31 707.666 222.403C707.562 222.497 707.39 222.544 707.15 222.544H698.432C698.192 222.544 698.02 222.497 697.916 222.403C697.822 222.31 697.775 222.19 697.775 222.044C697.775 221.898 697.822 221.784 697.916 221.7C698.02 221.606 698.192 221.56 698.432 221.56H702.291V213.388H699.432C699.192 213.388 699.02 213.341 698.916 213.247C698.812 213.153 698.76 213.039 698.76 212.903C698.76 212.747 698.807 212.622 698.9 212.528C699.004 212.435 699.182 212.388 699.432 212.388H703.275ZM713.459 212.388V214.185C714.042 213.476 714.667 212.945 715.334 212.591C716.011 212.226 716.808 212.044 717.725 212.044C718.693 212.044 719.584 212.273 720.396 212.731C721.219 213.179 721.855 213.81 722.303 214.622C722.751 215.424 722.975 216.273 722.975 217.169C722.975 218.575 722.469 219.784 721.459 220.794C720.449 221.794 719.204 222.294 717.725 222.294C715.975 222.294 714.553 221.58 713.459 220.153V226.091H715.85C716.079 226.091 716.245 226.132 716.35 226.216C716.454 226.31 716.506 226.429 716.506 226.575C716.506 226.721 716.454 226.841 716.35 226.935C716.245 227.028 716.079 227.075 715.85 227.075H711.146C710.907 227.075 710.735 227.028 710.631 226.935C710.537 226.841 710.49 226.721 710.49 226.575C710.49 226.429 710.537 226.31 710.631 226.216C710.735 226.132 710.907 226.091 711.146 226.091H712.475V213.388H711.146C710.907 213.388 710.735 213.341 710.631 213.247C710.537 213.153 710.49 213.034 710.49 212.888C710.49 212.742 710.537 212.622 710.631 212.528C710.735 212.435 710.907 212.388 711.146 212.388H713.459ZM721.99 217.169C721.99 216.034 721.574 215.065 720.74 214.263C719.917 213.45 718.912 213.044 717.725 213.044C716.537 213.044 715.527 213.45 714.693 214.263C713.87 215.075 713.459 216.044 713.459 217.169C713.459 218.294 713.87 219.263 714.693 220.075C715.527 220.888 716.537 221.294 717.725 221.294C718.912 221.294 719.917 220.893 720.74 220.091C721.574 219.278 721.99 218.304 721.99 217.169ZM729.549 212.388H734.893C735.122 212.388 735.288 212.435 735.393 212.528C735.497 212.622 735.549 212.747 735.549 212.903C735.549 213.039 735.497 213.153 735.393 213.247C735.288 213.341 735.122 213.388 734.893 213.388H729.549V219.935C729.549 220.507 729.773 220.987 730.221 221.372C730.679 221.757 731.351 221.95 732.236 221.95C732.903 221.95 733.622 221.851 734.393 221.653C735.163 221.445 735.768 221.216 736.205 220.966C736.361 220.872 736.486 220.825 736.58 220.825C736.705 220.825 736.814 220.872 736.908 220.966C737.002 221.06 737.049 221.174 737.049 221.31C737.049 221.424 737.002 221.534 736.908 221.638C736.658 221.898 736.049 222.179 735.08 222.481C734.111 222.784 733.189 222.935 732.314 222.935C731.158 222.935 730.241 222.664 729.564 222.122C728.887 221.58 728.549 220.851 728.549 219.935V213.388H726.736C726.497 213.388 726.325 213.341 726.221 213.247C726.127 213.153 726.08 213.034 726.08 212.888C726.08 212.742 726.127 212.622 726.221 212.528C726.325 212.435 726.497 212.388 726.736 212.388H728.549V209.481C728.549 209.252 728.596 209.086 728.689 208.981C728.783 208.877 728.898 208.825 729.033 208.825C729.189 208.825 729.314 208.877 729.408 208.981C729.502 209.086 729.549 209.252 729.549 209.481V212.388Z" fill="black"/>
</svg>
