<?xml version="1.0" encoding="utf-8" standalone="no"?>
<!DOCTYPE svg PUBLIC "-//W3C//DTD SVG 1.1//EN"
  "http://www.w3.org/Graphics/SVG/1.1/DTD/svg11.dtd">
<svg xmlns:xlink="http://www.w3.org/1999/xlink" width="384.8825pt" height="297.190125pt" viewBox="0 0 384.8825 297.190125" xmlns="http://www.w3.org/2000/svg" version="1.1">
 <metadata>
  <rdf:RDF xmlns:dc="http://purl.org/dc/elements/1.1/" xmlns:cc="http://creativecommons.org/ns#" xmlns:rdf="http://www.w3.org/1999/02/22-rdf-syntax-ns#">
   <cc:Work>
    <dc:type rdf:resource="http://purl.org/dc/dcmitype/StillImage"/>
    <dc:date>2026-04-29T14:23:45.442738</dc:date>
    <dc:format>image/svg+xml</dc:format>
    <dc:creator>
     <cc:Agent>
      <dc:title>Matplotlib v3.10.0, https://matplotlib.org/</dc:title>
     </cc:Agent>
    </dc:creator>
   </cc:Work>
  </rdf:RDF>
 </metadata>
 <defs>
  <style type="text/css">*{stroke-linejoin: round; stroke-linecap: butt}</style>
 </defs>
 <g id="figure_1">
  <g id="patch_1">
   <path d="M 0 297.190125 
L 384.8825 297.190125 
L 384.8825 0 
L 0 0 
z
" style="fill: #ffffff"/>
  </g>
  <g id="axes_1">
   <g id="patch_2">
    <path d="M 20.5625 273.312 
L 377.6825 273.312 
L 377.6825 7.2 
L 20.5625 7.2 
z
" style="fill: #ffffff"/>
   </g>
   <g id="matplotlib.axis_1">
    <g id="xtick_1">
     <g id="line2d_1">
      <defs>
       <path id="m9fafe31aae" d="M 0 0 
L 0 3.5 
" style="stroke: #000000; stroke-width: 0.8"/>
      </defs>
      <g>
       <use xlink:href="#m9fafe31aae" x="33.646788" y="273.312" style="stroke: #000000; stroke-width: 0.8"/>
      </g>
     </g>
     <g id="text_1">
      <!-- 0 -->
      <g transform="translate(30.465538 287.910437) scale(0.1 -0.1)">
       <defs>
        <path id="DejaVuSans-30" d="M 2034 4250 
Q 1547 4250 1301 3770 
Q 1056 3291 1056 2328 
Q 1056 1369 1301 889 
Q 1547 409 2034 409 
Q 2525 409 2770 889 
Q 3016 1369 3016 2328 
Q 3016 3291 2770 3770 
Q 2525 4250 2034 4250 
z
M 2034 4750 
Q 2819 4750 3233 4129 
Q 3647 3509 3647 2328 
Q 3647 1150 3233 529 
Q 2819 -91 2034 -91 
Q 1250 -91 836 529 
Q 422 1150 422 2328 
Q 422 3509 836 4129 
Q 1250 4750 2034 4750 
z
" transform="scale(0.015625)"/>
       </defs>
       <use xlink:href="#DejaVuSans-30"/>
      </g>
     </g>
    </g>
    <g id="xtick_2">
     <g id="line2d_2">
      <g>
       <use xlink:href="#m9fafe31aae" x="100.76162" y="273.312" style="stroke: #000000; stroke-width: 0.8"/>
      </g>
     </g>
     <g id="text_2">
      <!-- 1 -->
      <g transform="translate(97.58037 287.910437) scale(0.1 -0.1)">
       <defs>
        <path id="DejaVuSans-31" d="M 794 531 
L 1825 531 
L 1825 4091 
L 703 3866 
L 703 4441 
L 1819 4666 
L 2450 4666 
L 2450 531 
L 3481 531 
L 3481 0 
L 794 0 
L 794 531 
z
" transform="scale(0.015625)"/>
       </defs>
       <use xlink:href="#DejaVuSans-31"/>
      </g>
     </g>
    </g>
    <g id="xtick_3">
     <g id="line2d_3">
      <g>
       <use xlink:href="#m9fafe31aae" x="167.876452" y="273.312" style="stroke: #000000; stroke-width: 0.8"/>
      </g>
     </g>
     <g id="text_3">
      <!-- 2 -->
      <g transform="translate(164.695202 287.910437) scale(0.1 -0.1)">
       <defs>
        <path id="DejaVuSans-32" d="M 1228 531 
L 3431 531 
L 3431 0 
L 469 0 
L 469 531 
Q 828 903 1448 1529 
Q 2069 2156 2228 2338 
Q 2531 2678 2651 2914 
Q 2772 3150 2772 3378 
Q 2772 3750 2511 3984 
Q 2250 4219 1831 4219 
Q 1534 4219 1204 4116 
Q 875 4013 500 3803 
L 500 4441 
Q 881 4594 1212 4672 
Q 1544 4750 1819 4750 
Q 2544 4750 2975 4387 
Q 3406 4025 3406 3419 
Q 3406 3131 3298 2873 
Q 3191 2616 2906 2266 
Q 2828 2175 2409 1742 
Q 1991 1309 1228 531 
z
" transform="scale(0.015625)"/>
       </defs>
       <use xlink:href="#DejaVuSans-32"/>
      </g>
     </g>
    </g>
    <g id="xtick_4">
     <g id="line2d_4">
      <g>
       <use xlink:href="#m9fafe31aae" x="234.991283" y="273.312" style="stroke: #000000; stroke-width: 0.8"/>
      </g>
     </g>
     <g id="text_4">
      <!-- 3 -->
      <g transform="translate(231.810033 287.910437) scale(0.1 -0.1)">
       <defs>
        <path id="DejaVuSans-33" d="M 2597 2516 
Q 3050 2419 3304 2112 
Q 3559 1806 3559 1356 
Q 3559 666 3084 287 
Q 2609 -91 1734 -91 
Q 1441 -91 1130 -33 
Q 819 25 488 141 
L 488 750 
Q 750 597 1062 519 
Q 1375 441 1716 441 
Q 2309 441 2620 675 
Q 2931 909 2931 1356 
Q 2931 1769 2642 2001 
Q 2353 2234 1838 2234 
L 1294 2234 
L 1294 2753 
L 1863 2753 
Q 2328 2753 2575 2939 
Q 2822 3125 2822 3475 
Q 2822 3834 2567 4026 
Q 2313 4219 1838 4219 
Q 1578 4219 1281 4162 
Q 984 4106 628 3988 
L 628 4550 
Q 988 4650 1302 4700 
Q 1616 4750 1894 4750 
Q 2613 4750 3031 4423 
Q 3450 4097 3450 3541 
Q 3450 3153 3228 2886 
Q 3006 2619 2597 2516 
z
" transform="scale(0.015625)"/>
       </defs>
       <use xlink:href="#DejaVuSans-33"/>
      </g>
     </g>
    </g>
    <g id="xtick_5">
     <g id="line2d_5">
      <g>
       <use xlink:href="#m9fafe31aae" x="302.106115" y="273.312" style="stroke: #000000; stroke-width: 0.8"/>
      </g>
     </g>
     <g id="text_5">
      <!-- 4 -->
      <g transform="translate(298.924865 287.910437) scale(0.1 -0.1)">
       <defs>
        <path id="DejaVuSans-34" d="M 2419 4116 
L 825 1625 
L 2419 1625 
L 2419 4116 
z
M 2253 4666 
L 3047 4666 
L 3047 1625 
L 3713 1625 
L 3713 1100 
L 3047 1100 
L 3047 0 
L 2419 0 
L 2419 1100 
L 313 1100 
L 313 1709 
L 2253 4666 
z
" transform="scale(0.015625)"/>
       </defs>
       <use xlink:href="#DejaVuSans-34"/>
      </g>
     </g>
    </g>
    <g id="xtick_6">
     <g id="line2d_6">
      <g>
       <use xlink:href="#m9fafe31aae" x="369.220947" y="273.312" style="stroke: #000000; stroke-width: 0.8"/>
      </g>
     </g>
     <g id="text_6">
      <!-- 5 -->
      <g transform="translate(366.039697 287.910437) scale(0.1 -0.1)">
       <defs>
        <path id="DejaVuSans-35" d="M 691 4666 
L 3169 4666 
L 3169 4134 
L 1269 4134 
L 1269 2991 
Q 1406 3038 1543 3061 
Q 1681 3084 1819 3084 
Q 2600 3084 3056 2656 
Q 3513 2228 3513 1497 
Q 3513 744 3044 326 
Q 2575 -91 1722 -91 
Q 1428 -91 1123 -41 
Q 819 9 494 109 
L 494 744 
Q 775 591 1075 516 
Q 1375 441 1709 441 
Q 2250 441 2565 725 
Q 2881 1009 2881 1497 
Q 2881 1984 2565 2268 
Q 2250 2553 1709 2553 
Q 1456 2553 1204 2497 
Q 953 2441 691 2322 
L 691 4666 
z
" transform="scale(0.015625)"/>
       </defs>
       <use xlink:href="#DejaVuSans-35"/>
      </g>
     </g>
    </g>
   </g>
   <g id="matplotlib.axis_2">
    <g id="ytick_1">
     <g id="line2d_7">
      <defs>
       <path id="mc7701895be" d="M 0 0 
L -3.5 0 
" style="stroke: #000000; stroke-width: 0.8"/>
      </defs>
      <g>
       <use xlink:href="#mc7701895be" x="20.5625" y="244.879387" style="stroke: #000000; stroke-width: 0.8"/>
      </g>
     </g>
     <g id="text_7">
      <!-- 0 -->
      <g transform="translate(7.2 248.678605) scale(0.1 -0.1)">
       <use xlink:href="#DejaVuSans-30"/>
      </g>
     </g>
    </g>
    <g id="ytick_2">
     <g id="line2d_8">
      <g>
       <use xlink:href="#mc7701895be" x="20.5625" y="196.269791" style="stroke: #000000; stroke-width: 0.8"/>
      </g>
     </g>
     <g id="text_8">
      <!-- 2 -->
      <g transform="translate(7.2 200.06901) scale(0.1 -0.1)">
       <use xlink:href="#DejaVuSans-32"/>
      </g>
     </g>
    </g>
    <g id="ytick_3">
     <g id="line2d_9">
      <g>
       <use xlink:href="#mc7701895be" x="20.5625" y="147.660195" style="stroke: #000000; stroke-width: 0.8"/>
      </g>
     </g>
     <g id="text_9">
      <!-- 4 -->
      <g transform="translate(7.2 151.459414) scale(0.1 -0.1)">
       <use xlink:href="#DejaVuSans-34"/>
      </g>
     </g>
    </g>
    <g id="ytick_4">
     <g id="line2d_10">
      <g>
       <use xlink:href="#mc7701895be" x="20.5625" y="99.0506" style="stroke: #000000; stroke-width: 0.8"/>
      </g>
     </g>
     <g id="text_10">
      <!-- 6 -->
      <g transform="translate(7.2 102.849819) scale(0.1 -0.1)">
       <defs>
        <path id="DejaVuSans-36" d="M 2113 2584 
Q 1688 2584 1439 2293 
Q 1191 2003 1191 1497 
Q 1191 994 1439 701 
Q 1688 409 2113 409 
Q 2538 409 2786 701 
Q 3034 994 3034 1497 
Q 3034 2003 2786 2293 
Q 2538 2584 2113 2584 
z
M 3366 4563 
L 3366 3988 
Q 3128 4100 2886 4159 
Q 2644 4219 2406 4219 
Q 1781 4219 1451 3797 
Q 1122 3375 1075 2522 
Q 1259 2794 1537 2939 
Q 1816 3084 2150 3084 
Q 2853 3084 3261 2657 
Q 3669 2231 3669 1497 
Q 3669 778 3244 343 
Q 2819 -91 2113 -91 
Q 1303 -91 875 529 
Q 447 1150 447 2328 
Q 447 3434 972 4092 
Q 1497 4750 2381 4750 
Q 2619 4750 2861 4703 
Q 3103 4656 3366 4563 
z
" transform="scale(0.015625)"/>
       </defs>
       <use xlink:href="#DejaVuSans-36"/>
      </g>
     </g>
    </g>
    <g id="ytick_5">
     <g id="line2d_11">
      <g>
       <use xlink:href="#mc7701895be" x="20.5625" y="50.441004" style="stroke: #000000; stroke-width: 0.8"/>
      </g>
     </g>
     <g id="text_11">
      <!-- 8 -->
      <g transform="translate(7.2 54.240223) scale(0.1 -0.1)">
       <defs>
        <path id="DejaVuSans-38" d="M 2034 2216 
Q 1584 2216 1326 1975 
Q 1069 1734 1069 1313 
Q 1069 891 1326 650 
Q 1584 409 2034 409 
Q 2484 409 2743 651 
Q 3003 894 3003 1313 
Q 3003 1734 2745 1975 
Q 2488 2216 2034 2216 
z
M 1403 2484 
Q 997 2584 770 2862 
Q 544 3141 544 3541 
Q 544 4100 942 4425 
Q 1341 4750 2034 4750 
Q 2731 4750 3128 4425 
Q 3525 4100 3525 3541 
Q 3525 3141 3298 2862 
Q 3072 2584 2669 2484 
Q 3125 2378 3379 2068 
Q 3634 1759 3634 1313 
Q 3634 634 3220 271 
Q 2806 -91 2034 -91 
Q 1263 -91 848 271 
Q 434 634 434 1313 
Q 434 1759 690 2068 
Q 947 2378 1403 2484 
z
M 1172 3481 
Q 1172 3119 1398 2916 
Q 1625 2713 2034 2713 
Q 2441 2713 2670 2916 
Q 2900 3119 2900 3481 
Q 2900 3844 2670 4047 
Q 2441 4250 2034 4250 
Q 1625 4250 1398 4047 
Q 1172 3844 1172 3481 
z
" transform="scale(0.015625)"/>
       </defs>
       <use xlink:href="#DejaVuSans-38"/>
      </g>
     </g>
    </g>
   </g>
   <g id="line2d_12">
    <defs>
     <path id="mc3b8bbe027" d="M 0 3 
C 0.795609 3 1.55874 2.683901 2.12132 2.12132 
C 2.683901 1.55874 3 0.795609 3 0 
C 3 -0.795609 2.683901 -1.55874 2.12132 -2.12132 
C 1.55874 -2.683901 0.795609 -3 0 -3 
C -0.795609 -3 -1.55874 -2.683901 -2.12132 -2.12132 
C -2.683901 -1.55874 -3 -0.795609 -3 0 
C -3 0.795609 -2.683901 1.55874 -2.12132 2.12132 
C -1.55874 2.683901 -0.795609 3 0 3 
z
" style="stroke: #1f77b4"/>
    </defs>
    <g clip-path="url(#p73d52fd4a2)">
     <use xlink:href="#mc3b8bbe027" x="36.795227" y="261.216" style="fill: #1f77b4; stroke: #1f77b4"/>
     <use xlink:href="#mc3b8bbe027" x="43.319878" y="173.219695" style="fill: #1f77b4; stroke: #1f77b4"/>
     <use xlink:href="#mc3b8bbe027" x="46.661813" y="119.834122" style="fill: #1f77b4; stroke: #1f77b4"/>
     <use xlink:href="#mc3b8bbe027" x="60.739579" y="93.717884" style="fill: #1f77b4; stroke: #1f77b4"/>
     <use xlink:href="#mc3b8bbe027" x="88.067948" y="41.222511" style="fill: #1f77b4; stroke: #1f77b4"/>
     <use xlink:href="#mc3b8bbe027" x="90.341874" y="56.425722" style="fill: #1f77b4; stroke: #1f77b4"/>
     <use xlink:href="#mc3b8bbe027" x="103.875992" y="19.426763" style="fill: #1f77b4; stroke: #1f77b4"/>
     <use xlink:href="#mc3b8bbe027" x="107.639075" y="24.235203" style="fill: #1f77b4; stroke: #1f77b4"/>
     <use xlink:href="#mc3b8bbe027" x="120.434685" y="36.230687" style="fill: #1f77b4; stroke: #1f77b4"/>
     <use xlink:href="#mc3b8bbe027" x="123.665712" y="30.592188" style="fill: #1f77b4; stroke: #1f77b4"/>
     <use xlink:href="#mc3b8bbe027" x="146.040306" y="43.562901" style="fill: #1f77b4; stroke: #1f77b4"/>
     <use xlink:href="#mc3b8bbe027" x="168.126931" y="35.903041" style="fill: #1f77b4; stroke: #1f77b4"/>
     <use xlink:href="#mc3b8bbe027" x="177.347766" y="54.006899" style="fill: #1f77b4; stroke: #1f77b4"/>
     <use xlink:href="#mc3b8bbe027" x="179.333101" y="82.134429" style="fill: #1f77b4; stroke: #1f77b4"/>
     <use xlink:href="#mc3b8bbe027" x="188.671016" y="97.44041" style="fill: #1f77b4; stroke: #1f77b4"/>
     <use xlink:href="#mc3b8bbe027" x="209.044212" y="123.645423" style="fill: #1f77b4; stroke: #1f77b4"/>
     <use xlink:href="#mc3b8bbe027" x="215.938957" y="141.632119" style="fill: #1f77b4; stroke: #1f77b4"/>
     <use xlink:href="#mc3b8bbe027" x="234.168222" y="174.693803" style="fill: #1f77b4; stroke: #1f77b4"/>
     <use xlink:href="#mc3b8bbe027" x="243.788124" y="173.364321" style="fill: #1f77b4; stroke: #1f77b4"/>
     <use xlink:href="#mc3b8bbe027" x="246.207648" y="193.343381" style="fill: #1f77b4; stroke: #1f77b4"/>
     <use xlink:href="#mc3b8bbe027" x="260.555785" y="234.028567" style="fill: #1f77b4; stroke: #1f77b4"/>
     <use xlink:href="#mc3b8bbe027" x="277.411515" y="201.039497" style="fill: #1f77b4; stroke: #1f77b4"/>
     <use xlink:href="#mc3b8bbe027" x="278.297853" y="223.539865" style="fill: #1f77b4; stroke: #1f77b4"/>
     <use xlink:href="#mc3b8bbe027" x="303.315257" y="228.476816" style="fill: #1f77b4; stroke: #1f77b4"/>
     <use xlink:href="#mc3b8bbe027" x="314.079506" y="257.187953" style="fill: #1f77b4; stroke: #1f77b4"/>
     <use xlink:href="#mc3b8bbe027" x="326.807691" y="237.537842" style="fill: #1f77b4; stroke: #1f77b4"/>
     <use xlink:href="#mc3b8bbe027" x="322.996172" y="214.494731" style="fill: #1f77b4; stroke: #1f77b4"/>
     <use xlink:href="#mc3b8bbe027" x="339.102869" y="186.422409" style="fill: #1f77b4; stroke: #1f77b4"/>
     <use xlink:href="#mc3b8bbe027" x="355.161834" y="162.913638" style="fill: #1f77b4; stroke: #1f77b4"/>
     <use xlink:href="#mc3b8bbe027" x="361.449773" y="133.409283" style="fill: #1f77b4; stroke: #1f77b4"/>
    </g>
   </g>
   <g id="line2d_13">
    <path d="M 36.795227 64.387252 
L 361.449773 206.064058 
L 361.449773 206.064058 
" clip-path="url(#p73d52fd4a2)" style="fill: none; stroke: #ff7f0e; stroke-width: 1.5; stroke-linecap: square"/>
   </g>
   <g id="line2d_14">
    <path d="M 36.795227 211.630771 
L 40.698889 192.352507 
L 44.602551 174.26306 
L 48.506213 157.335042 
L 52.409875 141.541066 
L 55.662926 129.225942 
L 58.915978 117.66348 
L 62.169029 106.837829 
L 65.422081 96.73314 
L 68.675133 87.333565 
L 71.928184 78.623254 
L 75.181236 70.586358 
L 78.434287 63.207028 
L 81.687339 56.469414 
L 84.28978 51.530708 
L 86.892221 46.984443 
L 89.494663 42.822503 
L 92.097104 39.036774 
L 94.699545 35.61914 
L 97.301986 32.561488 
L 99.904427 29.855702 
L 102.506869 27.493668 
L 105.10931 25.467271 
L 107.711751 23.768395 
L 110.314192 22.388927 
L 112.916634 21.320752 
L 115.519075 20.555754 
L 118.121516 20.085818 
L 120.723957 19.902831 
L 123.326399 19.998677 
L 125.92884 20.365242 
L 128.531281 20.994411 
L 131.133722 21.878068 
L 133.736164 23.008099 
L 136.338605 24.37639 
L 138.941046 25.974826 
L 141.543487 27.795291 
L 144.796539 30.37074 
L 148.049591 33.264581 
L 151.302642 36.460966 
L 154.555694 39.944046 
L 158.459356 44.479864 
L 162.363017 49.378311 
L 166.266679 54.612 
L 170.820951 61.105144 
L 175.375224 67.973822 
L 180.580106 76.227789 
L 186.435599 85.951067 
L 192.941702 97.189684 
L 201.399636 112.282203 
L 230.02649 163.859255 
L 236.532593 174.923257 
L 242.388086 184.444817 
L 247.592968 192.484035 
L 252.14724 199.137442 
L 256.701513 205.389774 
L 260.605174 210.396725 
L 264.508836 215.04967 
L 268.412498 219.32122 
L 271.66555 222.569744 
L 274.918601 225.518542 
L 278.171653 228.151765 
L 281.424704 230.453564 
L 284.027146 232.045728 
L 286.629587 233.407522 
L 289.232028 234.530831 
L 291.834469 235.407542 
L 294.436911 236.029538 
L 297.039352 236.388706 
L 299.641793 236.476931 
L 302.244234 236.286097 
L 304.846676 235.80809 
L 307.449117 235.034795 
L 310.051558 233.958097 
L 312.653999 232.569882 
L 315.256441 230.862035 
L 317.858882 228.826441 
L 320.461323 226.454985 
L 323.063764 223.739552 
L 325.666206 220.672028 
L 328.268647 217.244298 
L 330.871088 213.448247 
L 333.473529 209.27576 
L 336.075971 204.718723 
L 338.678412 199.76902 
L 341.280853 194.418537 
L 344.533905 187.154474 
L 347.786956 179.235664 
L 351.040008 170.646257 
L 354.293059 161.370404 
L 357.546111 151.392257 
L 360.799162 140.695965 
L 361.449773 138.469134 
L 361.449773 138.469134 
" clip-path="url(#p73d52fd4a2)" style="fill: none; stroke: #2ca02c; stroke-width: 1.5; stroke-linecap: square"/>
   </g>
   <g id="line2d_15">
    <path d="M 36.795227 261.200429 
L 37.445838 260.145664 
L 38.096448 256.027784 
L 38.747058 249.468946 
L 40.048279 231.14753 
L 42.00011 196.92739 
L 44.602551 150.843722 
L 45.903772 130.790946 
L 47.204992 113.724917 
L 48.506213 99.948103 
L 49.807434 89.507601 
L 50.458044 85.50007 
L 51.108654 82.262066 
L 51.759264 79.755565 
L 52.409875 77.937139 
L 53.060485 76.759156 
L 53.711095 76.170862 
L 54.361706 76.119343 
L 55.012316 76.55038 
L 55.662926 77.409202 
L 56.313537 78.641147 
L 57.614757 82.009692 
L 58.915978 86.240892 
L 64.12086 104.735884 
L 65.422081 108.380233 
L 66.723302 111.251931 
L 67.373912 112.362362 
L 68.024522 113.242257 
L 68.675133 113.884617 
L 69.325743 114.28485 
L 69.976353 114.440633 
L 70.626963 114.351771 
L 71.277574 114.020052 
L 71.928184 113.449102 
L 72.578794 112.644231 
L 73.229405 111.612291 
L 74.530625 108.901415 
L 75.831846 105.396484 
L 77.133067 101.192898 
L 79.084898 93.812549 
L 81.036728 85.487059 
L 85.591001 64.577552 
L 88.193442 53.055129 
L 90.145273 45.155675 
L 92.097104 38.13716 
L 94.048935 32.15519 
L 95.350155 28.792942 
L 96.651376 25.949662 
L 97.952597 23.62913 
L 99.253817 21.825309 
L 100.555038 20.523232 
L 101.856258 19.69998 
L 103.157479 19.325713 
L 104.4587 19.36476 
L 105.75992 19.776705 
L 107.061141 20.517486 
L 108.362362 21.540458 
L 110.314192 23.498423 
L 112.266023 25.818672 
L 120.723957 36.393801 
L 122.675788 38.268866 
L 124.627619 39.755592 
L 125.92884 40.510054 
L 127.230061 41.067376 
L 128.531281 41.42602 
L 129.832502 41.588788 
L 131.133722 41.562566 
L 132.434943 41.358014 
L 133.736164 40.989212 
L 135.687995 40.166215 
L 137.639826 39.081195 
L 140.242267 37.363476 
L 146.09776 33.368454 
L 148.049591 32.306027 
L 150.001421 31.512273 
L 151.302642 31.166714 
L 152.603863 30.98913 
L 153.905083 30.995036 
L 155.206304 31.197499 
L 156.507525 31.607022 
L 157.808745 32.23147 
L 159.109966 33.076028 
L 160.411186 34.143209 
L 161.712407 35.432887 
L 163.664238 37.778023 
L 165.616069 40.597834 
L 167.5679 43.861659 
L 169.519731 47.528859 
L 172.122172 52.960219 
L 175.375224 60.429435 
L 179.929496 71.638384 
L 187.086209 89.308437 
L 190.339261 96.781038 
L 193.592312 103.679813 
L 196.194754 108.735378 
L 198.797195 113.373364 
L 201.399636 117.618477 
L 204.652688 122.450439 
L 208.55635 127.746074 
L 218.315504 140.589495 
L 221.568556 145.367829 
L 224.821607 150.618029 
L 228.074659 156.396755 
L 231.32771 162.695808 
L 235.231372 170.830961 
L 248.243579 198.65753 
L 250.84602 203.456838 
L 253.448461 207.721839 
L 255.400292 210.513996 
L 257.352123 212.924581 
L 259.303954 214.934311 
L 261.255785 216.534728 
L 263.207616 217.72894 
L 264.508836 218.306363 
L 265.810057 218.71714 
L 267.761888 219.042829 
L 269.713719 219.0584 
L 271.66555 218.816571 
L 274.267991 218.201485 
L 282.075315 215.981954 
L 284.027146 215.735067 
L 285.978977 215.748792 
L 287.930808 216.077008 
L 289.232028 216.491236 
L 290.533249 217.07185 
L 291.834469 217.823609 
L 293.7863 219.273307 
L 295.738131 221.096035 
L 297.689962 223.257208 
L 300.292403 226.56503 
L 304.196065 232.027503 
L 307.449117 236.463342 
L 309.400948 238.797247 
L 311.352779 240.709483 
L 312.653999 241.678829 
L 313.95522 242.355769 
L 315.256441 242.701828 
L 316.557661 242.681991 
L 317.858882 242.265712 
L 319.160102 241.427903 
L 320.461323 240.149909 
L 321.762544 238.420426 
L 323.063764 236.236345 
L 324.364985 233.603496 
L 325.666206 230.537249 
L 327.618037 225.1835 
L 329.569867 219.042674 
L 332.172309 209.947691 
L 338.678412 186.384268 
L 340.630243 180.271279 
L 341.931463 176.700021 
L 343.232684 173.606828 
L 344.533905 171.036055 
L 345.835125 169.008389 
L 347.136346 167.514784 
L 348.437566 166.509933 
L 349.738787 165.905362 
L 351.690618 165.429703 
L 352.991839 165.089939 
L 353.642449 164.808498 
L 354.293059 164.395433 
L 354.94367 163.80164 
L 355.59428 162.972827 
L 356.24489 161.849319 
L 356.895501 160.365875 
L 357.546111 158.451521 
L 358.196721 156.029399 
L 358.847331 153.01664 
L 359.497942 149.324263 
L 360.148552 144.8571 
L 360.799162 139.513751 
L 361.449773 133.186582 
L 361.449773 133.186582 
" clip-path="url(#p73d52fd4a2)" style="fill: none; stroke: #d62728; stroke-width: 1.5; stroke-linecap: square"/>
   </g>
   <g id="patch_3">
    <path d="M 20.5625 273.312 
L 20.5625 7.2 
" style="fill: none; stroke: #000000; stroke-width: 0.8; stroke-linejoin: miter; stroke-linecap: square"/>
   </g>
   <g id="patch_4">
    <path d="M 377.6825 273.312 
L 377.6825 7.2 
" style="fill: none; stroke: #000000; stroke-width: 0.8; stroke-linejoin: miter; stroke-linecap: square"/>
   </g>
   <g id="patch_5">
    <path d="M 20.5625 273.312 
L 377.6825 273.312 
" style="fill: none; stroke: #000000; stroke-width: 0.8; stroke-linejoin: miter; stroke-linecap: square"/>
   </g>
   <g id="patch_6">
    <path d="M 20.5625 7.2 
L 377.6825 7.2 
" style="fill: none; stroke: #000000; stroke-width: 0.8; stroke-linejoin: miter; stroke-linecap: square"/>
   </g>
   <g id="legend_1">
    <g id="patch_7">
     <path d="M 323.0825 59.295312 
L 370.6825 59.295312 
Q 372.6825 59.295312 372.6825 57.295312 
L 372.6825 14.2 
Q 372.6825 12.2 370.6825 12.2 
L 323.0825 12.2 
Q 321.0825 12.2 321.0825 14.2 
L 321.0825 57.295312 
Q 321.0825 59.295312 323.0825 59.295312 
z
" style="fill: #ffffff; opacity: 0.8; stroke: #cccccc; stroke-linejoin: miter"/>
    </g>
    <g id="line2d_16">
     <path d="M 325.0825 20.298437 
L 335.0825 20.298437 
L 345.0825 20.298437 
" style="fill: none; stroke: #ff7f0e; stroke-width: 1.5; stroke-linecap: square"/>
    </g>
    <g id="text_12">
     <!-- $p_{1}$ -->
     <g transform="translate(353.0825 23.798437) scale(0.1 -0.1)">
      <defs>
       <path id="DejaVuSans-Oblique-70" d="M 3175 2156 
Q 3175 2616 2975 2859 
Q 2775 3103 2400 3103 
Q 2144 3103 1911 2972 
Q 1678 2841 1497 2591 
Q 1319 2344 1212 1994 
Q 1106 1644 1106 1300 
Q 1106 863 1306 627 
Q 1506 391 1875 391 
Q 2147 391 2380 519 
Q 2613 647 2778 891 
Q 2956 1147 3065 1494 
Q 3175 1841 3175 2156 
z
M 1394 2969 
Q 1625 3272 1939 3428 
Q 2253 3584 2638 3584 
Q 3175 3584 3472 3232 
Q 3769 2881 3769 2247 
Q 3769 1728 3584 1258 
Q 3400 788 3053 416 
Q 2822 169 2531 39 
Q 2241 -91 1919 -91 
Q 1547 -91 1294 64 
Q 1041 219 916 525 
L 556 -1331 
L -19 -1331 
L 922 3500 
L 1497 3500 
L 1394 2969 
z
" transform="scale(0.015625)"/>
      </defs>
      <use xlink:href="#DejaVuSans-Oblique-70"/>
      <use xlink:href="#DejaVuSans-31" transform="translate(63.476562 -16.40625) scale(0.7)"/>
     </g>
    </g>
    <g id="line2d_17">
     <path d="M 325.0825 34.996875 
L 335.0825 34.996875 
L 345.0825 34.996875 
" style="fill: none; stroke: #2ca02c; stroke-width: 1.5; stroke-linecap: square"/>
    </g>
    <g id="text_13">
     <!-- $p_{3}$ -->
     <g transform="translate(353.0825 38.496875) scale(0.1 -0.1)">
      <use xlink:href="#DejaVuSans-Oblique-70"/>
      <use xlink:href="#DejaVuSans-33" transform="translate(63.476562 -16.40625) scale(0.7)"/>
     </g>
    </g>
    <g id="line2d_18">
     <path d="M 325.0825 49.695312 
L 335.0825 49.695312 
L 345.0825 49.695312 
" style="fill: none; stroke: #d62728; stroke-width: 1.5; stroke-linecap: square"/>
    </g>
    <g id="text_14">
     <!-- $p_{15}$ -->
     <g transform="translate(353.0825 53.195312) scale(0.1 -0.1)">
      <use xlink:href="#DejaVuSans-Oblique-70"/>
      <use xlink:href="#DejaVuSans-31" transform="translate(63.476562 -16.40625) scale(0.7)"/>
      <use xlink:href="#DejaVuSans-35" transform="translate(108.012695 -16.40625) scale(0.7)"/>
     </g>
    </g>
   </g>
  </g>
 </g>
 <defs>
  <clipPath id="p73d52fd4a2">
   <rect x="20.5625" y="7.2" width="357.12" height="266.112"/>
  </clipPath>
 </defs>
</svg>
