<?xml version="1.0" encoding="utf-8" standalone="no"?>
<!DOCTYPE svg PUBLIC "-//W3C//DTD SVG 1.1//EN"
  "http://www.w3.org/Graphics/SVG/1.1/DTD/svg11.dtd">
<!-- Created with matplotlib (http://matplotlib.org/) -->
<svg height="288pt" version="1.1" viewBox="0 0 648 288" width="648pt" xmlns="http://www.w3.org/2000/svg" xmlns:xlink="http://www.w3.org/1999/xlink">
 <defs>
  <style type="text/css">
*{stroke-linecap:butt;stroke-linejoin:round;}
  </style>
 </defs>
 <g id="figure_1">
  <g id="patch_1">
   <path d="M 0 288 
L 648 288 
L 648 0 
L 0 0 
z
" style="fill:#ffffff;"/>
  </g>
  <g id="axes_1">
   <g id="line2d_1">
    <path clip-path="url(#p6832347575)" d="M 141.866281 -1 
L 145.331405 16.891789 
L 149.942975 37.16554 
L 154.554545 54.68339 
L 159.166116 70.000021 
L 163.777686 83.522268 
L 168.389256 95.556813 
L 173.000826 106.340233 
L 177.612397 116.058653 
L 182.223967 124.861007 
L 186.835537 132.868248 
L 191.447107 140.179883 
L 196.058678 146.878719 
L 200.670248 153.034378 
L 205.281818 158.705926 
L 209.893388 163.943889 
L 214.504959 168.79181 
L 219.116529 173.287464 
L 223.728099 177.463822 
L 228.339669 181.349827 
L 232.95124 184.971008 
L 237.56281 188.349997 
L 242.17438 191.506935 
L 246.78595 194.459824 
L 251.397521 197.224811 
L 256.009091 199.816426 
L 260.620661 202.247787 
L 265.232231 204.530772 
L 269.843802 206.676164 
L 274.455372 208.693778 
L 279.066942 210.59257 
L 283.678512 212.380725 
L 288.290083 214.065745 
L 292.901653 215.654516 
L 297.513223 217.153372 
L 302.124793 218.568146 
L 306.736364 219.90422 
L 311.347934 221.16657 
L 315.959504 222.359799 
L 320.571074 223.488173 
L 325.182645 224.555649 
L 329.794215 225.565904 
L 334.405785 226.522358 
L 339.017355 227.428193 
L 343.628926 228.286376 
L 348.240496 229.099676 
L 352.852066 229.870675 
L 357.463636 230.601788 
L 362.075207 231.295275 
L 366.686777 231.953249 
L 371.298347 232.577691 
L 375.909917 233.170457 
L 380.521488 233.733289 
L 385.133058 234.267822 
L 389.744628 234.77559 
L 394.356198 235.258037 
L 398.967769 235.71652 
L 403.579339 236.152315 
L 408.190909 236.566626 
L 412.802479 236.960583 
L 417.41405 237.335253 
L 422.02562 237.691643 
L 426.63719 238.0307 
L 431.24876 238.35332 
L 435.860331 238.660348 
L 440.471901 238.95258 
L 445.083471 239.230772 
L 449.695041 239.495635 
L 454.306612 239.747843 
L 458.918182 239.988032 
L 463.529752 240.216805 
L 468.141322 240.434732 
L 472.752893 240.642352 
L 477.364463 240.840177 
L 481.976033 241.02869 
L 486.587603 241.20835 
L 491.199174 241.379591 
L 495.810744 241.542826 
L 500.422314 241.698444 
L 505.033884 241.846817 
L 509.645455 241.988295 
L 514.257025 242.123211 
L 518.868595 242.251882 
L 523.480165 242.374608 
L 528.091736 242.491675 
L 532.703306 242.603352 
L 537.314876 242.709898 
L 541.926446 242.811555 
L 546.538017 242.908557 
L 551.149587 243.001124 
L 555.761157 243.089464 
L 560.372727 243.173779 
" style="fill:none;stroke:#1f77b4;stroke-linecap:square;stroke-width:4;"/>
   </g>
   <g id="line2d_2">
    <path clip-path="url(#p6832347575)" d="M 144.325726 -1 
L 145.331405 1.192104 
L 149.942975 10.846012 
L 154.554545 20.117639 
L 159.166116 29.022122 
L 163.777686 37.573999 
L 168.389256 45.787233 
L 173.000826 53.675233 
L 177.612397 61.250879 
L 182.223967 68.52654 
L 186.835537 75.514094 
L 191.447107 82.22495 
L 196.058678 88.670065 
L 200.670248 94.859962 
L 205.281818 100.804748 
L 209.893388 106.514127 
L 214.504959 111.997423 
L 219.116529 117.263588 
L 223.728099 122.321219 
L 228.339669 127.178575 
L 232.95124 131.843585 
L 237.56281 136.323868 
L 242.17438 140.626737 
L 246.78595 144.759219 
L 251.397521 148.728059 
L 256.009091 152.539739 
L 260.620661 156.200481 
L 265.232231 159.716263 
L 269.843802 163.092824 
L 274.455372 166.335678 
L 279.066942 169.45012 
L 283.678512 172.441233 
L 288.290083 175.313903 
L 292.901653 178.072818 
L 297.513223 180.722484 
L 302.124793 183.267227 
L 306.736364 185.711201 
L 311.347934 188.058397 
L 315.959504 190.312648 
L 320.571074 192.477632 
L 325.182645 194.556887 
L 329.794215 196.553806 
L 334.405785 198.471649 
L 339.017355 200.313548 
L 343.628926 202.082511 
L 348.240496 203.781424 
L 352.852066 205.413064 
L 357.463636 206.980092 
L 362.075207 208.485068 
L 366.686777 209.930449 
L 371.298347 211.318595 
L 375.909917 212.651772 
L 380.521488 213.932157 
L 385.133058 215.161841 
L 389.744628 216.34283 
L 394.356198 217.477055 
L 398.967769 218.566365 
L 403.579339 219.61254 
L 408.190909 220.617288 
L 412.802479 221.582249 
L 417.41405 222.508999 
L 422.02562 223.399051 
L 426.63719 224.253858 
L 431.24876 225.074816 
L 435.860331 225.863265 
L 440.471901 226.620492 
L 445.083471 227.347734 
L 449.695041 228.046179 
L 454.306612 228.716965 
L 458.918182 229.36119 
L 463.529752 229.979904 
L 468.141322 230.574118 
L 472.752893 231.144802 
L 477.364463 231.692888 
L 481.976033 232.21927 
L 486.587603 232.724808 
L 491.199174 233.210327 
L 495.810744 233.67662 
L 500.422314 234.124449 
L 505.033884 234.554545 
L 509.645455 234.967609 
L 514.257025 235.364316 
L 518.868595 235.745315 
L 523.480165 236.111226 
L 528.091736 236.462648 
L 532.703306 236.800153 
L 537.314876 237.124294 
L 541.926446 237.4356 
L 546.538017 237.734578 
L 551.149587 238.021717 
L 555.761157 238.297486 
L 560.372727 238.562335 
" style="fill:none;stroke:#ff7f0e;stroke-linecap:square;stroke-width:4;"/>
   </g>
   <g id="line2d_3">
    <path clip-path="url(#p6832347575)" d="M 103.827273 244.985806 
L 108.438843 168.590275 
L 113.050413 141.224435 
L 117.661983 122.936847 
L 122.273554 109.63645 
L 126.885124 99.652903 
L 131.496694 92.085864 
L 136.108264 86.374747 
L 140.719835 82.137897 
L 145.331405 79.099248 
L 149.942975 77.050238 
L 154.554545 75.828103 
L 159.166116 75.302621 
L 163.777686 75.367544 
L 168.389256 75.934824 
L 173.000826 76.930566 
L 177.612397 78.292113 
L 182.223967 79.965881 
L 186.835537 81.905722 
L 191.447107 84.071661 
L 196.058678 86.428898 
L 200.670248 88.947019 
L 205.281818 91.599352 
L 209.893388 94.362445 
L 214.504959 97.215632 
L 219.116529 100.14067 
L 223.728099 103.121436 
L 228.339669 106.143669 
L 232.95124 109.194748 
L 237.56281 112.263505 
L 242.17438 115.340057 
L 246.78595 118.41567 
L 251.397521 121.482627 
L 256.009091 124.534125 
L 260.620661 127.564176 
L 265.232231 130.567526 
L 269.843802 133.539573 
L 274.455372 136.476309 
L 279.066942 139.374251 
L 283.678512 142.230398 
L 288.290083 145.042174 
L 292.901653 147.807391 
L 297.513223 150.524211 
L 302.124793 153.191106 
L 306.736364 155.806833 
L 311.347934 158.370403 
L 315.959504 160.881053 
L 320.571074 163.338229 
L 325.182645 165.74156 
L 329.794215 168.09084 
L 334.405785 170.386014 
L 339.017355 172.627157 
L 343.628926 174.814464 
L 348.240496 176.948236 
L 352.852066 179.028868 
L 357.463636 181.056837 
L 362.075207 183.032695 
L 366.686777 184.957059 
L 371.298347 186.8306 
L 375.909917 188.654042 
L 380.521488 190.428148 
L 385.133058 192.15372 
L 389.744628 193.831589 
L 394.356198 195.462616 
L 398.967769 197.047677 
L 403.579339 198.587672 
L 408.190909 200.08351 
L 412.802479 201.536111 
L 417.41405 202.946403 
L 422.02562 204.315319 
L 426.63719 205.643791 
L 431.24876 206.932754 
L 435.860331 208.183137 
L 440.471901 209.395866 
L 445.083471 210.571863 
L 449.695041 211.712041 
L 454.306612 212.817302 
L 458.918182 213.888542 
L 463.529752 214.926644 
L 468.141322 215.93248 
L 472.752893 216.906909 
L 477.364463 217.850775 
L 481.976033 218.764913 
L 486.587603 219.650139 
L 491.199174 220.507256 
L 495.810744 221.337052 
L 500.422314 222.140301 
L 505.033884 222.917758 
L 509.645455 223.670166 
L 514.257025 224.39825 
L 518.868595 225.10272 
L 523.480165 225.78427 
L 528.091736 226.443577 
L 532.703306 227.081304 
L 537.314876 227.698097 
L 541.926446 228.294586 
L 546.538017 228.871387 
L 551.149587 229.4291 
L 555.761157 229.968309 
L 560.372727 230.489583 
" style="fill:none;stroke:#2ca02c;stroke-linecap:square;stroke-width:4;"/>
   </g>
   <g id="line2d_4">
    <path clip-path="url(#p6832347575)" d="M 103.827273 244.985806 
L 108.438843 231.376835 
L 113.050413 218.845659 
L 117.661983 207.328258 
L 122.273554 196.763994 
L 126.885124 187.095441 
L 131.496694 178.268226 
L 136.108264 170.230879 
L 140.719835 162.934685 
L 145.331405 156.333551 
L 149.942975 150.383869 
L 154.554545 145.044399 
L 159.166116 140.276141 
L 163.777686 136.042231 
L 168.389256 132.307825 
L 173.000826 129.040004 
L 177.612397 126.207672 
L 182.223967 123.781462 
L 186.835537 121.733652 
L 191.447107 120.038078 
L 196.058678 118.670056 
L 200.670248 117.606302 
L 205.281818 116.824865 
L 209.893388 116.305054 
L 214.504959 116.027374 
L 219.116529 115.973464 
L 223.728099 116.126038 
L 228.339669 116.468826 
L 232.95124 116.986526 
L 237.56281 117.664747 
L 242.17438 118.489965 
L 246.78595 119.449475 
L 251.397521 120.531346 
L 256.009091 121.724383 
L 260.620661 123.018087 
L 265.232231 124.402614 
L 269.843802 125.868742 
L 274.455372 127.407837 
L 279.066942 129.011823 
L 283.678512 130.673146 
L 288.290083 132.38475 
L 292.901653 134.140048 
L 297.513223 135.932896 
L 302.124793 137.757567 
L 306.736364 139.60873 
L 311.347934 141.481426 
L 315.959504 143.371046 
L 320.571074 145.273314 
L 325.182645 147.184265 
L 329.794215 149.100229 
L 334.405785 151.017811 
L 339.017355 152.93388 
L 343.628926 154.845548 
L 348.240496 156.75016 
L 352.852066 158.645277 
L 357.463636 160.528663 
L 362.075207 162.398277 
L 366.686777 164.252256 
L 371.298347 166.088907 
L 375.909917 167.906694 
L 380.521488 169.704233 
L 385.133058 171.480275 
L 389.744628 173.233705 
L 394.356198 174.963529 
L 398.967769 176.668866 
L 403.579339 178.348945 
L 408.190909 180.00309 
L 412.802479 181.630721 
L 417.41405 183.231345 
L 422.02562 184.804548 
L 426.63719 186.349992 
L 431.24876 187.867408 
L 435.860331 189.356594 
L 440.471901 190.817404 
L 445.083471 192.249752 
L 449.695041 193.653601 
L 454.306612 195.028961 
L 458.918182 196.375889 
L 463.529752 197.694478 
L 468.141322 198.984862 
L 472.752893 200.247206 
L 477.364463 201.481708 
L 481.976033 202.688593 
L 486.587603 203.868113 
L 491.199174 205.020543 
L 495.810744 206.146178 
L 500.422314 207.245333 
L 505.033884 208.318341 
L 509.645455 209.365548 
L 514.257025 210.387317 
L 518.868595 211.384018 
L 523.480165 212.356035 
L 528.091736 213.303761 
L 532.703306 214.227595 
L 537.314876 215.127943 
L 541.926446 216.005216 
L 546.538017 216.85983 
L 551.149587 217.692204 
L 555.761157 218.50276 
L 560.372727 219.291919 
" style="fill:none;stroke:#d62728;stroke-linecap:square;stroke-width:4;"/>
   </g>
   <g id="line2d_5">
    <path clip-path="url(#p6832347575)" d="M 103.827273 244.985806 
L 108.438843 242.928014 
L 113.050413 239.395968 
L 117.661983 235.123264 
L 122.273554 230.402711 
L 126.885124 225.412351 
L 131.496694 220.274705 
L 136.108264 215.079344 
L 140.719835 209.894001 
L 145.331405 204.770883 
L 149.942975 199.750636 
L 154.554545 194.865005 
L 159.166116 190.138716 
L 163.777686 185.590859 
L 168.389256 181.235941 
L 173.000826 177.084699 
L 177.612397 173.144753 
L 182.223967 169.421127 
L 186.835537 165.916675 
L 191.447107 162.632439 
L 196.058678 159.567943 
L 200.670248 156.721442 
L 205.281818 154.09013 
L 209.893388 151.670324 
L 214.504959 149.457613 
L 219.116529 147.446994 
L 223.728099 145.632981 
L 228.339669 144.009706 
L 232.95124 142.571002 
L 237.56281 141.310473 
L 242.17438 140.221565 
L 246.78595 139.297612 
L 251.397521 138.531887 
L 256.009091 137.917645 
L 260.620661 137.448152 
L 265.232231 137.11672 
L 269.843802 136.916732 
L 274.455372 136.841661 
L 279.066942 136.88509 
L 283.678512 137.040731 
L 288.290083 137.302431 
L 292.901653 137.66419 
L 297.513223 138.120163 
L 302.124793 138.664672 
L 306.736364 139.292209 
L 311.347934 139.997438 
L 315.959504 140.775203 
L 320.571074 141.620523 
L 325.182645 142.528599 
L 329.794215 143.494807 
L 334.405785 144.514705 
L 339.017355 145.584025 
L 343.628926 146.698673 
L 348.240496 147.854729 
L 352.852066 149.048441 
L 357.463636 150.276222 
L 362.075207 151.534649 
L 366.686777 152.820456 
L 371.298347 154.130535 
L 375.909917 155.461924 
L 380.521488 156.811812 
L 385.133058 158.177529 
L 389.744628 159.556542 
L 394.356198 160.946452 
L 398.967769 162.344991 
L 403.579339 163.750015 
L 408.190909 165.159501 
L 412.802479 166.571541 
L 417.41405 167.984341 
L 422.02562 169.396213 
L 426.63719 170.805576 
L 431.24876 172.210944 
L 435.860331 173.610931 
L 440.471901 175.004241 
L 445.083471 176.389664 
L 449.695041 177.766078 
L 454.306612 179.132438 
L 458.918182 180.487777 
L 463.529752 181.831203 
L 468.141322 183.161893 
L 472.752893 184.47909 
L 477.364463 185.782103 
L 481.976033 187.070298 
L 486.587603 188.343101 
L 491.199174 189.599995 
L 495.810744 190.840511 
L 500.422314 192.064231 
L 505.033884 193.270784 
L 509.645455 194.459844 
L 514.257025 195.631126 
L 518.868595 196.784385 
L 523.480165 197.919413 
L 528.091736 199.036039 
L 532.703306 200.134123 
L 537.314876 201.213558 
L 541.926446 202.274266 
L 546.538017 203.316198 
L 551.149587 204.339328 
L 555.761157 205.343658 
L 560.372727 206.32921 
" style="fill:none;stroke:#9467bd;stroke-linecap:square;stroke-width:4;"/>
   </g>
   <g id="line2d_6">
    <path clip-path="url(#p6832347575)" d="M 103.827273 244.985806 
L 108.438843 244.710878 
L 113.050413 243.929639 
L 117.661983 242.703531 
L 122.273554 241.089094 
L 126.885124 239.138295 
L 131.496694 236.898827 
L 136.108264 234.414403 
L 140.719835 231.725019 
L 145.331405 228.867215 
L 149.942975 225.874304 
L 154.554545 222.776605 
L 159.166116 219.601645 
L 163.777686 216.374362 
L 168.389256 213.117287 
L 173.000826 209.850715 
L 177.612397 206.592874 
L 182.223967 203.360072 
L 186.835537 200.166841 
L 191.447107 197.026072 
L 196.058678 193.94914 
L 200.670248 190.946017 
L 205.281818 188.025388 
L 209.893388 185.19475 
L 214.504959 182.460506 
L 219.116529 179.828058 
L 223.728099 177.301887 
L 228.339669 174.885635 
L 232.95124 172.582173 
L 237.56281 170.393671 
L 242.17438 168.32166 
L 246.78595 166.367094 
L 251.397521 164.530397 
L 256.009091 162.811524 
L 260.620661 161.209999 
L 265.232231 159.724963 
L 269.843802 158.355214 
L 274.455372 157.099244 
L 279.066942 155.955274 
L 283.678512 154.921286 
L 288.290083 153.995054 
L 292.901653 153.174168 
L 297.513223 152.456064 
L 302.124793 151.838043 
L 306.736364 151.317294 
L 311.347934 150.890915 
L 315.959504 150.555928 
L 320.571074 150.309299 
L 325.182645 150.147948 
L 329.794215 150.06877 
L 334.405785 150.06864 
L 339.017355 150.144428 
L 343.628926 150.29301 
L 348.240496 150.511276 
L 352.852066 150.796138 
L 357.463636 151.144536 
L 362.075207 151.55345 
L 366.686777 152.0199 
L 371.298347 152.540955 
L 375.909917 153.113734 
L 380.521488 153.735414 
L 385.133058 154.403232 
L 389.744628 155.114487 
L 394.356198 155.866544 
L 398.967769 156.656833 
L 403.579339 157.482857 
L 408.190909 158.342184 
L 412.802479 159.232459 
L 417.41405 160.151395 
L 422.02562 161.09678 
L 426.63719 162.066473 
L 431.24876 163.058407 
L 435.860331 164.070588 
L 440.471901 165.101092 
L 445.083471 166.148069 
L 449.695041 167.209737 
L 454.306612 168.284388 
L 458.918182 169.370379 
L 463.529752 170.466138 
L 468.141322 171.570158 
L 472.752893 172.680998 
L 477.364463 173.797282 
L 481.976033 174.917696 
L 486.587603 176.040988 
L 491.199174 177.165965 
L 495.810744 178.291494 
L 500.422314 179.416499 
L 505.033884 180.539958 
L 509.645455 181.660903 
L 514.257025 182.778421 
L 518.868595 183.891645 
L 523.480165 184.999763 
L 528.091736 186.102005 
L 532.703306 187.197652 
L 537.314876 188.286025 
L 541.926446 189.366491 
L 546.538017 190.438458 
L 551.149587 191.501374 
L 555.761157 192.554724 
L 560.372727 193.598032 
" style="fill:none;stroke:#8c564b;stroke-linecap:square;stroke-width:4;"/>
   </g>
  </g>
 </g>
 <defs>
  <clipPath id="p6832347575">
   <rect height="217.44" width="502.2" x="81" y="34.56"/>
  </clipPath>
 </defs>
</svg>
