<?xml version="1.0" encoding="utf-8" standalone="no"?>
<!DOCTYPE svg PUBLIC "-//W3C//DTD SVG 1.1//EN"
  "http://www.w3.org/Graphics/SVG/1.1/DTD/svg11.dtd">
<!-- Created with matplotlib (http://matplotlib.org/) -->
<svg height="639.274375pt" version="1.1" viewBox="0 0 493.50625 639.274375" width="493.50625pt" xmlns="http://www.w3.org/2000/svg" xmlns:xlink="http://www.w3.org/1999/xlink">
 <defs>
  <style type="text/css">
*{stroke-linecap:butt;stroke-linejoin:round;}
  </style>
 </defs>
 <g id="figure_1">
  <g id="patch_1">
   <path d="M 0 639.274375 
L 493.50625 639.274375 
L 493.50625 0 
L 0 0 
z
" style="fill:none;"/>
  </g>
  <g id="axes_1">
   <g id="patch_2">
    <path d="M 43.78125 283.118125 
L 482.80625 283.118125 
L 482.80625 22.318125 
L 43.78125 22.318125 
z
" style="fill:#ffffff;"/>
   </g>
   <g id="matplotlib.axis_1">
    <g id="xtick_1">
     <g id="line2d_1">
      <defs>
       <path d="M 0 0 
L 0 3.5 
" id="ma6c3a3c2d6" style="stroke:#000000;stroke-width:0.8;"/>
      </defs>
      <g>
       <use style="stroke:#000000;stroke-width:0.8;" x="103.648295" xlink:href="#ma6c3a3c2d6" y="283.118125"/>
      </g>
     </g>
     <g id="text_1">
      <!-- −4 -->
      <defs>
       <path d="M 10.59375 35.5 
L 73.1875 35.5 
L 73.1875 27.203125 
L 10.59375 27.203125 
z
" id="DejaVuSans-2212"/>
       <path d="M 37.796875 64.3125 
L 12.890625 25.390625 
L 37.796875 25.390625 
z
M 35.203125 72.90625 
L 47.609375 72.90625 
L 47.609375 25.390625 
L 58.015625 25.390625 
L 58.015625 17.1875 
L 47.609375 17.1875 
L 47.609375 0 
L 37.796875 0 
L 37.796875 17.1875 
L 4.890625 17.1875 
L 4.890625 26.703125 
z
" id="DejaVuSans-34"/>
      </defs>
      <g transform="translate(96.277202 297.716562)scale(0.1 -0.1)">
       <use xlink:href="#DejaVuSans-2212"/>
       <use x="83.789062" xlink:href="#DejaVuSans-34"/>
      </g>
     </g>
    </g>
    <g id="xtick_2">
     <g id="line2d_2">
      <g>
       <use style="stroke:#000000;stroke-width:0.8;" x="183.471023" xlink:href="#ma6c3a3c2d6" y="283.118125"/>
      </g>
     </g>
     <g id="text_2">
      <!-- −2 -->
      <defs>
       <path d="M 19.1875 8.296875 
L 53.609375 8.296875 
L 53.609375 0 
L 7.328125 0 
L 7.328125 8.296875 
Q 12.9375 14.109375 22.625 23.890625 
Q 32.328125 33.6875 34.8125 36.53125 
Q 39.546875 41.84375 41.421875 45.53125 
Q 43.3125 49.21875 43.3125 52.78125 
Q 43.3125 58.59375 39.234375 62.25 
Q 35.15625 65.921875 28.609375 65.921875 
Q 23.96875 65.921875 18.8125 64.3125 
Q 13.671875 62.703125 7.8125 59.421875 
L 7.8125 69.390625 
Q 13.765625 71.78125 18.9375 73 
Q 24.125 74.21875 28.421875 74.21875 
Q 39.75 74.21875 46.484375 68.546875 
Q 53.21875 62.890625 53.21875 53.421875 
Q 53.21875 48.921875 51.53125 44.890625 
Q 49.859375 40.875 45.40625 35.40625 
Q 44.1875 33.984375 37.640625 27.21875 
Q 31.109375 20.453125 19.1875 8.296875 
z
" id="DejaVuSans-32"/>
      </defs>
      <g transform="translate(176.099929 297.716562)scale(0.1 -0.1)">
       <use xlink:href="#DejaVuSans-2212"/>
       <use x="83.789062" xlink:href="#DejaVuSans-32"/>
      </g>
     </g>
    </g>
    <g id="xtick_3">
     <g id="line2d_3">
      <g>
       <use style="stroke:#000000;stroke-width:0.8;" x="263.29375" xlink:href="#ma6c3a3c2d6" y="283.118125"/>
      </g>
     </g>
     <g id="text_3">
      <!-- 0 -->
      <defs>
       <path d="M 31.78125 66.40625 
Q 24.171875 66.40625 20.328125 58.90625 
Q 16.5 51.421875 16.5 36.375 
Q 16.5 21.390625 20.328125 13.890625 
Q 24.171875 6.390625 31.78125 6.390625 
Q 39.453125 6.390625 43.28125 13.890625 
Q 47.125 21.390625 47.125 36.375 
Q 47.125 51.421875 43.28125 58.90625 
Q 39.453125 66.40625 31.78125 66.40625 
z
M 31.78125 74.21875 
Q 44.046875 74.21875 50.515625 64.515625 
Q 56.984375 54.828125 56.984375 36.375 
Q 56.984375 17.96875 50.515625 8.265625 
Q 44.046875 -1.421875 31.78125 -1.421875 
Q 19.53125 -1.421875 13.0625 8.265625 
Q 6.59375 17.96875 6.59375 36.375 
Q 6.59375 54.828125 13.0625 64.515625 
Q 19.53125 74.21875 31.78125 74.21875 
z
" id="DejaVuSans-30"/>
      </defs>
      <g transform="translate(260.1125 297.716562)scale(0.1 -0.1)">
       <use xlink:href="#DejaVuSans-30"/>
      </g>
     </g>
    </g>
    <g id="xtick_4">
     <g id="line2d_4">
      <g>
       <use style="stroke:#000000;stroke-width:0.8;" x="343.116477" xlink:href="#ma6c3a3c2d6" y="283.118125"/>
      </g>
     </g>
     <g id="text_4">
      <!-- 2 -->
      <g transform="translate(339.935227 297.716562)scale(0.1 -0.1)">
       <use xlink:href="#DejaVuSans-32"/>
      </g>
     </g>
    </g>
    <g id="xtick_5">
     <g id="line2d_5">
      <g>
       <use style="stroke:#000000;stroke-width:0.8;" x="422.939205" xlink:href="#ma6c3a3c2d6" y="283.118125"/>
      </g>
     </g>
     <g id="text_5">
      <!-- 4 -->
      <g transform="translate(419.757955 297.716562)scale(0.1 -0.1)">
       <use xlink:href="#DejaVuSans-34"/>
      </g>
     </g>
    </g>
    <g id="text_6">
     <!-- $x$ -->
     <defs>
      <path d="M 60.015625 54.6875 
L 34.90625 27.875 
L 50.296875 0 
L 39.984375 0 
L 28.421875 21.6875 
L 8.296875 0 
L -2.59375 0 
L 24.3125 28.8125 
L 10.015625 54.6875 
L 20.3125 54.6875 
L 30.8125 34.90625 
L 49.125 54.6875 
z
" id="DejaVuSans-Oblique-78"/>
     </defs>
     <g transform="translate(260.29375 311.394687)scale(0.1 -0.1)">
      <use transform="translate(0 0.3125)" xlink:href="#DejaVuSans-Oblique-78"/>
     </g>
    </g>
   </g>
   <g id="matplotlib.axis_2">
    <g id="ytick_1">
     <g id="line2d_6">
      <defs>
       <path d="M 0 0 
L -3.5 0 
" id="m45509d470e" style="stroke:#000000;stroke-width:0.8;"/>
      </defs>
      <g>
       <use style="stroke:#000000;stroke-width:0.8;" x="43.78125" xlink:href="#m45509d470e" y="271.26358"/>
      </g>
     </g>
     <g id="text_7">
      <!-- 0.0 -->
      <defs>
       <path d="M 10.6875 12.40625 
L 21 12.40625 
L 21 0 
L 10.6875 0 
z
" id="DejaVuSans-2e"/>
      </defs>
      <g transform="translate(20.878125 275.062798)scale(0.1 -0.1)">
       <use xlink:href="#DejaVuSans-30"/>
       <use x="63.623047" xlink:href="#DejaVuSans-2e"/>
       <use x="95.410156" xlink:href="#DejaVuSans-30"/>
      </g>
     </g>
    </g>
    <g id="ytick_2">
     <g id="line2d_7">
      <g>
       <use style="stroke:#000000;stroke-width:0.8;" x="43.78125" xlink:href="#m45509d470e" y="218.023922"/>
      </g>
     </g>
     <g id="text_8">
      <!-- 0.2 -->
      <g transform="translate(20.878125 221.823141)scale(0.1 -0.1)">
       <use xlink:href="#DejaVuSans-30"/>
       <use x="63.623047" xlink:href="#DejaVuSans-2e"/>
       <use x="95.410156" xlink:href="#DejaVuSans-32"/>
      </g>
     </g>
    </g>
    <g id="ytick_3">
     <g id="line2d_8">
      <g>
       <use style="stroke:#000000;stroke-width:0.8;" x="43.78125" xlink:href="#m45509d470e" y="164.784265"/>
      </g>
     </g>
     <g id="text_9">
      <!-- 0.4 -->
      <g transform="translate(20.878125 168.583484)scale(0.1 -0.1)">
       <use xlink:href="#DejaVuSans-30"/>
       <use x="63.623047" xlink:href="#DejaVuSans-2e"/>
       <use x="95.410156" xlink:href="#DejaVuSans-34"/>
      </g>
     </g>
    </g>
    <g id="ytick_4">
     <g id="line2d_9">
      <g>
       <use style="stroke:#000000;stroke-width:0.8;" x="43.78125" xlink:href="#m45509d470e" y="111.544607"/>
      </g>
     </g>
     <g id="text_10">
      <!-- 0.6 -->
      <defs>
       <path d="M 33.015625 40.375 
Q 26.375 40.375 22.484375 35.828125 
Q 18.609375 31.296875 18.609375 23.390625 
Q 18.609375 15.53125 22.484375 10.953125 
Q 26.375 6.390625 33.015625 6.390625 
Q 39.65625 6.390625 43.53125 10.953125 
Q 47.40625 15.53125 47.40625 23.390625 
Q 47.40625 31.296875 43.53125 35.828125 
Q 39.65625 40.375 33.015625 40.375 
z
M 52.59375 71.296875 
L 52.59375 62.3125 
Q 48.875 64.0625 45.09375 64.984375 
Q 41.3125 65.921875 37.59375 65.921875 
Q 27.828125 65.921875 22.671875 59.328125 
Q 17.53125 52.734375 16.796875 39.40625 
Q 19.671875 43.65625 24.015625 45.921875 
Q 28.375 48.1875 33.59375 48.1875 
Q 44.578125 48.1875 50.953125 41.515625 
Q 57.328125 34.859375 57.328125 23.390625 
Q 57.328125 12.15625 50.6875 5.359375 
Q 44.046875 -1.421875 33.015625 -1.421875 
Q 20.359375 -1.421875 13.671875 8.265625 
Q 6.984375 17.96875 6.984375 36.375 
Q 6.984375 53.65625 15.1875 63.9375 
Q 23.390625 74.21875 37.203125 74.21875 
Q 40.921875 74.21875 44.703125 73.484375 
Q 48.484375 72.75 52.59375 71.296875 
z
" id="DejaVuSans-36"/>
      </defs>
      <g transform="translate(20.878125 115.343826)scale(0.1 -0.1)">
       <use xlink:href="#DejaVuSans-30"/>
       <use x="63.623047" xlink:href="#DejaVuSans-2e"/>
       <use x="95.410156" xlink:href="#DejaVuSans-36"/>
      </g>
     </g>
    </g>
    <g id="ytick_5">
     <g id="line2d_10">
      <g>
       <use style="stroke:#000000;stroke-width:0.8;" x="43.78125" xlink:href="#m45509d470e" y="58.30495"/>
      </g>
     </g>
     <g id="text_11">
      <!-- 0.8 -->
      <defs>
       <path d="M 31.78125 34.625 
Q 24.75 34.625 20.71875 30.859375 
Q 16.703125 27.09375 16.703125 20.515625 
Q 16.703125 13.921875 20.71875 10.15625 
Q 24.75 6.390625 31.78125 6.390625 
Q 38.8125 6.390625 42.859375 10.171875 
Q 46.921875 13.96875 46.921875 20.515625 
Q 46.921875 27.09375 42.890625 30.859375 
Q 38.875 34.625 31.78125 34.625 
z
M 21.921875 38.8125 
Q 15.578125 40.375 12.03125 44.71875 
Q 8.5 49.078125 8.5 55.328125 
Q 8.5 64.0625 14.71875 69.140625 
Q 20.953125 74.21875 31.78125 74.21875 
Q 42.671875 74.21875 48.875 69.140625 
Q 55.078125 64.0625 55.078125 55.328125 
Q 55.078125 49.078125 51.53125 44.71875 
Q 48 40.375 41.703125 38.8125 
Q 48.828125 37.15625 52.796875 32.3125 
Q 56.78125 27.484375 56.78125 20.515625 
Q 56.78125 9.90625 50.3125 4.234375 
Q 43.84375 -1.421875 31.78125 -1.421875 
Q 19.734375 -1.421875 13.25 4.234375 
Q 6.78125 9.90625 6.78125 20.515625 
Q 6.78125 27.484375 10.78125 32.3125 
Q 14.796875 37.15625 21.921875 38.8125 
z
M 18.3125 54.390625 
Q 18.3125 48.734375 21.84375 45.5625 
Q 25.390625 42.390625 31.78125 42.390625 
Q 38.140625 42.390625 41.71875 45.5625 
Q 45.3125 48.734375 45.3125 54.390625 
Q 45.3125 60.0625 41.71875 63.234375 
Q 38.140625 66.40625 31.78125 66.40625 
Q 25.390625 66.40625 21.84375 63.234375 
Q 18.3125 60.0625 18.3125 54.390625 
z
" id="DejaVuSans-38"/>
      </defs>
      <g transform="translate(20.878125 62.104169)scale(0.1 -0.1)">
       <use xlink:href="#DejaVuSans-30"/>
       <use x="63.623047" xlink:href="#DejaVuSans-2e"/>
       <use x="95.410156" xlink:href="#DejaVuSans-38"/>
      </g>
     </g>
    </g>
    <g id="text_12">
     <!-- $\mathcal{N}(x)$ -->
     <defs>
      <path d="M 67.09375 12.5 
L 67.203125 12.5 
Q 82.703125 63.59375 84.5 68.40625 
Q 85.5 70.90625 86.296875 72.09375 
Q 91.09375 79.5 97.703125 79.5 
Q 101.40625 79.5 103.90625 77.046875 
Q 106.40625 74.59375 106.40625 71.09375 
Q 106.40625 68.40625 105 66.75 
Q 103.59375 65.09375 101.09375 65.09375 
Q 99.5 65.09375 98.390625 66 
Q 97.296875 66.90625 96.84375 67.953125 
Q 96.40625 69 95.59375 69.890625 
Q 94.796875 70.796875 93.796875 70.796875 
Q 92.796875 70.796875 91.890625 70.4375 
Q 91 70.09375 90.390625 69.640625 
Q 89.796875 69.203125 89.140625 68.296875 
Q 88.5 67.40625 88.09375 66.796875 
Q 87.703125 66.203125 87.25 65.046875 
Q 86.796875 63.90625 86.640625 63.40625 
Q 86.5 62.90625 86.09375 61.75 
Q 85.703125 60.59375 85.703125 60.40625 
L 66.59375 -2.40625 
L 64.59375 -2.40625 
Q 48.09375 20 38.796875 45.203125 
L 38.59375 45.203125 
Q 37.59375 40.296875 36.84375 36.890625 
Q 36.09375 33.5 34.59375 28 
Q 33.09375 22.5 31.6875 18.59375 
Q 30.296875 14.703125 28.1875 10.203125 
Q 26.09375 5.703125 23.890625 2.890625 
Q 21.703125 0.09375 18.796875 -1.796875 
Q 15.90625 -3.703125 12.703125 -3.703125 
Q 9 -3.703125 6.5 -1.25 
Q 4 1.203125 4 4.703125 
Q 4 7.40625 5.390625 9.046875 
Q 6.796875 10.703125 9.296875 10.703125 
Q 10.90625 10.703125 12 9.796875 
Q 13.09375 8.90625 13.546875 7.84375 
Q 14 6.796875 14.796875 5.890625 
Q 15.59375 5 16.59375 5 
Q 19.09375 5 21.390625 7.5 
Q 23.703125 10 25.59375 14.5 
Q 27.5 19 29.09375 24.09375 
Q 30.703125 29.203125 32.140625 35.75 
Q 33.59375 42.296875 34.59375 47.390625 
Q 35.59375 52.5 36.6875 58.453125 
Q 37.796875 64.40625 38.40625 67.09375 
L 41.09375 67.09375 
Q 41.90625 65.09375 44.90625 57.5 
Q 47.90625 49.90625 49.09375 47 
Q 50.296875 44.09375 53 37.84375 
Q 55.703125 31.59375 57.546875 28.09375 
Q 59.40625 24.59375 62 20.1875 
Q 64.59375 15.796875 67.09375 12.5 
z
" id="STIXNonUnicode-Italic-e23a"/>
      <path d="M 31 75.875 
Q 24.46875 64.65625 21.28125 53.65625 
Q 18.109375 42.671875 18.109375 31.390625 
Q 18.109375 20.125 21.3125 9.0625 
Q 24.515625 -2 31 -13.1875 
L 23.1875 -13.1875 
Q 15.875 -1.703125 12.234375 9.375 
Q 8.59375 20.453125 8.59375 31.390625 
Q 8.59375 42.28125 12.203125 53.3125 
Q 15.828125 64.359375 23.1875 75.875 
z
" id="DejaVuSans-28"/>
      <path d="M 8.015625 75.875 
L 15.828125 75.875 
Q 23.140625 64.359375 26.78125 53.3125 
Q 30.421875 42.28125 30.421875 31.390625 
Q 30.421875 20.453125 26.78125 9.375 
Q 23.140625 -1.703125 15.828125 -13.1875 
L 8.015625 -13.1875 
Q 14.5 -2 17.703125 9.0625 
Q 20.90625 20.125 20.90625 31.390625 
Q 20.90625 42.671875 17.703125 53.65625 
Q 14.5 64.65625 8.015625 75.875 
z
" id="DejaVuSans-29"/>
     </defs>
     <g transform="translate(14.798438 164.368125)rotate(-90)scale(0.1 -0.1)">
      <use transform="translate(0 0.5)" xlink:href="#STIXNonUnicode-Italic-e23a"/>
      <use transform="translate(95.699982 0.5)" xlink:href="#DejaVuSans-28"/>
      <use transform="translate(134.713654 0.5)" xlink:href="#DejaVuSans-Oblique-78"/>
      <use transform="translate(193.893341 0.5)" xlink:href="#DejaVuSans-29"/>
     </g>
    </g>
   </g>
   <g id="line2d_11">
    <path clip-path="url(#pbfd537644f)" d="M 63.736932 271.26358 
L 192.095086 271.180329 
L 198.111875 270.961799 
L 202.123067 270.595014 
L 204.128663 270.287139 
L 206.134259 269.855382 
L 208.139856 269.258193 
L 210.145452 268.443578 
L 212.151048 267.34781 
L 214.156644 265.894478 
L 216.16224 263.994111 
L 218.167836 261.544607 
L 220.173433 258.432753 
L 222.179029 254.53706 
L 224.184625 249.732137 
L 226.190221 243.894681 
L 228.195817 236.911098 
L 230.201413 228.686533 
L 232.207009 219.154959 
L 234.212606 208.28973 
L 236.218202 196.113831 
L 238.223798 182.708915 
L 240.229394 168.222127 
L 244.240586 136.936707 
L 248.251779 104.77658 
L 250.257375 89.392364 
L 252.262971 75.079285 
L 254.268567 62.294935 
L 256.274163 51.470185 
L 258.27976 42.985206 
L 260.285356 37.147348 
L 262.290952 34.17267 
L 264.296548 34.17267 
L 266.302144 37.147348 
L 268.30774 42.985206 
L 270.313337 51.470185 
L 272.318933 62.294935 
L 274.324529 75.079285 
L 276.330125 89.392364 
L 280.341317 120.771618 
L 284.35251 152.869734 
L 286.358106 168.222127 
L 288.363702 182.708915 
L 290.369298 196.113831 
L 292.374894 208.28973 
L 294.380491 219.154959 
L 296.386087 228.686533 
L 298.391683 236.911098 
L 300.397279 243.894681 
L 302.402875 249.732137 
L 304.408471 254.53706 
L 306.414067 258.432753 
L 308.419664 261.544607 
L 310.42526 263.994111 
L 312.430856 265.894478 
L 314.436452 267.34781 
L 316.442048 268.443578 
L 318.447644 269.258193 
L 320.453241 269.855382 
L 322.458837 270.287139 
L 326.470029 270.811558 
L 330.481221 271.064631 
L 336.49801 271.210737 
L 352.542779 271.262696 
L 462.850568 271.26358 
L 462.850568 271.26358 
" style="fill:none;stroke:#1f77b4;stroke-linecap:square;stroke-width:1.5;"/>
   </g>
   <g id="line2d_12">
    <path clip-path="url(#pbfd537644f)" d="M 63.736932 271.263184 
L 113.876836 271.167484 
L 127.916009 270.926485 
L 135.938394 270.610328 
L 141.955182 270.21871 
L 147.971971 269.629875 
L 153.988759 268.7666 
L 157.999951 267.991986 
L 162.011144 267.020151 
L 166.022336 265.814944 
L 170.033528 264.337747 
L 174.044721 262.548538 
L 178.055913 260.40732 
L 182.067105 257.875931 
L 186.078298 254.920208 
L 190.08949 251.512432 
L 194.100682 247.633984 
L 198.111875 243.278049 
L 202.123067 238.452229 
L 206.134259 233.180859 
L 210.145452 227.506823 
L 214.156644 221.49267 
L 220.173433 212.019332 
L 232.207009 192.852547 
L 236.218202 186.894995 
L 240.229394 181.397116 
L 244.240586 176.502972 
L 246.246183 174.324717 
L 248.251779 172.346492 
L 250.257375 170.582457 
L 252.262971 169.045409 
L 254.268567 167.746626 
L 256.274163 166.695728 
L 258.27976 165.900559 
L 260.285356 165.36709 
L 262.290952 165.099344 
L 264.296548 165.099344 
L 266.302144 165.36709 
L 268.30774 165.900559 
L 270.313337 166.695728 
L 272.318933 167.746626 
L 274.324529 169.045409 
L 276.330125 170.582457 
L 278.335721 172.346492 
L 280.341317 174.324717 
L 282.346914 176.502972 
L 286.358106 181.397116 
L 290.369298 186.894995 
L 294.380491 192.852547 
L 300.397279 202.327478 
L 310.42526 218.383051 
L 314.436452 224.537571 
L 318.447644 230.390733 
L 322.458837 235.870009 
L 326.470029 240.92277 
L 330.481221 245.515594 
L 334.492414 249.632776 
L 338.503606 253.274235 
L 342.514798 256.453025 
L 346.525991 259.192653 
L 350.537183 261.524382 
L 354.548375 263.484664 
L 358.559568 265.112827 
L 362.57076 266.449085 
L 366.581952 267.532913 
L 370.593145 268.401804 
L 374.604337 269.090389 
L 380.621126 269.852452 
L 386.637914 270.367875 
L 394.660299 270.791941 
L 404.688279 271.063713 
L 420.733049 271.219206 
L 458.839376 271.262929 
L 462.850568 271.263184 
L 462.850568 271.263184 
" style="fill:none;stroke:#ff7f0e;stroke-linecap:square;stroke-width:1.5;"/>
   </g>
   <g id="line2d_13">
    <path clip-path="url(#pbfd537644f)" d="M 63.736932 267.36511 
L 73.764913 266.283094 
L 83.792893 264.980598 
L 93.820874 263.436918 
L 103.848855 261.636292 
L 113.876836 259.569986 
L 123.904817 257.238394 
L 133.932798 254.652958 
L 143.960778 251.837742 
L 155.994355 248.210213 
L 172.039125 243.106276 
L 194.100682 236.09956 
L 204.128663 233.140135 
L 212.151048 230.962285 
L 220.173433 229.002898 
L 228.195817 227.304901 
L 234.212606 226.226241 
L 240.229394 225.330371 
L 246.246183 224.629132 
L 252.262971 224.131904 
L 258.27976 223.845398 
L 264.296548 223.773499 
L 270.313337 223.917187 
L 276.330125 224.274508 
L 282.346914 224.84062 
L 288.363702 225.607905 
L 294.380491 226.566135 
L 300.397279 227.702704 
L 308.419664 229.469851 
L 316.442048 231.488022 
L 324.464433 233.713395 
L 334.492414 236.715669 
L 348.531587 241.165187 
L 372.598741 248.830429 
L 384.632318 252.417559 
L 394.660299 255.18939 
L 404.688279 257.725559 
L 414.71626 260.004631 
L 424.744241 262.01751 
L 434.772222 263.765793 
L 444.800203 265.259788 
L 454.828184 266.516409 
L 462.850568 267.36511 
L 462.850568 267.36511 
" style="fill:none;stroke:#2ca02c;stroke-linecap:square;stroke-width:1.5;"/>
   </g>
   <g id="line2d_14">
    <path clip-path="url(#pbfd537644f)" d="M 63.736932 271.245045 
L 79.781701 271.087651 
L 87.804086 270.783431 
L 93.820874 270.296697 
L 97.832067 269.760186 
L 101.843259 268.972721 
L 105.854451 267.842601 
L 107.860047 267.114647 
L 109.865644 266.25714 
L 111.87124 265.252835 
L 113.876836 264.083417 
L 115.882432 262.729693 
L 117.888028 261.171838 
L 119.893624 259.389717 
L 121.899221 257.363266 
L 123.904817 255.072948 
L 125.910413 252.500261 
L 127.916009 249.628318 
L 129.921605 246.442464 
L 131.927201 242.930936 
L 133.932798 239.085543 
L 135.938394 234.902344 
L 137.94399 230.38231 
L 139.949586 225.53194 
L 143.960778 214.897023 
L 147.971971 203.178361 
L 151.983163 190.668085 
L 162.011144 158.784453 
L 166.022336 147.206102 
L 168.027932 141.960631 
L 170.033528 137.172294 
L 172.039125 132.907155 
L 174.044721 129.225511 
L 176.050317 126.180478 
L 178.055913 123.81671 
L 180.061509 122.169318 
L 182.067105 121.262996 
L 184.072702 121.111407 
L 186.078298 121.716844 
L 188.083894 123.070165 
L 190.08949 125.151029 
L 192.095086 127.928402 
L 194.100682 131.361328 
L 196.106279 135.399933 
L 198.111875 139.986629 
L 200.117471 145.057481 
L 202.123067 150.543684 
L 206.134259 162.471865 
L 212.151048 181.650555 
L 218.167836 200.728316 
L 222.179029 212.632263 
L 226.190221 223.5019 
L 228.195817 228.481239 
L 230.201413 233.134516 
L 232.207009 237.452863 
L 234.212606 241.433166 
L 236.218202 245.07748 
L 238.223798 248.392377 
L 240.229394 251.388273 
L 242.23499 254.078746 
L 244.240586 256.479868 
L 246.246183 258.609567 
L 248.251779 260.487031 
L 250.257375 262.132171 
L 252.262971 263.565143 
L 254.268567 264.805939 
L 256.274163 265.874037 
L 258.27976 266.788131 
L 260.285356 267.565911 
L 264.296548 268.777411 
L 268.30774 269.625407 
L 272.318933 270.20575 
L 276.330125 270.594161 
L 282.346914 270.939112 
L 290.369298 271.148474 
L 304.408471 271.248126 
L 364.576356 271.263579 
L 462.850568 271.26358 
L 462.850568 271.26358 
" style="fill:none;stroke:#d62728;stroke-linecap:square;stroke-width:1.5;"/>
   </g>
   <g id="patch_3">
    <path d="M 43.78125 283.118125 
L 43.78125 22.318125 
" style="fill:none;stroke:#000000;stroke-linecap:square;stroke-linejoin:miter;stroke-width:0.8;"/>
   </g>
   <g id="patch_4">
    <path d="M 482.80625 283.118125 
L 482.80625 22.318125 
" style="fill:none;stroke:#000000;stroke-linecap:square;stroke-linejoin:miter;stroke-width:0.8;"/>
   </g>
   <g id="patch_5">
    <path d="M 43.78125 283.118125 
L 482.80625 283.118125 
" style="fill:none;stroke:#000000;stroke-linecap:square;stroke-linejoin:miter;stroke-width:0.8;"/>
   </g>
   <g id="patch_6">
    <path d="M 43.78125 22.318125 
L 482.80625 22.318125 
" style="fill:none;stroke:#000000;stroke-linecap:square;stroke-linejoin:miter;stroke-width:0.8;"/>
   </g>
   <g id="text_13">
    <!-- Probability Density Function -->
    <defs>
     <path d="M 19.671875 64.796875 
L 19.671875 37.40625 
L 32.078125 37.40625 
Q 38.96875 37.40625 42.71875 40.96875 
Q 46.484375 44.53125 46.484375 51.125 
Q 46.484375 57.671875 42.71875 61.234375 
Q 38.96875 64.796875 32.078125 64.796875 
z
M 9.8125 72.90625 
L 32.078125 72.90625 
Q 44.34375 72.90625 50.609375 67.359375 
Q 56.890625 61.8125 56.890625 51.125 
Q 56.890625 40.328125 50.609375 34.8125 
Q 44.34375 29.296875 32.078125 29.296875 
L 19.671875 29.296875 
L 19.671875 0 
L 9.8125 0 
z
" id="DejaVuSans-50"/>
     <path d="M 41.109375 46.296875 
Q 39.59375 47.171875 37.8125 47.578125 
Q 36.03125 48 33.890625 48 
Q 26.265625 48 22.1875 43.046875 
Q 18.109375 38.09375 18.109375 28.8125 
L 18.109375 0 
L 9.078125 0 
L 9.078125 54.6875 
L 18.109375 54.6875 
L 18.109375 46.1875 
Q 20.953125 51.171875 25.484375 53.578125 
Q 30.03125 56 36.53125 56 
Q 37.453125 56 38.578125 55.875 
Q 39.703125 55.765625 41.0625 55.515625 
z
" id="DejaVuSans-72"/>
     <path d="M 30.609375 48.390625 
Q 23.390625 48.390625 19.1875 42.75 
Q 14.984375 37.109375 14.984375 27.296875 
Q 14.984375 17.484375 19.15625 11.84375 
Q 23.34375 6.203125 30.609375 6.203125 
Q 37.796875 6.203125 41.984375 11.859375 
Q 46.1875 17.53125 46.1875 27.296875 
Q 46.1875 37.015625 41.984375 42.703125 
Q 37.796875 48.390625 30.609375 48.390625 
z
M 30.609375 56 
Q 42.328125 56 49.015625 48.375 
Q 55.71875 40.765625 55.71875 27.296875 
Q 55.71875 13.875 49.015625 6.21875 
Q 42.328125 -1.421875 30.609375 -1.421875 
Q 18.84375 -1.421875 12.171875 6.21875 
Q 5.515625 13.875 5.515625 27.296875 
Q 5.515625 40.765625 12.171875 48.375 
Q 18.84375 56 30.609375 56 
z
" id="DejaVuSans-6f"/>
     <path d="M 48.6875 27.296875 
Q 48.6875 37.203125 44.609375 42.84375 
Q 40.53125 48.484375 33.40625 48.484375 
Q 26.265625 48.484375 22.1875 42.84375 
Q 18.109375 37.203125 18.109375 27.296875 
Q 18.109375 17.390625 22.1875 11.75 
Q 26.265625 6.109375 33.40625 6.109375 
Q 40.53125 6.109375 44.609375 11.75 
Q 48.6875 17.390625 48.6875 27.296875 
z
M 18.109375 46.390625 
Q 20.953125 51.265625 25.265625 53.625 
Q 29.59375 56 35.59375 56 
Q 45.5625 56 51.78125 48.09375 
Q 58.015625 40.1875 58.015625 27.296875 
Q 58.015625 14.40625 51.78125 6.484375 
Q 45.5625 -1.421875 35.59375 -1.421875 
Q 29.59375 -1.421875 25.265625 0.953125 
Q 20.953125 3.328125 18.109375 8.203125 
L 18.109375 0 
L 9.078125 0 
L 9.078125 75.984375 
L 18.109375 75.984375 
z
" id="DejaVuSans-62"/>
     <path d="M 34.28125 27.484375 
Q 23.390625 27.484375 19.1875 25 
Q 14.984375 22.515625 14.984375 16.5 
Q 14.984375 11.71875 18.140625 8.90625 
Q 21.296875 6.109375 26.703125 6.109375 
Q 34.1875 6.109375 38.703125 11.40625 
Q 43.21875 16.703125 43.21875 25.484375 
L 43.21875 27.484375 
z
M 52.203125 31.203125 
L 52.203125 0 
L 43.21875 0 
L 43.21875 8.296875 
Q 40.140625 3.328125 35.546875 0.953125 
Q 30.953125 -1.421875 24.3125 -1.421875 
Q 15.921875 -1.421875 10.953125 3.296875 
Q 6 8.015625 6 15.921875 
Q 6 25.140625 12.171875 29.828125 
Q 18.359375 34.515625 30.609375 34.515625 
L 43.21875 34.515625 
L 43.21875 35.40625 
Q 43.21875 41.609375 39.140625 45 
Q 35.0625 48.390625 27.6875 48.390625 
Q 23 48.390625 18.546875 47.265625 
Q 14.109375 46.140625 10.015625 43.890625 
L 10.015625 52.203125 
Q 14.9375 54.109375 19.578125 55.046875 
Q 24.21875 56 28.609375 56 
Q 40.484375 56 46.34375 49.84375 
Q 52.203125 43.703125 52.203125 31.203125 
z
" id="DejaVuSans-61"/>
     <path d="M 9.421875 54.6875 
L 18.40625 54.6875 
L 18.40625 0 
L 9.421875 0 
z
M 9.421875 75.984375 
L 18.40625 75.984375 
L 18.40625 64.59375 
L 9.421875 64.59375 
z
" id="DejaVuSans-69"/>
     <path d="M 9.421875 75.984375 
L 18.40625 75.984375 
L 18.40625 0 
L 9.421875 0 
z
" id="DejaVuSans-6c"/>
     <path d="M 18.3125 70.21875 
L 18.3125 54.6875 
L 36.8125 54.6875 
L 36.8125 47.703125 
L 18.3125 47.703125 
L 18.3125 18.015625 
Q 18.3125 11.328125 20.140625 9.421875 
Q 21.96875 7.515625 27.59375 7.515625 
L 36.8125 7.515625 
L 36.8125 0 
L 27.59375 0 
Q 17.1875 0 13.234375 3.875 
Q 9.28125 7.765625 9.28125 18.015625 
L 9.28125 47.703125 
L 2.6875 47.703125 
L 2.6875 54.6875 
L 9.28125 54.6875 
L 9.28125 70.21875 
z
" id="DejaVuSans-74"/>
     <path d="M 32.171875 -5.078125 
Q 28.375 -14.84375 24.75 -17.8125 
Q 21.140625 -20.796875 15.09375 -20.796875 
L 7.90625 -20.796875 
L 7.90625 -13.28125 
L 13.1875 -13.28125 
Q 16.890625 -13.28125 18.9375 -11.515625 
Q 21 -9.765625 23.484375 -3.21875 
L 25.09375 0.875 
L 2.984375 54.6875 
L 12.5 54.6875 
L 29.59375 11.921875 
L 46.6875 54.6875 
L 56.203125 54.6875 
z
" id="DejaVuSans-79"/>
     <path id="DejaVuSans-20"/>
     <path d="M 19.671875 64.796875 
L 19.671875 8.109375 
L 31.59375 8.109375 
Q 46.6875 8.109375 53.6875 14.9375 
Q 60.6875 21.78125 60.6875 36.53125 
Q 60.6875 51.171875 53.6875 57.984375 
Q 46.6875 64.796875 31.59375 64.796875 
z
M 9.8125 72.90625 
L 30.078125 72.90625 
Q 51.265625 72.90625 61.171875 64.09375 
Q 71.09375 55.28125 71.09375 36.53125 
Q 71.09375 17.671875 61.125 8.828125 
Q 51.171875 0 30.078125 0 
L 9.8125 0 
z
" id="DejaVuSans-44"/>
     <path d="M 56.203125 29.59375 
L 56.203125 25.203125 
L 14.890625 25.203125 
Q 15.484375 15.921875 20.484375 11.0625 
Q 25.484375 6.203125 34.421875 6.203125 
Q 39.59375 6.203125 44.453125 7.46875 
Q 49.3125 8.734375 54.109375 11.28125 
L 54.109375 2.78125 
Q 49.265625 0.734375 44.1875 -0.34375 
Q 39.109375 -1.421875 33.890625 -1.421875 
Q 20.796875 -1.421875 13.15625 6.1875 
Q 5.515625 13.8125 5.515625 26.8125 
Q 5.515625 40.234375 12.765625 48.109375 
Q 20.015625 56 32.328125 56 
Q 43.359375 56 49.78125 48.890625 
Q 56.203125 41.796875 56.203125 29.59375 
z
M 47.21875 32.234375 
Q 47.125 39.59375 43.09375 43.984375 
Q 39.0625 48.390625 32.421875 48.390625 
Q 24.90625 48.390625 20.390625 44.140625 
Q 15.875 39.890625 15.1875 32.171875 
z
" id="DejaVuSans-65"/>
     <path d="M 54.890625 33.015625 
L 54.890625 0 
L 45.90625 0 
L 45.90625 32.71875 
Q 45.90625 40.484375 42.875 44.328125 
Q 39.84375 48.1875 33.796875 48.1875 
Q 26.515625 48.1875 22.3125 43.546875 
Q 18.109375 38.921875 18.109375 30.90625 
L 18.109375 0 
L 9.078125 0 
L 9.078125 54.6875 
L 18.109375 54.6875 
L 18.109375 46.1875 
Q 21.34375 51.125 25.703125 53.5625 
Q 30.078125 56 35.796875 56 
Q 45.21875 56 50.046875 50.171875 
Q 54.890625 44.34375 54.890625 33.015625 
z
" id="DejaVuSans-6e"/>
     <path d="M 44.28125 53.078125 
L 44.28125 44.578125 
Q 40.484375 46.53125 36.375 47.5 
Q 32.28125 48.484375 27.875 48.484375 
Q 21.1875 48.484375 17.84375 46.4375 
Q 14.5 44.390625 14.5 40.28125 
Q 14.5 37.15625 16.890625 35.375 
Q 19.28125 33.59375 26.515625 31.984375 
L 29.59375 31.296875 
Q 39.15625 29.25 43.1875 25.515625 
Q 47.21875 21.78125 47.21875 15.09375 
Q 47.21875 7.46875 41.1875 3.015625 
Q 35.15625 -1.421875 24.609375 -1.421875 
Q 20.21875 -1.421875 15.453125 -0.5625 
Q 10.6875 0.296875 5.421875 2 
L 5.421875 11.28125 
Q 10.40625 8.6875 15.234375 7.390625 
Q 20.0625 6.109375 24.8125 6.109375 
Q 31.15625 6.109375 34.5625 8.28125 
Q 37.984375 10.453125 37.984375 14.40625 
Q 37.984375 18.0625 35.515625 20.015625 
Q 33.0625 21.96875 24.703125 23.78125 
L 21.578125 24.515625 
Q 13.234375 26.265625 9.515625 29.90625 
Q 5.8125 33.546875 5.8125 39.890625 
Q 5.8125 47.609375 11.28125 51.796875 
Q 16.75 56 26.8125 56 
Q 31.78125 56 36.171875 55.265625 
Q 40.578125 54.546875 44.28125 53.078125 
z
" id="DejaVuSans-73"/>
     <path d="M 9.8125 72.90625 
L 51.703125 72.90625 
L 51.703125 64.59375 
L 19.671875 64.59375 
L 19.671875 43.109375 
L 48.578125 43.109375 
L 48.578125 34.8125 
L 19.671875 34.8125 
L 19.671875 0 
L 9.8125 0 
z
" id="DejaVuSans-46"/>
     <path d="M 8.5 21.578125 
L 8.5 54.6875 
L 17.484375 54.6875 
L 17.484375 21.921875 
Q 17.484375 14.15625 20.5 10.265625 
Q 23.53125 6.390625 29.59375 6.390625 
Q 36.859375 6.390625 41.078125 11.03125 
Q 45.3125 15.671875 45.3125 23.6875 
L 45.3125 54.6875 
L 54.296875 54.6875 
L 54.296875 0 
L 45.3125 0 
L 45.3125 8.40625 
Q 42.046875 3.421875 37.71875 1 
Q 33.40625 -1.421875 27.6875 -1.421875 
Q 18.265625 -1.421875 13.375 4.4375 
Q 8.5 10.296875 8.5 21.578125 
z
M 31.109375 56 
z
" id="DejaVuSans-75"/>
     <path d="M 48.78125 52.59375 
L 48.78125 44.1875 
Q 44.96875 46.296875 41.140625 47.34375 
Q 37.3125 48.390625 33.40625 48.390625 
Q 24.65625 48.390625 19.8125 42.84375 
Q 14.984375 37.3125 14.984375 27.296875 
Q 14.984375 17.28125 19.8125 11.734375 
Q 24.65625 6.203125 33.40625 6.203125 
Q 37.3125 6.203125 41.140625 7.25 
Q 44.96875 8.296875 48.78125 10.40625 
L 48.78125 2.09375 
Q 45.015625 0.34375 40.984375 -0.53125 
Q 36.96875 -1.421875 32.421875 -1.421875 
Q 20.0625 -1.421875 12.78125 6.34375 
Q 5.515625 14.109375 5.515625 27.296875 
Q 5.515625 40.671875 12.859375 48.328125 
Q 20.21875 56 33.015625 56 
Q 37.15625 56 41.109375 55.140625 
Q 45.0625 54.296875 48.78125 52.59375 
z
" id="DejaVuSans-63"/>
    </defs>
    <g transform="translate(178.874687 16.318125)scale(0.12 -0.12)">
     <use xlink:href="#DejaVuSans-50"/>
     <use x="60.287109" xlink:href="#DejaVuSans-72"/>
     <use x="101.369141" xlink:href="#DejaVuSans-6f"/>
     <use x="162.550781" xlink:href="#DejaVuSans-62"/>
     <use x="226.027344" xlink:href="#DejaVuSans-61"/>
     <use x="287.306641" xlink:href="#DejaVuSans-62"/>
     <use x="350.783203" xlink:href="#DejaVuSans-69"/>
     <use x="378.566406" xlink:href="#DejaVuSans-6c"/>
     <use x="406.349609" xlink:href="#DejaVuSans-69"/>
     <use x="434.132812" xlink:href="#DejaVuSans-74"/>
     <use x="473.341797" xlink:href="#DejaVuSans-79"/>
     <use x="532.521484" xlink:href="#DejaVuSans-20"/>
     <use x="564.308594" xlink:href="#DejaVuSans-44"/>
     <use x="641.310547" xlink:href="#DejaVuSans-65"/>
     <use x="702.833984" xlink:href="#DejaVuSans-6e"/>
     <use x="766.212891" xlink:href="#DejaVuSans-73"/>
     <use x="818.3125" xlink:href="#DejaVuSans-69"/>
     <use x="846.095703" xlink:href="#DejaVuSans-74"/>
     <use x="885.304688" xlink:href="#DejaVuSans-79"/>
     <use x="944.484375" xlink:href="#DejaVuSans-20"/>
     <use x="976.271484" xlink:href="#DejaVuSans-46"/>
     <use x="1033.712891" xlink:href="#DejaVuSans-75"/>
     <use x="1097.091797" xlink:href="#DejaVuSans-6e"/>
     <use x="1160.470703" xlink:href="#DejaVuSans-63"/>
     <use x="1215.451172" xlink:href="#DejaVuSans-74"/>
     <use x="1254.660156" xlink:href="#DejaVuSans-69"/>
     <use x="1282.443359" xlink:href="#DejaVuSans-6f"/>
     <use x="1343.625" xlink:href="#DejaVuSans-6e"/>
    </g>
   </g>
   <g id="legend_1">
    <g id="patch_7">
     <path d="M 351.90625 95.118125 
L 475.80625 95.118125 
Q 477.80625 95.118125 477.80625 93.118125 
L 477.80625 29.318125 
Q 477.80625 27.318125 475.80625 27.318125 
L 351.90625 27.318125 
Q 349.90625 27.318125 349.90625 29.318125 
L 349.90625 93.118125 
Q 349.90625 95.118125 351.90625 95.118125 
z
" style="fill:#ffffff;opacity:0.8;stroke:#cccccc;stroke-linejoin:miter;"/>
    </g>
    <g id="line2d_15">
     <path d="M 353.90625 36.918125 
L 373.90625 36.918125 
" style="fill:none;stroke:#1f77b4;stroke-linecap:square;stroke-width:1.5;"/>
    </g>
    <g id="line2d_16"/>
    <g id="text_14">
     <!-- $\mu = 0,\quad \sigma^2 = 0.2$ -->
     <defs>
      <path d="M -1.3125 -20.796875 
L 13.375 54.6875 
L 22.40625 54.6875 
L 15.765625 20.65625 
Q 15.578125 19.625 15.421875 18.359375 
Q 15.28125 17.09375 15.28125 15.828125 
Q 15.28125 11.28125 18.140625 8.828125 
Q 21 6.390625 26.3125 6.390625 
Q 33.546875 6.390625 37.984375 10.484375 
Q 42.4375 14.59375 44 22.796875 
L 50.203125 54.6875 
L 59.1875 54.6875 
L 51.03125 12.640625 
Q 50.828125 11.71875 50.75 11.03125 
Q 50.6875 10.359375 50.6875 9.8125 
Q 50.6875 8.296875 51.296875 7.59375 
Q 51.90625 6.890625 53.21875 6.890625 
Q 53.71875 6.890625 54.5625 7.125 
Q 55.421875 7.375 56.984375 8.015625 
L 55.609375 0.78125 
Q 53.46875 -0.296875 51.515625 -0.859375 
Q 49.5625 -1.421875 47.703125 -1.421875 
Q 44.484375 -1.421875 42.65625 0.625 
Q 40.828125 2.6875 40.828125 6.296875 
Q 38.09375 2.390625 34.296875 0.484375 
Q 30.515625 -1.421875 25.390625 -1.421875 
Q 20.84375 -1.421875 17.453125 0.671875 
Q 14.0625 2.78125 12.984375 6.203125 
L 7.71875 -20.796875 
z
" id="DejaVuSans-Oblique-3bc"/>
      <path d="M 10.59375 45.40625 
L 73.1875 45.40625 
L 73.1875 37.203125 
L 10.59375 37.203125 
z
M 10.59375 25.484375 
L 73.1875 25.484375 
L 73.1875 17.1875 
L 10.59375 17.1875 
z
" id="DejaVuSans-3d"/>
      <path d="M 11.71875 12.40625 
L 22.015625 12.40625 
L 22.015625 4 
L 14.015625 -11.625 
L 7.71875 -11.625 
L 11.71875 4 
z
" id="DejaVuSans-2c"/>
      <path d="M 34.671875 47.5625 
Q 27.25 47.5625 22.21875 42.1875 
Q 16.890625 36.578125 15.140625 27.296875 
Q 13.1875 17.484375 16.3125 11.8125 
Q 19.390625 6.203125 26.65625 6.203125 
Q 33.84375 6.203125 39.109375 11.859375 
Q 44.4375 17.53125 46.34375 27.296875 
Q 48.046875 36.234375 45.015625 42.1875 
Q 42.1875 47.5625 34.671875 47.5625 
z
M 36.078125 54.734375 
L 65.921875 54.6875 
L 64.15625 45.703125 
L 54.109375 45.703125 
Q 57.90625 38.09375 55.859375 27.296875 
Q 53.21875 13.875 45.0625 6.25 
Q 36.859375 -1.421875 25.140625 -1.421875 
Q 13.375 -1.421875 8.203125 6.25 
Q 3.03125 13.875 5.671875 27.296875 
Q 8.25 40.765625 16.40625 48.390625 
Q 23.1875 54.734375 36.078125 54.734375 
z
" id="DejaVuSans-Oblique-3c3"/>
     </defs>
     <g transform="translate(381.90625 40.418125)scale(0.1 -0.1)">
      <use transform="translate(0 0.765625)" xlink:href="#DejaVuSans-Oblique-3bc"/>
      <use transform="translate(83.105469 0.765625)" xlink:href="#DejaVuSans-3d"/>
      <use transform="translate(186.376953 0.765625)" xlink:href="#DejaVuSans-30"/>
      <use transform="translate(250 0.765625)" xlink:href="#DejaVuSans-2c"/>
      <use transform="translate(398.681641 0.765625)" xlink:href="#DejaVuSans-Oblique-3c3"/>
      <use transform="translate(466.533255 39.046875)scale(0.7)" xlink:href="#DejaVuSans-32"/>
      <use transform="translate(533.286185 0.765625)" xlink:href="#DejaVuSans-3d"/>
      <use transform="translate(636.557669 0.765625)" xlink:href="#DejaVuSans-30"/>
      <use transform="translate(700.180716 0.765625)" xlink:href="#DejaVuSans-2e"/>
      <use transform="translate(731.889701 0.765625)" xlink:href="#DejaVuSans-32"/>
     </g>
    </g>
    <g id="line2d_17">
     <path d="M 353.90625 53.118125 
L 373.90625 53.118125 
" style="fill:none;stroke:#ff7f0e;stroke-linecap:square;stroke-width:1.5;"/>
    </g>
    <g id="line2d_18"/>
    <g id="text_15">
     <!-- $\mu = 0,\quad \sigma^2 = 1.0$ -->
     <defs>
      <path d="M 12.40625 8.296875 
L 28.515625 8.296875 
L 28.515625 63.921875 
L 10.984375 60.40625 
L 10.984375 69.390625 
L 28.421875 72.90625 
L 38.28125 72.90625 
L 38.28125 8.296875 
L 54.390625 8.296875 
L 54.390625 0 
L 12.40625 0 
z
" id="DejaVuSans-31"/>
     </defs>
     <g transform="translate(381.90625 56.618125)scale(0.1 -0.1)">
      <use transform="translate(0 0.765625)" xlink:href="#DejaVuSans-Oblique-3bc"/>
      <use transform="translate(83.105469 0.765625)" xlink:href="#DejaVuSans-3d"/>
      <use transform="translate(186.376953 0.765625)" xlink:href="#DejaVuSans-30"/>
      <use transform="translate(250 0.765625)" xlink:href="#DejaVuSans-2c"/>
      <use transform="translate(398.681641 0.765625)" xlink:href="#DejaVuSans-Oblique-3c3"/>
      <use transform="translate(466.533255 39.046875)scale(0.7)" xlink:href="#DejaVuSans-32"/>
      <use transform="translate(533.286185 0.765625)" xlink:href="#DejaVuSans-3d"/>
      <use transform="translate(636.557669 0.765625)" xlink:href="#DejaVuSans-31"/>
      <use transform="translate(700.180716 0.765625)" xlink:href="#DejaVuSans-2e"/>
      <use transform="translate(731.967826 0.765625)" xlink:href="#DejaVuSans-30"/>
     </g>
    </g>
    <g id="line2d_19">
     <path d="M 353.90625 69.318125 
L 373.90625 69.318125 
" style="fill:none;stroke:#2ca02c;stroke-linecap:square;stroke-width:1.5;"/>
    </g>
    <g id="line2d_20"/>
    <g id="text_16">
     <!-- $\mu = 0,\quad \sigma^2 = 5.0$ -->
     <defs>
      <path d="M 10.796875 72.90625 
L 49.515625 72.90625 
L 49.515625 64.59375 
L 19.828125 64.59375 
L 19.828125 46.734375 
Q 21.96875 47.46875 24.109375 47.828125 
Q 26.265625 48.1875 28.421875 48.1875 
Q 40.625 48.1875 47.75 41.5 
Q 54.890625 34.8125 54.890625 23.390625 
Q 54.890625 11.625 47.5625 5.09375 
Q 40.234375 -1.421875 26.90625 -1.421875 
Q 22.3125 -1.421875 17.546875 -0.640625 
Q 12.796875 0.140625 7.71875 1.703125 
L 7.71875 11.625 
Q 12.109375 9.234375 16.796875 8.0625 
Q 21.484375 6.890625 26.703125 6.890625 
Q 35.15625 6.890625 40.078125 11.328125 
Q 45.015625 15.765625 45.015625 23.390625 
Q 45.015625 31 40.078125 35.4375 
Q 35.15625 39.890625 26.703125 39.890625 
Q 22.75 39.890625 18.8125 39.015625 
Q 14.890625 38.140625 10.796875 36.28125 
z
" id="DejaVuSans-35"/>
     </defs>
     <g transform="translate(381.90625 72.818125)scale(0.1 -0.1)">
      <use transform="translate(0 0.765625)" xlink:href="#DejaVuSans-Oblique-3bc"/>
      <use transform="translate(83.105469 0.765625)" xlink:href="#DejaVuSans-3d"/>
      <use transform="translate(186.376953 0.765625)" xlink:href="#DejaVuSans-30"/>
      <use transform="translate(250 0.765625)" xlink:href="#DejaVuSans-2c"/>
      <use transform="translate(398.681641 0.765625)" xlink:href="#DejaVuSans-Oblique-3c3"/>
      <use transform="translate(466.533255 39.046875)scale(0.7)" xlink:href="#DejaVuSans-32"/>
      <use transform="translate(533.286185 0.765625)" xlink:href="#DejaVuSans-3d"/>
      <use transform="translate(636.557669 0.765625)" xlink:href="#DejaVuSans-35"/>
      <use transform="translate(700.180716 0.765625)" xlink:href="#DejaVuSans-2e"/>
      <use transform="translate(731.967826 0.765625)" xlink:href="#DejaVuSans-30"/>
     </g>
    </g>
    <g id="line2d_21">
     <path d="M 353.90625 85.518125 
L 373.90625 85.518125 
" style="fill:none;stroke:#d62728;stroke-linecap:square;stroke-width:1.5;"/>
    </g>
    <g id="line2d_22"/>
    <g id="text_17">
     <!-- $\mu = -2,\quad \sigma^2 = 0.5$ -->
     <g transform="translate(381.90625 89.018125)scale(0.1 -0.1)">
      <use transform="translate(0 0.765625)" xlink:href="#DejaVuSans-Oblique-3bc"/>
      <use transform="translate(83.105469 0.765625)" xlink:href="#DejaVuSans-3d"/>
      <use transform="translate(205.859375 0.765625)" xlink:href="#DejaVuSans-2212"/>
      <use transform="translate(309.130859 0.765625)" xlink:href="#DejaVuSans-32"/>
      <use transform="translate(372.753906 0.765625)" xlink:href="#DejaVuSans-2c"/>
      <use transform="translate(521.435547 0.765625)" xlink:href="#DejaVuSans-Oblique-3c3"/>
      <use transform="translate(589.287161 39.046875)scale(0.7)" xlink:href="#DejaVuSans-32"/>
      <use transform="translate(656.040091 0.765625)" xlink:href="#DejaVuSans-3d"/>
      <use transform="translate(759.311576 0.765625)" xlink:href="#DejaVuSans-30"/>
      <use transform="translate(822.934622 0.765625)" xlink:href="#DejaVuSans-2e"/>
      <use transform="translate(854.721732 0.765625)" xlink:href="#DejaVuSans-35"/>
     </g>
    </g>
   </g>
  </g>
  <g id="axes_2">
   <g id="patch_8">
    <path d="M 43.78125 601.718125 
L 482.80625 601.718125 
L 482.80625 340.918125 
L 43.78125 340.918125 
z
" style="fill:#ffffff;"/>
   </g>
   <g id="matplotlib.axis_3">
    <g id="xtick_6">
     <g id="line2d_23">
      <g>
       <use style="stroke:#000000;stroke-width:0.8;" x="103.648295" xlink:href="#ma6c3a3c2d6" y="601.718125"/>
      </g>
     </g>
     <g id="text_18">
      <!-- −4 -->
      <g transform="translate(96.277202 616.316562)scale(0.1 -0.1)">
       <use xlink:href="#DejaVuSans-2212"/>
       <use x="83.789062" xlink:href="#DejaVuSans-34"/>
      </g>
     </g>
    </g>
    <g id="xtick_7">
     <g id="line2d_24">
      <g>
       <use style="stroke:#000000;stroke-width:0.8;" x="183.471023" xlink:href="#ma6c3a3c2d6" y="601.718125"/>
      </g>
     </g>
     <g id="text_19">
      <!-- −2 -->
      <g transform="translate(176.099929 616.316562)scale(0.1 -0.1)">
       <use xlink:href="#DejaVuSans-2212"/>
       <use x="83.789062" xlink:href="#DejaVuSans-32"/>
      </g>
     </g>
    </g>
    <g id="xtick_8">
     <g id="line2d_25">
      <g>
       <use style="stroke:#000000;stroke-width:0.8;" x="263.29375" xlink:href="#ma6c3a3c2d6" y="601.718125"/>
      </g>
     </g>
     <g id="text_20">
      <!-- 0 -->
      <g transform="translate(260.1125 616.316562)scale(0.1 -0.1)">
       <use xlink:href="#DejaVuSans-30"/>
      </g>
     </g>
    </g>
    <g id="xtick_9">
     <g id="line2d_26">
      <g>
       <use style="stroke:#000000;stroke-width:0.8;" x="343.116477" xlink:href="#ma6c3a3c2d6" y="601.718125"/>
      </g>
     </g>
     <g id="text_21">
      <!-- 2 -->
      <g transform="translate(339.935227 616.316562)scale(0.1 -0.1)">
       <use xlink:href="#DejaVuSans-32"/>
      </g>
     </g>
    </g>
    <g id="xtick_10">
     <g id="line2d_27">
      <g>
       <use style="stroke:#000000;stroke-width:0.8;" x="422.939205" xlink:href="#ma6c3a3c2d6" y="601.718125"/>
      </g>
     </g>
     <g id="text_22">
      <!-- 4 -->
      <g transform="translate(419.757955 616.316562)scale(0.1 -0.1)">
       <use xlink:href="#DejaVuSans-34"/>
      </g>
     </g>
    </g>
    <g id="text_23">
     <!-- $x$ -->
     <g transform="translate(260.29375 629.994687)scale(0.1 -0.1)">
      <use transform="translate(0 0.3125)" xlink:href="#DejaVuSans-Oblique-78"/>
     </g>
    </g>
   </g>
   <g id="matplotlib.axis_4">
    <g id="ytick_6">
     <g id="line2d_28">
      <g>
       <use style="stroke:#000000;stroke-width:0.8;" x="43.78125" xlink:href="#m45509d470e" y="589.86358"/>
      </g>
     </g>
     <g id="text_24">
      <!-- 0.0 -->
      <g transform="translate(20.878125 593.662798)scale(0.1 -0.1)">
       <use xlink:href="#DejaVuSans-30"/>
       <use x="63.623047" xlink:href="#DejaVuSans-2e"/>
       <use x="95.410156" xlink:href="#DejaVuSans-30"/>
      </g>
     </g>
    </g>
    <g id="ytick_7">
     <g id="line2d_29">
      <g>
       <use style="stroke:#000000;stroke-width:0.8;" x="43.78125" xlink:href="#m45509d470e" y="542.445398"/>
      </g>
     </g>
     <g id="text_25">
      <!-- 0.2 -->
      <g transform="translate(20.878125 546.244616)scale(0.1 -0.1)">
       <use xlink:href="#DejaVuSans-30"/>
       <use x="63.623047" xlink:href="#DejaVuSans-2e"/>
       <use x="95.410156" xlink:href="#DejaVuSans-32"/>
      </g>
     </g>
    </g>
    <g id="ytick_8">
     <g id="line2d_30">
      <g>
       <use style="stroke:#000000;stroke-width:0.8;" x="43.78125" xlink:href="#m45509d470e" y="495.027216"/>
      </g>
     </g>
     <g id="text_26">
      <!-- 0.4 -->
      <g transform="translate(20.878125 498.826435)scale(0.1 -0.1)">
       <use xlink:href="#DejaVuSans-30"/>
       <use x="63.623047" xlink:href="#DejaVuSans-2e"/>
       <use x="95.410156" xlink:href="#DejaVuSans-34"/>
      </g>
     </g>
    </g>
    <g id="ytick_9">
     <g id="line2d_31">
      <g>
       <use style="stroke:#000000;stroke-width:0.8;" x="43.78125" xlink:href="#m45509d470e" y="447.609034"/>
      </g>
     </g>
     <g id="text_27">
      <!-- 0.6 -->
      <g transform="translate(20.878125 451.408253)scale(0.1 -0.1)">
       <use xlink:href="#DejaVuSans-30"/>
       <use x="63.623047" xlink:href="#DejaVuSans-2e"/>
       <use x="95.410156" xlink:href="#DejaVuSans-36"/>
      </g>
     </g>
    </g>
    <g id="ytick_10">
     <g id="line2d_32">
      <g>
       <use style="stroke:#000000;stroke-width:0.8;" x="43.78125" xlink:href="#m45509d470e" y="400.190852"/>
      </g>
     </g>
     <g id="text_28">
      <!-- 0.8 -->
      <g transform="translate(20.878125 403.990071)scale(0.1 -0.1)">
       <use xlink:href="#DejaVuSans-30"/>
       <use x="63.623047" xlink:href="#DejaVuSans-2e"/>
       <use x="95.410156" xlink:href="#DejaVuSans-38"/>
      </g>
     </g>
    </g>
    <g id="ytick_11">
     <g id="line2d_33">
      <g>
       <use style="stroke:#000000;stroke-width:0.8;" x="43.78125" xlink:href="#m45509d470e" y="352.77267"/>
      </g>
     </g>
     <g id="text_29">
      <!-- 1.0 -->
      <g transform="translate(20.878125 356.571889)scale(0.1 -0.1)">
       <use xlink:href="#DejaVuSans-31"/>
       <use x="63.623047" xlink:href="#DejaVuSans-2e"/>
       <use x="95.410156" xlink:href="#DejaVuSans-30"/>
      </g>
     </g>
    </g>
    <g id="text_30">
     <!-- $\Phi(x)$ -->
     <defs>
      <path d="M 34.46875 56.9375 
Q 27.15625 55.90625 22.359375 51.65625 
Q 16.015625 46.046875 16.015625 36.375 
Q 16.015625 26.765625 22.359375 21.140625 
Q 27.15625 16.890625 34.46875 15.875 
z
M 44.34375 15.875 
Q 51.65625 16.890625 56.453125 21.140625 
Q 62.703125 26.765625 62.703125 36.375 
Q 62.703125 46.046875 56.453125 51.65625 
Q 51.65625 55.90625 44.34375 56.9375 
z
M 34.46875 7.71875 
Q 22.5625 8.796875 14.84375 15.328125 
Q 5.609375 23.140625 5.609375 36.375 
Q 5.609375 49.609375 14.84375 57.46875 
Q 22.515625 64.0625 34.46875 65.140625 
L 34.46875 72.90625 
L 44.34375 72.90625 
L 44.34375 65.140625 
Q 56.25 64.015625 63.921875 57.46875 
Q 73.09375 49.609375 73.09375 36.375 
Q 73.09375 23.1875 63.921875 15.328125 
Q 56.25 8.796875 44.34375 7.671875 
L 44.34375 0 
L 34.46875 0 
z
" id="DejaVuSans-3a6"/>
     </defs>
     <g transform="translate(14.798438 482.118125)rotate(-90)scale(0.1 -0.1)">
      <use transform="translate(0 0.125)" xlink:href="#DejaVuSans-3a6"/>
      <use transform="translate(78.710938 0.125)" xlink:href="#DejaVuSans-28"/>
      <use transform="translate(117.724609 0.125)" xlink:href="#DejaVuSans-Oblique-78"/>
      <use transform="translate(176.904297 0.125)" xlink:href="#DejaVuSans-29"/>
     </g>
    </g>
   </g>
   <g id="line2d_34">
    <path clip-path="url(#p7c0c6087c0)" d="M 63.736932 589.86358 
L 204.128663 589.754853 
L 210.145452 589.519276 
L 214.156644 589.163435 
L 218.167836 588.504536 
L 220.173433 588.002602 
L 222.179029 587.344317 
L 224.184625 586.491794 
L 226.190221 585.401562 
L 228.195817 584.024811 
L 230.201413 582.308036 
L 232.207009 580.19409 
L 234.212606 577.623711 
L 236.218202 574.537523 
L 238.223798 570.878457 
L 240.229394 566.594546 
L 242.23499 561.641949 
L 244.240586 555.988052 
L 246.246183 549.614446 
L 248.251779 542.519569 
L 250.257375 534.720783 
L 252.262971 526.255695 
L 254.268567 517.18254 
L 258.27976 497.543096 
L 264.296548 466.006854 
L 268.30774 445.093154 
L 272.318933 425.45371 
L 274.324529 416.380555 
L 276.330125 407.915467 
L 278.335721 400.116681 
L 280.341317 393.021804 
L 282.346914 386.648198 
L 284.35251 380.994301 
L 286.358106 376.041704 
L 288.363702 371.757793 
L 290.369298 368.098727 
L 292.374894 365.012539 
L 294.380491 362.44216 
L 296.386087 360.328214 
L 298.391683 358.611439 
L 300.397279 357.234688 
L 302.402875 356.144456 
L 304.408471 355.291933 
L 306.414067 354.633648 
L 308.419664 354.131714 
L 312.430856 353.472815 
L 316.442048 353.116974 
L 322.458837 352.881397 
L 332.486818 352.785228 
L 384.632318 352.77267 
L 462.850568 352.77267 
L 462.850568 352.77267 
" style="fill:none;stroke:#1f77b4;stroke-linecap:square;stroke-width:1.5;"/>
   </g>
   <g id="line2d_35">
    <path clip-path="url(#p7c0c6087c0)" d="M 63.736932 589.863512 
L 129.921605 589.764873 
L 143.960778 589.53281 
L 153.988759 589.132345 
L 160.005548 588.719001 
L 166.022336 588.108862 
L 172.039125 587.228434 
L 176.050317 586.44701 
L 180.061509 585.473777 
L 184.072702 584.273823 
L 188.083894 582.809188 
L 192.095086 581.039443 
L 196.106279 578.922501 
L 200.117471 576.415672 
L 204.128663 573.47696 
L 208.139856 570.066551 
L 212.151048 566.148474 
L 216.16224 561.69236 
L 220.173433 556.675215 
L 224.184625 551.083126 
L 228.195817 544.912795 
L 232.207009 538.172797 
L 236.218202 530.884465 
L 240.229394 523.08233 
L 244.240586 514.814039 
L 248.251779 506.139726 
L 254.268567 492.52593 
L 262.290952 473.694397 
L 272.318933 450.11032 
L 278.335721 436.496524 
L 282.346914 427.822211 
L 286.358106 419.55392 
L 290.369298 411.751785 
L 294.380491 404.463453 
L 298.391683 397.723455 
L 302.402875 391.553124 
L 306.414067 385.961035 
L 310.42526 380.94389 
L 314.436452 376.487776 
L 318.447644 372.569699 
L 322.458837 369.15929 
L 326.470029 366.220578 
L 330.481221 363.713749 
L 334.492414 361.596807 
L 338.503606 359.827062 
L 342.514798 358.362427 
L 346.525991 357.162473 
L 350.537183 356.18924 
L 354.548375 355.407816 
L 360.565164 354.527388 
L 366.581952 353.917249 
L 374.604337 353.39954 
L 384.632318 353.052936 
L 398.671491 352.854935 
L 424.744241 352.778867 
L 462.850568 352.772738 
L 462.850568 352.772738 
" style="fill:none;stroke:#ff7f0e;stroke-linecap:square;stroke-width:1.5;"/>
   </g>
   <g id="line2d_36">
    <path clip-path="url(#p7c0c6087c0)" d="M 63.736932 586.85877 
L 73.764913 585.86919 
L 81.787297 584.888144 
L 89.809682 583.710443 
L 97.832067 582.308036 
L 105.854451 580.651482 
L 113.876836 578.710458 
L 119.893624 577.049615 
L 125.910413 575.198819 
L 131.927201 573.145698 
L 137.94399 570.878457 
L 143.960778 568.386116 
L 149.977567 565.658746 
L 155.994355 562.687715 
L 162.011144 559.465926 
L 168.027932 555.988052 
L 174.044721 552.250758 
L 180.061509 548.2529 
L 186.078298 543.995698 
L 192.095086 539.48288 
L 198.111875 534.720783 
L 204.128663 529.718419 
L 210.145452 524.487486 
L 218.167836 517.18254 
L 226.190221 509.538131 
L 234.212606 501.602823 
L 244.240586 491.359215 
L 258.27976 476.629396 
L 282.346914 451.277035 
L 292.374894 441.033427 
L 300.397279 433.098119 
L 308.419664 425.45371 
L 316.442048 418.148764 
L 322.458837 412.917831 
L 328.475625 407.915467 
L 334.492414 403.15337 
L 340.509202 398.640552 
L 346.525991 394.38335 
L 352.542779 390.385492 
L 358.559568 386.648198 
L 364.576356 383.170324 
L 370.593145 379.948535 
L 376.609933 376.977504 
L 382.626722 374.250134 
L 388.64351 371.757793 
L 394.660299 369.490552 
L 400.677087 367.437431 
L 406.693876 365.586635 
L 412.710664 363.925792 
L 420.733049 361.984768 
L 428.755433 360.328214 
L 436.777818 358.925807 
L 444.800203 357.748106 
L 452.822587 356.76706 
L 462.850568 355.77748 
L 462.850568 355.77748 
" style="fill:none;stroke:#2ca02c;stroke-linecap:square;stroke-width:1.5;"/>
   </g>
   <g id="line2d_37">
    <path clip-path="url(#p7c0c6087c0)" d="M 63.736932 589.860961 
L 89.809682 589.756402 
L 99.837663 589.502954 
L 105.854451 589.157653 
L 109.865644 588.784337 
L 113.876836 588.243834 
L 117.888028 587.476894 
L 121.899221 586.410383 
L 125.910413 584.956896 
L 127.916009 584.053991 
L 129.921605 583.015572 
L 131.927201 581.827315 
L 133.932798 580.474447 
L 135.938394 578.941918 
L 137.94399 577.214612 
L 139.949586 575.277577 
L 141.955182 573.116288 
L 143.960778 570.716923 
L 145.966374 568.066671 
L 147.971971 565.154039 
L 149.977567 561.969171 
L 151.983163 558.504156 
L 153.988759 554.753336 
L 155.994355 550.713582 
L 157.999951 546.384547 
L 160.005548 541.768874 
L 164.01674 531.704094 
L 168.027932 520.605098 
L 172.039125 508.60998 
L 176.050317 495.905215 
L 182.067105 476.021459 
L 190.08949 449.337782 
L 194.100682 436.517191 
L 198.111875 424.363796 
L 202.123067 413.072896 
L 206.134259 402.792713 
L 208.139856 398.063829 
L 210.145452 393.619647 
L 212.151048 389.464059 
L 214.156644 385.597891 
L 216.16224 382.019097 
L 218.167836 378.723 
L 220.173433 375.702554 
L 222.179029 372.948645 
L 224.184625 370.450396 
L 226.190221 368.195485 
L 228.195817 366.170458 
L 230.201413 364.361038 
L 232.207009 362.752408 
L 234.212606 361.32949 
L 236.218202 360.077181 
L 238.223798 358.980575 
L 240.229394 358.025148 
L 244.240586 356.482563 
L 248.251779 355.3461 
L 252.262971 354.525554 
L 256.274163 353.944934 
L 262.290952 353.391938 
L 268.30774 353.086376 
L 278.335721 352.864593 
L 296.386087 352.780147 
L 416.721856 352.77267 
L 462.850568 352.77267 
L 462.850568 352.77267 
" style="fill:none;stroke:#d62728;stroke-linecap:square;stroke-width:1.5;"/>
   </g>
   <g id="patch_9">
    <path d="M 43.78125 601.718125 
L 43.78125 340.918125 
" style="fill:none;stroke:#000000;stroke-linecap:square;stroke-linejoin:miter;stroke-width:0.8;"/>
   </g>
   <g id="patch_10">
    <path d="M 482.80625 601.718125 
L 482.80625 340.918125 
" style="fill:none;stroke:#000000;stroke-linecap:square;stroke-linejoin:miter;stroke-width:0.8;"/>
   </g>
   <g id="patch_11">
    <path d="M 43.78125 601.718125 
L 482.80625 601.718125 
" style="fill:none;stroke:#000000;stroke-linecap:square;stroke-linejoin:miter;stroke-width:0.8;"/>
   </g>
   <g id="patch_12">
    <path d="M 43.78125 340.918125 
L 482.80625 340.918125 
" style="fill:none;stroke:#000000;stroke-linecap:square;stroke-linejoin:miter;stroke-width:0.8;"/>
   </g>
   <g id="text_31">
    <!-- Cumulative Distribution Function -->
    <defs>
     <path d="M 64.40625 67.28125 
L 64.40625 56.890625 
Q 59.421875 61.53125 53.78125 63.8125 
Q 48.140625 66.109375 41.796875 66.109375 
Q 29.296875 66.109375 22.65625 58.46875 
Q 16.015625 50.828125 16.015625 36.375 
Q 16.015625 21.96875 22.65625 14.328125 
Q 29.296875 6.6875 41.796875 6.6875 
Q 48.140625 6.6875 53.78125 8.984375 
Q 59.421875 11.28125 64.40625 15.921875 
L 64.40625 5.609375 
Q 59.234375 2.09375 53.4375 0.328125 
Q 47.65625 -1.421875 41.21875 -1.421875 
Q 24.65625 -1.421875 15.125 8.703125 
Q 5.609375 18.84375 5.609375 36.375 
Q 5.609375 53.953125 15.125 64.078125 
Q 24.65625 74.21875 41.21875 74.21875 
Q 47.75 74.21875 53.53125 72.484375 
Q 59.328125 70.75 64.40625 67.28125 
z
" id="DejaVuSans-43"/>
     <path d="M 52 44.1875 
Q 55.375 50.25 60.0625 53.125 
Q 64.75 56 71.09375 56 
Q 79.640625 56 84.28125 50.015625 
Q 88.921875 44.046875 88.921875 33.015625 
L 88.921875 0 
L 79.890625 0 
L 79.890625 32.71875 
Q 79.890625 40.578125 77.09375 44.375 
Q 74.3125 48.1875 68.609375 48.1875 
Q 61.625 48.1875 57.5625 43.546875 
Q 53.515625 38.921875 53.515625 30.90625 
L 53.515625 0 
L 44.484375 0 
L 44.484375 32.71875 
Q 44.484375 40.625 41.703125 44.40625 
Q 38.921875 48.1875 33.109375 48.1875 
Q 26.21875 48.1875 22.15625 43.53125 
Q 18.109375 38.875 18.109375 30.90625 
L 18.109375 0 
L 9.078125 0 
L 9.078125 54.6875 
L 18.109375 54.6875 
L 18.109375 46.1875 
Q 21.1875 51.21875 25.484375 53.609375 
Q 29.78125 56 35.6875 56 
Q 41.65625 56 45.828125 52.96875 
Q 50 49.953125 52 44.1875 
z
" id="DejaVuSans-6d"/>
     <path d="M 2.984375 54.6875 
L 12.5 54.6875 
L 29.59375 8.796875 
L 46.6875 54.6875 
L 56.203125 54.6875 
L 35.6875 0 
L 23.484375 0 
z
" id="DejaVuSans-76"/>
    </defs>
    <g transform="translate(164.389375 334.918125)scale(0.12 -0.12)">
     <use xlink:href="#DejaVuSans-43"/>
     <use x="69.824219" xlink:href="#DejaVuSans-75"/>
     <use x="133.203125" xlink:href="#DejaVuSans-6d"/>
     <use x="230.615234" xlink:href="#DejaVuSans-75"/>
     <use x="293.994141" xlink:href="#DejaVuSans-6c"/>
     <use x="321.777344" xlink:href="#DejaVuSans-61"/>
     <use x="383.056641" xlink:href="#DejaVuSans-74"/>
     <use x="422.265625" xlink:href="#DejaVuSans-69"/>
     <use x="450.048828" xlink:href="#DejaVuSans-76"/>
     <use x="509.228516" xlink:href="#DejaVuSans-65"/>
     <use x="570.751953" xlink:href="#DejaVuSans-20"/>
     <use x="602.539062" xlink:href="#DejaVuSans-44"/>
     <use x="679.541016" xlink:href="#DejaVuSans-69"/>
     <use x="707.324219" xlink:href="#DejaVuSans-73"/>
     <use x="759.423828" xlink:href="#DejaVuSans-74"/>
     <use x="798.632812" xlink:href="#DejaVuSans-72"/>
     <use x="839.746094" xlink:href="#DejaVuSans-69"/>
     <use x="867.529297" xlink:href="#DejaVuSans-62"/>
     <use x="931.005859" xlink:href="#DejaVuSans-75"/>
     <use x="994.384766" xlink:href="#DejaVuSans-74"/>
     <use x="1033.59375" xlink:href="#DejaVuSans-69"/>
     <use x="1061.376953" xlink:href="#DejaVuSans-6f"/>
     <use x="1122.558594" xlink:href="#DejaVuSans-6e"/>
     <use x="1185.9375" xlink:href="#DejaVuSans-20"/>
     <use x="1217.724609" xlink:href="#DejaVuSans-46"/>
     <use x="1275.166016" xlink:href="#DejaVuSans-75"/>
     <use x="1338.544922" xlink:href="#DejaVuSans-6e"/>
     <use x="1401.923828" xlink:href="#DejaVuSans-63"/>
     <use x="1456.904297" xlink:href="#DejaVuSans-74"/>
     <use x="1496.113281" xlink:href="#DejaVuSans-69"/>
     <use x="1523.896484" xlink:href="#DejaVuSans-6f"/>
     <use x="1585.078125" xlink:href="#DejaVuSans-6e"/>
    </g>
   </g>
   <g id="legend_2">
    <g id="patch_13">
     <path d="M 50.78125 413.718125 
L 174.68125 413.718125 
Q 176.68125 413.718125 176.68125 411.718125 
L 176.68125 347.918125 
Q 176.68125 345.918125 174.68125 345.918125 
L 50.78125 345.918125 
Q 48.78125 345.918125 48.78125 347.918125 
L 48.78125 411.718125 
Q 48.78125 413.718125 50.78125 413.718125 
z
" style="fill:#ffffff;opacity:0.8;stroke:#cccccc;stroke-linejoin:miter;"/>
    </g>
    <g id="line2d_38">
     <path d="M 52.78125 355.518125 
L 72.78125 355.518125 
" style="fill:none;stroke:#1f77b4;stroke-linecap:square;stroke-width:1.5;"/>
    </g>
    <g id="line2d_39"/>
    <g id="text_32">
     <!-- $\mu = 0,\quad \sigma^2 = 0.2$ -->
     <g transform="translate(80.78125 359.018125)scale(0.1 -0.1)">
      <use transform="translate(0 0.765625)" xlink:href="#DejaVuSans-Oblique-3bc"/>
      <use transform="translate(83.105469 0.765625)" xlink:href="#DejaVuSans-3d"/>
      <use transform="translate(186.376953 0.765625)" xlink:href="#DejaVuSans-30"/>
      <use transform="translate(250 0.765625)" xlink:href="#DejaVuSans-2c"/>
      <use transform="translate(398.681641 0.765625)" xlink:href="#DejaVuSans-Oblique-3c3"/>
      <use transform="translate(466.533255 39.046875)scale(0.7)" xlink:href="#DejaVuSans-32"/>
      <use transform="translate(533.286185 0.765625)" xlink:href="#DejaVuSans-3d"/>
      <use transform="translate(636.557669 0.765625)" xlink:href="#DejaVuSans-30"/>
      <use transform="translate(700.180716 0.765625)" xlink:href="#DejaVuSans-2e"/>
      <use transform="translate(731.889701 0.765625)" xlink:href="#DejaVuSans-32"/>
     </g>
    </g>
    <g id="line2d_40">
     <path d="M 52.78125 371.718125 
L 72.78125 371.718125 
" style="fill:none;stroke:#ff7f0e;stroke-linecap:square;stroke-width:1.5;"/>
    </g>
    <g id="line2d_41"/>
    <g id="text_33">
     <!-- $\mu = 0,\quad \sigma^2 = 1.0$ -->
     <g transform="translate(80.78125 375.218125)scale(0.1 -0.1)">
      <use transform="translate(0 0.765625)" xlink:href="#DejaVuSans-Oblique-3bc"/>
      <use transform="translate(83.105469 0.765625)" xlink:href="#DejaVuSans-3d"/>
      <use transform="translate(186.376953 0.765625)" xlink:href="#DejaVuSans-30"/>
      <use transform="translate(250 0.765625)" xlink:href="#DejaVuSans-2c"/>
      <use transform="translate(398.681641 0.765625)" xlink:href="#DejaVuSans-Oblique-3c3"/>
      <use transform="translate(466.533255 39.046875)scale(0.7)" xlink:href="#DejaVuSans-32"/>
      <use transform="translate(533.286185 0.765625)" xlink:href="#DejaVuSans-3d"/>
      <use transform="translate(636.557669 0.765625)" xlink:href="#DejaVuSans-31"/>
      <use transform="translate(700.180716 0.765625)" xlink:href="#DejaVuSans-2e"/>
      <use transform="translate(731.967826 0.765625)" xlink:href="#DejaVuSans-30"/>
     </g>
    </g>
    <g id="line2d_42">
     <path d="M 52.78125 387.918125 
L 72.78125 387.918125 
" style="fill:none;stroke:#2ca02c;stroke-linecap:square;stroke-width:1.5;"/>
    </g>
    <g id="line2d_43"/>
    <g id="text_34">
     <!-- $\mu = 0,\quad \sigma^2 = 5.0$ -->
     <g transform="translate(80.78125 391.418125)scale(0.1 -0.1)">
      <use transform="translate(0 0.765625)" xlink:href="#DejaVuSans-Oblique-3bc"/>
      <use transform="translate(83.105469 0.765625)" xlink:href="#DejaVuSans-3d"/>
      <use transform="translate(186.376953 0.765625)" xlink:href="#DejaVuSans-30"/>
      <use transform="translate(250 0.765625)" xlink:href="#DejaVuSans-2c"/>
      <use transform="translate(398.681641 0.765625)" xlink:href="#DejaVuSans-Oblique-3c3"/>
      <use transform="translate(466.533255 39.046875)scale(0.7)" xlink:href="#DejaVuSans-32"/>
      <use transform="translate(533.286185 0.765625)" xlink:href="#DejaVuSans-3d"/>
      <use transform="translate(636.557669 0.765625)" xlink:href="#DejaVuSans-35"/>
      <use transform="translate(700.180716 0.765625)" xlink:href="#DejaVuSans-2e"/>
      <use transform="translate(731.967826 0.765625)" xlink:href="#DejaVuSans-30"/>
     </g>
    </g>
    <g id="line2d_44">
     <path d="M 52.78125 404.118125 
L 72.78125 404.118125 
" style="fill:none;stroke:#d62728;stroke-linecap:square;stroke-width:1.5;"/>
    </g>
    <g id="line2d_45"/>
    <g id="text_35">
     <!-- $\mu = -2,\quad \sigma^2 = 0.5$ -->
     <g transform="translate(80.78125 407.618125)scale(0.1 -0.1)">
      <use transform="translate(0 0.765625)" xlink:href="#DejaVuSans-Oblique-3bc"/>
      <use transform="translate(83.105469 0.765625)" xlink:href="#DejaVuSans-3d"/>
      <use transform="translate(205.859375 0.765625)" xlink:href="#DejaVuSans-2212"/>
      <use transform="translate(309.130859 0.765625)" xlink:href="#DejaVuSans-32"/>
      <use transform="translate(372.753906 0.765625)" xlink:href="#DejaVuSans-2c"/>
      <use transform="translate(521.435547 0.765625)" xlink:href="#DejaVuSans-Oblique-3c3"/>
      <use transform="translate(589.287161 39.046875)scale(0.7)" xlink:href="#DejaVuSans-32"/>
      <use transform="translate(656.040091 0.765625)" xlink:href="#DejaVuSans-3d"/>
      <use transform="translate(759.311576 0.765625)" xlink:href="#DejaVuSans-30"/>
      <use transform="translate(822.934622 0.765625)" xlink:href="#DejaVuSans-2e"/>
      <use transform="translate(854.721732 0.765625)" xlink:href="#DejaVuSans-35"/>
     </g>
    </g>
   </g>
  </g>
 </g>
 <defs>
  <clipPath id="pbfd537644f">
   <rect height="260.8" width="439.025" x="43.78125" y="22.318125"/>
  </clipPath>
  <clipPath id="p7c0c6087c0">
   <rect height="260.8" width="439.025" x="43.78125" y="340.918125"/>
  </clipPath>
 </defs>
</svg>
