<?xml version="1.0" encoding="utf-8" standalone="no"?>
<!DOCTYPE svg PUBLIC "-//W3C//DTD SVG 1.1//EN"
  "http://www.w3.org/Graphics/SVG/1.1/DTD/svg11.dtd">
<!-- Created with matplotlib (http://matplotlib.org/) -->
<svg height="252.317344pt" version="1.1" viewBox="0 0 374.442187 252.317344" width="374.442187pt" xmlns="http://www.w3.org/2000/svg" xmlns:xlink="http://www.w3.org/1999/xlink">
 <defs>
  <style type="text/css">
*{stroke-linecap:butt;stroke-linejoin:round;}
  </style>
 </defs>
 <g id="figure_1">
  <g id="patch_1">
   <path d="M 0 252.317344 
L 374.442187 252.317344 
L 374.442187 0 
L 0 0 
z
" style="fill:none;"/>
  </g>
  <g id="axes_1">
   <g id="patch_2">
    <path d="M 28.942188 228.439219 
L 363.742188 228.439219 
L 363.742188 10.999219 
L 28.942188 10.999219 
z
" style="fill:#ffffff;"/>
   </g>
   <g id="PathCollection_1">
    <path clip-path="url(#p568ab18353)" d="M 32.324006 228.439219 
L 35.705824 228.439219 
L 39.087642 228.439219 
L 42.46946 228.439219 
L 45.851278 228.439219 
L 49.233097 228.439219 
L 52.614915 228.439219 
L 55.996733 228.439219 
L 59.378551 228.439219 
L 62.760369 228.439219 
L 66.142187 228.439219 
L 69.524006 228.439219 
L 72.905824 228.439219 
L 76.287642 228.439219 
L 79.66946 228.439219 
L 83.051278 228.439219 
L 86.433097 228.439219 
L 89.814915 228.439219 
L 93.196733 228.439219 
L 96.578551 228.439219 
L 99.960369 228.439219 
L 103.342187 228.439219 
L 106.724006 228.439219 
L 110.105824 228.439219 
L 113.487642 228.439219 
L 116.86946 228.439219 
L 120.251278 228.439219 
L 123.633097 228.439219 
L 127.014915 228.439219 
L 130.396733 228.439219 
L 133.778551 228.439219 
L 137.160369 228.439219 
L 140.542188 228.439219 
L 143.924006 228.439219 
L 147.305824 228.439219 
L 150.687642 228.439219 
L 154.06946 228.439219 
L 157.451278 228.439219 
L 160.833097 228.439219 
L 164.214915 228.439219 
L 167.596733 228.439219 
L 170.978551 228.439219 
L 174.360369 228.439219 
L 177.742188 228.439219 
L 181.124006 228.439219 
L 184.505824 228.439219 
L 187.887642 228.439219 
L 191.26946 228.439219 
L 194.651278 228.439219 
L 198.033097 228.439219 
L 201.414915 228.439219 
L 204.796733 228.439219 
L 208.178551 228.439219 
L 211.560369 228.439219 
L 214.942187 228.439219 
L 218.324006 228.439219 
L 221.705824 228.439219 
L 225.087642 228.439219 
L 228.46946 228.439219 
L 231.851278 228.439219 
L 235.233097 228.439219 
L 238.614915 228.439219 
L 241.996733 228.439219 
L 245.378551 228.439219 
L 248.760369 228.439219 
L 252.142188 228.439219 
L 255.524006 228.439219 
L 258.905824 228.439219 
L 262.287642 228.439219 
L 265.66946 228.439219 
L 269.051278 228.439219 
L 272.433097 228.439219 
L 275.814915 228.439219 
L 279.196733 228.439219 
L 282.578551 228.439219 
L 285.960369 228.439219 
L 289.342188 228.439219 
L 292.724006 228.439219 
L 296.105824 228.439219 
L 299.487642 228.439219 
L 302.86946 228.439219 
L 306.251278 228.439219 
L 309.633097 228.439219 
L 313.014915 228.439219 
L 316.396733 228.439219 
L 319.778551 228.439219 
L 323.160369 228.439219 
L 326.542188 228.439219 
L 329.924006 228.439219 
L 333.305824 228.439219 
L 336.687642 228.439219 
L 340.06946 228.439219 
L 343.451278 228.439219 
L 346.833097 228.439219 
L 350.214915 228.439219 
L 353.596733 228.439219 
L 356.978551 228.439219 
L 360.360369 228.439219 
L 363.742188 228.439219 
L 363.742188 226.242855 
L 363.742188 224.046491 
L 363.742188 221.850128 
L 363.742188 219.653764 
L 363.742188 217.457401 
L 363.742188 215.261037 
L 363.742188 213.064673 
L 363.742188 210.86831 
L 363.742188 208.671946 
L 363.742188 206.475582 
L 363.742188 204.279219 
L 363.742188 202.082855 
L 363.742188 199.886491 
L 363.742188 197.690128 
L 363.742188 195.493764 
L 363.742188 193.297401 
L 363.742188 191.101037 
L 363.742188 188.904673 
L 363.742188 186.70831 
L 363.742188 184.511946 
L 363.742188 182.315582 
L 363.742188 180.119219 
L 363.742188 177.922855 
L 363.742188 175.726491 
L 363.742188 173.530128 
L 363.742188 171.333764 
L 363.742188 169.137401 
L 363.742188 166.941037 
L 363.742188 164.744673 
L 363.742188 162.54831 
L 363.742188 160.351946 
L 363.742188 158.155582 
L 363.742188 155.959219 
L 363.742188 153.762855 
L 363.742188 151.566491 
L 363.742188 149.370128 
L 363.742188 147.173764 
L 363.742188 144.977401 
L 363.742188 142.781037 
L 363.742188 140.584673 
L 363.742188 138.38831 
L 363.742188 136.191946 
L 363.742188 133.995582 
L 363.742188 131.799219 
L 363.742188 129.602855 
L 363.742188 127.406491 
L 363.742188 125.210128 
L 363.742188 123.013764 
L 363.742188 120.817401 
L 363.742188 118.621037 
L 363.742188 116.424673 
L 363.742188 114.22831 
L 363.742188 112.031946 
L 363.742188 109.835582 
L 363.742188 107.639219 
L 363.742188 105.442855 
L 363.742188 103.246491 
L 363.742188 101.050128 
L 363.742188 98.853764 
L 363.742188 96.657401 
L 363.742188 94.461037 
L 363.742188 92.264673 
L 363.742188 90.06831 
L 363.742188 87.871946 
L 363.742188 85.675582 
L 363.742188 83.479219 
L 363.742188 81.282855 
L 363.742188 79.086491 
L 363.742188 76.890128 
L 363.742188 74.693764 
L 363.742188 72.497401 
L 363.742188 70.301037 
L 363.742188 68.104673 
L 363.742188 65.90831 
L 363.742188 63.711946 
L 363.742188 61.515582 
L 363.742188 59.319219 
L 363.742188 57.122855 
L 363.742188 54.926491 
L 363.742188 52.730128 
L 363.742188 50.533764 
L 363.742188 48.337401 
L 363.742188 46.141037 
L 363.742188 43.944673 
L 363.742188 41.74831 
L 363.742188 39.551946 
L 363.742188 37.355582 
L 363.742188 35.159219 
L 363.742188 32.962855 
L 363.742188 30.766491 
L 363.742188 28.570128 
L 363.742188 26.373764 
L 363.742188 24.177401 
L 363.742188 21.981037 
L 363.742188 19.784673 
L 363.742188 17.58831 
L 363.742188 15.391946 
L 363.742188 13.195582 
L 363.742188 10.999219 
L 360.360369 10.999219 
L 356.978551 10.999219 
L 353.596733 10.999219 
L 350.214915 10.999219 
L 346.833097 10.999219 
L 343.451278 10.999219 
L 340.06946 10.999219 
L 336.687642 10.999219 
L 333.305824 10.999219 
L 329.924006 10.999219 
L 326.542188 10.999219 
L 323.160369 10.999219 
L 319.778551 10.999219 
L 316.396733 10.999219 
L 313.014915 10.999219 
L 309.633097 10.999219 
L 306.251278 10.999219 
L 302.86946 10.999219 
L 299.487642 10.999219 
L 296.105824 10.999219 
L 292.724006 10.999219 
L 289.342188 10.999219 
L 285.960369 10.999219 
L 282.578551 10.999219 
L 279.196733 10.999219 
L 275.814915 10.999219 
L 272.433097 10.999219 
L 269.051278 10.999219 
L 265.66946 10.999219 
L 262.287642 10.999219 
L 258.905824 10.999219 
L 255.524006 10.999219 
L 252.142188 10.999219 
L 248.760369 10.999219 
L 245.378551 10.999219 
L 241.996733 10.999219 
L 238.614915 10.999219 
L 235.233097 10.999219 
L 231.851278 10.999219 
L 228.46946 10.999219 
L 225.087642 10.999219 
L 221.705824 10.999219 
L 218.324006 10.999219 
L 214.942187 10.999219 
L 211.560369 10.999219 
L 208.178551 10.999219 
L 204.796733 10.999219 
L 201.414915 10.999219 
L 198.033097 10.999219 
L 194.651278 10.999219 
L 191.26946 10.999219 
L 187.887642 10.999219 
L 184.505824 10.999219 
L 181.124006 10.999219 
L 177.742188 10.999219 
L 174.360369 10.999219 
L 170.978551 10.999219 
L 167.596733 10.999219 
L 164.214915 10.999219 
L 160.833097 10.999219 
L 157.451278 10.999219 
L 154.06946 10.999219 
L 150.687642 10.999219 
L 147.305824 10.999219 
L 143.924006 10.999219 
L 140.542188 10.999219 
L 137.160369 10.999219 
L 133.778551 10.999219 
L 130.396733 10.999219 
L 127.014915 10.999219 
L 123.633097 10.999219 
L 120.251278 10.999219 
L 116.86946 10.999219 
L 113.487642 10.999219 
L 110.105824 10.999219 
L 106.724006 10.999219 
L 103.342187 10.999219 
L 99.960369 10.999219 
L 96.578551 10.999219 
L 93.196733 10.999219 
L 89.814915 10.999219 
L 86.433097 10.999219 
L 83.051278 10.999219 
L 79.66946 10.999219 
L 76.287642 10.999219 
L 72.905824 10.999219 
L 69.524006 10.999219 
L 66.142187 10.999219 
L 62.760369 10.999219 
L 59.378551 10.999219 
L 55.996733 10.999219 
L 52.614915 10.999219 
L 49.233097 10.999219 
L 45.851278 10.999219 
L 42.46946 10.999219 
L 39.087642 10.999219 
L 35.705824 10.999219 
L 32.324006 10.999219 
L 28.942187 10.999219 
L 28.942187 13.195582 
L 28.942187 15.391946 
L 28.942187 17.58831 
L 28.942187 19.784673 
L 28.942187 21.981037 
L 28.942187 24.177401 
L 28.942187 26.373764 
L 28.942187 28.570128 
L 28.942187 30.766491 
L 28.942187 32.962855 
L 28.942187 35.159219 
L 28.942187 37.355582 
L 28.942187 39.551946 
L 28.942187 41.74831 
L 28.942187 43.944673 
L 28.942187 46.141037 
L 28.942187 48.337401 
L 28.942187 50.533764 
L 28.942187 52.730128 
L 28.942187 54.926491 
L 28.942187 57.122855 
L 28.942187 59.319219 
L 28.942187 61.515582 
L 28.942187 63.711946 
L 28.942187 65.90831 
L 28.942187 68.104673 
L 28.942187 70.301037 
L 28.942187 72.497401 
L 28.942187 74.693764 
L 28.942187 76.890128 
L 28.942187 79.086491 
L 28.942187 81.282855 
L 28.942187 83.479219 
L 28.942187 85.675582 
L 28.942187 87.871946 
L 28.942187 90.06831 
L 28.942187 92.264673 
L 28.942187 94.461037 
L 28.942187 96.657401 
L 28.942187 98.853764 
L 28.942187 101.050128 
L 28.942187 103.246491 
L 28.942187 105.442855 
L 28.942187 107.639219 
L 28.942187 109.835582 
L 28.942187 112.031946 
L 28.942187 114.22831 
L 28.942187 116.424673 
L 28.942187 118.621037 
L 28.942187 120.817401 
L 28.942187 123.013764 
L 28.942187 125.210128 
L 28.942187 127.406491 
L 28.942187 129.602855 
L 28.942187 131.799219 
L 28.942187 133.995582 
L 28.942187 136.191946 
L 28.942187 138.38831 
L 28.942187 140.584673 
L 28.942187 142.781037 
L 28.942187 144.977401 
L 28.942187 147.173764 
L 28.942187 149.370128 
L 28.942187 151.566491 
L 28.942187 153.762855 
L 28.942187 155.959219 
L 28.942187 158.155582 
L 28.942187 160.351946 
L 28.942187 162.54831 
L 28.942187 164.744673 
L 28.942187 166.941037 
L 28.942187 169.137401 
L 28.942187 171.333764 
L 28.942187 173.530128 
L 28.942187 175.726491 
L 28.942187 177.922855 
L 28.942187 180.119219 
L 28.942187 182.315582 
L 28.942187 184.511946 
L 28.942187 186.70831 
L 28.942187 188.904673 
L 28.942187 191.101037 
L 28.942187 193.297401 
L 28.942187 195.493764 
L 28.942187 197.690128 
L 28.942187 199.886491 
L 28.942187 202.082855 
L 28.942187 204.279219 
L 28.942187 206.475582 
L 28.942187 208.671946 
L 28.942187 210.86831 
L 28.942187 213.064673 
L 28.942187 215.261037 
L 28.942187 217.457401 
L 28.942187 219.653764 
L 28.942187 221.850128 
L 28.942187 224.046491 
L 28.942187 226.242855 
L 28.942187 228.439219 
z
M 248.711687 206.475582 
L 245.378551 206.12436 
L 241.996733 205.678186 
L 238.614915 205.132235 
L 235.233097 204.474255 
L 234.354625 204.279219 
L 231.851278 203.748808 
L 228.46946 202.912208 
L 225.596791 202.082855 
L 225.087642 201.937954 
L 221.705824 200.873074 
L 218.991977 199.886491 
L 218.324006 199.639007 
L 214.942187 198.266559 
L 213.65196 197.690128 
L 211.560369 196.704864 
L 209.203668 195.493764 
L 208.178551 194.922193 
L 205.433557 193.297401 
L 204.796733 192.87603 
L 202.19796 191.101037 
L 201.414915 190.484428 
L 199.413741 188.904673 
L 198.033097 187.608659 
L 197.046304 186.70831 
L 195.054566 184.511946 
L 194.651278 183.955149 
L 193.357309 182.315582 
L 192.034467 180.119219 
L 191.26946 178.288628 
L 191.089052 177.922855 
L 190.455132 175.726491 
L 190.300288 173.530128 
L 190.692094 171.333764 
L 191.26946 170.062765 
L 191.602118 169.137401 
L 192.856873 166.941037 
L 194.625602 164.744673 
L 194.651278 164.719018 
L 196.483251 162.54831 
L 198.033097 161.061898 
L 198.716656 160.351946 
L 201.24328 158.155582 
L 201.414915 158.024335 
L 204.117011 155.959219 
L 204.796733 155.501873 
L 207.495281 153.762855 
L 208.178551 153.364258 
L 211.498074 151.566491 
L 211.560369 151.53506 
L 214.942187 149.93286 
L 216.269364 149.370128 
L 218.324006 148.529764 
L 221.705824 147.312492 
L 222.12973 147.173764 
L 225.087642 146.207819 
L 228.46946 145.262048 
L 229.621435 144.977401 
L 231.851278 144.409246 
L 235.233097 143.665902 
L 238.614915 143.043216 
L 240.292301 142.781037 
L 241.996733 142.495473 
L 245.378551 142.021613 
L 248.760369 141.643346 
L 252.142188 141.352521 
L 255.524006 141.142988 
L 258.905824 141.010381 
L 262.287642 140.951964 
L 265.66946 140.966538 
L 269.051278 141.054403 
L 272.433097 141.217364 
L 275.814915 141.458793 
L 279.196733 141.78375 
L 282.578551 142.199156 
L 285.960369 142.714038 
L 286.338554 142.781037 
L 289.342188 143.278809 
L 292.724006 143.947841 
L 296.105824 144.744249 
L 296.986174 144.977401 
L 299.487642 145.621616 
L 302.86946 146.632231 
L 304.475519 147.173764 
L 306.251278 147.77543 
L 309.633097 149.07599 
L 310.33287 149.370128 
L 313.014915 150.54205 
L 315.118342 151.566491 
L 316.396733 152.232464 
L 319.096901 153.762855 
L 319.778551 154.188864 
L 322.444591 155.959219 
L 323.160369 156.500904 
L 325.266585 158.155582 
L 326.542188 159.340292 
L 327.615758 160.351946 
L 329.536407 162.54831 
L 329.924006 163.097054 
L 331.112618 164.744673 
L 332.314834 166.941037 
L 333.159784 169.137401 
L 333.305824 169.741688 
L 333.718298 171.333764 
L 333.959742 173.530128 
L 333.879524 175.726491 
L 333.474478 177.922855 
L 333.305824 178.430816 
L 332.779476 180.119219 
L 331.761123 182.315582 
L 330.362513 184.511946 
L 329.924006 185.063681 
L 328.635819 186.70831 
L 326.542188 188.832177 
L 326.470151 188.904673 
L 323.914516 191.101037 
L 323.160369 191.659388 
L 320.848605 193.297401 
L 319.778551 193.971705 
L 317.195375 195.493764 
L 316.396733 195.925712 
L 313.014915 197.605189 
L 312.830183 197.690128 
L 309.633097 199.089236 
L 307.56498 199.886491 
L 306.251278 200.382071 
L 302.86946 201.52567 
L 300.989191 202.082855 
L 299.487642 202.53304 
L 296.105824 203.429359 
L 292.724006 204.186156 
L 292.25208 204.279219 
L 289.342188 204.882971 
L 285.960369 205.472294 
L 282.578551 205.957146 
L 279.196733 206.348323 
L 277.813733 206.475582 
L 275.814915 206.678046 
L 272.433097 206.935562 
L 269.051278 207.109381 
L 265.66946 207.203101 
L 262.287642 207.218647 
L 258.905824 207.156337 
L 255.524006 207.014894 
L 252.142188 206.791402 
L 248.760369 206.481206 
z
M 157.054902 160.351946 
L 154.06946 159.119362 
L 152.29647 158.155582 
L 150.687642 157.393883 
L 148.287321 155.959219 
L 147.305824 155.431849 
L 144.736741 153.762855 
L 143.924006 153.27338 
L 141.479583 151.566491 
L 140.542188 150.941199 
L 138.427985 149.370128 
L 137.160369 148.44346 
L 135.540849 147.173764 
L 133.778551 145.774756 
L 132.807387 144.977401 
L 130.396733 142.915382 
L 130.239493 142.781037 
L 127.685572 140.584673 
L 127.014915 139.98243 
L 125.212505 138.38831 
L 123.633097 136.870779 
L 122.891035 136.191946 
L 120.646135 133.995582 
L 120.251278 133.596025 
L 118.358502 131.799219 
L 116.86946 130.198926 
L 116.258549 129.602855 
L 114.156808 127.406491 
L 113.487642 126.648539 
L 112.067808 125.210128 
L 110.205962 123.013764 
L 110.105824 122.893996 
L 108.135283 120.817401 
L 106.724006 119.040247 
L 106.333991 118.621037 
L 104.410438 116.424673 
L 103.342187 115.004685 
L 102.647616 114.22831 
L 100.861838 112.031946 
L 99.960369 110.764841 
L 99.162323 109.835582 
L 97.473098 107.639219 
L 96.578551 106.307164 
L 95.867339 105.442855 
L 94.240782 103.246491 
L 93.196733 101.596144 
L 92.767103 101.050128 
L 91.173994 98.853764 
L 89.860801 96.657401 
L 89.814915 96.577995 
L 88.295621 94.461037 
L 86.991072 92.264673 
L 86.433097 91.228483 
L 85.64549 90.06831 
L 84.333106 87.871946 
L 83.218225 85.675582 
L 83.051278 85.323826 
L 81.949837 83.479219 
L 80.83287 81.282855 
L 79.867062 79.086491 
L 79.66946 78.593995 
L 78.811747 76.890128 
L 77.8727 74.693764 
L 77.072399 72.497401 
L 76.380013 70.301037 
L 76.287642 69.949216 
L 75.694358 68.104673 
L 75.160381 65.90831 
L 74.800235 63.711946 
L 74.64118 61.515582 
L 74.749605 59.319219 
L 75.259898 57.122855 
L 76.287642 55.158465 
L 76.504436 54.926491 
L 79.66946 53.111516 
L 83.051278 52.973266 
L 86.433097 53.657247 
L 89.814915 54.898552 
L 89.869215 54.926491 
L 93.196733 56.463424 
L 94.32235 57.122855 
L 96.578551 58.343678 
L 98.083257 59.319219 
L 99.960369 60.475522 
L 101.439366 61.515582 
L 103.342187 62.823235 
L 104.524708 63.711946 
L 106.724006 65.373008 
L 107.398074 65.90831 
L 110.079865 68.104673 
L 110.105824 68.125436 
L 112.733122 70.301037 
L 113.487642 70.955093 
L 115.27011 72.497401 
L 116.86946 73.986949 
L 117.656614 74.693764 
L 119.94106 76.890128 
L 120.251278 77.195097 
L 122.277301 79.086491 
L 123.633097 80.505609 
L 124.441464 81.282855 
L 126.540536 83.479219 
L 127.014915 84.003004 
L 128.688992 85.675582 
L 130.396733 87.668289 
L 130.595905 87.871946 
L 132.667764 90.06831 
L 133.778551 91.434865 
L 134.559892 92.264673 
L 136.434518 94.461037 
L 137.160369 95.403998 
L 138.294889 96.657401 
L 140.025211 98.853764 
L 140.542188 99.56415 
L 141.833007 101.050128 
L 143.460178 103.246491 
L 143.924006 103.921848 
L 145.189745 105.442855 
L 146.747023 107.639219 
L 147.305824 108.502965 
L 148.366278 109.835582 
L 149.881892 112.031946 
L 150.687642 113.356389 
L 151.350044 114.22831 
L 152.849491 116.424673 
L 154.06946 118.559703 
L 154.1139 118.621037 
L 155.622083 120.817401 
L 156.874627 123.013764 
L 157.451278 124.130743 
L 158.15754 125.210128 
L 159.430289 127.406491 
L 160.519996 129.602855 
L 160.833097 130.286678 
L 161.711387 131.799219 
L 162.820347 133.995582 
L 163.788061 136.191946 
L 164.214915 137.258552 
L 164.79063 138.38831 
L 165.767172 140.584673 
L 166.619148 142.781037 
L 167.382182 144.977401 
L 167.596733 145.68767 
L 168.166539 147.173764 
L 168.860537 149.370128 
L 169.424512 151.566491 
L 169.846653 153.762855 
L 170.07458 155.959219 
L 169.961928 158.155582 
L 169.074805 160.351946 
L 167.596733 161.628439 
L 164.214915 162.175414 
L 160.833097 161.637325 
L 157.451278 160.546053 
z
" style="fill:#506bda;"/>
   </g>
   <g id="PathCollection_2">
    <path clip-path="url(#p568ab18353)" d="M 248.760369 206.481206 
L 252.142188 206.791402 
L 255.524006 207.014894 
L 258.905824 207.156337 
L 262.287642 207.218647 
L 265.66946 207.203101 
L 269.051278 207.109381 
L 272.433097 206.935562 
L 275.814915 206.678046 
L 277.813733 206.475582 
L 279.196733 206.348323 
L 282.578551 205.957146 
L 285.960369 205.472294 
L 289.342188 204.882971 
L 292.25208 204.279219 
L 292.724006 204.186156 
L 296.105824 203.429359 
L 299.487642 202.53304 
L 300.989191 202.082855 
L 302.86946 201.52567 
L 306.251278 200.382071 
L 307.56498 199.886491 
L 309.633097 199.089236 
L 312.830183 197.690128 
L 313.014915 197.605189 
L 316.396733 195.925712 
L 317.195375 195.493764 
L 319.778551 193.971705 
L 320.848605 193.297401 
L 323.160369 191.659388 
L 323.914516 191.101037 
L 326.470151 188.904673 
L 326.542188 188.832177 
L 328.635819 186.70831 
L 329.924006 185.063681 
L 330.362513 184.511946 
L 331.761123 182.315582 
L 332.779476 180.119219 
L 333.305824 178.430816 
L 333.474478 177.922855 
L 333.879524 175.726491 
L 333.959742 173.530128 
L 333.718298 171.333764 
L 333.305824 169.741688 
L 333.159784 169.137401 
L 332.314834 166.941037 
L 331.112618 164.744673 
L 329.924006 163.097054 
L 329.536407 162.54831 
L 327.615758 160.351946 
L 326.542188 159.340292 
L 325.266585 158.155582 
L 323.160369 156.500904 
L 322.444591 155.959219 
L 319.778551 154.188864 
L 319.096901 153.762855 
L 316.396733 152.232464 
L 315.118342 151.566491 
L 313.014915 150.54205 
L 310.33287 149.370128 
L 309.633097 149.07599 
L 306.251278 147.77543 
L 304.475519 147.173764 
L 302.86946 146.632231 
L 299.487642 145.621616 
L 296.986174 144.977401 
L 296.105824 144.744249 
L 292.724006 143.947841 
L 289.342188 143.278809 
L 286.338554 142.781037 
L 285.960369 142.714038 
L 282.578551 142.199156 
L 279.196733 141.78375 
L 275.814915 141.458793 
L 272.433097 141.217364 
L 269.051278 141.054403 
L 265.66946 140.966538 
L 262.287642 140.951964 
L 258.905824 141.010381 
L 255.524006 141.142988 
L 252.142188 141.352521 
L 248.760369 141.643346 
L 245.378551 142.021613 
L 241.996733 142.495473 
L 240.292301 142.781037 
L 238.614915 143.043216 
L 235.233097 143.665902 
L 231.851278 144.409246 
L 229.621435 144.977401 
L 228.46946 145.262048 
L 225.087642 146.207819 
L 222.12973 147.173764 
L 221.705824 147.312492 
L 218.324006 148.529764 
L 216.269364 149.370128 
L 214.942187 149.93286 
L 211.560369 151.53506 
L 211.498074 151.566491 
L 208.178551 153.364258 
L 207.495281 153.762855 
L 204.796733 155.501873 
L 204.117011 155.959219 
L 201.414915 158.024335 
L 201.24328 158.155582 
L 198.716656 160.351946 
L 198.033097 161.061898 
L 196.483251 162.54831 
L 194.651278 164.719018 
L 194.625602 164.744673 
L 192.856873 166.941037 
L 191.602118 169.137401 
L 191.26946 170.062765 
L 190.692094 171.333764 
L 190.300288 173.530128 
L 190.455132 175.726491 
L 191.089052 177.922855 
L 191.26946 178.288628 
L 192.034467 180.119219 
L 193.357309 182.315582 
L 194.651278 183.955149 
L 195.054566 184.511946 
L 197.046304 186.70831 
L 198.033097 187.608659 
L 199.413741 188.904673 
L 201.414915 190.484428 
L 202.19796 191.101037 
L 204.796733 192.87603 
L 205.433557 193.297401 
L 208.178551 194.922193 
L 209.203668 195.493764 
L 211.560369 196.704864 
L 213.65196 197.690128 
L 214.942187 198.266559 
L 218.324006 199.639007 
L 218.991977 199.886491 
L 221.705824 200.873074 
L 225.087642 201.937954 
L 225.596791 202.082855 
L 228.46946 202.912208 
L 231.851278 203.748808 
L 234.354625 204.279219 
L 235.233097 204.474255 
L 238.614915 205.132235 
L 241.996733 205.678186 
L 245.378551 206.12436 
L 248.711687 206.475582 
z
M 252.28 197.690128 
L 252.142188 197.678113 
L 248.760369 197.276291 
L 245.378551 196.753655 
L 241.996733 196.098948 
L 239.413699 195.493764 
L 238.614915 195.302507 
L 235.233097 194.360147 
L 232.027652 193.297401 
L 231.851278 193.2353 
L 228.46946 191.900756 
L 226.692224 191.101037 
L 225.087642 190.301733 
L 222.564411 188.904673 
L 221.705824 188.357383 
L 219.313115 186.70831 
L 218.324006 185.88648 
L 216.752195 184.511946 
L 214.942187 182.490784 
L 214.789066 182.315582 
L 213.320793 180.119219 
L 212.343993 177.922855 
L 211.817107 175.726491 
L 211.717447 173.530128 
L 212.039698 171.333764 
L 212.795557 169.137401 
L 214.01448 166.941037 
L 214.942187 165.737586 
L 215.723048 164.744673 
L 217.974265 162.54831 
L 218.324006 162.267165 
L 220.852611 160.351946 
L 221.705824 159.804436 
L 224.505486 158.155582 
L 225.087642 157.852653 
L 228.46946 156.258036 
L 229.180407 155.959219 
L 231.851278 154.923345 
L 235.233097 153.80179 
L 235.366287 153.762855 
L 238.614915 152.850992 
L 241.996733 152.061863 
L 244.570703 151.566491 
L 245.378551 151.411541 
L 248.760369 150.877883 
L 252.142188 150.467589 
L 255.524006 150.171981 
L 258.905824 149.984899 
L 262.287642 149.902484 
L 265.66946 149.923045 
L 269.051278 150.047005 
L 272.433097 150.276909 
L 275.814915 150.617517 
L 279.196733 151.075966 
L 282.043438 151.566491 
L 282.578551 151.658633 
L 285.960369 152.359287 
L 289.342188 153.210911 
L 291.215161 153.762855 
L 292.724006 154.227178 
L 296.105824 155.428797 
L 297.421585 155.959219 
L 299.487642 156.86429 
L 302.0968 158.155582 
L 302.86946 158.586625 
L 305.749565 160.351946 
L 306.251278 160.71347 
L 308.631328 162.54831 
L 309.633097 163.503309 
L 310.88179 164.744673 
L 312.577639 166.941037 
L 313.014915 167.728598 
L 313.793971 169.137401 
L 314.554315 171.333764 
L 314.874894 173.530128 
L 314.768383 175.726491 
L 314.23058 177.922855 
L 313.24013 180.119219 
L 313.014915 180.464948 
L 311.796572 182.315582 
L 309.823691 184.511946 
L 309.633097 184.683931 
L 307.278291 186.70831 
L 306.251278 187.43907 
L 304.033162 188.904673 
L 302.86946 189.570896 
L 299.913671 191.101037 
L 299.487642 191.29974 
L 296.105824 192.727729 
L 294.560624 193.297401 
L 292.724006 193.93327 
L 289.342188 194.945874 
L 287.184104 195.493764 
L 285.960369 195.796945 
L 282.578551 196.508343 
L 279.196733 197.082296 
L 275.814915 197.531279 
L 274.222844 197.690128 
L 272.433097 197.873291 
L 269.051278 198.109319 
L 265.66946 198.236581 
L 262.287642 198.25769 
L 258.905824 198.17308 
L 255.524006 197.981014 
z
" style="fill:#80a3fa;"/>
    <path clip-path="url(#p568ab18353)" d="M 157.451278 160.546053 
L 160.833097 161.637325 
L 164.214915 162.175414 
L 167.596733 161.628439 
L 169.074805 160.351946 
L 169.961928 158.155582 
L 170.07458 155.959219 
L 169.846653 153.762855 
L 169.424512 151.566491 
L 168.860537 149.370128 
L 168.166539 147.173764 
L 167.596733 145.68767 
L 167.382182 144.977401 
L 166.619148 142.781037 
L 165.767172 140.584673 
L 164.79063 138.38831 
L 164.214915 137.258552 
L 163.788061 136.191946 
L 162.820347 133.995582 
L 161.711387 131.799219 
L 160.833097 130.286678 
L 160.519996 129.602855 
L 159.430289 127.406491 
L 158.15754 125.210128 
L 157.451278 124.130743 
L 156.874627 123.013764 
L 155.622083 120.817401 
L 154.1139 118.621037 
L 154.06946 118.559703 
L 152.849491 116.424673 
L 151.350044 114.22831 
L 150.687642 113.356389 
L 149.881892 112.031946 
L 148.366278 109.835582 
L 147.305824 108.502965 
L 146.747023 107.639219 
L 145.189745 105.442855 
L 143.924006 103.921848 
L 143.460178 103.246491 
L 141.833007 101.050128 
L 140.542188 99.56415 
L 140.025211 98.853764 
L 138.294889 96.657401 
L 137.160369 95.403998 
L 136.434518 94.461037 
L 134.559892 92.264673 
L 133.778551 91.434865 
L 132.667764 90.06831 
L 130.595905 87.871946 
L 130.396733 87.668289 
L 128.688992 85.675582 
L 127.014915 84.003004 
L 126.540536 83.479219 
L 124.441464 81.282855 
L 123.633097 80.505609 
L 122.277301 79.086491 
L 120.251278 77.195097 
L 119.94106 76.890128 
L 117.656614 74.693764 
L 116.86946 73.986949 
L 115.27011 72.497401 
L 113.487642 70.955093 
L 112.733122 70.301037 
L 110.105824 68.125436 
L 110.079865 68.104673 
L 107.398074 65.90831 
L 106.724006 65.373008 
L 104.524708 63.711946 
L 103.342187 62.823235 
L 101.439366 61.515582 
L 99.960369 60.475522 
L 98.083257 59.319219 
L 96.578551 58.343678 
L 94.32235 57.122855 
L 93.196733 56.463424 
L 89.869215 54.926491 
L 89.814915 54.898552 
L 86.433097 53.657247 
L 83.051278 52.973266 
L 79.66946 53.111516 
L 76.504436 54.926491 
L 76.287642 55.158465 
L 75.259898 57.122855 
L 74.749605 59.319219 
L 74.64118 61.515582 
L 74.800235 63.711946 
L 75.160381 65.90831 
L 75.694358 68.104673 
L 76.287642 69.949216 
L 76.380013 70.301037 
L 77.072399 72.497401 
L 77.8727 74.693764 
L 78.811747 76.890128 
L 79.66946 78.593995 
L 79.867062 79.086491 
L 80.83287 81.282855 
L 81.949837 83.479219 
L 83.051278 85.323826 
L 83.218225 85.675582 
L 84.333106 87.871946 
L 85.64549 90.06831 
L 86.433097 91.228483 
L 86.991072 92.264673 
L 88.295621 94.461037 
L 89.814915 96.577995 
L 89.860801 96.657401 
L 91.173994 98.853764 
L 92.767103 101.050128 
L 93.196733 101.596144 
L 94.240782 103.246491 
L 95.867339 105.442855 
L 96.578551 106.307164 
L 97.473098 107.639219 
L 99.162323 109.835582 
L 99.960369 110.764841 
L 100.861838 112.031946 
L 102.647616 114.22831 
L 103.342187 115.004685 
L 104.410438 116.424673 
L 106.333991 118.621037 
L 106.724006 119.040247 
L 108.135283 120.817401 
L 110.105824 122.893996 
L 110.205962 123.013764 
L 112.067808 125.210128 
L 113.487642 126.648539 
L 114.156808 127.406491 
L 116.258549 129.602855 
L 116.86946 130.198926 
L 118.358502 131.799219 
L 120.251278 133.596025 
L 120.646135 133.995582 
L 122.891035 136.191946 
L 123.633097 136.870779 
L 125.212505 138.38831 
L 127.014915 139.98243 
L 127.685572 140.584673 
L 130.239493 142.781037 
L 130.396733 142.915382 
L 132.807387 144.977401 
L 133.778551 145.774756 
L 135.540849 147.173764 
L 137.160369 148.44346 
L 138.427985 149.370128 
L 140.542188 150.941199 
L 141.479583 151.566491 
L 143.924006 153.27338 
L 144.736741 153.762855 
L 147.305824 155.431849 
L 148.287321 155.959219 
L 150.687642 157.393883 
L 152.29647 158.155582 
L 154.06946 159.119362 
L 157.054902 160.351946 
z
M 145.986975 147.173764 
L 143.924006 146.286397 
L 141.66886 144.977401 
L 140.542188 144.383074 
L 138.114008 142.781037 
L 137.160369 142.191293 
L 134.95496 140.584673 
L 133.778551 139.756852 
L 132.042059 138.38831 
L 130.396733 137.098285 
L 129.317599 136.191946 
L 127.014915 134.211233 
L 126.771203 133.995582 
L 124.318383 131.799219 
L 123.633097 131.170712 
L 121.945737 129.602855 
L 120.251278 127.922489 
L 119.718034 127.406491 
L 117.545725 125.210128 
L 116.86946 124.495102 
L 115.411532 123.013764 
L 113.487642 120.840283 
L 113.465806 120.817401 
L 111.415598 118.621037 
L 110.105824 117.044267 
L 109.542476 116.424673 
L 107.672521 114.22831 
L 106.724006 113.008498 
L 105.880116 112.031946 
L 104.147583 109.835582 
L 103.342187 108.726108 
L 102.451935 107.639219 
L 100.824487 105.442855 
L 99.960369 104.16391 
L 99.250272 103.246491 
L 97.703222 101.050128 
L 96.578551 99.255613 
L 96.285624 98.853764 
L 94.8001 96.657401 
L 93.506297 94.461037 
L 93.196733 93.900648 
L 92.149971 92.264673 
L 90.915044 90.06831 
L 89.814915 87.878448 
L 89.811073 87.871946 
L 88.635871 85.675582 
L 87.621884 83.479219 
L 86.723015 81.282855 
L 86.433097 80.47515 
L 85.862934 79.086491 
L 85.131885 76.890128 
L 84.561849 74.693764 
L 84.16801 72.497401 
L 84.005631 70.301037 
L 84.205237 68.104673 
L 85.064859 65.90831 
L 86.433097 64.406869 
L 89.112093 63.711946 
L 89.814915 63.597487 
L 90.40359 63.711946 
L 93.196733 64.162871 
L 96.578551 65.395007 
L 97.538591 65.90831 
L 99.960369 67.077224 
L 101.612674 68.104673 
L 103.342187 69.104815 
L 105.059835 70.301037 
L 106.724006 71.410934 
L 108.152535 72.497401 
L 110.105824 73.961941 
L 111.002841 74.693764 
L 113.487642 76.750537 
L 113.649273 76.890128 
L 116.180259 79.086491 
L 116.86946 79.695959 
L 118.616468 81.282855 
L 120.251278 82.852259 
L 120.911976 83.479219 
L 123.118433 85.675582 
L 123.633097 86.202825 
L 125.30697 87.871946 
L 127.014915 89.746843 
L 127.326771 90.06831 
L 129.374124 92.264673 
L 130.396733 93.46154 
L 131.320128 94.461037 
L 133.179398 96.657401 
L 133.778551 97.406895 
L 135.048422 98.853764 
L 136.763707 101.050128 
L 137.160369 101.581892 
L 138.544531 103.246491 
L 140.148726 105.442855 
L 140.542188 106.009833 
L 141.822009 107.639219 
L 143.339922 109.835582 
L 143.924006 110.743255 
L 144.877033 112.031946 
L 146.327452 114.22831 
L 147.305824 115.87369 
L 147.688146 116.424673 
L 149.085177 118.621037 
L 150.30859 120.817401 
L 150.687642 121.550081 
L 151.567665 123.013764 
L 152.729851 125.210128 
L 153.763493 127.406491 
L 154.06946 128.122316 
L 154.80134 129.602855 
L 155.732553 131.799219 
L 156.534839 133.995582 
L 157.228861 136.191946 
L 157.451278 137.081235 
L 157.818237 138.38831 
L 158.218945 140.584673 
L 158.371155 142.781037 
L 158.165018 144.977401 
L 157.451278 146.957742 
L 157.296483 147.173764 
L 154.06946 149.027875 
L 150.687642 148.839611 
L 147.305824 147.818337 
z
" style="fill:#80a3fa;"/>
   </g>
   <g id="PathCollection_3">
    <path clip-path="url(#p568ab18353)" d="M 255.524006 197.981014 
L 258.905824 198.17308 
L 262.287642 198.25769 
L 265.66946 198.236581 
L 269.051278 198.109319 
L 272.433097 197.873291 
L 274.222844 197.690128 
L 275.814915 197.531279 
L 279.196733 197.082296 
L 282.578551 196.508343 
L 285.960369 195.796945 
L 287.184104 195.493764 
L 289.342188 194.945874 
L 292.724006 193.93327 
L 294.560624 193.297401 
L 296.105824 192.727729 
L 299.487642 191.29974 
L 299.913671 191.101037 
L 302.86946 189.570896 
L 304.033162 188.904673 
L 306.251278 187.43907 
L 307.278291 186.70831 
L 309.633097 184.683931 
L 309.823691 184.511946 
L 311.796572 182.315582 
L 313.014915 180.464948 
L 313.24013 180.119219 
L 314.23058 177.922855 
L 314.768383 175.726491 
L 314.874894 173.530128 
L 314.554315 171.333764 
L 313.793971 169.137401 
L 313.014915 167.728598 
L 312.577639 166.941037 
L 310.88179 164.744673 
L 309.633097 163.503309 
L 308.631328 162.54831 
L 306.251278 160.71347 
L 305.749565 160.351946 
L 302.86946 158.586625 
L 302.0968 158.155582 
L 299.487642 156.86429 
L 297.421585 155.959219 
L 296.105824 155.428797 
L 292.724006 154.227178 
L 291.215161 153.762855 
L 289.342188 153.210911 
L 285.960369 152.359287 
L 282.578551 151.658633 
L 282.043438 151.566491 
L 279.196733 151.075966 
L 275.814915 150.617517 
L 272.433097 150.276909 
L 269.051278 150.047005 
L 265.66946 149.923045 
L 262.287642 149.902484 
L 258.905824 149.984899 
L 255.524006 150.171981 
L 252.142188 150.467589 
L 248.760369 150.877883 
L 245.378551 151.411541 
L 244.570703 151.566491 
L 241.996733 152.061863 
L 238.614915 152.850992 
L 235.366287 153.762855 
L 235.233097 153.80179 
L 231.851278 154.923345 
L 229.180407 155.959219 
L 228.46946 156.258036 
L 225.087642 157.852653 
L 224.505486 158.155582 
L 221.705824 159.804436 
L 220.852611 160.351946 
L 218.324006 162.267165 
L 217.974265 162.54831 
L 215.723048 164.744673 
L 214.942187 165.737586 
L 214.01448 166.941037 
L 212.795557 169.137401 
L 212.039698 171.333764 
L 211.717447 173.530128 
L 211.817107 175.726491 
L 212.343993 177.922855 
L 213.320793 180.119219 
L 214.789066 182.315582 
L 214.942187 182.490784 
L 216.752195 184.511946 
L 218.324006 185.88648 
L 219.313115 186.70831 
L 221.705824 188.357383 
L 222.564411 188.904673 
L 225.087642 190.301733 
L 226.692224 191.101037 
L 228.46946 191.900756 
L 231.851278 193.2353 
L 232.027652 193.297401 
L 235.233097 194.360147 
L 238.614915 195.302507 
L 239.413699 195.493764 
L 241.996733 196.098948 
L 245.378551 196.753655 
L 248.760369 197.276291 
L 252.142188 197.678113 
L 252.28 197.690128 
z
M 246.161008 188.904673 
L 245.378551 188.706366 
L 241.996733 187.659186 
L 239.457824 186.70831 
L 238.614915 186.343145 
L 235.233097 184.636971 
L 235.013527 184.511946 
L 231.882652 182.315582 
L 231.851278 182.286594 
L 229.700608 180.119219 
L 228.46946 178.270954 
L 228.250313 177.922855 
L 227.480729 175.726491 
L 227.328393 173.530128 
L 227.787232 171.333764 
L 228.46946 169.944997 
L 228.88651 169.137401 
L 230.695804 166.941037 
L 231.851278 165.928525 
L 233.334512 164.744673 
L 235.233097 163.553599 
L 237.051147 162.54831 
L 238.614915 161.822895 
L 241.996733 160.483402 
L 242.388999 160.351946 
L 245.378551 159.461831 
L 248.760369 158.654297 
L 251.462946 158.155582 
L 252.142188 158.038646 
L 255.524006 157.610401 
L 258.905824 157.339377 
L 262.287642 157.219983 
L 265.66946 157.249771 
L 269.051278 157.42935 
L 272.433097 157.76241 
L 275.139588 158.155582 
L 275.814915 158.260311 
L 279.196733 158.954037 
L 282.578551 159.840854 
L 284.186536 160.351946 
L 285.960369 160.988259 
L 289.342188 162.433833 
L 289.577243 162.54831 
L 292.724006 164.380054 
L 293.280692 164.744673 
L 295.918621 166.941037 
L 296.105824 167.15575 
L 297.711693 169.137401 
L 298.815433 171.333764 
L 299.280797 173.530128 
L 299.126182 175.726491 
L 298.345489 177.922855 
L 296.907719 180.119219 
L 296.105824 180.959244 
L 294.703655 182.315582 
L 292.724006 183.760087 
L 291.572147 184.511946 
L 289.342188 185.697585 
L 287.141782 186.70831 
L 285.960369 187.176174 
L 282.578551 188.314012 
L 280.430206 188.904673 
L 279.196733 189.212842 
L 275.814915 189.888899 
L 272.433097 190.391182 
L 269.051278 190.730213 
L 265.66946 190.913012 
L 262.287642 190.943334 
L 258.905824 190.821799 
L 255.524006 190.545916 
L 252.142188 190.109994 
L 248.760369 189.504948 
z
" style="fill:#b2ccfb;"/>
    <path clip-path="url(#p568ab18353)" d="M 147.305824 147.818337 
L 150.687642 148.839611 
L 154.06946 149.027875 
L 157.296483 147.173764 
L 157.451278 146.957742 
L 158.165018 144.977401 
L 158.371155 142.781037 
L 158.218945 140.584673 
L 157.818237 138.38831 
L 157.451278 137.081235 
L 157.228861 136.191946 
L 156.534839 133.995582 
L 155.732553 131.799219 
L 154.80134 129.602855 
L 154.06946 128.122316 
L 153.763493 127.406491 
L 152.729851 125.210128 
L 151.567665 123.013764 
L 150.687642 121.550081 
L 150.30859 120.817401 
L 149.085177 118.621037 
L 147.688146 116.424673 
L 147.305824 115.87369 
L 146.327452 114.22831 
L 144.877033 112.031946 
L 143.924006 110.743255 
L 143.339922 109.835582 
L 141.822009 107.639219 
L 140.542188 106.009833 
L 140.148726 105.442855 
L 138.544531 103.246491 
L 137.160369 101.581892 
L 136.763707 101.050128 
L 135.048422 98.853764 
L 133.778551 97.406895 
L 133.179398 96.657401 
L 131.320128 94.461037 
L 130.396733 93.46154 
L 129.374124 92.264673 
L 127.326771 90.06831 
L 127.014915 89.746843 
L 125.30697 87.871946 
L 123.633097 86.202825 
L 123.118433 85.675582 
L 120.911976 83.479219 
L 120.251278 82.852259 
L 118.616468 81.282855 
L 116.86946 79.695959 
L 116.180259 79.086491 
L 113.649273 76.890128 
L 113.487642 76.750537 
L 111.002841 74.693764 
L 110.105824 73.961941 
L 108.152535 72.497401 
L 106.724006 71.410934 
L 105.059835 70.301037 
L 103.342187 69.104815 
L 101.612674 68.104673 
L 99.960369 67.077224 
L 97.538591 65.90831 
L 96.578551 65.395007 
L 93.196733 64.162871 
L 90.40359 63.711946 
L 89.814915 63.597487 
L 89.112093 63.711946 
L 86.433097 64.406869 
L 85.064859 65.90831 
L 84.205237 68.104673 
L 84.005631 70.301037 
L 84.16801 72.497401 
L 84.561849 74.693764 
L 85.131885 76.890128 
L 85.862934 79.086491 
L 86.433097 80.47515 
L 86.723015 81.282855 
L 87.621884 83.479219 
L 88.635871 85.675582 
L 89.811073 87.871946 
L 89.814915 87.878448 
L 90.915044 90.06831 
L 92.149971 92.264673 
L 93.196733 93.900648 
L 93.506297 94.461037 
L 94.8001 96.657401 
L 96.285624 98.853764 
L 96.578551 99.255613 
L 97.703222 101.050128 
L 99.250272 103.246491 
L 99.960369 104.16391 
L 100.824487 105.442855 
L 102.451935 107.639219 
L 103.342187 108.726108 
L 104.147583 109.835582 
L 105.880116 112.031946 
L 106.724006 113.008498 
L 107.672521 114.22831 
L 109.542476 116.424673 
L 110.105824 117.044267 
L 111.415598 118.621037 
L 113.465806 120.817401 
L 113.487642 120.840283 
L 115.411532 123.013764 
L 116.86946 124.495102 
L 117.545725 125.210128 
L 119.718034 127.406491 
L 120.251278 127.922489 
L 121.945737 129.602855 
L 123.633097 131.170712 
L 124.318383 131.799219 
L 126.771203 133.995582 
L 127.014915 134.211233 
L 129.317599 136.191946 
L 130.396733 137.098285 
L 132.042059 138.38831 
L 133.778551 139.756852 
L 134.95496 140.584673 
L 137.160369 142.191293 
L 138.114008 142.781037 
L 140.542188 144.383074 
L 141.66886 144.977401 
L 143.924006 146.286397 
L 145.986975 147.173764 
z
M 144.001499 140.584673 
L 143.924006 140.576518 
L 140.542188 139.277364 
L 138.965031 138.38831 
L 137.160369 137.471888 
L 135.236849 136.191946 
L 133.778551 135.289343 
L 132.054984 133.995582 
L 130.396733 132.801236 
L 129.17837 131.799219 
L 127.014915 130.03931 
L 126.520734 129.602855 
L 124.054687 127.406491 
L 123.633097 127.035297 
L 121.693005 125.210128 
L 120.251278 123.812304 
L 119.445744 123.013764 
L 117.322606 120.817401 
L 116.86946 120.342409 
L 115.237866 118.621037 
L 113.487642 116.638572 
L 113.292398 116.424673 
L 111.360781 114.22831 
L 110.105824 112.693224 
L 109.538165 112.031946 
L 107.765861 109.835582 
L 106.724006 108.454036 
L 106.068719 107.639219 
L 104.42867 105.442855 
L 103.342187 103.874215 
L 102.871304 103.246491 
L 101.345749 101.050128 
L 99.960369 98.861451 
L 99.955018 98.853764 
L 98.534179 96.657401 
L 97.261901 94.461037 
L 96.578551 93.191582 
L 96.0339 92.264673 
L 94.88967 90.06831 
L 93.865111 87.871946 
L 93.196733 86.286935 
L 92.91811 85.675582 
L 92.10146 83.479219 
L 91.452354 81.282855 
L 90.991568 79.086491 
L 90.794545 76.890128 
L 91.056002 74.693764 
L 92.2965 72.497401 
L 93.196733 71.781244 
L 96.578551 71.461678 
L 99.960369 72.380461 
L 100.186328 72.497401 
L 103.342187 73.956214 
L 104.520239 74.693764 
L 106.724006 75.965419 
L 108.014341 76.890128 
L 110.105824 78.314652 
L 111.079497 79.086491 
L 113.487642 80.956354 
L 113.868651 81.282855 
L 116.432169 83.479219 
L 116.86946 83.847346 
L 118.869625 85.675582 
L 120.251278 86.964138 
L 121.189591 87.871946 
L 123.369 90.06831 
L 123.633097 90.334851 
L 125.505759 92.264673 
L 127.014915 93.917599 
L 127.521089 94.461037 
L 129.472627 96.657401 
L 130.396733 97.751214 
L 131.361904 98.853764 
L 133.147932 101.050128 
L 133.778551 101.859885 
L 134.914986 103.246491 
L 136.563536 105.442855 
L 137.160369 106.277878 
L 138.200402 107.639219 
L 139.729857 109.835582 
L 140.542188 111.080071 
L 141.216705 112.031946 
L 142.637383 114.22831 
L 143.924006 116.398847 
L 143.940886 116.424673 
L 145.255594 118.621037 
L 146.428386 120.817401 
L 147.305824 122.599268 
L 147.529107 123.013764 
L 148.554434 125.210128 
L 149.441299 127.406491 
L 150.211149 129.602855 
L 150.687642 131.265721 
L 150.848282 131.799219 
L 151.247532 133.995582 
L 151.345013 136.191946 
L 150.969993 138.38831 
L 150.687642 138.995458 
L 148.569597 140.584673 
L 147.305824 141.010714 
z
" style="fill:#b2ccfb;"/>
   </g>
   <g id="PathCollection_4">
    <path clip-path="url(#p568ab18353)" d="M 248.760369 189.504948 
L 252.142188 190.109994 
L 255.524006 190.545916 
L 258.905824 190.821799 
L 262.287642 190.943334 
L 265.66946 190.913012 
L 269.051278 190.730213 
L 272.433097 190.391182 
L 275.814915 189.888899 
L 279.196733 189.212842 
L 280.430206 188.904673 
L 282.578551 188.314012 
L 285.960369 187.176174 
L 287.141782 186.70831 
L 289.342188 185.697585 
L 291.572147 184.511946 
L 292.724006 183.760087 
L 294.703655 182.315582 
L 296.105824 180.959244 
L 296.907719 180.119219 
L 298.345489 177.922855 
L 299.126182 175.726491 
L 299.280797 173.530128 
L 298.815433 171.333764 
L 297.711693 169.137401 
L 296.105824 167.15575 
L 295.918621 166.941037 
L 293.280692 164.744673 
L 292.724006 164.380054 
L 289.577243 162.54831 
L 289.342188 162.433833 
L 285.960369 160.988259 
L 284.186536 160.351946 
L 282.578551 159.840854 
L 279.196733 158.954037 
L 275.814915 158.260311 
L 275.139588 158.155582 
L 272.433097 157.76241 
L 269.051278 157.42935 
L 265.66946 157.249771 
L 262.287642 157.219983 
L 258.905824 157.339377 
L 255.524006 157.610401 
L 252.142188 158.038646 
L 251.462946 158.155582 
L 248.760369 158.654297 
L 245.378551 159.461831 
L 242.388999 160.351946 
L 241.996733 160.483402 
L 238.614915 161.822895 
L 237.051147 162.54831 
L 235.233097 163.553599 
L 233.334512 164.744673 
L 231.851278 165.928525 
L 230.695804 166.941037 
L 228.88651 169.137401 
L 228.46946 169.944997 
L 227.787232 171.333764 
L 227.328393 173.530128 
L 227.480729 175.726491 
L 228.250313 177.922855 
L 228.46946 178.270954 
L 229.700608 180.119219 
L 231.851278 182.286594 
L 231.882652 182.315582 
L 235.013527 184.511946 
L 235.233097 184.636971 
L 238.614915 186.343145 
L 239.457824 186.70831 
L 241.996733 187.659186 
L 245.378551 188.706366 
L 246.161008 188.904673 
z
M 258.864597 182.315582 
L 255.524006 181.699162 
L 252.142188 180.713283 
L 250.652494 180.119219 
L 248.760369 179.040192 
L 247.209489 177.922855 
L 245.529891 175.726491 
L 245.378551 174.729004 
L 245.223004 173.530128 
L 245.378551 173.129197 
L 246.198442 171.333764 
L 248.57305 169.137401 
L 248.760369 169.026624 
L 252.142188 167.440799 
L 253.605594 166.941037 
L 255.524006 166.449243 
L 258.905824 165.896011 
L 262.287642 165.652297 
L 265.66946 165.713101 
L 269.051278 166.07967 
L 272.433097 166.759533 
L 273.053453 166.941037 
L 275.814915 168.020287 
L 277.969389 169.137401 
L 279.196733 170.136655 
L 280.395184 171.333764 
L 281.332013 173.530128 
L 281.020755 175.726491 
L 279.449133 177.922855 
L 279.196733 178.119585 
L 276.028559 180.119219 
L 275.814915 180.213257 
L 272.433097 181.349216 
L 269.051278 182.115967 
L 267.425284 182.315582 
L 265.66946 182.487275 
L 262.287642 182.542344 
L 258.905824 182.321617 
z
" style="fill:#dddcdc;"/>
    <path clip-path="url(#p568ab18353)" d="M 147.305824 141.010714 
L 148.569597 140.584673 
L 150.687642 138.995458 
L 150.969993 138.38831 
L 151.345013 136.191946 
L 151.247532 133.995582 
L 150.848282 131.799219 
L 150.687642 131.265721 
L 150.211149 129.602855 
L 149.441299 127.406491 
L 148.554434 125.210128 
L 147.529107 123.013764 
L 147.305824 122.599268 
L 146.428386 120.817401 
L 145.255594 118.621037 
L 143.940886 116.424673 
L 143.924006 116.398847 
L 142.637383 114.22831 
L 141.216705 112.031946 
L 140.542188 111.080071 
L 139.729857 109.835582 
L 138.200402 107.639219 
L 137.160369 106.277878 
L 136.563536 105.442855 
L 134.914986 103.246491 
L 133.778551 101.859885 
L 133.147932 101.050128 
L 131.361904 98.853764 
L 130.396733 97.751214 
L 129.472627 96.657401 
L 127.521089 94.461037 
L 127.014915 93.917599 
L 125.505759 92.264673 
L 123.633097 90.334851 
L 123.369 90.06831 
L 121.189591 87.871946 
L 120.251278 86.964138 
L 118.869625 85.675582 
L 116.86946 83.847346 
L 116.432169 83.479219 
L 113.868651 81.282855 
L 113.487642 80.956354 
L 111.079497 79.086491 
L 110.105824 78.314652 
L 108.014341 76.890128 
L 106.724006 75.965419 
L 104.520239 74.693764 
L 103.342187 73.956214 
L 100.186328 72.497401 
L 99.960369 72.380461 
L 96.578551 71.461678 
L 93.196733 71.781244 
L 92.2965 72.497401 
L 91.056002 74.693764 
L 90.794545 76.890128 
L 90.991568 79.086491 
L 91.452354 81.282855 
L 92.10146 83.479219 
L 92.91811 85.675582 
L 93.196733 86.286935 
L 93.865111 87.871946 
L 94.88967 90.06831 
L 96.0339 92.264673 
L 96.578551 93.191582 
L 97.261901 94.461037 
L 98.534179 96.657401 
L 99.955018 98.853764 
L 99.960369 98.861451 
L 101.345749 101.050128 
L 102.871304 103.246491 
L 103.342187 103.874215 
L 104.42867 105.442855 
L 106.068719 107.639219 
L 106.724006 108.454036 
L 107.765861 109.835582 
L 109.538165 112.031946 
L 110.105824 112.693224 
L 111.360781 114.22831 
L 113.292398 116.424673 
L 113.487642 116.638572 
L 115.237866 118.621037 
L 116.86946 120.342409 
L 117.322606 120.817401 
L 119.445744 123.013764 
L 120.251278 123.812304 
L 121.693005 125.210128 
L 123.633097 127.035297 
L 124.054687 127.406491 
L 126.520734 129.602855 
L 127.014915 130.03931 
L 129.17837 131.799219 
L 130.396733 132.801236 
L 132.054984 133.995582 
L 133.778551 135.289343 
L 135.236849 136.191946 
L 137.160369 137.471888 
L 138.965031 138.38831 
L 140.542188 139.277364 
L 143.924006 140.576518 
L 144.001499 140.584673 
z
M 140.326457 133.995582 
L 137.160369 132.975924 
L 135.007962 131.799219 
L 133.778551 131.204064 
L 131.426182 129.602855 
L 130.396733 128.960356 
L 128.425532 127.406491 
L 127.014915 126.352343 
L 125.71052 125.210128 
L 123.633097 123.429089 
L 123.194634 123.013764 
L 120.895696 120.817401 
L 120.251278 120.209983 
L 118.700017 118.621037 
L 116.86946 116.708578 
L 116.606831 116.424673 
L 114.64284 114.22831 
L 113.487642 112.904079 
L 112.740459 112.031946 
L 110.953841 109.835582 
L 110.105824 108.762775 
L 109.219503 107.639219 
L 107.596019 105.442855 
L 106.724006 104.217119 
L 106.023775 103.246491 
L 104.559698 101.050128 
L 103.342187 99.133144 
L 103.159357 98.853764 
L 101.861264 96.657401 
L 100.664774 94.461037 
L 99.960369 93.070918 
L 99.545375 92.264673 
L 98.592311 90.06831 
L 97.7805 87.871946 
L 97.121036 85.675582 
L 96.685192 83.479219 
L 96.707345 81.282855 
L 98.062609 79.086491 
L 99.960369 78.173444 
L 103.342187 78.701015 
L 104.128032 79.086491 
L 106.724006 80.203112 
L 108.429492 81.282855 
L 110.105824 82.246246 
L 111.755453 83.479219 
L 113.487642 84.694213 
L 114.655702 85.675582 
L 116.86946 87.478168 
L 117.299305 87.871946 
L 119.695128 90.06831 
L 120.251278 90.566961 
L 121.962888 92.264673 
L 123.633097 93.93712 
L 124.130897 94.461037 
L 126.153357 96.657401 
L 127.014915 97.605055 
L 128.112665 98.853764 
L 129.95404 101.050128 
L 130.396733 101.588124 
L 131.737737 103.246491 
L 133.412778 105.442855 
L 133.778551 105.937364 
L 135.035711 107.639219 
L 136.548609 109.835582 
L 137.160369 110.763206 
L 138.009566 112.031946 
L 139.354437 114.22831 
L 140.542188 116.268168 
L 140.636175 116.424673 
L 141.796231 118.621037 
L 142.837493 120.817401 
L 143.795971 123.013764 
L 143.924006 123.378036 
L 144.553716 125.210128 
L 145.081166 127.406491 
L 145.310119 129.602855 
L 145.015221 131.799219 
L 143.924006 133.56375 
L 141.504191 133.995582 
L 140.542188 134.076995 
z
" style="fill:#dddcdc;"/>
   </g>
   <g id="PathCollection_5">
    <path clip-path="url(#p568ab18353)" d="M 258.905824 182.321617 
L 262.287642 182.542344 
L 265.66946 182.487275 
L 267.425284 182.315582 
L 269.051278 182.115967 
L 272.433097 181.349216 
L 275.814915 180.213257 
L 276.028559 180.119219 
L 279.196733 178.119585 
L 279.449133 177.922855 
L 281.020755 175.726491 
L 281.332013 173.530128 
L 280.395184 171.333764 
L 279.196733 170.136655 
L 277.969389 169.137401 
L 275.814915 168.020287 
L 273.053453 166.941037 
L 272.433097 166.759533 
L 269.051278 166.07967 
L 265.66946 165.713101 
L 262.287642 165.652297 
L 258.905824 165.896011 
L 255.524006 166.449243 
L 253.605594 166.941037 
L 252.142188 167.440799 
L 248.760369 169.026624 
L 248.57305 169.137401 
L 246.198442 171.333764 
L 245.378551 173.129197 
L 245.223004 173.530128 
L 245.378551 174.729004 
L 245.529891 175.726491 
L 247.209489 177.922855 
L 248.760369 179.040192 
L 250.652494 180.119219 
L 252.142188 180.713283 
L 255.524006 181.699162 
L 258.864597 182.315582 
z
" style="fill:#f6bfa6;"/>
    <path clip-path="url(#p568ab18353)" d="M 140.542188 134.076995 
L 141.504191 133.995582 
L 143.924006 133.56375 
L 145.015221 131.799219 
L 145.310119 129.602855 
L 145.081166 127.406491 
L 144.553716 125.210128 
L 143.924006 123.378036 
L 143.795971 123.013764 
L 142.837493 120.817401 
L 141.796231 118.621037 
L 140.636175 116.424673 
L 140.542188 116.268168 
L 139.354437 114.22831 
L 138.009566 112.031946 
L 137.160369 110.763206 
L 136.548609 109.835582 
L 135.035711 107.639219 
L 133.778551 105.937364 
L 133.412778 105.442855 
L 131.737737 103.246491 
L 130.396733 101.588124 
L 129.95404 101.050128 
L 128.112665 98.853764 
L 127.014915 97.605055 
L 126.153357 96.657401 
L 124.130897 94.461037 
L 123.633097 93.93712 
L 121.962888 92.264673 
L 120.251278 90.566961 
L 119.695128 90.06831 
L 117.299305 87.871946 
L 116.86946 87.478168 
L 114.655702 85.675582 
L 113.487642 84.694213 
L 111.755453 83.479219 
L 110.105824 82.246246 
L 108.429492 81.282855 
L 106.724006 80.203112 
L 104.128032 79.086491 
L 103.342187 78.701015 
L 99.960369 78.173444 
L 98.062609 79.086491 
L 96.707345 81.282855 
L 96.685192 83.479219 
L 97.121036 85.675582 
L 97.7805 87.871946 
L 98.592311 90.06831 
L 99.545375 92.264673 
L 99.960369 93.070918 
L 100.664774 94.461037 
L 101.861264 96.657401 
L 103.159357 98.853764 
L 103.342187 99.133144 
L 104.559698 101.050128 
L 106.023775 103.246491 
L 106.724006 104.217119 
L 107.596019 105.442855 
L 109.219503 107.639219 
L 110.105824 108.762775 
L 110.953841 109.835582 
L 112.740459 112.031946 
L 113.487642 112.904079 
L 114.64284 114.22831 
L 116.606831 116.424673 
L 116.86946 116.708578 
L 118.700017 118.621037 
L 120.251278 120.209983 
L 120.895696 120.817401 
L 123.194634 123.013764 
L 123.633097 123.429089 
L 125.71052 125.210128 
L 127.014915 126.352343 
L 128.425532 127.406491 
L 130.396733 128.960356 
L 131.426182 129.602855 
L 133.778551 131.204064 
L 135.007962 131.799219 
L 137.160369 132.975924 
L 140.326457 133.995582 
z
M 136.94077 127.406491 
L 133.778551 126.739483 
L 130.84066 125.210128 
L 130.396733 125.012414 
L 127.584962 123.013764 
L 127.014915 122.65222 
L 124.864557 120.817401 
L 123.633097 119.842928 
L 122.363392 118.621037 
L 120.251278 116.666479 
L 120.020383 116.424673 
L 117.97071 114.22831 
L 116.86946 113.081124 
L 115.963899 112.031946 
L 114.109178 109.835582 
L 113.487642 109.099618 
L 112.359394 107.639219 
L 110.715598 105.442855 
L 110.105824 104.612177 
L 109.172816 103.246491 
L 107.766459 101.050128 
L 106.724006 99.391146 
L 106.404308 98.853764 
L 105.274765 96.657401 
L 104.23941 94.461037 
L 103.342187 92.391285 
L 103.291759 92.264673 
L 102.747429 90.06831 
L 102.579577 87.871946 
L 103.17187 85.675582 
L 103.342187 85.460802 
L 106.724006 85.034164 
L 108.178772 85.675582 
L 110.105824 86.394492 
L 112.392726 87.871946 
L 113.487642 88.49625 
L 115.454158 90.06831 
L 116.86946 91.106352 
L 118.132928 92.264673 
L 120.251278 94.112473 
L 120.597022 94.461037 
L 122.753596 96.657401 
L 123.633097 97.522746 
L 124.824481 98.853764 
L 126.792266 101.050128 
L 127.014915 101.29967 
L 128.571863 103.246491 
L 130.33113 105.442855 
L 130.396733 105.527644 
L 131.887045 107.639219 
L 133.408723 109.835582 
L 133.778551 110.395439 
L 134.782016 112.031946 
L 136.02535 114.22831 
L 137.160369 116.282423 
L 137.23461 116.424673 
L 138.143291 118.621037 
L 138.870084 120.817401 
L 139.335537 123.013764 
L 139.247781 125.210128 
L 137.29413 127.406491 
L 137.160369 127.463238 
z
" style="fill:#f6bfa6;"/>
   </g>
   <g id="PathCollection_6">
    <path clip-path="url(#p568ab18353)" d="M 137.160369 127.463238 
L 137.29413 127.406491 
L 139.247781 125.210128 
L 139.335537 123.013764 
L 138.870084 120.817401 
L 138.143291 118.621037 
L 137.23461 116.424673 
L 137.160369 116.282423 
L 136.02535 114.22831 
L 134.782016 112.031946 
L 133.778551 110.395439 
L 133.408723 109.835582 
L 131.887045 107.639219 
L 130.396733 105.527644 
L 130.33113 105.442855 
L 128.571863 103.246491 
L 127.014915 101.29967 
L 126.792266 101.050128 
L 124.824481 98.853764 
L 123.633097 97.522746 
L 122.753596 96.657401 
L 120.597022 94.461037 
L 120.251278 94.112473 
L 118.132928 92.264673 
L 116.86946 91.106352 
L 115.454158 90.06831 
L 113.487642 88.49625 
L 112.392726 87.871946 
L 110.105824 86.394492 
L 108.178772 85.675582 
L 106.724006 85.034164 
L 103.342187 85.460802 
L 103.17187 85.675582 
L 102.579577 87.871946 
L 102.747429 90.06831 
L 103.291759 92.264673 
L 103.342187 92.391285 
L 104.23941 94.461037 
L 105.274765 96.657401 
L 106.404308 98.853764 
L 106.724006 99.391146 
L 107.766459 101.050128 
L 109.172816 103.246491 
L 110.105824 104.612177 
L 110.715598 105.442855 
L 112.359394 107.639219 
L 113.487642 109.099618 
L 114.109178 109.835582 
L 115.963899 112.031946 
L 116.86946 113.081124 
L 117.97071 114.22831 
L 120.020383 116.424673 
L 120.251278 116.666479 
L 122.363392 118.621037 
L 123.633097 119.842928 
L 124.864557 120.817401 
L 127.014915 122.65222 
L 127.584962 123.013764 
L 130.396733 125.012414 
L 130.84066 125.210128 
L 133.778551 126.739483 
L 136.94077 127.406491 
z
M 128.305856 118.621037 
L 127.014915 118.154688 
L 124.794805 116.424673 
L 123.633097 115.664374 
L 122.174257 114.22831 
L 120.251278 112.550279 
L 119.790142 112.031946 
L 117.863116 109.835582 
L 116.86946 108.790507 
L 116.001363 107.639219 
L 114.368883 105.442855 
L 113.487642 104.295131 
L 112.835559 103.246491 
L 111.621001 101.050128 
L 110.390278 98.853764 
L 110.105824 98.195234 
L 109.613584 96.657401 
L 109.400698 94.461037 
L 110.105824 92.789296 
L 113.487642 93.303144 
L 115.201219 94.461037 
L 116.86946 95.395575 
L 118.264203 96.657401 
L 120.251278 98.23184 
L 120.837839 98.853764 
L 122.959715 101.050128 
L 123.633097 101.696631 
L 124.867077 103.246491 
L 126.725056 105.442855 
L 127.014915 105.78956 
L 128.223597 107.639219 
L 129.668425 109.835582 
L 130.396733 110.966067 
L 130.945343 112.031946 
L 131.824294 114.22831 
L 132.431565 116.424673 
L 132.14957 118.621037 
L 130.396733 119.582093 
z
" style="fill:#f08a6c;"/>
   </g>
   <g id="PathCollection_7">
    <path clip-path="url(#p568ab18353)" d="M 130.396733 119.582093 
L 132.14957 118.621037 
L 132.431565 116.424673 
L 131.824294 114.22831 
L 130.945343 112.031946 
L 130.396733 110.966067 
L 129.668425 109.835582 
L 128.223597 107.639219 
L 127.014915 105.78956 
L 126.725056 105.442855 
L 124.867077 103.246491 
L 123.633097 101.696631 
L 122.959715 101.050128 
L 120.837839 98.853764 
L 120.251278 98.23184 
L 118.264203 96.657401 
L 116.86946 95.395575 
L 115.201219 94.461037 
L 113.487642 93.303144 
L 110.105824 92.789296 
L 109.400698 94.461037 
L 109.613584 96.657401 
L 110.105824 98.195234 
L 110.390278 98.853764 
L 111.621001 101.050128 
L 112.835559 103.246491 
L 113.487642 104.295131 
L 114.368883 105.442855 
L 116.001363 107.639219 
L 116.86946 108.790507 
L 117.863116 109.835582 
L 119.790142 112.031946 
L 120.251278 112.550279 
L 122.174257 114.22831 
L 123.633097 115.664374 
L 124.794805 116.424673 
L 127.014915 118.154688 
L 128.305856 118.621037 
z
" style="fill:#cd423b;"/>
   </g>
   <g id="matplotlib.axis_1">
    <g id="xtick_1">
     <g id="line2d_1">
      <defs>
       <path d="M 0 0 
L 0 3.5 
" id="mdd92365e9c" style="stroke:#000000;stroke-width:0.8;"/>
      </defs>
      <g>
       <use style="stroke:#000000;stroke-width:0.8;" x="28.942187" xlink:href="#mdd92365e9c" y="228.439219"/>
      </g>
     </g>
     <g id="text_1">
      <!-- 4 -->
      <defs>
       <path d="M 10.59375 35.5 
L 73.1875 35.5 
L 73.1875 27.203125 
L 10.59375 27.203125 
z
" id="DejaVuSans-2212"/>
       <path d="M 37.796875 64.3125 
L 12.890625 25.390625 
L 37.796875 25.390625 
z
M 35.203125 72.90625 
L 47.609375 72.90625 
L 47.609375 25.390625 
L 58.015625 25.390625 
L 58.015625 17.1875 
L 47.609375 17.1875 
L 47.609375 0 
L 37.796875 0 
L 37.796875 17.1875 
L 4.890625 17.1875 
L 4.890625 26.703125 
z
" id="DejaVuSans-34"/>
      </defs>
      <g transform="translate(21.571094 243.037656)scale(0.1 -0.1)">
       <use xlink:href="#DejaVuSans-2212"/>
       <use x="83.789062" xlink:href="#DejaVuSans-34"/>
      </g>
     </g>
    </g>
    <g id="xtick_2">
     <g id="line2d_2">
      <g>
       <use style="stroke:#000000;stroke-width:0.8;" x="95.902187" xlink:href="#mdd92365e9c" y="228.439219"/>
      </g>
     </g>
     <g id="text_2">
      <!-- 2 -->
      <defs>
       <path d="M 19.1875 8.296875 
L 53.609375 8.296875 
L 53.609375 0 
L 7.328125 0 
L 7.328125 8.296875 
Q 12.9375 14.109375 22.625 23.890625 
Q 32.328125 33.6875 34.8125 36.53125 
Q 39.546875 41.84375 41.421875 45.53125 
Q 43.3125 49.21875 43.3125 52.78125 
Q 43.3125 58.59375 39.234375 62.25 
Q 35.15625 65.921875 28.609375 65.921875 
Q 23.96875 65.921875 18.8125 64.3125 
Q 13.671875 62.703125 7.8125 59.421875 
L 7.8125 69.390625 
Q 13.765625 71.78125 18.9375 73 
Q 24.125 74.21875 28.421875 74.21875 
Q 39.75 74.21875 46.484375 68.546875 
Q 53.21875 62.890625 53.21875 53.421875 
Q 53.21875 48.921875 51.53125 44.890625 
Q 49.859375 40.875 45.40625 35.40625 
Q 44.1875 33.984375 37.640625 27.21875 
Q 31.109375 20.453125 19.1875 8.296875 
z
" id="DejaVuSans-32"/>
      </defs>
      <g transform="translate(88.531094 243.037656)scale(0.1 -0.1)">
       <use xlink:href="#DejaVuSans-2212"/>
       <use x="83.789062" xlink:href="#DejaVuSans-32"/>
      </g>
     </g>
    </g>
    <g id="xtick_3">
     <g id="line2d_3">
      <g>
       <use style="stroke:#000000;stroke-width:0.8;" x="162.862188" xlink:href="#mdd92365e9c" y="228.439219"/>
      </g>
     </g>
     <g id="text_3">
      <!-- 0 -->
      <defs>
       <path d="M 31.78125 66.40625 
Q 24.171875 66.40625 20.328125 58.90625 
Q 16.5 51.421875 16.5 36.375 
Q 16.5 21.390625 20.328125 13.890625 
Q 24.171875 6.390625 31.78125 6.390625 
Q 39.453125 6.390625 43.28125 13.890625 
Q 47.125 21.390625 47.125 36.375 
Q 47.125 51.421875 43.28125 58.90625 
Q 39.453125 66.40625 31.78125 66.40625 
z
M 31.78125 74.21875 
Q 44.046875 74.21875 50.515625 64.515625 
Q 56.984375 54.828125 56.984375 36.375 
Q 56.984375 17.96875 50.515625 8.265625 
Q 44.046875 -1.421875 31.78125 -1.421875 
Q 19.53125 -1.421875 13.0625 8.265625 
Q 6.59375 17.96875 6.59375 36.375 
Q 6.59375 54.828125 13.0625 64.515625 
Q 19.53125 74.21875 31.78125 74.21875 
z
" id="DejaVuSans-30"/>
      </defs>
      <g transform="translate(159.680937 243.037656)scale(0.1 -0.1)">
       <use xlink:href="#DejaVuSans-30"/>
      </g>
     </g>
    </g>
    <g id="xtick_4">
     <g id="line2d_4">
      <g>
       <use style="stroke:#000000;stroke-width:0.8;" x="229.822188" xlink:href="#mdd92365e9c" y="228.439219"/>
      </g>
     </g>
     <g id="text_4">
      <!-- 2 -->
      <g transform="translate(226.640938 243.037656)scale(0.1 -0.1)">
       <use xlink:href="#DejaVuSans-32"/>
      </g>
     </g>
    </g>
    <g id="xtick_5">
     <g id="line2d_5">
      <g>
       <use style="stroke:#000000;stroke-width:0.8;" x="296.782188" xlink:href="#mdd92365e9c" y="228.439219"/>
      </g>
     </g>
     <g id="text_5">
      <!-- 4 -->
      <g transform="translate(293.600938 243.037656)scale(0.1 -0.1)">
       <use xlink:href="#DejaVuSans-34"/>
      </g>
     </g>
    </g>
    <g id="xtick_6">
     <g id="line2d_6">
      <g>
       <use style="stroke:#000000;stroke-width:0.8;" x="363.742188" xlink:href="#mdd92365e9c" y="228.439219"/>
      </g>
     </g>
     <g id="text_6">
      <!-- 6 -->
      <defs>
       <path d="M 33.015625 40.375 
Q 26.375 40.375 22.484375 35.828125 
Q 18.609375 31.296875 18.609375 23.390625 
Q 18.609375 15.53125 22.484375 10.953125 
Q 26.375 6.390625 33.015625 6.390625 
Q 39.65625 6.390625 43.53125 10.953125 
Q 47.40625 15.53125 47.40625 23.390625 
Q 47.40625 31.296875 43.53125 35.828125 
Q 39.65625 40.375 33.015625 40.375 
z
M 52.59375 71.296875 
L 52.59375 62.3125 
Q 48.875 64.0625 45.09375 64.984375 
Q 41.3125 65.921875 37.59375 65.921875 
Q 27.828125 65.921875 22.671875 59.328125 
Q 17.53125 52.734375 16.796875 39.40625 
Q 19.671875 43.65625 24.015625 45.921875 
Q 28.375 48.1875 33.59375 48.1875 
Q 44.578125 48.1875 50.953125 41.515625 
Q 57.328125 34.859375 57.328125 23.390625 
Q 57.328125 12.15625 50.6875 5.359375 
Q 44.046875 -1.421875 33.015625 -1.421875 
Q 20.359375 -1.421875 13.671875 8.265625 
Q 6.984375 17.96875 6.984375 36.375 
Q 6.984375 53.65625 15.1875 63.9375 
Q 23.390625 74.21875 37.203125 74.21875 
Q 40.921875 74.21875 44.703125 73.484375 
Q 48.484375 72.75 52.59375 71.296875 
z
" id="DejaVuSans-36"/>
      </defs>
      <g transform="translate(360.560938 243.037656)scale(0.1 -0.1)">
       <use xlink:href="#DejaVuSans-36"/>
      </g>
     </g>
    </g>
   </g>
   <g id="matplotlib.axis_2">
    <g id="ytick_1">
     <g id="line2d_7">
      <defs>
       <path d="M 0 0 
L -3.5 0 
" id="m955bbe7d3d" style="stroke:#000000;stroke-width:0.8;"/>
      </defs>
      <g>
       <use style="stroke:#000000;stroke-width:0.8;" x="28.942188" xlink:href="#m955bbe7d3d" y="228.439219"/>
      </g>
     </g>
     <g id="text_7">
      <!-- 2 -->
      <g transform="translate(7.2 232.238438)scale(0.1 -0.1)">
       <use xlink:href="#DejaVuSans-2212"/>
       <use x="83.789062" xlink:href="#DejaVuSans-32"/>
      </g>
     </g>
    </g>
    <g id="ytick_2">
     <g id="line2d_8">
      <g>
       <use style="stroke:#000000;stroke-width:0.8;" x="28.942188" xlink:href="#m955bbe7d3d" y="201.259219"/>
      </g>
     </g>
     <g id="text_8">
      <!-- 1 -->
      <defs>
       <path d="M 12.40625 8.296875 
L 28.515625 8.296875 
L 28.515625 63.921875 
L 10.984375 60.40625 
L 10.984375 69.390625 
L 28.421875 72.90625 
L 38.28125 72.90625 
L 38.28125 8.296875 
L 54.390625 8.296875 
L 54.390625 0 
L 12.40625 0 
z
" id="DejaVuSans-31"/>
      </defs>
      <g transform="translate(7.2 205.058437)scale(0.1 -0.1)">
       <use xlink:href="#DejaVuSans-2212"/>
       <use x="83.789062" xlink:href="#DejaVuSans-31"/>
      </g>
     </g>
    </g>
    <g id="ytick_3">
     <g id="line2d_9">
      <g>
       <use style="stroke:#000000;stroke-width:0.8;" x="28.942188" xlink:href="#m955bbe7d3d" y="174.079219"/>
      </g>
     </g>
     <g id="text_9">
      <!-- 0 -->
      <g transform="translate(15.579688 177.878437)scale(0.1 -0.1)">
       <use xlink:href="#DejaVuSans-30"/>
      </g>
     </g>
    </g>
    <g id="ytick_4">
     <g id="line2d_10">
      <g>
       <use style="stroke:#000000;stroke-width:0.8;" x="28.942188" xlink:href="#m955bbe7d3d" y="146.899219"/>
      </g>
     </g>
     <g id="text_10">
      <!-- 1 -->
      <g transform="translate(15.579688 150.698437)scale(0.1 -0.1)">
       <use xlink:href="#DejaVuSans-31"/>
      </g>
     </g>
    </g>
    <g id="ytick_5">
     <g id="line2d_11">
      <g>
       <use style="stroke:#000000;stroke-width:0.8;" x="28.942188" xlink:href="#m955bbe7d3d" y="119.719219"/>
      </g>
     </g>
     <g id="text_11">
      <!-- 2 -->
      <g transform="translate(15.579688 123.518438)scale(0.1 -0.1)">
       <use xlink:href="#DejaVuSans-32"/>
      </g>
     </g>
    </g>
    <g id="ytick_6">
     <g id="line2d_12">
      <g>
       <use style="stroke:#000000;stroke-width:0.8;" x="28.942188" xlink:href="#m955bbe7d3d" y="92.539219"/>
      </g>
     </g>
     <g id="text_12">
      <!-- 3 -->
      <defs>
       <path d="M 40.578125 39.3125 
Q 47.65625 37.796875 51.625 33 
Q 55.609375 28.21875 55.609375 21.1875 
Q 55.609375 10.40625 48.1875 4.484375 
Q 40.765625 -1.421875 27.09375 -1.421875 
Q 22.515625 -1.421875 17.65625 -0.515625 
Q 12.796875 0.390625 7.625 2.203125 
L 7.625 11.71875 
Q 11.71875 9.328125 16.59375 8.109375 
Q 21.484375 6.890625 26.8125 6.890625 
Q 36.078125 6.890625 40.9375 10.546875 
Q 45.796875 14.203125 45.796875 21.1875 
Q 45.796875 27.640625 41.28125 31.265625 
Q 36.765625 34.90625 28.71875 34.90625 
L 20.21875 34.90625 
L 20.21875 43.015625 
L 29.109375 43.015625 
Q 36.375 43.015625 40.234375 45.921875 
Q 44.09375 48.828125 44.09375 54.296875 
Q 44.09375 59.90625 40.109375 62.90625 
Q 36.140625 65.921875 28.71875 65.921875 
Q 24.65625 65.921875 20.015625 65.03125 
Q 15.375 64.15625 9.8125 62.3125 
L 9.8125 71.09375 
Q 15.4375 72.65625 20.34375 73.4375 
Q 25.25 74.21875 29.59375 74.21875 
Q 40.828125 74.21875 47.359375 69.109375 
Q 53.90625 64.015625 53.90625 55.328125 
Q 53.90625 49.265625 50.4375 45.09375 
Q 46.96875 40.921875 40.578125 39.3125 
z
" id="DejaVuSans-33"/>
      </defs>
      <g transform="translate(15.579688 96.338437)scale(0.1 -0.1)">
       <use xlink:href="#DejaVuSans-33"/>
      </g>
     </g>
    </g>
    <g id="ytick_7">
     <g id="line2d_13">
      <g>
       <use style="stroke:#000000;stroke-width:0.8;" x="28.942188" xlink:href="#m955bbe7d3d" y="65.359219"/>
      </g>
     </g>
     <g id="text_13">
      <!-- 4 -->
      <g transform="translate(15.579688 69.158437)scale(0.1 -0.1)">
       <use xlink:href="#DejaVuSans-34"/>
      </g>
     </g>
    </g>
    <g id="ytick_8">
     <g id="line2d_14">
      <g>
       <use style="stroke:#000000;stroke-width:0.8;" x="28.942188" xlink:href="#m955bbe7d3d" y="38.179219"/>
      </g>
     </g>
     <g id="text_14">
      <!-- 5 -->
      <defs>
       <path d="M 10.796875 72.90625 
L 49.515625 72.90625 
L 49.515625 64.59375 
L 19.828125 64.59375 
L 19.828125 46.734375 
Q 21.96875 47.46875 24.109375 47.828125 
Q 26.265625 48.1875 28.421875 48.1875 
Q 40.625 48.1875 47.75 41.5 
Q 54.890625 34.8125 54.890625 23.390625 
Q 54.890625 11.625 47.5625 5.09375 
Q 40.234375 -1.421875 26.90625 -1.421875 
Q 22.3125 -1.421875 17.546875 -0.640625 
Q 12.796875 0.140625 7.71875 1.703125 
L 7.71875 11.625 
Q 12.109375 9.234375 16.796875 8.0625 
Q 21.484375 6.890625 26.703125 6.890625 
Q 35.15625 6.890625 40.078125 11.328125 
Q 45.015625 15.765625 45.015625 23.390625 
Q 45.015625 31 40.078125 35.4375 
Q 35.15625 39.890625 26.703125 39.890625 
Q 22.75 39.890625 18.8125 39.015625 
Q 14.890625 38.140625 10.796875 36.28125 
z
" id="DejaVuSans-35"/>
      </defs>
      <g transform="translate(15.579688 41.978437)scale(0.1 -0.1)">
       <use xlink:href="#DejaVuSans-35"/>
      </g>
     </g>
    </g>
    <g id="ytick_9">
     <g id="line2d_15">
      <g>
       <use style="stroke:#000000;stroke-width:0.8;" x="28.942188" xlink:href="#m955bbe7d3d" y="10.999219"/>
      </g>
     </g>
     <g id="text_15">
      <!-- 6 -->
      <g transform="translate(15.579688 14.798438)scale(0.1 -0.1)">
       <use xlink:href="#DejaVuSans-36"/>
      </g>
     </g>
    </g>
   </g>
   <g id="patch_3">
    <path d="M 28.942188 228.439219 
L 28.942188 10.999219 
" style="fill:none;stroke:#000000;stroke-linecap:square;stroke-linejoin:miter;stroke-width:0.8;"/>
   </g>
   <g id="patch_4">
    <path d="M 363.742188 228.439219 
L 363.742188 10.999219 
" style="fill:none;stroke:#000000;stroke-linecap:square;stroke-linejoin:miter;stroke-width:0.8;"/>
   </g>
   <g id="patch_5">
    <path d="M 28.942187 228.439219 
L 363.742188 228.439219 
" style="fill:none;stroke:#000000;stroke-linecap:square;stroke-linejoin:miter;stroke-width:0.8;"/>
   </g>
   <g id="patch_6">
    <path d="M 28.942187 10.999219 
L 363.742188 10.999219 
" style="fill:none;stroke:#000000;stroke-linecap:square;stroke-linejoin:miter;stroke-width:0.8;"/>
   </g>
  </g>
 </g>
 <defs>
  <clipPath id="p568ab18353">
   <rect height="217.44" width="334.8" x="28.942188" y="10.999219"/>
  </clipPath>
 </defs>
</svg>
