<?xml version="1.0" encoding="utf-8" standalone="no"?>
<!DOCTYPE svg PUBLIC "-//W3C//DTD SVG 1.1//EN"
  "http://www.w3.org/Graphics/SVG/1.1/DTD/svg11.dtd">
<!-- Created with matplotlib (http://matplotlib.org/) -->
<svg height="265.438125pt" version="1.1" viewBox="0 0 375.603125 265.438125" width="375.603125pt" xmlns="http://www.w3.org/2000/svg" xmlns:xlink="http://www.w3.org/1999/xlink">
 <defs>
  <style type="text/css">
*{stroke-linecap:butt;stroke-linejoin:round;}
  </style>
 </defs>
 <g id="figure_1">
  <g id="patch_1">
   <path d="M 0 265.438125 
L 375.603125 265.438125 
L 375.603125 0 
L 0 0 
z
" style="fill:none;"/>
  </g>
  <g id="axes_1">
   <g id="patch_2">
    <path d="M 30.103125 241.56 
L 364.903125 241.56 
L 364.903125 24.12 
L 30.103125 24.12 
z
" style="fill:#ffffff;"/>
   </g>
   <g id="matplotlib.axis_1">
    <g id="xtick_1">
     <g id="line2d_1">
      <defs>
       <path d="M 0 0 
L 0 3.5 
" id="m18e61570f6" style="stroke:#000000;stroke-width:0.8;"/>
      </defs>
      <g>
       <use style="stroke:#000000;stroke-width:0.8;" x="45.321307" xlink:href="#m18e61570f6" y="241.56"/>
      </g>
     </g>
     <g id="text_1">
      <!-- 0 -->
      <defs>
       <path d="M 31.78125 66.40625 
Q 24.171875 66.40625 20.328125 58.90625 
Q 16.5 51.421875 16.5 36.375 
Q 16.5 21.390625 20.328125 13.890625 
Q 24.171875 6.390625 31.78125 6.390625 
Q 39.453125 6.390625 43.28125 13.890625 
Q 47.125 21.390625 47.125 36.375 
Q 47.125 51.421875 43.28125 58.90625 
Q 39.453125 66.40625 31.78125 66.40625 
z
M 31.78125 74.21875 
Q 44.046875 74.21875 50.515625 64.515625 
Q 56.984375 54.828125 56.984375 36.375 
Q 56.984375 17.96875 50.515625 8.265625 
Q 44.046875 -1.421875 31.78125 -1.421875 
Q 19.53125 -1.421875 13.0625 8.265625 
Q 6.59375 17.96875 6.59375 36.375 
Q 6.59375 54.828125 13.0625 64.515625 
Q 19.53125 74.21875 31.78125 74.21875 
z
" id="DejaVuSans-30"/>
      </defs>
      <g transform="translate(42.140057 256.158437)scale(0.1 -0.1)">
       <use xlink:href="#DejaVuSans-30"/>
      </g>
     </g>
    </g>
    <g id="xtick_2">
     <g id="line2d_2">
      <g>
       <use style="stroke:#000000;stroke-width:0.8;" x="83.366761" xlink:href="#m18e61570f6" y="241.56"/>
      </g>
     </g>
     <g id="text_2">
      <!-- 1 -->
      <defs>
       <path d="M 12.40625 8.296875 
L 28.515625 8.296875 
L 28.515625 63.921875 
L 10.984375 60.40625 
L 10.984375 69.390625 
L 28.421875 72.90625 
L 38.28125 72.90625 
L 38.28125 8.296875 
L 54.390625 8.296875 
L 54.390625 0 
L 12.40625 0 
z
" id="DejaVuSans-31"/>
      </defs>
      <g transform="translate(80.185511 256.158437)scale(0.1 -0.1)">
       <use xlink:href="#DejaVuSans-31"/>
      </g>
     </g>
    </g>
    <g id="xtick_3">
     <g id="line2d_3">
      <g>
       <use style="stroke:#000000;stroke-width:0.8;" x="121.412216" xlink:href="#m18e61570f6" y="241.56"/>
      </g>
     </g>
     <g id="text_3">
      <!-- 2 -->
      <defs>
       <path d="M 19.1875 8.296875 
L 53.609375 8.296875 
L 53.609375 0 
L 7.328125 0 
L 7.328125 8.296875 
Q 12.9375 14.109375 22.625 23.890625 
Q 32.328125 33.6875 34.8125 36.53125 
Q 39.546875 41.84375 41.421875 45.53125 
Q 43.3125 49.21875 43.3125 52.78125 
Q 43.3125 58.59375 39.234375 62.25 
Q 35.15625 65.921875 28.609375 65.921875 
Q 23.96875 65.921875 18.8125 64.3125 
Q 13.671875 62.703125 7.8125 59.421875 
L 7.8125 69.390625 
Q 13.765625 71.78125 18.9375 73 
Q 24.125 74.21875 28.421875 74.21875 
Q 39.75 74.21875 46.484375 68.546875 
Q 53.21875 62.890625 53.21875 53.421875 
Q 53.21875 48.921875 51.53125 44.890625 
Q 49.859375 40.875 45.40625 35.40625 
Q 44.1875 33.984375 37.640625 27.21875 
Q 31.109375 20.453125 19.1875 8.296875 
z
" id="DejaVuSans-32"/>
      </defs>
      <g transform="translate(118.230966 256.158437)scale(0.1 -0.1)">
       <use xlink:href="#DejaVuSans-32"/>
      </g>
     </g>
    </g>
    <g id="xtick_4">
     <g id="line2d_4">
      <g>
       <use style="stroke:#000000;stroke-width:0.8;" x="159.45767" xlink:href="#m18e61570f6" y="241.56"/>
      </g>
     </g>
     <g id="text_4">
      <!-- 3 -->
      <defs>
       <path d="M 40.578125 39.3125 
Q 47.65625 37.796875 51.625 33 
Q 55.609375 28.21875 55.609375 21.1875 
Q 55.609375 10.40625 48.1875 4.484375 
Q 40.765625 -1.421875 27.09375 -1.421875 
Q 22.515625 -1.421875 17.65625 -0.515625 
Q 12.796875 0.390625 7.625 2.203125 
L 7.625 11.71875 
Q 11.71875 9.328125 16.59375 8.109375 
Q 21.484375 6.890625 26.8125 6.890625 
Q 36.078125 6.890625 40.9375 10.546875 
Q 45.796875 14.203125 45.796875 21.1875 
Q 45.796875 27.640625 41.28125 31.265625 
Q 36.765625 34.90625 28.71875 34.90625 
L 20.21875 34.90625 
L 20.21875 43.015625 
L 29.109375 43.015625 
Q 36.375 43.015625 40.234375 45.921875 
Q 44.09375 48.828125 44.09375 54.296875 
Q 44.09375 59.90625 40.109375 62.90625 
Q 36.140625 65.921875 28.71875 65.921875 
Q 24.65625 65.921875 20.015625 65.03125 
Q 15.375 64.15625 9.8125 62.3125 
L 9.8125 71.09375 
Q 15.4375 72.65625 20.34375 73.4375 
Q 25.25 74.21875 29.59375 74.21875 
Q 40.828125 74.21875 47.359375 69.109375 
Q 53.90625 64.015625 53.90625 55.328125 
Q 53.90625 49.265625 50.4375 45.09375 
Q 46.96875 40.921875 40.578125 39.3125 
z
" id="DejaVuSans-33"/>
      </defs>
      <g transform="translate(156.27642 256.158437)scale(0.1 -0.1)">
       <use xlink:href="#DejaVuSans-33"/>
      </g>
     </g>
    </g>
    <g id="xtick_5">
     <g id="line2d_5">
      <g>
       <use style="stroke:#000000;stroke-width:0.8;" x="197.503125" xlink:href="#m18e61570f6" y="241.56"/>
      </g>
     </g>
     <g id="text_5">
      <!-- 4 -->
      <defs>
       <path d="M 37.796875 64.3125 
L 12.890625 25.390625 
L 37.796875 25.390625 
z
M 35.203125 72.90625 
L 47.609375 72.90625 
L 47.609375 25.390625 
L 58.015625 25.390625 
L 58.015625 17.1875 
L 47.609375 17.1875 
L 47.609375 0 
L 37.796875 0 
L 37.796875 17.1875 
L 4.890625 17.1875 
L 4.890625 26.703125 
z
" id="DejaVuSans-34"/>
      </defs>
      <g transform="translate(194.321875 256.158437)scale(0.1 -0.1)">
       <use xlink:href="#DejaVuSans-34"/>
      </g>
     </g>
    </g>
    <g id="xtick_6">
     <g id="line2d_6">
      <g>
       <use style="stroke:#000000;stroke-width:0.8;" x="235.54858" xlink:href="#m18e61570f6" y="241.56"/>
      </g>
     </g>
     <g id="text_6">
      <!-- 5 -->
      <defs>
       <path d="M 10.796875 72.90625 
L 49.515625 72.90625 
L 49.515625 64.59375 
L 19.828125 64.59375 
L 19.828125 46.734375 
Q 21.96875 47.46875 24.109375 47.828125 
Q 26.265625 48.1875 28.421875 48.1875 
Q 40.625 48.1875 47.75 41.5 
Q 54.890625 34.8125 54.890625 23.390625 
Q 54.890625 11.625 47.5625 5.09375 
Q 40.234375 -1.421875 26.90625 -1.421875 
Q 22.3125 -1.421875 17.546875 -0.640625 
Q 12.796875 0.140625 7.71875 1.703125 
L 7.71875 11.625 
Q 12.109375 9.234375 16.796875 8.0625 
Q 21.484375 6.890625 26.703125 6.890625 
Q 35.15625 6.890625 40.078125 11.328125 
Q 45.015625 15.765625 45.015625 23.390625 
Q 45.015625 31 40.078125 35.4375 
Q 35.15625 39.890625 26.703125 39.890625 
Q 22.75 39.890625 18.8125 39.015625 
Q 14.890625 38.140625 10.796875 36.28125 
z
" id="DejaVuSans-35"/>
      </defs>
      <g transform="translate(232.36733 256.158437)scale(0.1 -0.1)">
       <use xlink:href="#DejaVuSans-35"/>
      </g>
     </g>
    </g>
    <g id="xtick_7">
     <g id="line2d_7">
      <g>
       <use style="stroke:#000000;stroke-width:0.8;" x="273.594034" xlink:href="#m18e61570f6" y="241.56"/>
      </g>
     </g>
     <g id="text_7">
      <!-- 6 -->
      <defs>
       <path d="M 33.015625 40.375 
Q 26.375 40.375 22.484375 35.828125 
Q 18.609375 31.296875 18.609375 23.390625 
Q 18.609375 15.53125 22.484375 10.953125 
Q 26.375 6.390625 33.015625 6.390625 
Q 39.65625 6.390625 43.53125 10.953125 
Q 47.40625 15.53125 47.40625 23.390625 
Q 47.40625 31.296875 43.53125 35.828125 
Q 39.65625 40.375 33.015625 40.375 
z
M 52.59375 71.296875 
L 52.59375 62.3125 
Q 48.875 64.0625 45.09375 64.984375 
Q 41.3125 65.921875 37.59375 65.921875 
Q 27.828125 65.921875 22.671875 59.328125 
Q 17.53125 52.734375 16.796875 39.40625 
Q 19.671875 43.65625 24.015625 45.921875 
Q 28.375 48.1875 33.59375 48.1875 
Q 44.578125 48.1875 50.953125 41.515625 
Q 57.328125 34.859375 57.328125 23.390625 
Q 57.328125 12.15625 50.6875 5.359375 
Q 44.046875 -1.421875 33.015625 -1.421875 
Q 20.359375 -1.421875 13.671875 8.265625 
Q 6.984375 17.96875 6.984375 36.375 
Q 6.984375 53.65625 15.1875 63.9375 
Q 23.390625 74.21875 37.203125 74.21875 
Q 40.921875 74.21875 44.703125 73.484375 
Q 48.484375 72.75 52.59375 71.296875 
z
" id="DejaVuSans-36"/>
      </defs>
      <g transform="translate(270.412784 256.158437)scale(0.1 -0.1)">
       <use xlink:href="#DejaVuSans-36"/>
      </g>
     </g>
    </g>
    <g id="xtick_8">
     <g id="line2d_8">
      <g>
       <use style="stroke:#000000;stroke-width:0.8;" x="311.639489" xlink:href="#m18e61570f6" y="241.56"/>
      </g>
     </g>
     <g id="text_8">
      <!-- 7 -->
      <defs>
       <path d="M 8.203125 72.90625 
L 55.078125 72.90625 
L 55.078125 68.703125 
L 28.609375 0 
L 18.3125 0 
L 43.21875 64.59375 
L 8.203125 64.59375 
z
" id="DejaVuSans-37"/>
      </defs>
      <g transform="translate(308.458239 256.158437)scale(0.1 -0.1)">
       <use xlink:href="#DejaVuSans-37"/>
      </g>
     </g>
    </g>
    <g id="xtick_9">
     <g id="line2d_9">
      <g>
       <use style="stroke:#000000;stroke-width:0.8;" x="349.684943" xlink:href="#m18e61570f6" y="241.56"/>
      </g>
     </g>
     <g id="text_9">
      <!-- 8 -->
      <defs>
       <path d="M 31.78125 34.625 
Q 24.75 34.625 20.71875 30.859375 
Q 16.703125 27.09375 16.703125 20.515625 
Q 16.703125 13.921875 20.71875 10.15625 
Q 24.75 6.390625 31.78125 6.390625 
Q 38.8125 6.390625 42.859375 10.171875 
Q 46.921875 13.96875 46.921875 20.515625 
Q 46.921875 27.09375 42.890625 30.859375 
Q 38.875 34.625 31.78125 34.625 
z
M 21.921875 38.8125 
Q 15.578125 40.375 12.03125 44.71875 
Q 8.5 49.078125 8.5 55.328125 
Q 8.5 64.0625 14.71875 69.140625 
Q 20.953125 74.21875 31.78125 74.21875 
Q 42.671875 74.21875 48.875 69.140625 
Q 55.078125 64.0625 55.078125 55.328125 
Q 55.078125 49.078125 51.53125 44.71875 
Q 48 40.375 41.703125 38.8125 
Q 48.828125 37.15625 52.796875 32.3125 
Q 56.78125 27.484375 56.78125 20.515625 
Q 56.78125 9.90625 50.3125 4.234375 
Q 43.84375 -1.421875 31.78125 -1.421875 
Q 19.734375 -1.421875 13.25 4.234375 
Q 6.78125 9.90625 6.78125 20.515625 
Q 6.78125 27.484375 10.78125 32.3125 
Q 14.796875 37.15625 21.921875 38.8125 
z
M 18.3125 54.390625 
Q 18.3125 48.734375 21.84375 45.5625 
Q 25.390625 42.390625 31.78125 42.390625 
Q 38.140625 42.390625 41.71875 45.5625 
Q 45.3125 48.734375 45.3125 54.390625 
Q 45.3125 60.0625 41.71875 63.234375 
Q 38.140625 66.40625 31.78125 66.40625 
Q 25.390625 66.40625 21.84375 63.234375 
Q 18.3125 60.0625 18.3125 54.390625 
z
" id="DejaVuSans-38"/>
      </defs>
      <g transform="translate(346.503693 256.158437)scale(0.1 -0.1)">
       <use xlink:href="#DejaVuSans-38"/>
      </g>
     </g>
    </g>
   </g>
   <g id="matplotlib.axis_2">
    <g id="ytick_1">
     <g id="line2d_10">
      <defs>
       <path d="M 0 0 
L -3.5 0 
" id="m9c42c357ed" style="stroke:#000000;stroke-width:0.8;"/>
      </defs>
      <g>
       <use style="stroke:#000000;stroke-width:0.8;" x="30.103125" xlink:href="#m9c42c357ed" y="237.296471"/>
      </g>
     </g>
     <g id="text_10">
      <!-- 0.0 -->
      <defs>
       <path d="M 10.6875 12.40625 
L 21 12.40625 
L 21 0 
L 10.6875 0 
z
" id="DejaVuSans-2e"/>
      </defs>
      <g transform="translate(7.2 241.095689)scale(0.1 -0.1)">
       <use xlink:href="#DejaVuSans-30"/>
       <use x="63.623047" xlink:href="#DejaVuSans-2e"/>
       <use x="95.410156" xlink:href="#DejaVuSans-30"/>
      </g>
     </g>
    </g>
    <g id="ytick_2">
     <g id="line2d_11">
      <g>
       <use style="stroke:#000000;stroke-width:0.8;" x="30.103125" xlink:href="#m9c42c357ed" y="194.661176"/>
      </g>
     </g>
     <g id="text_11">
      <!-- 0.1 -->
      <g transform="translate(7.2 198.460395)scale(0.1 -0.1)">
       <use xlink:href="#DejaVuSans-30"/>
       <use x="63.623047" xlink:href="#DejaVuSans-2e"/>
       <use x="95.410156" xlink:href="#DejaVuSans-31"/>
      </g>
     </g>
    </g>
    <g id="ytick_3">
     <g id="line2d_12">
      <g>
       <use style="stroke:#000000;stroke-width:0.8;" x="30.103125" xlink:href="#m9c42c357ed" y="152.025882"/>
      </g>
     </g>
     <g id="text_12">
      <!-- 0.2 -->
      <g transform="translate(7.2 155.825101)scale(0.1 -0.1)">
       <use xlink:href="#DejaVuSans-30"/>
       <use x="63.623047" xlink:href="#DejaVuSans-2e"/>
       <use x="95.410156" xlink:href="#DejaVuSans-32"/>
      </g>
     </g>
    </g>
    <g id="ytick_4">
     <g id="line2d_13">
      <g>
       <use style="stroke:#000000;stroke-width:0.8;" x="30.103125" xlink:href="#m9c42c357ed" y="109.390588"/>
      </g>
     </g>
     <g id="text_13">
      <!-- 0.3 -->
      <g transform="translate(7.2 113.189807)scale(0.1 -0.1)">
       <use xlink:href="#DejaVuSans-30"/>
       <use x="63.623047" xlink:href="#DejaVuSans-2e"/>
       <use x="95.410156" xlink:href="#DejaVuSans-33"/>
      </g>
     </g>
    </g>
    <g id="ytick_5">
     <g id="line2d_14">
      <g>
       <use style="stroke:#000000;stroke-width:0.8;" x="30.103125" xlink:href="#m9c42c357ed" y="66.755294"/>
      </g>
     </g>
     <g id="text_14">
      <!-- 0.4 -->
      <g transform="translate(7.2 70.554513)scale(0.1 -0.1)">
       <use xlink:href="#DejaVuSans-30"/>
       <use x="63.623047" xlink:href="#DejaVuSans-2e"/>
       <use x="95.410156" xlink:href="#DejaVuSans-34"/>
      </g>
     </g>
    </g>
    <g id="ytick_6">
     <g id="line2d_15">
      <g>
       <use style="stroke:#000000;stroke-width:0.8;" x="30.103125" xlink:href="#m9c42c357ed" y="24.12"/>
      </g>
     </g>
     <g id="text_15">
      <!-- 0.5 -->
      <g transform="translate(7.2 27.919219)scale(0.1 -0.1)">
       <use xlink:href="#DejaVuSans-30"/>
       <use x="63.623047" xlink:href="#DejaVuSans-2e"/>
       <use x="95.410156" xlink:href="#DejaVuSans-35"/>
      </g>
     </g>
    </g>
   </g>
   <g id="line2d_16">
    <path clip-path="url(#pe33cb50467)" d="M 59.009265 -1 
L 60.693208 18.65594 
L 63.767588 45.60941 
L 66.841968 66.856225 
L 69.916348 84.177527 
L 72.990728 98.651088 
L 76.065108 110.974348 
L 79.139489 121.622453 
L 82.213869 130.932562 
L 85.288249 139.151967 
L 88.362629 146.467082 
L 91.437009 153.02171 
L 94.511389 158.928985 
L 97.58577 164.279436 
L 100.66015 169.146582 
L 103.73453 173.590909 
L 106.80891 177.662751 
L 109.88329 181.404426 
L 112.95767 184.851837 
L 116.032051 188.035697 
L 119.106431 190.982473 
L 122.180811 193.715125 
L 125.255191 196.253696 
L 128.329571 198.615777 
L 131.403951 200.816887 
L 134.478332 202.870782 
L 137.552712 204.789706 
L 140.627092 206.584599 
L 143.701472 208.265277 
L 146.775852 209.840573 
L 149.850232 211.318459 
L 152.924613 212.706155 
L 155.998993 214.010217 
L 159.073373 215.23661 
L 162.147753 216.390778 
L 165.222133 217.477695 
L 168.296513 218.501923 
L 171.370894 219.467647 
L 174.445274 220.378716 
L 177.519654 221.238677 
L 180.594034 222.050801 
L 183.668414 222.818111 
L 186.742794 223.543408 
L 189.817175 224.229282 
L 192.891555 224.87814 
L 195.965935 225.492216 
L 199.040315 226.07359 
L 202.114695 226.624196 
L 205.189075 227.145837 
L 208.263456 227.640195 
L 211.337836 228.108841 
L 214.412216 228.553244 
L 217.486596 228.974775 
L 220.560976 229.37472 
L 223.635356 229.754283 
L 226.709737 230.114592 
L 229.784117 230.456705 
L 232.858497 230.781617 
L 235.932877 231.09026 
L 239.007257 231.383513 
L 242.081637 231.662198 
L 245.156018 231.927094 
L 248.230398 232.178929 
L 251.304778 232.418393 
L 254.379158 232.646134 
L 257.453538 232.862763 
L 260.527918 233.068857 
L 263.602299 233.264959 
L 266.676679 233.451584 
L 269.751059 233.629215 
L 272.825439 233.798312 
L 275.899819 233.959308 
L 278.974199 234.11261 
L 282.04858 234.258608 
L 285.12296 234.397666 
L 288.19734 234.530131 
L 291.27172 234.656332 
L 294.3461 234.776578 
L 297.42048 234.891164 
L 300.494861 235.00037 
L 303.569241 235.104458 
L 306.643621 235.203679 
L 309.718001 235.29827 
L 312.792381 235.388457 
L 315.866761 235.474454 
L 318.941142 235.556461 
L 322.015522 235.634673 
L 325.089902 235.709272 
L 328.164282 235.78043 
L 331.238662 235.848312 
L 334.313042 235.913075 
L 337.387423 235.974867 
L 340.461803 236.033829 
L 343.536183 236.090095 
L 346.610563 236.143792 
L 349.684943 236.195042 
" style="fill:none;stroke:#1f77b4;stroke-linecap:square;stroke-width:1.5;"/>
   </g>
   <g id="line2d_17">
    <path clip-path="url(#pe33cb50467)" d="M 45.321307 24.12 
L 48.395687 32.561507 
L 51.470067 40.668741 
L 54.544447 48.45494 
L 57.618827 55.932815 
L 60.693208 63.114577 
L 63.767588 70.01195 
L 66.841968 76.636196 
L 69.916348 82.998131 
L 72.990728 89.108141 
L 76.065108 94.976204 
L 79.139489 100.611898 
L 82.213869 106.024427 
L 85.288249 111.222627 
L 88.362629 116.214985 
L 91.437009 121.009652 
L 94.511389 125.614456 
L 97.58577 130.036917 
L 100.66015 134.284253 
L 103.73453 138.363401 
L 106.80891 142.28102 
L 109.88329 146.043507 
L 112.95767 149.657003 
L 116.032051 153.127411 
L 119.106431 156.460394 
L 122.180811 159.661396 
L 125.255191 162.735643 
L 128.329571 165.688153 
L 131.403951 168.523748 
L 134.478332 171.247057 
L 137.552712 173.862527 
L 140.627092 176.374427 
L 143.701472 178.78686 
L 146.775852 181.103763 
L 149.850232 183.32892 
L 152.924613 185.465964 
L 155.998993 187.518384 
L 159.073373 189.48953 
L 162.147753 191.382622 
L 165.222133 193.20075 
L 168.296513 194.946882 
L 171.370894 196.62387 
L 174.445274 198.234451 
L 177.519654 199.781256 
L 180.594034 201.266809 
L 183.668414 202.693536 
L 186.742794 204.063766 
L 189.817175 205.379737 
L 192.891555 206.643598 
L 195.965935 207.857411 
L 199.040315 209.023159 
L 202.114695 210.142745 
L 205.189075 211.217997 
L 208.263456 212.25067 
L 211.337836 213.24245 
L 214.412216 214.194958 
L 217.486596 215.109747 
L 220.560976 215.988312 
L 223.635356 216.832087 
L 226.709737 217.64245 
L 229.784117 218.420723 
L 232.858497 219.168178 
L 235.932877 219.886034 
L 239.007257 220.575465 
L 242.081637 221.237594 
L 245.156018 221.873505 
L 248.230398 222.484234 
L 251.304778 223.070779 
L 254.379158 223.634097 
L 257.453538 224.175109 
L 260.527918 224.694698 
L 263.602299 225.193711 
L 266.676679 225.672965 
L 269.751059 226.13324 
L 272.825439 226.575289 
L 275.899819 226.999834 
L 278.974199 227.407567 
L 282.04858 227.799155 
L 285.12296 228.175236 
L 288.19734 228.536425 
L 291.27172 228.883311 
L 294.3461 229.216461 
L 297.42048 229.536419 
L 300.494861 229.843707 
L 303.569241 230.138826 
L 306.643621 230.422259 
L 309.718001 230.694469 
L 312.792381 230.9559 
L 315.866761 231.206978 
L 318.941142 231.448114 
L 322.015522 231.679701 
L 325.089902 231.902118 
L 328.164282 232.115727 
L 331.238662 232.320878 
L 334.313042 232.517904 
L 337.387423 232.707129 
L 340.461803 232.888861 
L 343.536183 233.063397 
L 346.610563 233.231021 
L 349.684943 233.392007 
" style="fill:none;stroke:#ff7f0e;stroke-linecap:square;stroke-width:1.5;"/>
   </g>
   <g id="line2d_18">
    <path clip-path="url(#pe33cb50467)" d="M 45.321307 237.296471 
L 48.395687 190.859971 
L 51.470067 174.225833 
L 54.544447 163.109848 
L 57.618827 155.025293 
L 60.693208 148.956862 
L 63.767588 144.35729 
L 66.841968 140.885827 
L 69.916348 138.310487 
L 72.990728 136.463465 
L 76.065108 135.217988 
L 79.139489 134.475121 
L 82.213869 134.155711 
L 85.288249 134.195174 
L 88.362629 134.539991 
L 91.437009 135.145246 
L 94.511389 135.972853 
L 97.58577 136.990241 
L 100.66015 138.16936 
L 103.73453 139.485911 
L 106.80891 140.918742 
L 109.88329 142.449364 
L 112.95767 144.061567 
L 116.032051 145.741094 
L 119.106431 147.475384 
L 122.180811 149.253348 
L 125.255191 151.065187 
L 128.329571 152.90223 
L 131.403951 154.756808 
L 134.478332 156.62213 
L 137.552712 158.492192 
L 140.627092 160.361682 
L 143.701472 162.22591 
L 146.775852 164.080742 
L 149.850232 165.922539 
L 152.924613 167.748104 
L 155.998993 169.554643 
L 159.073373 171.339717 
L 162.147753 173.101212 
L 165.222133 174.837301 
L 168.296513 176.546419 
L 171.370894 178.227238 
L 174.445274 179.878638 
L 177.519654 181.499692 
L 180.594034 183.089644 
L 183.668414 184.647892 
L 186.742794 186.173974 
L 189.817175 187.667551 
L 192.891555 189.128399 
L 195.965935 190.556393 
L 199.040315 191.951499 
L 202.114695 193.313762 
L 205.189075 194.643302 
L 208.263456 195.9403 
L 211.337836 197.204998 
L 214.412216 198.437685 
L 217.486596 199.638697 
L 220.560976 200.808408 
L 223.635356 201.947228 
L 226.709737 203.055594 
L 229.784117 204.133972 
L 232.858497 205.182849 
L 235.932877 206.202731 
L 239.007257 207.194139 
L 242.081637 208.157608 
L 245.156018 209.093683 
L 248.230398 210.002918 
L 251.304778 210.885871 
L 254.379158 211.743108 
L 257.453538 212.575194 
L 260.527918 213.382697 
L 263.602299 214.166184 
L 266.676679 214.92622 
L 269.751059 215.66337 
L 272.825439 216.378192 
L 275.899819 217.07124 
L 278.974199 217.743066 
L 282.04858 218.394212 
L 285.12296 219.025215 
L 288.19734 219.636606 
L 291.27172 220.228905 
L 294.3461 220.802628 
L 297.42048 221.35828 
L 300.494861 221.896359 
L 303.569241 222.417352 
L 306.643621 222.921738 
L 309.718001 223.409987 
L 312.792381 223.882559 
L 315.866761 224.339905 
L 318.941142 224.782466 
L 322.015522 225.210673 
L 325.089902 225.624948 
L 328.164282 226.025704 
L 331.238662 226.413341 
L 334.313042 226.788255 
L 337.387423 227.150827 
L 340.461803 227.501432 
L 343.536183 227.840433 
L 346.610563 228.168188 
L 349.684943 228.485041 
" style="fill:none;stroke:#2ca02c;stroke-linecap:square;stroke-width:1.5;"/>
   </g>
   <g id="line2d_19">
    <path clip-path="url(#pe33cb50467)" d="M 45.321307 237.296471 
L 48.395687 229.024351 
L 51.470067 221.407361 
L 54.544447 214.406588 
L 57.618827 207.985173 
L 60.693208 202.108209 
L 63.767588 196.742647 
L 66.841968 191.857201 
L 69.916348 187.42226 
L 72.990728 183.409805 
L 76.065108 179.793332 
L 79.139489 176.547772 
L 82.213869 173.649419 
L 85.288249 171.075866 
L 88.362629 168.805933 
L 91.437009 166.819611 
L 94.511389 165.097997 
L 97.58577 163.623242 
L 100.66015 162.378494 
L 103.73453 161.347852 
L 106.80891 160.516309 
L 109.88329 159.869713 
L 112.95767 159.394722 
L 116.032051 159.078758 
L 119.106431 158.909972 
L 122.180811 158.877204 
L 125.255191 158.969944 
L 128.329571 159.178306 
L 131.403951 159.492986 
L 134.478332 159.905239 
L 137.552712 160.406842 
L 140.627092 160.990073 
L 143.701472 161.647681 
L 146.775852 162.372861 
L 149.850232 163.159229 
L 152.924613 164.000805 
L 155.998993 164.89198 
L 159.073373 165.827509 
L 162.147753 166.802481 
L 165.222133 167.812304 
L 168.296513 168.852691 
L 171.370894 169.919637 
L 174.445274 171.009407 
L 177.519654 172.118521 
L 180.594034 173.243738 
L 183.668414 174.382043 
L 186.742794 175.530636 
L 189.817175 176.686917 
L 192.891555 177.848475 
L 195.965935 179.01308 
L 199.040315 180.17867 
L 202.114695 181.343339 
L 205.189075 182.505333 
L 208.263456 183.663039 
L 211.337836 184.814972 
L 214.412216 185.959776 
L 217.486596 187.096208 
L 220.560976 188.223136 
L 223.635356 189.339532 
L 226.709737 190.444461 
L 229.784117 191.537083 
L 232.858497 192.616638 
L 235.932877 193.682448 
L 239.007257 194.73391 
L 242.081637 195.770487 
L 245.156018 196.791711 
L 248.230398 197.797172 
L 251.304778 198.786517 
L 254.379158 199.759445 
L 257.453538 200.715706 
L 260.527918 201.655093 
L 263.602299 202.577444 
L 266.676679 203.482635 
L 269.751059 204.370579 
L 272.825439 205.241222 
L 275.899819 206.094542 
L 278.974199 206.930545 
L 282.04858 207.749266 
L 285.12296 208.550761 
L 288.19734 209.335112 
L 291.27172 210.10242 
L 294.3461 210.852803 
L 297.42048 211.5864 
L 300.494861 212.303363 
L 303.569241 213.003859 
L 306.643621 213.688069 
L 309.718001 214.356183 
L 312.792381 215.008403 
L 315.866761 215.644941 
L 318.941142 216.266016 
L 322.015522 216.871854 
L 325.089902 217.462688 
L 328.164282 218.038757 
L 331.238662 218.600303 
L 334.313042 219.147573 
L 337.387423 219.680817 
L 340.461803 220.200289 
L 343.536183 220.706242 
L 346.610563 221.198932 
L 349.684943 221.678618 
" style="fill:none;stroke:#d62728;stroke-linecap:square;stroke-width:1.5;"/>
   </g>
   <g id="line2d_20">
    <path clip-path="url(#pe33cb50467)" d="M 45.321307 237.296471 
L 48.395687 236.045656 
L 51.470067 233.898726 
L 54.544447 231.301592 
L 57.618827 228.432236 
L 60.693208 225.39888 
L 63.767588 222.275997 
L 66.841968 219.118033 
L 69.916348 215.966158 
L 72.990728 212.852106 
L 76.065108 209.800583 
L 79.139489 206.830886 
L 82.213869 203.958043 
L 85.288249 201.19366 
L 88.362629 198.546552 
L 91.437009 196.023248 
L 94.511389 193.628379 
L 97.58577 191.364999 
L 100.66015 189.234841 
L 103.73453 187.238541 
L 106.80891 185.375809 
L 109.88329 183.645582 
L 112.95767 182.046157 
L 116.032051 180.575295 
L 119.106431 179.230314 
L 122.180811 178.008173 
L 125.255191 176.905538 
L 128.329571 175.918841 
L 131.403951 175.044334 
L 134.478332 174.278131 
L 137.552712 173.616245 
L 140.627092 173.054627 
L 143.701472 172.589186 
L 146.775852 172.215823 
L 149.850232 171.930445 
L 152.924613 171.728987 
L 155.998993 171.607425 
L 159.073373 171.561794 
L 162.147753 171.588192 
L 165.222133 171.682797 
L 168.296513 171.84187 
L 171.370894 172.061762 
L 174.445274 172.338923 
L 177.519654 172.669899 
L 180.594034 173.051343 
L 183.668414 173.480012 
L 186.742794 173.952771 
L 189.817175 174.466593 
L 192.891555 175.01856 
L 195.965935 175.605863 
L 199.040315 176.225801 
L 202.114695 176.87578 
L 205.189075 177.553311 
L 208.263456 178.256012 
L 211.337836 178.981601 
L 214.412216 179.7279 
L 217.486596 180.492826 
L 220.560976 181.274395 
L 223.635356 182.070717 
L 226.709737 182.879993 
L 229.784117 183.700513 
L 232.858497 184.530655 
L 235.932877 185.368878 
L 239.007257 186.213726 
L 242.081637 187.063818 
L 245.156018 187.917853 
L 248.230398 188.774599 
L 251.304778 189.632897 
L 254.379158 190.491658 
L 257.453538 191.349855 
L 260.527918 192.206526 
L 263.602299 193.06077 
L 266.676679 193.911743 
L 269.751059 194.758656 
L 272.825439 195.600776 
L 275.899819 196.43742 
L 278.974199 197.267952 
L 282.04858 198.091786 
L 285.12296 198.908379 
L 288.19734 199.717229 
L 291.27172 200.517879 
L 294.3461 201.309905 
L 297.42048 202.092926 
L 300.494861 202.866591 
L 303.569241 203.630585 
L 306.643621 204.384624 
L 309.718001 205.128454 
L 312.792381 205.861849 
L 315.866761 206.584611 
L 318.941142 207.296567 
L 322.015522 207.997567 
L 325.089902 208.687486 
L 328.164282 209.36622 
L 331.238662 210.033682 
L 334.313042 210.68981 
L 337.387423 211.334554 
L 340.461803 211.967885 
L 343.536183 212.589788 
L 346.610563 213.200263 
L 349.684943 213.799324 
" style="fill:none;stroke:#9467bd;stroke-linecap:square;stroke-width:1.5;"/>
   </g>
   <g id="line2d_21">
    <path clip-path="url(#pe33cb50467)" d="M 45.321307 237.296471 
L 48.395687 237.129357 
L 51.470067 236.654486 
L 54.544447 235.909205 
L 57.618827 234.927881 
L 60.693208 233.742101 
L 63.767588 232.380856 
L 66.841968 230.870715 
L 69.916348 229.235992 
L 72.990728 227.498895 
L 76.065108 225.679675 
L 79.139489 223.79676 
L 82.213869 221.866882 
L 85.288249 219.905201 
L 88.362629 217.925409 
L 91.437009 215.939846 
L 94.511389 213.95959 
L 97.58577 211.994554 
L 100.66015 210.05357 
L 103.73453 208.144475 
L 106.80891 206.274183 
L 109.88329 204.448755 
L 112.95767 202.673471 
L 116.032051 200.952887 
L 119.106431 199.290896 
L 122.180811 197.69078 
L 125.255191 196.155265 
L 128.329571 194.686563 
L 131.403951 193.286419 
L 134.478332 191.956153 
L 137.552712 190.696695 
L 140.627092 189.508625 
L 143.701472 188.392202 
L 146.775852 187.347397 
L 149.850232 186.373921 
L 152.924613 185.471252 
L 155.998993 184.638659 
L 159.073373 183.875227 
L 162.147753 183.179872 
L 165.222133 182.55137 
L 168.296513 181.988366 
L 171.370894 181.489396 
L 174.445274 181.052902 
L 177.519654 180.677242 
L 180.594034 180.360708 
L 183.668414 180.101537 
L 186.742794 179.897917 
L 189.817175 179.748005 
L 192.891555 179.649929 
L 195.965935 179.601801 
L 199.040315 179.601722 
L 202.114695 179.647789 
L 205.189075 179.738104 
L 208.263456 179.870776 
L 211.337836 180.043927 
L 214.412216 180.255698 
L 217.486596 180.504254 
L 220.560976 180.787783 
L 223.635356 181.104502 
L 226.709737 181.452662 
L 229.784117 181.830546 
L 232.858497 182.236475 
L 235.932877 182.668806 
L 239.007257 183.125939 
L 242.081637 183.606311 
L 245.156018 184.108403 
L 248.230398 184.630739 
L 251.304778 185.171887 
L 254.379158 185.730456 
L 257.453538 186.305101 
L 260.527918 186.894523 
L 263.602299 187.497463 
L 266.676679 188.11271 
L 269.751059 188.739095 
L 272.825439 189.375493 
L 275.899819 190.020821 
L 278.974199 190.67404 
L 282.04858 191.334152 
L 285.12296 192.000202 
L 288.19734 192.671273 
L 291.27172 193.346489 
L 294.3461 194.025015 
L 297.42048 194.706051 
L 300.494861 195.388836 
L 303.569241 196.072645 
L 306.643621 196.756791 
L 309.718001 197.440617 
L 312.792381 198.123504 
L 315.866761 198.804863 
L 318.941142 199.484138 
L 322.015522 200.160804 
L 325.089902 200.834366 
L 328.164282 201.504356 
L 331.238662 202.170337 
L 334.313042 202.831897 
L 337.387423 203.488652 
L 340.461803 204.140239 
L 343.536183 204.786325 
L 346.610563 205.426597 
L 349.684943 206.060765 
" style="fill:none;stroke:#8c564b;stroke-linecap:square;stroke-width:1.5;"/>
   </g>
   <g id="patch_3">
    <path d="M 30.103125 241.56 
L 30.103125 24.12 
" style="fill:none;stroke:#000000;stroke-linecap:square;stroke-linejoin:miter;stroke-width:0.8;"/>
   </g>
   <g id="patch_4">
    <path d="M 364.903125 241.56 
L 364.903125 24.12 
" style="fill:none;stroke:#000000;stroke-linecap:square;stroke-linejoin:miter;stroke-width:0.8;"/>
   </g>
   <g id="patch_5">
    <path d="M 30.103125 241.56 
L 364.903125 241.56 
" style="fill:none;stroke:#000000;stroke-linecap:square;stroke-linejoin:miter;stroke-width:0.8;"/>
   </g>
   <g id="patch_6">
    <path d="M 30.103125 24.12 
L 364.903125 24.12 
" style="fill:none;stroke:#000000;stroke-linecap:square;stroke-linejoin:miter;stroke-width:0.8;"/>
   </g>
   <g id="text_16">
    <!-- $\chi^2_k$ for k degrees of freedom -->
    <defs>
     <path d="M 30.03125 -12.203125 
L 26.421875 6.5 
L 6.15625 -20.84375 
L -4.4375 -20.84375 
L 24.265625 17.828125 
L 19.828125 40.828125 
Q 18.65625 46.96875 11.140625 46.96875 
L 8.734375 46.96875 
L 10.203125 54.6875 
L 13.625 54.59375 
Q 26.171875 54.25 27.734375 46.09375 
L 31.34375 27.390625 
L 51.609375 54.734375 
L 62.203125 54.734375 
L 33.5 16.0625 
L 37.9375 -6.9375 
Q 39.109375 -13.09375 46.625 -13.09375 
L 49.03125 -13.09375 
L 47.5625 -20.796875 
L 44.140625 -20.703125 
Q 31.59375 -20.359375 30.03125 -12.203125 
z
" id="DejaVuSans-Oblique-3c7"/>
     <path d="M 18.3125 75.984375 
L 27.296875 75.984375 
L 18.703125 31.6875 
L 49.515625 54.6875 
L 61.1875 54.6875 
L 26.8125 28.515625 
L 51.90625 0 
L 41.015625 0 
L 17.671875 26.703125 
L 12.5 0 
L 3.515625 0 
z
" id="DejaVuSans-Oblique-6b"/>
     <path id="DejaVuSans-20"/>
     <path d="M 37.109375 75.984375 
L 37.109375 68.5 
L 28.515625 68.5 
Q 23.6875 68.5 21.796875 66.546875 
Q 19.921875 64.59375 19.921875 59.515625 
L 19.921875 54.6875 
L 34.71875 54.6875 
L 34.71875 47.703125 
L 19.921875 47.703125 
L 19.921875 0 
L 10.890625 0 
L 10.890625 47.703125 
L 2.296875 47.703125 
L 2.296875 54.6875 
L 10.890625 54.6875 
L 10.890625 58.5 
Q 10.890625 67.625 15.140625 71.796875 
Q 19.390625 75.984375 28.609375 75.984375 
z
" id="DejaVuSans-66"/>
     <path d="M 30.609375 48.390625 
Q 23.390625 48.390625 19.1875 42.75 
Q 14.984375 37.109375 14.984375 27.296875 
Q 14.984375 17.484375 19.15625 11.84375 
Q 23.34375 6.203125 30.609375 6.203125 
Q 37.796875 6.203125 41.984375 11.859375 
Q 46.1875 17.53125 46.1875 27.296875 
Q 46.1875 37.015625 41.984375 42.703125 
Q 37.796875 48.390625 30.609375 48.390625 
z
M 30.609375 56 
Q 42.328125 56 49.015625 48.375 
Q 55.71875 40.765625 55.71875 27.296875 
Q 55.71875 13.875 49.015625 6.21875 
Q 42.328125 -1.421875 30.609375 -1.421875 
Q 18.84375 -1.421875 12.171875 6.21875 
Q 5.515625 13.875 5.515625 27.296875 
Q 5.515625 40.765625 12.171875 48.375 
Q 18.84375 56 30.609375 56 
z
" id="DejaVuSans-6f"/>
     <path d="M 41.109375 46.296875 
Q 39.59375 47.171875 37.8125 47.578125 
Q 36.03125 48 33.890625 48 
Q 26.265625 48 22.1875 43.046875 
Q 18.109375 38.09375 18.109375 28.8125 
L 18.109375 0 
L 9.078125 0 
L 9.078125 54.6875 
L 18.109375 54.6875 
L 18.109375 46.1875 
Q 20.953125 51.171875 25.484375 53.578125 
Q 30.03125 56 36.53125 56 
Q 37.453125 56 38.578125 55.875 
Q 39.703125 55.765625 41.0625 55.515625 
z
" id="DejaVuSans-72"/>
     <path d="M 9.078125 75.984375 
L 18.109375 75.984375 
L 18.109375 31.109375 
L 44.921875 54.6875 
L 56.390625 54.6875 
L 27.390625 29.109375 
L 57.625 0 
L 45.90625 0 
L 18.109375 26.703125 
L 18.109375 0 
L 9.078125 0 
z
" id="DejaVuSans-6b"/>
     <path d="M 45.40625 46.390625 
L 45.40625 75.984375 
L 54.390625 75.984375 
L 54.390625 0 
L 45.40625 0 
L 45.40625 8.203125 
Q 42.578125 3.328125 38.25 0.953125 
Q 33.9375 -1.421875 27.875 -1.421875 
Q 17.96875 -1.421875 11.734375 6.484375 
Q 5.515625 14.40625 5.515625 27.296875 
Q 5.515625 40.1875 11.734375 48.09375 
Q 17.96875 56 27.875 56 
Q 33.9375 56 38.25 53.625 
Q 42.578125 51.265625 45.40625 46.390625 
z
M 14.796875 27.296875 
Q 14.796875 17.390625 18.875 11.75 
Q 22.953125 6.109375 30.078125 6.109375 
Q 37.203125 6.109375 41.296875 11.75 
Q 45.40625 17.390625 45.40625 27.296875 
Q 45.40625 37.203125 41.296875 42.84375 
Q 37.203125 48.484375 30.078125 48.484375 
Q 22.953125 48.484375 18.875 42.84375 
Q 14.796875 37.203125 14.796875 27.296875 
z
" id="DejaVuSans-64"/>
     <path d="M 56.203125 29.59375 
L 56.203125 25.203125 
L 14.890625 25.203125 
Q 15.484375 15.921875 20.484375 11.0625 
Q 25.484375 6.203125 34.421875 6.203125 
Q 39.59375 6.203125 44.453125 7.46875 
Q 49.3125 8.734375 54.109375 11.28125 
L 54.109375 2.78125 
Q 49.265625 0.734375 44.1875 -0.34375 
Q 39.109375 -1.421875 33.890625 -1.421875 
Q 20.796875 -1.421875 13.15625 6.1875 
Q 5.515625 13.8125 5.515625 26.8125 
Q 5.515625 40.234375 12.765625 48.109375 
Q 20.015625 56 32.328125 56 
Q 43.359375 56 49.78125 48.890625 
Q 56.203125 41.796875 56.203125 29.59375 
z
M 47.21875 32.234375 
Q 47.125 39.59375 43.09375 43.984375 
Q 39.0625 48.390625 32.421875 48.390625 
Q 24.90625 48.390625 20.390625 44.140625 
Q 15.875 39.890625 15.1875 32.171875 
z
" id="DejaVuSans-65"/>
     <path d="M 45.40625 27.984375 
Q 45.40625 37.75 41.375 43.109375 
Q 37.359375 48.484375 30.078125 48.484375 
Q 22.859375 48.484375 18.828125 43.109375 
Q 14.796875 37.75 14.796875 27.984375 
Q 14.796875 18.265625 18.828125 12.890625 
Q 22.859375 7.515625 30.078125 7.515625 
Q 37.359375 7.515625 41.375 12.890625 
Q 45.40625 18.265625 45.40625 27.984375 
z
M 54.390625 6.78125 
Q 54.390625 -7.171875 48.1875 -13.984375 
Q 42 -20.796875 29.203125 -20.796875 
Q 24.46875 -20.796875 20.265625 -20.09375 
Q 16.0625 -19.390625 12.109375 -17.921875 
L 12.109375 -9.1875 
Q 16.0625 -11.328125 19.921875 -12.34375 
Q 23.78125 -13.375 27.78125 -13.375 
Q 36.625 -13.375 41.015625 -8.765625 
Q 45.40625 -4.15625 45.40625 5.171875 
L 45.40625 9.625 
Q 42.625 4.78125 38.28125 2.390625 
Q 33.9375 0 27.875 0 
Q 17.828125 0 11.671875 7.65625 
Q 5.515625 15.328125 5.515625 27.984375 
Q 5.515625 40.671875 11.671875 48.328125 
Q 17.828125 56 27.875 56 
Q 33.9375 56 38.28125 53.609375 
Q 42.625 51.21875 45.40625 46.390625 
L 45.40625 54.6875 
L 54.390625 54.6875 
z
" id="DejaVuSans-67"/>
     <path d="M 44.28125 53.078125 
L 44.28125 44.578125 
Q 40.484375 46.53125 36.375 47.5 
Q 32.28125 48.484375 27.875 48.484375 
Q 21.1875 48.484375 17.84375 46.4375 
Q 14.5 44.390625 14.5 40.28125 
Q 14.5 37.15625 16.890625 35.375 
Q 19.28125 33.59375 26.515625 31.984375 
L 29.59375 31.296875 
Q 39.15625 29.25 43.1875 25.515625 
Q 47.21875 21.78125 47.21875 15.09375 
Q 47.21875 7.46875 41.1875 3.015625 
Q 35.15625 -1.421875 24.609375 -1.421875 
Q 20.21875 -1.421875 15.453125 -0.5625 
Q 10.6875 0.296875 5.421875 2 
L 5.421875 11.28125 
Q 10.40625 8.6875 15.234375 7.390625 
Q 20.0625 6.109375 24.8125 6.109375 
Q 31.15625 6.109375 34.5625 8.28125 
Q 37.984375 10.453125 37.984375 14.40625 
Q 37.984375 18.0625 35.515625 20.015625 
Q 33.0625 21.96875 24.703125 23.78125 
L 21.578125 24.515625 
Q 13.234375 26.265625 9.515625 29.90625 
Q 5.8125 33.546875 5.8125 39.890625 
Q 5.8125 47.609375 11.28125 51.796875 
Q 16.75 56 26.8125 56 
Q 31.78125 56 36.171875 55.265625 
Q 40.578125 54.546875 44.28125 53.078125 
z
" id="DejaVuSans-73"/>
     <path d="M 52 44.1875 
Q 55.375 50.25 60.0625 53.125 
Q 64.75 56 71.09375 56 
Q 79.640625 56 84.28125 50.015625 
Q 88.921875 44.046875 88.921875 33.015625 
L 88.921875 0 
L 79.890625 0 
L 79.890625 32.71875 
Q 79.890625 40.578125 77.09375 44.375 
Q 74.3125 48.1875 68.609375 48.1875 
Q 61.625 48.1875 57.5625 43.546875 
Q 53.515625 38.921875 53.515625 30.90625 
L 53.515625 0 
L 44.484375 0 
L 44.484375 32.71875 
Q 44.484375 40.625 41.703125 44.40625 
Q 38.921875 48.1875 33.109375 48.1875 
Q 26.21875 48.1875 22.15625 43.53125 
Q 18.109375 38.875 18.109375 30.90625 
L 18.109375 0 
L 9.078125 0 
L 9.078125 54.6875 
L 18.109375 54.6875 
L 18.109375 46.1875 
Q 21.1875 51.21875 25.484375 53.609375 
Q 29.78125 56 35.6875 56 
Q 41.65625 56 45.828125 52.96875 
Q 50 49.953125 52 44.1875 
z
" id="DejaVuSans-6d"/>
    </defs>
    <g transform="translate(114.223125 18.12)scale(0.12 -0.12)">
     <use transform="translate(0 0.701562)" xlink:href="#DejaVuSans-Oblique-3c7"/>
     <use transform="translate(63.652396 39.046875)scale(0.7)" xlink:href="#DejaVuSans-32"/>
     <use transform="translate(59.179688 -26.642188)scale(0.7)" xlink:href="#DejaVuSans-Oblique-6b"/>
     <use transform="translate(110.922904 0.701562)" xlink:href="#DejaVuSans-20"/>
     <use transform="translate(142.710013 0.701562)" xlink:href="#DejaVuSans-66"/>
     <use transform="translate(177.915091 0.701562)" xlink:href="#DejaVuSans-6f"/>
     <use transform="translate(239.096732 0.701562)" xlink:href="#DejaVuSans-72"/>
     <use transform="translate(280.210013 0.701562)" xlink:href="#DejaVuSans-20"/>
     <use transform="translate(311.997122 0.701562)" xlink:href="#DejaVuSans-6b"/>
     <use transform="translate(369.907279 0.701562)" xlink:href="#DejaVuSans-20"/>
     <use transform="translate(401.694388 0.701562)" xlink:href="#DejaVuSans-64"/>
     <use transform="translate(465.170951 0.701562)" xlink:href="#DejaVuSans-65"/>
     <use transform="translate(526.694388 0.701562)" xlink:href="#DejaVuSans-67"/>
     <use transform="translate(590.170951 0.701562)" xlink:href="#DejaVuSans-72"/>
     <use transform="translate(631.284232 0.701562)" xlink:href="#DejaVuSans-65"/>
     <use transform="translate(692.807669 0.701562)" xlink:href="#DejaVuSans-65"/>
     <use transform="translate(754.331107 0.701562)" xlink:href="#DejaVuSans-73"/>
     <use transform="translate(806.430716 0.701562)" xlink:href="#DejaVuSans-20"/>
     <use transform="translate(838.217826 0.701562)" xlink:href="#DejaVuSans-6f"/>
     <use transform="translate(899.399466 0.701562)" xlink:href="#DejaVuSans-66"/>
     <use transform="translate(934.604544 0.701562)" xlink:href="#DejaVuSans-20"/>
     <use transform="translate(966.391654 0.701562)" xlink:href="#DejaVuSans-66"/>
     <use transform="translate(1001.596732 0.701562)" xlink:href="#DejaVuSans-72"/>
     <use transform="translate(1042.710013 0.701562)" xlink:href="#DejaVuSans-65"/>
     <use transform="translate(1104.233451 0.701562)" xlink:href="#DejaVuSans-65"/>
     <use transform="translate(1165.756888 0.701562)" xlink:href="#DejaVuSans-64"/>
     <use transform="translate(1229.233451 0.701562)" xlink:href="#DejaVuSans-6f"/>
     <use transform="translate(1290.415091 0.701562)" xlink:href="#DejaVuSans-6d"/>
    </g>
   </g>
   <g id="legend_1">
    <g id="patch_7">
     <path d="M 228.903125 76.154375 
L 357.903125 76.154375 
Q 359.903125 76.154375 359.903125 74.154375 
L 359.903125 31.12 
Q 359.903125 29.12 357.903125 29.12 
L 228.903125 29.12 
Q 226.903125 29.12 226.903125 31.12 
L 226.903125 74.154375 
Q 226.903125 76.154375 228.903125 76.154375 
z
" style="fill:#ffffff;opacity:0.8;stroke:#cccccc;stroke-linejoin:miter;"/>
    </g>
    <g id="line2d_22">
     <path d="M 230.903125 37.218438 
L 250.903125 37.218438 
" style="fill:none;stroke:#1f77b4;stroke-linecap:square;stroke-width:1.5;"/>
    </g>
    <g id="line2d_23"/>
    <g id="text_17">
     <!-- $k=1$ -->
     <defs>
      <path d="M 10.59375 45.40625 
L 73.1875 45.40625 
L 73.1875 37.203125 
L 10.59375 37.203125 
z
M 10.59375 25.484375 
L 73.1875 25.484375 
L 73.1875 17.1875 
L 10.59375 17.1875 
z
" id="DejaVuSans-3d"/>
     </defs>
     <g transform="translate(258.903125 40.718438)scale(0.1 -0.1)">
      <use transform="translate(0 0.015625)" xlink:href="#DejaVuSans-Oblique-6b"/>
      <use transform="translate(77.392578 0.015625)" xlink:href="#DejaVuSans-3d"/>
      <use transform="translate(180.664062 0.015625)" xlink:href="#DejaVuSans-31"/>
     </g>
    </g>
    <g id="line2d_24">
     <path d="M 230.903125 51.896563 
L 250.903125 51.896563 
" style="fill:none;stroke:#ff7f0e;stroke-linecap:square;stroke-width:1.5;"/>
    </g>
    <g id="line2d_25"/>
    <g id="text_18">
     <!-- $k=2$ -->
     <g transform="translate(258.903125 55.396563)scale(0.1 -0.1)">
      <use transform="translate(0 0.015625)" xlink:href="#DejaVuSans-Oblique-6b"/>
      <use transform="translate(77.392578 0.015625)" xlink:href="#DejaVuSans-3d"/>
      <use transform="translate(180.664062 0.015625)" xlink:href="#DejaVuSans-32"/>
     </g>
    </g>
    <g id="line2d_26">
     <path d="M 230.903125 66.574688 
L 250.903125 66.574688 
" style="fill:none;stroke:#2ca02c;stroke-linecap:square;stroke-width:1.5;"/>
    </g>
    <g id="line2d_27"/>
    <g id="text_19">
     <!-- $k=3$ -->
     <g transform="translate(258.903125 70.074688)scale(0.1 -0.1)">
      <use transform="translate(0 0.015625)" xlink:href="#DejaVuSans-Oblique-6b"/>
      <use transform="translate(77.392578 0.015625)" xlink:href="#DejaVuSans-3d"/>
      <use transform="translate(180.664062 0.015625)" xlink:href="#DejaVuSans-33"/>
     </g>
    </g>
    <g id="line2d_28">
     <path d="M 303.403125 37.218438 
L 323.403125 37.218438 
" style="fill:none;stroke:#d62728;stroke-linecap:square;stroke-width:1.5;"/>
    </g>
    <g id="line2d_29"/>
    <g id="text_20">
     <!-- $k=4$ -->
     <g transform="translate(331.403125 40.718438)scale(0.1 -0.1)">
      <use transform="translate(0 0.015625)" xlink:href="#DejaVuSans-Oblique-6b"/>
      <use transform="translate(77.392578 0.015625)" xlink:href="#DejaVuSans-3d"/>
      <use transform="translate(180.664062 0.015625)" xlink:href="#DejaVuSans-34"/>
     </g>
    </g>
    <g id="line2d_30">
     <path d="M 303.403125 51.896563 
L 323.403125 51.896563 
" style="fill:none;stroke:#9467bd;stroke-linecap:square;stroke-width:1.5;"/>
    </g>
    <g id="line2d_31"/>
    <g id="text_21">
     <!-- $k=5$ -->
     <g transform="translate(331.403125 55.396563)scale(0.1 -0.1)">
      <use transform="translate(0 0.015625)" xlink:href="#DejaVuSans-Oblique-6b"/>
      <use transform="translate(77.392578 0.015625)" xlink:href="#DejaVuSans-3d"/>
      <use transform="translate(180.664062 0.015625)" xlink:href="#DejaVuSans-35"/>
     </g>
    </g>
    <g id="line2d_32">
     <path d="M 303.403125 66.574688 
L 323.403125 66.574688 
" style="fill:none;stroke:#8c564b;stroke-linecap:square;stroke-width:1.5;"/>
    </g>
    <g id="line2d_33"/>
    <g id="text_22">
     <!-- $k=6$ -->
     <g transform="translate(331.403125 70.074688)scale(0.1 -0.1)">
      <use transform="translate(0 0.015625)" xlink:href="#DejaVuSans-Oblique-6b"/>
      <use transform="translate(77.392578 0.015625)" xlink:href="#DejaVuSans-3d"/>
      <use transform="translate(180.664062 0.015625)" xlink:href="#DejaVuSans-36"/>
     </g>
    </g>
   </g>
  </g>
 </g>
 <defs>
  <clipPath id="pe33cb50467">
   <rect height="217.44" width="334.8" x="30.103125" y="24.12"/>
  </clipPath>
 </defs>
</svg>
